<?xml version="1.0" encoding="utf-8"?>
<svg width="572px" height="184px" viewBox="0 0 572 184" version="1.1" xmlns:xlink="http://www.w3.org/1999/xlink" xmlns="http://www.w3.org/2000/svg">
  <defs>
    <path d="M0 0L100 0L100 119.394L0 119.394L0 0Z" id="path_1" />
    <clipPath id="mask_1">
      <use xlink:href="#path_1" />
    </clipPath>
  </defs>
  <g id="Group">
    <g id="apple-13">
      <path d="M0 0L100 0L100 119.394L0 119.394L0 0Z" id="Background" fill="none" fill-rule="evenodd" stroke="none" />
      <g clip-path="url(#mask_1)">
        <path d="M83.6079 62.8853C83.5547 53.135 87.9649 45.7758 96.8916 40.356C91.8969 33.2094 84.3518 29.2774 74.389 28.5069C64.9575 27.763 54.6493 34.0064 50.8767 34.0064C46.8916 34.0064 37.7524 28.7726 30.5792 28.7726C15.7545 29.0117 0 40.5951 0 64.1605C0 71.1212 1.27524 78.3121 3.82572 85.7333C7.22636 95.4836 19.5005 119.394 32.3061 118.996C39.0011 118.836 43.7301 114.24 52.4442 114.24C60.8927 114.24 65.2763 118.996 72.7418 118.996C85.6536 118.81 96.7588 97.0776 100 87.3008C82.678 79.1446 83.6079 63.39 83.6079 62.8853L83.6079 62.8853ZM68.5707 19.2614C75.8236 10.6536 75.1594 2.81615 74.9469 0C68.5441 0.371945 61.1318 4.35707 56.9075 9.27206C52.2582 14.5324 49.5218 21.0415 50.1063 28.3741C57.0404 28.9054 63.3634 25.3454 68.5707 19.2614L68.5707 19.2614Z" id="Shape" fill="#000000" fill-rule="evenodd" stroke="none" />
      </g>
    </g>
    <g id="AirPods" transform="translate(115 14.0000305)">
      <path d="M101.624 30.6304C106.995 30.6304 111.145 26.4189 111.145 21.353C111.145 16.2871 106.995 12.0757 101.624 12.0757C96.2524 12.0757 92.1021 16.2871 92.1021 21.353C92.1021 26.4189 96.2524 30.6304 101.624 30.6304ZM1.70898 104.483L21.0571 104.483L27.71 83.1206L58.8379 83.1206L65.4907 104.483L84.8389 104.483L54.1382 16.4092L32.4707 16.4092L1.70898 104.483ZM169.434 104.483L187.866 104.483L187.866 76.7119L204.834 76.7119C223.389 76.7119 235.779 64.749 235.779 46.6216L235.779 46.4995C235.779 28.3721 223.389 16.4092 204.834 16.4092L169.434 16.4092L169.434 104.483ZM340.942 105.826C350.403 105.826 357.605 101.065 361.084 93.3135L361.45 93.3135L361.45 104.483L379.272 104.483L379.272 16.4092L361.45 16.4092L361.45 50.4058L361.084 50.4058C357.544 42.4712 350.22 37.7104 340.942 37.7104C324.463 37.7104 314.331 50.4058 314.331 71.707L314.331 71.7681C314.331 93.0083 324.463 105.826 340.942 105.826ZM200.317 30.9966C210.876 30.9966 217.102 36.5508 217.102 46.5605L217.102 46.6826C217.102 56.6924 210.876 62.3076 200.317 62.3076L187.866 62.3076L187.866 30.9966L200.317 30.9966ZM43.0908 33.499L43.457 33.499L54.5654 69.3267L31.9824 69.3267L43.0908 33.499ZM140.259 104.483L122.437 104.483L122.437 39.0532L140.259 39.0532L140.259 50.4668L140.625 50.4668C142.578 42.4102 147.888 37.7104 155.518 37.7104C157.471 37.7104 159.302 38.0156 160.645 38.3818L160.645 54.0679C159.18 53.4575 156.738 53.0913 154.175 53.0913C145.386 53.0913 140.259 58.3403 140.259 67.8618L140.259 104.483ZM307.556 71.7681C307.556 93.1304 294.922 105.826 275.146 105.826C255.249 105.826 242.737 93.0693 242.737 71.7681L242.737 71.646C242.737 50.5889 255.554 37.7104 275.085 37.7104C294.678 37.7104 307.556 50.4668 307.556 71.646L307.556 71.7681ZM446.716 84.5854C446.716 97.4028 434.937 105.826 418.091 105.826C399.963 105.826 389.893 97.4639 388.489 85.0737L388.428 84.5244L405.823 84.5244L405.945 85.0737C407.104 90.2007 410.95 93.1914 418.091 93.1914C424.805 93.1914 428.894 90.5669 428.894 86.3555L428.894 86.2944C428.894 82.8154 426.697 80.8013 420.288 79.3975L409.18 77.0781C396.484 74.3926 390.076 68.0449 390.076 58.2793L390.076 58.2183C390.076 45.7671 400.818 37.7104 417.48 37.7104C434.875 37.7104 444.58 46.9268 445.007 58.4014L445.007 59.0117L428.589 59.0117L428.528 58.5234C427.917 53.8237 424.072 50.2837 417.48 50.2837C411.316 50.2837 407.471 53.0303 407.471 57.2417L407.471 57.3027C407.471 60.6597 409.729 62.8569 416.321 64.2607L427.429 66.6411C441.101 69.5098 446.716 74.8809 446.716 84.5244L446.716 84.5854ZM110.535 104.483L110.535 39.0532L92.7124 39.0532L92.7124 104.483L110.535 104.483ZM260.864 71.7681C260.864 84.5854 266.418 91.8486 275.208 91.8486C283.875 91.8486 289.429 84.5244 289.429 71.7681L289.429 71.646C289.429 59.0117 283.752 51.6875 275.085 51.6875C266.479 51.6875 260.864 59.0117 260.864 71.646L260.864 71.7681ZM346.924 91.0552C338.013 91.0552 332.458 83.6699 332.458 71.7681L332.458 71.707C332.458 59.7441 338.074 52.481 346.924 52.481C355.53 52.481 361.511 59.9272 361.511 71.707L361.511 71.7681C361.511 83.6089 355.591 91.0552 346.924 91.0552Z" />
    </g>
  </g>
  <g id="It's-magic,-remastered." transform="translate(114.00012 133.00003)">
    <path d="M2.87109 40.063L6.5625 40.063L6.5625 10.4702L2.87109 10.4702L2.87109 40.063ZM28.7109 20.9087L26.127 20.9087L25.7168 10.4702L29.1211 10.4702L28.7109 20.9087ZM373.878 40.4731C376.934 40.4731 379.312 38.9351 380.646 36.4536L380.728 36.4536L380.728 40.063L384.296 40.063L384.296 10.4702L380.728 10.4702L380.728 22.3032L380.646 22.3032C379.312 19.8423 376.831 18.3247 373.816 18.3247C368.464 18.3247 364.813 22.6519 364.813 29.3784L364.813 29.3989C364.813 36.1255 368.423 40.4731 373.878 40.4731ZM143.104 15.1255C144.354 15.1255 145.339 14.1206 145.339 12.8901C145.339 11.6392 144.354 10.6548 143.104 10.6548C141.873 10.6548 140.868 11.6392 140.868 12.8901C140.868 14.1206 141.873 15.1255 143.104 15.1255ZM18.6826 40.4731C19.3799 40.4731 20.1387 40.3911 20.5898 40.3296L20.5898 37.438C20.2822 37.4585 19.8721 37.52 19.4414 37.52C17.5342 37.52 16.5293 36.8843 16.5293 34.6079L16.5293 21.688L20.5898 21.688L20.5898 18.7349L16.5293 18.7349L16.5293 12.9722L12.8379 12.9722L12.8379 18.7349L9.7207 18.7349L9.7207 21.688L12.8379 21.688L12.8379 34.6284C12.8379 38.7095 14.7656 40.4731 18.6826 40.4731ZM304.172 40.4731C304.869 40.4731 305.628 40.3911 306.079 40.3296L306.079 37.438C305.771 37.4585 305.361 37.52 304.931 37.52C303.023 37.52 302.019 36.8843 302.019 34.6079L302.019 21.688L306.079 21.688L306.079 18.7349L302.019 18.7349L302.019 12.9722L298.327 12.9722L298.327 18.7349L295.21 18.7349L295.21 21.688L298.327 21.688L298.327 34.6284C298.327 38.7095 300.255 40.4731 304.172 40.4731ZM42.6357 40.4731C47.3936 40.4731 50.9209 37.8481 50.9209 34.1157L50.9209 34.0952C50.9209 31.0601 49.3623 29.3579 45.0557 28.312L41.6719 27.4917C39.3135 26.9175 38.3496 25.9126 38.3496 24.4565L38.3496 24.436C38.3496 22.5493 39.9492 21.2983 42.5332 21.2983C45.1787 21.2983 46.7578 22.6724 47.0449 24.7437L47.0654 24.8872L50.4697 24.8872L50.4492 24.6206C50.1826 21.0522 47.209 18.3247 42.5332 18.3247C37.9189 18.3247 34.6992 20.9292 34.6992 24.6001L34.6992 24.6206C34.6992 27.6968 36.6475 29.563 40.667 30.5269L44.0508 31.3472C46.4707 31.9419 47.2705 32.8032 47.2705 34.3413L47.2705 34.3618C47.2705 36.2896 45.5479 37.4995 42.6562 37.4995C39.7441 37.4995 38.165 36.2485 37.7344 34.1157L37.6934 33.9106L34.125 33.9106L34.1455 34.0952C34.5762 37.9097 37.6113 40.4731 42.6357 40.4731ZM66.7939 40.063L63.2256 40.063L63.2256 18.7349L66.7939 18.7349L66.7939 21.8521L66.876 21.8521C67.8398 19.7397 69.9727 18.3247 72.7207 18.3247C75.6328 18.3247 77.7861 19.8218 78.709 22.4263L78.791 22.4263C79.9805 19.8628 82.4824 18.3247 85.4766 18.3247C89.7012 18.3247 92.4287 21.0933 92.4287 25.3384L92.4287 40.063L88.8604 40.063L88.8604 26.1587C88.8604 23.2261 87.2402 21.4829 84.4307 21.4829C81.6006 21.4829 79.6113 23.5952 79.6113 26.5073L79.6113 40.063L76.043 40.063L76.043 25.769C76.043 23.1851 74.3203 21.4829 71.6748 21.4829C68.8447 21.4829 66.7939 23.7183 66.7939 26.6919L66.7939 40.063ZM103.195 40.4731C106.046 40.4731 108.609 38.9351 109.86 36.5972L109.942 36.5972L109.942 40.063L113.511 40.063L113.511 25.3179C113.511 21.0522 110.353 18.3247 105.308 18.3247C100.283 18.3247 97.2275 21.1548 96.9199 24.6616L96.8994 24.8872L100.345 24.8872L100.386 24.7026C100.796 22.7954 102.519 21.4829 105.267 21.4829C108.24 21.4829 109.942 23.062 109.942 25.6665L109.942 27.4507L103.831 27.7993C98.9297 28.0864 96.0996 30.3628 96.0996 33.9927L96.0996 34.0337C96.0996 37.9097 98.9502 40.4731 103.195 40.4731ZM136.479 39.4683C136.479 44.4106 132.85 47.6509 127.066 47.6509C121.796 47.6509 118.474 45.1694 117.776 42.0112L117.735 41.8267L121.324 41.8267L121.406 42.0112C122.083 43.5493 124.113 44.4927 127.025 44.4927C130.778 44.4927 132.911 42.4214 132.911 39.1196L132.911 36.3921L132.829 36.3921C131.558 38.7505 129.097 40.2681 126.041 40.2681C120.668 40.2681 116.997 35.9409 116.997 29.2759L116.997 29.2554C116.997 22.6313 120.709 18.3247 126.123 18.3247C129.138 18.3247 131.517 19.9653 132.829 22.3442L132.911 22.3442L132.911 18.7349L136.479 18.7349L136.479 39.4683ZM167.487 33.2749C166.913 37.3354 163.406 40.4731 158.587 40.4731C152.537 40.4731 148.702 36.1665 148.702 29.3784L148.702 29.3579C148.702 22.6313 152.619 18.3247 158.546 18.3247C163.857 18.3247 166.995 21.8521 167.446 25.5024L167.467 25.6665L163.98 25.6665L163.939 25.5024C163.406 23.3696 161.684 21.4829 158.546 21.4829C154.834 21.4829 152.353 24.5591 152.353 29.3989L152.353 29.4194C152.353 34.3823 154.896 37.3149 158.587 37.3149C161.499 37.3149 163.365 35.6743 163.96 33.2954L164.001 33.1313L167.508 33.1313L167.487 33.2749ZM191.994 40.063L188.426 40.063L188.426 18.7349L191.994 18.7349L191.994 22.3442L192.076 22.3442C192.794 19.8833 194.64 18.3247 197.039 18.3247C197.654 18.3247 198.188 18.4272 198.475 18.4683L198.475 21.9341C198.188 21.8315 197.429 21.729 196.567 21.729C193.799 21.729 191.994 23.6567 191.994 26.897L191.994 40.063ZM210.144 40.4731C214.799 40.4731 218.285 37.6841 218.982 34.1567L219.023 33.9517L215.517 33.9517L215.455 34.1362C214.84 35.9614 212.933 37.3149 210.226 37.3149C206.432 37.3149 204.012 34.7515 203.93 30.3628L219.29 30.3628L219.29 29.0503C219.29 22.6519 215.742 18.3247 209.918 18.3247C204.094 18.3247 200.32 22.8569 200.32 29.4604L200.32 29.481C200.32 36.187 204.012 40.4731 210.144 40.4731ZM226.447 40.063L222.879 40.063L222.879 18.7349L226.447 18.7349L226.447 21.8521L226.529 21.8521C227.493 19.7397 229.626 18.3247 232.374 18.3247C235.286 18.3247 237.439 19.8218 238.362 22.4263L238.444 22.4263C239.634 19.8628 242.136 18.3247 245.13 18.3247C249.354 18.3247 252.082 21.0933 252.082 25.3384L252.082 40.063L248.514 40.063L248.514 26.1587C248.514 23.2261 246.894 21.4829 244.084 21.4829C241.254 21.4829 239.265 23.5952 239.265 26.5073L239.265 40.063L235.696 40.063L235.696 25.769C235.696 23.1851 233.974 21.4829 231.328 21.4829C228.498 21.4829 226.447 23.7183 226.447 26.6919L226.447 40.063ZM262.849 40.4731C265.699 40.4731 268.263 38.9351 269.514 36.5972L269.596 36.5972L269.596 40.063L273.164 40.063L273.164 25.3179C273.164 21.0522 270.006 18.3247 264.961 18.3247C259.937 18.3247 256.881 21.1548 256.573 24.6616L256.553 24.8872L259.998 24.8872L260.039 24.7026C260.449 22.7954 262.172 21.4829 264.92 21.4829C267.894 21.4829 269.596 23.062 269.596 25.6665L269.596 27.4507L263.484 27.7993C258.583 28.0864 255.753 30.3628 255.753 33.9927L255.753 34.0337C255.753 37.9097 258.604 40.4731 262.849 40.4731ZM293.549 34.1157C293.549 37.8481 290.021 40.4731 285.264 40.4731C280.239 40.4731 277.204 37.9097 276.773 34.0952L276.753 33.9106L280.321 33.9106L280.362 34.1157C280.793 36.2485 282.372 37.4995 285.284 37.4995C288.176 37.4995 289.898 36.2896 289.898 34.3618L289.898 34.3413C289.898 32.8032 289.099 31.9419 286.679 31.3472L283.295 30.5269C279.275 29.563 277.327 27.6968 277.327 24.6206L277.327 24.6001C277.327 20.9292 280.547 18.3247 285.161 18.3247C289.837 18.3247 292.811 21.0522 293.077 24.6206L293.098 24.8872L289.693 24.8872L289.673 24.7437C289.386 22.6724 287.807 21.2983 285.161 21.2983C282.577 21.2983 280.978 22.5493 280.978 24.436L280.978 24.4565C280.978 25.9126 281.941 26.9175 284.3 27.4917L287.684 28.312C291.99 29.3579 293.549 31.0601 293.549 34.0952L293.549 34.1157ZM327.51 34.1567C326.812 37.6841 323.326 40.4731 318.671 40.4731C312.539 40.4731 308.848 36.187 308.848 29.481L308.848 29.4604C308.848 22.8569 312.621 18.3247 318.445 18.3247C324.27 18.3247 327.817 22.6519 327.817 29.0503L327.817 30.3628L312.457 30.3628C312.539 34.7515 314.959 37.3149 318.753 37.3149C321.46 37.3149 323.367 35.9614 323.982 34.1362L324.044 33.9517L327.551 33.9517L327.51 34.1567ZM331.406 40.063L334.975 40.063L334.975 26.897C334.975 23.6567 336.779 21.729 339.548 21.729C340.409 21.729 341.168 21.8315 341.455 21.9341L341.455 18.4683C341.168 18.4272 340.635 18.3247 340.02 18.3247C337.62 18.3247 335.774 19.8833 335.057 22.3442L334.975 22.3442L334.975 18.7349L331.406 18.7349L331.406 40.063ZM361.963 34.1567C361.266 37.6841 357.779 40.4731 353.124 40.4731C346.992 40.4731 343.301 36.187 343.301 29.481L343.301 29.4604C343.301 22.8569 347.074 18.3247 352.898 18.3247C358.723 18.3247 362.271 22.6519 362.271 29.0503L362.271 30.3628L346.91 30.3628C346.992 34.7515 349.412 37.3149 353.206 37.3149C355.913 37.3149 357.82 35.9614 358.436 34.1362L358.497 33.9517L362.004 33.9517L361.963 34.1567ZM144.888 40.063L144.888 18.7349L141.319 18.7349L141.319 40.063L144.888 40.063ZM120.647 29.2759C120.647 34.1157 123.026 37.1099 126.82 37.1099C130.45 37.1099 132.911 34.0132 132.911 29.2759L132.911 29.2554C132.911 24.5591 130.43 21.4829 126.82 21.4829C123.026 21.4829 120.647 24.5181 120.647 29.2554L120.647 29.2759ZM209.897 21.4829C213.015 21.4829 215.312 23.4312 215.66 27.5737L203.991 27.5737C204.381 23.5952 206.801 21.4829 209.897 21.4829ZM324.188 27.5737C323.839 23.4312 321.542 21.4829 318.425 21.4829C315.328 21.4829 312.908 23.5952 312.519 27.5737L324.188 27.5737ZM358.641 27.5737C358.292 23.4312 355.995 21.4829 352.878 21.4829C349.781 21.4829 347.361 23.5952 346.972 27.5737L358.641 27.5737ZM374.575 37.3149C370.802 37.3149 368.464 34.3003 368.464 29.3989L368.464 29.3784C368.464 24.5181 370.802 21.4829 374.575 21.4829C378.164 21.4829 380.748 24.6206 380.748 29.3784L380.748 29.3989C380.748 34.1772 378.185 37.3149 374.575 37.3149ZM99.75 34.0337L99.75 33.9927C99.75 32.0034 101.391 30.7319 104.241 30.5679L109.942 30.2192L109.942 31.9624C109.942 35.0591 107.358 37.3765 103.995 37.3765C101.432 37.3765 99.75 36.0845 99.75 34.0337ZM259.403 34.0337L259.403 33.9927C259.403 32.0034 261.044 30.7319 263.895 30.5679L269.596 30.2192L269.596 31.9624C269.596 35.0591 267.012 37.3765 263.648 37.3765C261.085 37.3765 259.403 36.0845 259.403 34.0337ZM393.647 38.0122C393.647 39.3247 392.622 40.3501 391.31 40.3501C389.997 40.3501 388.972 39.3247 388.972 38.0122C388.972 36.6997 389.997 35.6743 391.31 35.6743C392.622 35.6743 393.647 36.6997 393.647 38.0122ZM169.354 45.8667L171.896 45.8667L174.891 35.8384L171.158 35.8384L169.354 45.8667Z" />
  </g>
</svg>