<?xml version="1.0" encoding="utf-8"?>
<svg width="514px" height="219px" viewBox="0 0 514 219" version="1.1" xmlns:xlink="http://www.w3.org/1999/xlink" xmlns="http://www.w3.org/2000/svg">
  <defs>
    <path d="M0 0L76.5483 0L76.5483 91.3943L0 91.3943L0 0Z" id="path_1" />
    <clipPath id="mask_1">
      <use xlink:href="#path_1" />
    </clipPath>
  </defs>
  <g id="Group-3" transform="translate(72.45172 0)">
    <g id="apple-13" transform="translate(0 14)">
      <path d="M0 0L76.5483 0L76.5483 91.3943L0 91.3943L0 0Z" id="Background" fill="none" fill-rule="evenodd" stroke="none" />
      <g clip-path="url(#mask_1)">
        <path d="M64.0004 48.1376C63.9597 40.6739 67.3357 35.0406 74.1689 30.8918C70.3455 25.4212 64.5698 22.4113 56.9435 21.8215C49.7239 21.2521 41.8331 26.0313 38.9453 26.0313C35.8947 26.0313 28.8988 22.0249 23.4078 22.0249C12.0598 22.2079 0 31.0749 0 49.1138C0 54.442 0.976174 59.9466 2.92852 65.6274C5.53165 73.091 14.9273 91.3943 24.7297 91.0893C29.8547 90.9672 33.4746 87.449 40.1451 87.449C46.6123 87.449 49.9679 91.0893 55.6826 91.0893C65.5663 90.9469 74.0672 74.3113 76.5483 66.8273C63.2886 60.5838 64.0004 48.524 64.0004 48.1376L64.0004 48.1376ZM52.4897 14.7443C58.0417 8.15512 57.5333 2.15572 57.3706 0C52.4694 0.284718 46.7954 3.33526 43.5618 7.0976C40.0028 11.1243 37.9081 16.1069 38.3555 21.7199C43.6635 22.1266 48.5037 19.4015 52.4897 14.7443L52.4897 14.7443Z" id="Shape" fill="#000000" fill-rule="evenodd" stroke="none" />
      </g>
    </g>
    <g id="Card" transform="translate(91.54828 0)">
      <path d="M84.9609 73.9043C83.252 92.6421 67.8101 106.009 46.5088 106.009C20.752 106.009 4.57764 88.7969 4.57764 60.4155L4.57764 60.3545C4.57764 31.9731 20.813 14.8833 46.5088 14.8833C67.8711 14.8833 83.1909 28.3721 84.8999 47.0488L84.9609 47.5981L67.0166 47.5981L66.7725 46.5605C64.6973 36.856 57.4951 30.5083 46.5088 30.5083C32.4097 30.5083 23.3765 41.8608 23.3765 60.2935L23.3765 60.3545C23.3765 78.9092 32.4097 90.3838 46.5088 90.3838C57.1289 90.3838 64.5752 84.2803 66.9556 73.8433L67.0776 73.2329L85.022 73.2329L84.9609 73.9043ZM253.113 93.3135C249.634 101.065 242.432 105.826 232.971 105.826C216.492 105.826 206.36 93.0083 206.36 71.7681L206.36 71.707C206.36 50.4058 216.492 37.7104 232.971 37.7104C242.249 37.7104 249.573 42.4712 253.113 50.4058L253.479 50.4058L253.479 16.4092L271.301 16.4092L271.301 104.483L253.479 104.483L253.479 93.3135L253.113 93.3135ZM133.606 94.7173C129.883 101.431 122.925 105.521 114.319 105.521C101.196 105.521 92.3462 97.2808 92.3462 85.7451L92.3462 85.623C92.3462 73.7212 101.562 66.7632 117.798 65.7256L133.972 64.749L133.972 60.7207C133.972 54.9224 130.188 51.3213 123.23 51.3213C116.577 51.3213 112.549 54.4341 111.694 58.6455L111.572 59.1948L95.2759 59.1948L95.3369 58.4624C96.3135 46.3774 106.689 37.7104 123.962 37.7104C140.869 37.7104 151.794 46.4385 151.794 59.6221L151.794 104.483L133.972 104.483L133.972 94.7173L133.606 94.7173ZM163.269 104.483L181.091 104.483L181.091 67.8618C181.091 58.3403 186.218 53.0913 195.007 53.0913C197.571 53.0913 200.012 53.4575 201.477 54.0679L201.477 38.3818C200.134 38.0156 198.303 37.7104 196.35 37.7104C188.721 37.7104 183.411 42.4102 181.458 50.4668L181.091 50.4668L181.091 39.0532L163.269 39.0532L163.269 104.483ZM224.487 71.7681C224.487 83.6699 230.042 91.0552 238.953 91.0552C247.62 91.0552 253.54 83.6089 253.54 71.7681L253.54 71.707C253.54 59.9272 247.559 52.481 238.953 52.481C230.103 52.481 224.487 59.7441 224.487 71.707L224.487 71.7681ZM109.985 84.7075L109.985 84.8296C109.985 89.6514 113.953 92.52 120.117 92.52C128.113 92.52 133.972 87.3931 133.972 80.5571L133.972 75.8574L120.483 76.7119C113.586 77.1392 109.985 80.0688 109.985 84.7075Z" />
    </g>
  </g>
  <g id="A-new-kind-of-credit-card.-Cre" transform="translate(0 119)">
    <g id="A-new-kind-of-credit-card.">
      <path d="M263.474 39.7964L267.042 39.7964L267.042 21.4214L271.39 21.4214L271.39 18.4683L267.001 18.4683L267.001 15.8638C267.001 13.7515 267.986 12.7466 269.955 12.7466C270.508 12.7466 271.062 12.7671 271.493 12.8286L271.493 9.93701C270.959 9.85498 270.119 9.79346 269.319 9.79346C265.381 9.79346 263.474 11.7417 263.474 15.8433L263.474 18.4683L260.5 18.4683L260.5 21.4214L263.474 21.4214L263.474 39.7964ZM37.6011 39.7964L41.4771 39.7964L44.4712 31.3267L56.3862 31.3267L59.3804 39.7964L63.2563 39.7964L52.2642 10.2036L48.6138 10.2036L37.6011 39.7964ZM160.853 39.7964L157.285 39.7964L157.285 10.2036L160.853 10.2036L160.853 27.8813L160.935 27.8813L170.287 18.4683L174.614 18.4683L165.365 27.6763L174.901 39.7964L170.758 39.7964L162.842 29.8501L160.853 31.7573L160.853 39.7964ZM216.183 40.2065C219.239 40.2065 221.618 38.6685 222.951 36.187L223.033 36.187L223.033 39.7964L226.601 39.7964L226.601 10.2036L223.033 10.2036L223.033 22.0366L222.951 22.0366C221.618 19.5757 219.136 18.0581 216.122 18.0581C210.769 18.0581 207.119 22.3853 207.119 29.1118L207.119 29.1323C207.119 35.8589 210.728 40.2065 216.183 40.2065ZM347.208 40.2065C350.263 40.2065 352.642 38.6685 353.975 36.187L354.057 36.187L354.057 39.7964L357.625 39.7964L357.625 10.2036L354.057 10.2036L354.057 22.0366L353.975 22.0366C352.642 19.5757 350.161 18.0581 347.146 18.0581C341.793 18.0581 338.143 22.3853 338.143 29.1118L338.143 29.1323C338.143 35.8589 341.752 40.2065 347.208 40.2065ZM455.448 40.2065C458.503 40.2065 460.882 38.6685 462.215 36.187L462.297 36.187L462.297 39.7964L465.866 39.7964L465.866 10.2036L462.297 10.2036L462.297 22.0366L462.215 22.0366C460.882 19.5757 458.401 18.0581 455.386 18.0581C450.034 18.0581 446.383 22.3853 446.383 29.1118L446.383 29.1323C446.383 35.8589 449.993 40.2065 455.448 40.2065ZM179.392 14.8589C180.643 14.8589 181.627 13.854 181.627 12.6235C181.627 11.3726 180.643 10.3882 179.392 10.3882C178.162 10.3882 177.157 11.3726 177.157 12.6235C177.157 13.854 178.162 14.8589 179.392 14.8589ZM366.69 12.6235C366.69 13.854 365.706 14.8589 364.455 14.8589C363.224 14.8589 362.219 13.854 362.219 12.6235C362.219 11.3726 363.224 10.3882 364.455 10.3882C365.706 10.3882 366.69 11.3726 366.69 12.6235ZM378.031 40.2065C378.728 40.2065 379.487 40.1245 379.938 40.063L379.938 37.1714C379.63 37.1919 379.22 37.2534 378.79 37.2534C376.882 37.2534 375.877 36.6177 375.877 34.3413L375.877 21.4214L379.938 21.4214L379.938 18.4683L375.877 18.4683L375.877 12.7056L372.186 12.7056L372.186 18.4683L369.069 18.4683L369.069 21.4214L372.186 21.4214L372.186 34.3618C372.186 38.4429 374.114 40.2065 378.031 40.2065ZM50.3979 14.6333L50.48 14.6333L55.2788 28.189L45.5991 28.189L50.3979 14.6333ZM74.6997 39.7964L78.2681 39.7964L78.2681 27.2456C78.2681 23.6157 80.4624 21.2163 83.8257 21.2163C87.1069 21.2163 88.7271 23.1235 88.7271 26.5894L88.7271 39.7964L92.2954 39.7964L92.2954 25.9536C92.2954 21.0933 89.5884 18.0581 84.9126 18.0581C81.6724 18.0581 79.4985 19.5142 78.3501 21.5034L78.2681 21.5034L78.2681 18.4683L74.6997 18.4683L74.6997 39.7964ZM114.444 33.8901C113.747 37.4175 110.26 40.2065 105.605 40.2065C99.4731 40.2065 95.7817 35.9204 95.7817 29.2144L95.7817 29.1938C95.7817 22.5903 99.5552 18.0581 105.379 18.0581C111.204 18.0581 114.751 22.3853 114.751 28.7837L114.751 30.0962L99.3911 30.0962C99.4731 34.4849 101.893 37.0483 105.687 37.0483C108.394 37.0483 110.301 35.6948 110.917 33.8696L110.978 33.6851L114.485 33.6851L114.444 33.8901ZM189.605 39.7964L186.037 39.7964L186.037 18.4683L189.605 18.4683L189.605 21.5034L189.687 21.5034C190.835 19.5142 193.009 18.0581 196.25 18.0581C200.925 18.0581 203.632 21.0933 203.632 25.9536L203.632 39.7964L200.064 39.7964L200.064 26.5894C200.064 23.1235 198.444 21.2163 195.163 21.2163C191.799 21.2163 189.605 23.6157 189.605 27.2456L189.605 39.7964ZM258.737 29.1323C258.737 35.9409 254.758 40.2065 248.873 40.2065C242.946 40.2065 238.988 35.9204 238.988 29.1323L238.988 29.0913C238.988 22.3032 242.966 18.0581 248.852 18.0581C254.738 18.0581 258.737 22.2827 258.737 29.0913L258.737 29.1323ZM301.434 33.0083C300.86 37.0688 297.353 40.2065 292.534 40.2065C286.484 40.2065 282.649 35.8999 282.649 29.1118L282.649 29.0913C282.649 22.3647 286.566 18.0581 292.493 18.0581C297.804 18.0581 300.942 21.5854 301.393 25.2358L301.414 25.3999L297.927 25.3999L297.886 25.2358C297.353 23.103 295.63 21.2163 292.493 21.2163C288.781 21.2163 286.299 24.2925 286.299 29.1323L286.299 29.1528C286.299 34.1157 288.842 37.0483 292.534 37.0483C295.446 37.0483 297.312 35.4077 297.907 33.0288L297.948 32.8647L301.455 32.8647L301.434 33.0083ZM304.736 39.7964L308.304 39.7964L308.304 26.6304C308.304 23.3901 310.109 21.4624 312.877 21.4624C313.739 21.4624 314.498 21.5649 314.785 21.6675L314.785 18.2017C314.498 18.1606 313.964 18.0581 313.349 18.0581C310.95 18.0581 309.104 19.6167 308.386 22.0776L308.304 22.0776L308.304 18.4683L304.736 18.4683L304.736 39.7964ZM335.292 33.8901C334.595 37.4175 331.109 40.2065 326.454 40.2065C320.322 40.2065 316.63 35.9204 316.63 29.2144L316.63 29.1938C316.63 22.5903 320.404 18.0581 326.228 18.0581C332.052 18.0581 335.6 22.3853 335.6 28.7837L335.6 30.0962L320.24 30.0962C320.322 34.4849 322.742 37.0483 326.536 37.0483C329.243 37.0483 331.15 35.6948 331.765 33.8696L331.827 33.6851L335.333 33.6851L335.292 33.8901ZM410.105 33.0083C409.531 37.0688 406.024 40.2065 401.205 40.2065C395.155 40.2065 391.32 35.8999 391.32 29.1118L391.32 29.0913C391.32 22.3647 395.237 18.0581 401.164 18.0581C406.475 18.0581 409.613 21.5854 410.064 25.2358L410.084 25.3999L406.598 25.3999L406.557 25.2358C406.024 23.103 404.301 21.2163 401.164 21.2163C397.452 21.2163 394.97 24.2925 394.97 29.1323L394.97 29.1528C394.97 34.1157 397.513 37.0483 401.205 37.0483C404.117 37.0483 405.983 35.4077 406.578 33.0288L406.619 32.8647L410.125 32.8647L410.105 33.0083ZM419.641 40.2065C422.492 40.2065 425.055 38.6685 426.306 36.3306L426.388 36.3306L426.388 39.7964L429.957 39.7964L429.957 25.0513C429.957 20.7856 426.798 18.0581 421.753 18.0581C416.729 18.0581 413.673 20.8882 413.366 24.395L413.345 24.6206L416.791 24.6206L416.832 24.436C417.242 22.5288 418.964 21.2163 421.712 21.2163C424.686 21.2163 426.388 22.7954 426.388 25.3999L426.388 27.1841L420.277 27.5327C415.375 27.8198 412.545 30.0962 412.545 33.7261L412.545 33.7671C412.545 37.6431 415.396 40.2065 419.641 40.2065ZM438.057 39.7964L434.489 39.7964L434.489 18.4683L438.057 18.4683L438.057 22.0776L438.139 22.0776C438.857 19.6167 440.703 18.0581 443.102 18.0581C443.717 18.0581 444.25 18.1606 444.538 18.2017L444.538 21.6675C444.25 21.5649 443.492 21.4624 442.63 21.4624C439.862 21.4624 438.057 23.3901 438.057 26.6304L438.057 39.7964ZM122.565 39.7964L126.195 39.7964L130.994 23.2876L131.076 23.2876L135.895 39.7964L139.525 39.7964L145.472 18.4683L141.945 18.4683L137.679 35.8179L137.597 35.8179L132.757 18.4683L129.312 18.4683L124.493 35.8179L124.411 35.8179L120.145 18.4683L116.597 18.4683L122.565 39.7964ZM181.176 39.7964L181.176 18.4683L177.608 18.4683L177.608 39.7964L181.176 39.7964ZM111.122 27.3071C110.773 23.1646 108.476 21.2163 105.359 21.2163C102.262 21.2163 99.8423 23.3286 99.4526 27.3071L111.122 27.3071ZM216.88 37.0483C213.107 37.0483 210.769 34.0337 210.769 29.1323L210.769 29.1118C210.769 24.2515 213.107 21.2163 216.88 21.2163C220.469 21.2163 223.053 24.354 223.053 29.1118L223.053 29.1323C223.053 33.9106 220.49 37.0483 216.88 37.0483ZM366.239 39.7964L362.67 39.7964L362.67 18.4683L366.239 18.4683L366.239 39.7964ZM242.638 29.1323C242.638 34.1567 245.12 37.0483 248.893 37.0483C252.646 37.0483 255.086 34.1362 255.086 29.1323L255.086 29.0913C255.086 24.0874 252.625 21.2163 248.852 21.2163C245.14 21.2163 242.638 24.1079 242.638 29.0913L242.638 29.1323ZM331.97 27.3071C331.622 23.1646 329.325 21.2163 326.208 21.2163C323.111 21.2163 320.691 23.3286 320.301 27.3071L331.97 27.3071ZM347.905 37.0483C344.131 37.0483 341.793 34.0337 341.793 29.1323L341.793 29.1118C341.793 24.2515 344.131 21.2163 347.905 21.2163C351.494 21.2163 354.078 24.354 354.078 29.1118L354.078 29.1323C354.078 33.9106 351.514 37.0483 347.905 37.0483ZM456.145 37.0483C452.372 37.0483 450.034 34.0337 450.034 29.1323L450.034 29.1118C450.034 24.2515 452.372 21.2163 456.145 21.2163C459.734 21.2163 462.318 24.354 462.318 29.1118L462.318 29.1323C462.318 33.9106 459.754 37.0483 456.145 37.0483ZM416.196 33.7671L416.196 33.7261C416.196 31.7368 417.836 30.4653 420.687 30.3013L426.388 29.9526L426.388 31.6958C426.388 34.7925 423.804 37.1099 420.441 37.1099C417.877 37.1099 416.196 35.8179 416.196 33.7671ZM475.217 37.7456C475.217 39.0581 474.192 40.0835 472.879 40.0835C471.567 40.0835 470.542 39.0581 470.542 37.7456C470.542 36.4331 471.567 35.4077 472.879 35.4077C474.192 35.4077 475.217 36.4331 475.217 37.7456Z" />
    </g>
    <g id="Created-by-Apple,-not-a-bank.">
      <path d="M27.2959 81.2241C26.168 86.8843 21.4307 90.5552 15.2373 90.5552C7.01367 90.5552 1.72266 84.5669 1.72266 75.2563L1.72266 75.2358C1.72266 65.9253 6.99316 59.978 15.2373 59.978C21.3896 59.978 26.168 63.7104 27.2959 69.3091L27.3369 69.5142L23.6045 69.5142L23.4609 69.063C22.3125 65.4741 19.4004 63.3823 15.2373 63.3823C9.33105 63.3823 5.5166 68.0376 5.5166 75.2358L5.5166 75.2563C5.5166 82.4546 9.35156 87.1509 15.2373 87.1509C19.3799 87.1509 22.251 85.1001 23.543 81.2036L23.6045 81.019L27.3369 81.019L27.2959 81.2241ZM128.851 90.4731C131.906 90.4731 134.285 88.9351 135.618 86.4536L135.7 86.4536L135.7 90.063L139.269 90.063L139.269 60.4702L135.7 60.4702L135.7 72.3032L135.618 72.3032C134.285 69.8423 131.804 68.3247 128.789 68.3247C123.437 68.3247 119.786 72.6519 119.786 79.3784L119.786 79.3989C119.786 86.1255 123.396 90.4731 128.851 90.4731ZM172.368 79.3989C172.368 86.1255 168.759 90.4731 163.304 90.4731C160.248 90.4731 157.869 88.9351 156.536 86.4536L156.454 86.4536L156.454 90.063L152.886 90.063L152.886 60.4702L156.454 60.4702L156.454 72.3032L156.536 72.3032C157.869 69.8423 160.351 68.3247 163.365 68.3247C168.718 68.3247 172.368 72.6519 172.368 79.3784L172.368 79.3989ZM207.067 90.063L203.191 90.063L214.204 60.4702L217.854 60.4702L228.847 90.063L224.971 90.063L221.977 81.5933L210.062 81.5933L207.067 90.063ZM278.004 90.063L281.572 90.063L281.572 60.4702L278.004 60.4702L278.004 90.063ZM440.59 79.3989C440.59 86.1255 436.98 90.4731 431.525 90.4731C428.47 90.4731 426.091 88.9351 424.758 86.4536L424.676 86.4536L424.676 90.063L421.107 90.063L421.107 60.4702L424.676 60.4702L424.676 72.3032L424.758 72.3032C426.091 69.8423 428.572 68.3247 431.587 68.3247C436.939 68.3247 440.59 72.6519 440.59 79.3784L440.59 79.3989ZM487.676 90.063L491.244 90.063L491.244 82.0239L493.233 80.1167L501.149 90.063L505.292 90.063L495.756 77.9429L505.005 68.7349L500.678 68.7349L491.326 78.1479L491.244 78.1479L491.244 60.4702L487.676 60.4702L487.676 90.063ZM93.5977 90.4731C94.2949 90.4731 95.0537 90.3911 95.5049 90.3296L95.5049 87.438C95.1973 87.4585 94.7871 87.52 94.3564 87.52C92.4492 87.52 91.4443 86.8843 91.4443 84.6079L91.4443 71.688L95.5049 71.688L95.5049 68.7349L91.4443 68.7349L91.4443 62.9722L87.7529 62.9722L87.7529 68.7349L84.6357 68.7349L84.6357 71.688L87.7529 71.688L87.7529 84.6284C87.7529 88.7095 89.6807 90.4731 93.5977 90.4731ZM378.8 90.3296C378.349 90.3911 377.59 90.4731 376.893 90.4731C372.976 90.4731 371.048 88.7095 371.048 84.6284L371.048 71.688L367.931 71.688L367.931 68.7349L371.048 68.7349L371.048 62.9722L374.739 62.9722L374.739 68.7349L378.8 68.7349L378.8 71.688L374.739 71.688L374.739 84.6079C374.739 86.8843 375.744 87.52 377.651 87.52C378.082 87.52 378.492 87.4585 378.8 87.438L378.8 90.3296ZM216.07 64.8999L215.988 64.8999L211.189 78.4556L220.869 78.4556L216.07 64.8999ZM34.6992 90.063L31.1309 90.063L31.1309 68.7349L34.6992 68.7349L34.6992 72.3442L34.7812 72.3442C35.499 69.8833 37.3447 68.3247 39.7441 68.3247C40.3594 68.3247 40.8926 68.4272 41.1797 68.4683L41.1797 71.9341C40.8926 71.8315 40.1338 71.729 39.2725 71.729C36.5039 71.729 34.6992 73.6567 34.6992 76.897L34.6992 90.063ZM52.8486 90.4731C57.5039 90.4731 60.9902 87.6841 61.6875 84.1567L61.7285 83.9517L58.2217 83.9517L58.1602 84.1362C57.5449 85.9614 55.6377 87.3149 52.9307 87.3149C49.1367 87.3149 46.7168 84.7515 46.6348 80.3628L61.9951 80.3628L61.9951 79.0503C61.9951 72.6519 58.4473 68.3247 52.623 68.3247C46.7988 68.3247 43.0254 72.8569 43.0254 79.4604L43.0254 79.481C43.0254 86.187 46.7168 90.4731 52.8486 90.4731ZM78.4834 86.5972C77.2324 88.9351 74.6689 90.4731 71.8184 90.4731C67.5732 90.4731 64.7227 87.9097 64.7227 84.0337L64.7227 83.9927C64.7227 80.3628 67.5527 78.0864 72.4541 77.7993L78.5654 77.4507L78.5654 75.6665C78.5654 73.062 76.8633 71.4829 73.8896 71.4829C71.1416 71.4829 69.4189 72.7954 69.0088 74.7026L68.9678 74.8872L65.5225 74.8872L65.543 74.6616C65.8506 71.1548 68.9062 68.3247 73.9307 68.3247C78.9756 68.3247 82.1338 71.0522 82.1338 75.3179L82.1338 90.063L78.5654 90.063L78.5654 86.5972L78.4834 86.5972ZM116.936 84.1567C116.238 87.6841 112.752 90.4731 108.097 90.4731C101.965 90.4731 98.2734 86.187 98.2734 79.481L98.2734 79.4604C98.2734 72.8569 102.047 68.3247 107.871 68.3247C113.695 68.3247 117.243 72.6519 117.243 79.0503L117.243 80.3628L101.883 80.3628C101.965 84.7515 104.385 87.3149 108.179 87.3149C110.886 87.3149 112.793 85.9614 113.408 84.1362L113.47 83.9517L116.977 83.9517L116.936 84.1567ZM231.677 97.2407L235.245 97.2407L235.245 86.4946L235.327 86.4946C236.66 88.9556 239.142 90.4731 242.156 90.4731C247.509 90.4731 251.159 86.146 251.159 79.4194L251.159 79.3989C251.159 72.6724 247.55 68.3247 242.095 68.3247C239.039 68.3247 236.66 69.8628 235.327 72.3442L235.245 72.3442L235.245 68.7349L231.677 68.7349L231.677 97.2407ZM258.316 97.2407L254.748 97.2407L254.748 68.7349L258.316 68.7349L258.316 72.3442L258.398 72.3442C259.731 69.8628 262.11 68.3247 265.166 68.3247C270.621 68.3247 274.23 72.6724 274.23 79.3989L274.23 79.4194C274.23 86.146 270.58 90.4731 265.228 90.4731C262.213 90.4731 259.731 88.9556 258.398 86.4946L258.316 86.4946L258.316 97.2407ZM304.008 84.1567C303.311 87.6841 299.824 90.4731 295.169 90.4731C289.037 90.4731 285.346 86.187 285.346 79.481L285.346 79.4604C285.346 72.8569 289.119 68.3247 294.943 68.3247C300.768 68.3247 304.315 72.6519 304.315 79.0503L304.315 80.3628L288.955 80.3628C289.037 84.7515 291.457 87.3149 295.251 87.3149C297.958 87.3149 299.865 85.9614 300.48 84.1362L300.542 83.9517L304.049 83.9517L304.008 84.1567ZM329.109 90.063L325.541 90.063L325.541 68.7349L329.109 68.7349L329.109 71.77L329.191 71.77C330.34 69.7808 332.514 68.3247 335.754 68.3247C340.43 68.3247 343.137 71.3599 343.137 76.2202L343.137 90.063L339.568 90.063L339.568 76.856C339.568 73.3901 337.948 71.4829 334.667 71.4829C331.304 71.4829 329.109 73.8823 329.109 77.5122L329.109 90.063ZM356.508 90.4731C362.394 90.4731 366.372 86.2075 366.372 79.3989L366.372 79.3579C366.372 72.5493 362.373 68.3247 356.487 68.3247C350.602 68.3247 346.623 72.5698 346.623 79.3579L346.623 79.3989C346.623 86.187 350.581 90.4731 356.508 90.4731ZM397.462 90.4731C400.312 90.4731 402.876 88.9351 404.127 86.5972L404.209 86.5972L404.209 90.063L407.777 90.063L407.777 75.3179C407.777 71.0522 404.619 68.3247 399.574 68.3247C394.55 68.3247 391.494 71.1548 391.187 74.6616L391.166 74.8872L394.611 74.8872L394.652 74.7026C395.062 72.7954 396.785 71.4829 399.533 71.4829C402.507 71.4829 404.209 73.062 404.209 75.6665L404.209 77.4507L398.098 77.7993C393.196 78.0864 390.366 80.3628 390.366 83.9927L390.366 84.0337C390.366 87.9097 393.217 90.4731 397.462 90.4731ZM450.413 90.4731C453.264 90.4731 455.827 88.9351 457.078 86.5972L457.16 86.5972L457.16 90.063L460.729 90.063L460.729 75.3179C460.729 71.0522 457.57 68.3247 452.525 68.3247C447.501 68.3247 444.445 71.1548 444.138 74.6616L444.117 74.8872L447.562 74.8872L447.604 74.7026C448.014 72.7954 449.736 71.4829 452.484 71.4829C455.458 71.4829 457.16 73.062 457.16 75.6665L457.16 77.4507L451.049 77.7993C446.147 78.0864 443.317 80.3628 443.317 83.9927L443.317 84.0337C443.317 87.9097 446.168 90.4731 450.413 90.4731ZM468.829 90.063L465.261 90.063L465.261 68.7349L468.829 68.7349L468.829 71.77L468.911 71.77C470.06 69.7808 472.233 68.3247 475.474 68.3247C480.149 68.3247 482.856 71.3599 482.856 76.2202L482.856 90.063L479.288 90.063L479.288 76.856C479.288 73.3901 477.668 71.4829 474.387 71.4829C471.023 71.4829 468.829 73.8823 468.829 77.5122L468.829 90.063ZM178.008 97.2407C181.863 97.2407 183.729 95.4771 185.247 91.396L193.573 68.7349L189.82 68.7349L183.914 86.4946L183.832 86.4946L177.946 68.7349L174.132 68.7349L182.048 90.0835L181.617 91.2935C180.756 93.7134 179.505 94.2876 177.249 94.2876C176.818 94.2876 176.408 94.2261 176.101 94.1646L176.101 97.0767C176.552 97.1587 177.311 97.2407 178.008 97.2407ZM52.6025 71.4829C55.7197 71.4829 58.0166 73.4312 58.3652 77.5737L46.6963 77.5737C47.0859 73.5952 49.5059 71.4829 52.6025 71.4829ZM113.613 77.5737C113.265 73.4312 110.968 71.4829 107.851 71.4829C104.754 71.4829 102.334 73.5952 101.944 77.5737L113.613 77.5737ZM129.548 87.3149C125.774 87.3149 123.437 84.3003 123.437 79.3989L123.437 79.3784C123.437 74.5181 125.774 71.4829 129.548 71.4829C133.137 71.4829 135.721 74.6206 135.721 79.3784L135.721 79.3989C135.721 84.1772 133.157 87.3149 129.548 87.3149ZM156.434 79.3989C156.434 84.1772 158.997 87.3149 162.606 87.3149C166.38 87.3149 168.718 84.3003 168.718 79.3989L168.718 79.3784C168.718 74.5181 166.38 71.4829 162.606 71.4829C159.018 71.4829 156.434 74.6206 156.434 79.3784L156.434 79.3989ZM241.397 87.3149C237.809 87.3149 235.225 84.1772 235.225 79.4194L235.225 79.3989C235.225 74.6206 237.788 71.4829 241.397 71.4829C245.171 71.4829 247.509 74.4976 247.509 79.3989L247.509 79.4194C247.509 84.2798 245.171 87.3149 241.397 87.3149ZM258.296 79.4194C258.296 84.1772 260.88 87.3149 264.469 87.3149C268.242 87.3149 270.58 84.2798 270.58 79.4194L270.58 79.3989C270.58 74.4976 268.242 71.4829 264.469 71.4829C260.859 71.4829 258.296 74.6206 258.296 79.3989L258.296 79.4194ZM300.686 77.5737C300.337 73.4312 298.04 71.4829 294.923 71.4829C291.826 71.4829 289.406 73.5952 289.017 77.5737L300.686 77.5737ZM356.528 87.3149C352.755 87.3149 350.273 84.4233 350.273 79.3989L350.273 79.3579C350.273 74.3745 352.775 71.4829 356.487 71.4829C360.261 71.4829 362.722 74.354 362.722 79.3579L362.722 79.3989C362.722 84.4028 360.281 87.3149 356.528 87.3149ZM424.655 79.3989C424.655 84.1772 427.219 87.3149 430.828 87.3149C434.602 87.3149 436.939 84.3003 436.939 79.3989L436.939 79.3784C436.939 74.5181 434.602 71.4829 430.828 71.4829C427.239 71.4829 424.655 74.6206 424.655 79.3784L424.655 79.3989ZM68.373 83.9927L68.373 84.0337C68.373 86.0845 70.0547 87.3765 72.6182 87.3765C75.9814 87.3765 78.5654 85.0591 78.5654 81.9624L78.5654 80.2192L72.8643 80.5679C70.0137 80.7319 68.373 82.0034 68.373 83.9927ZM394.017 84.0337L394.017 83.9927C394.017 82.0034 395.657 80.7319 398.508 80.5679L404.209 80.2192L404.209 81.9624C404.209 85.0591 401.625 87.3765 398.262 87.3765C395.698 87.3765 394.017 86.0845 394.017 84.0337ZM446.968 84.0337L446.968 83.9927C446.968 82.0034 448.608 80.7319 451.459 80.5679L457.16 80.2192L457.16 81.9624C457.16 85.0591 454.576 87.3765 451.213 87.3765C448.649 87.3765 446.968 86.0845 446.968 84.0337ZM512.306 88.0122C512.306 89.3247 511.28 90.3501 509.968 90.3501C508.655 90.3501 507.63 89.3247 507.63 88.0122C507.63 86.6997 508.655 85.6743 509.968 85.6743C511.28 85.6743 512.306 86.6997 512.306 88.0122ZM306.469 95.8667L309.012 95.8667L312.006 85.8384L308.273 85.8384L306.469 95.8667Z" />
    </g>
  </g>
</svg>