<?xml version="1.0" encoding="utf-8"?>
<svg width="404px" height="219px" viewBox="0 0 404 219" version="1.1" xmlns:xlink="http://www.w3.org/1999/xlink" xmlns="http://www.w3.org/2000/svg">
  <defs>
    <path d="M0 0L76.5483 0L76.5483 91.3943L0 91.3943L0 0Z" id="path_1" />
    <clipPath id="mask_1">
      <use xlink:href="#path_1" />
    </clipPath>
  </defs>
  <g id="Group-3" transform="translate(31.451721 0)">
    <g id="apple-13" transform="translate(0 14)">
      <path d="M0 0L76.5483 0L76.5483 91.3943L0 91.3943L0 0Z" id="Background" fill="none" fill-rule="evenodd" stroke="none" />
      <g clip-path="url(#mask_1)">
        <path d="M64.0004 48.1376C63.9597 40.6739 67.3357 35.0406 74.1689 30.8918C70.3455 25.4212 64.5698 22.4113 56.9435 21.8215C49.7239 21.2521 41.8331 26.0313 38.9453 26.0313C35.8947 26.0313 28.8988 22.0249 23.4078 22.0249C12.0598 22.2079 0 31.0749 0 49.1138C0 54.442 0.976174 59.9466 2.92852 65.6274C5.53165 73.091 14.9273 91.3943 24.7297 91.0893C29.8547 90.9672 33.4746 87.449 40.1451 87.449C46.6123 87.449 49.9679 91.0893 55.6826 91.0893C65.5663 90.9469 74.0672 74.3113 76.5483 66.8273C63.2886 60.5838 64.0004 48.524 64.0004 48.1376L64.0004 48.1376ZM52.4897 14.7443C58.0417 8.15512 57.5333 2.15572 57.3706 0C52.4694 0.284718 46.7954 3.33526 43.5618 7.0976C40.0028 11.1243 37.9081 16.1069 38.3555 21.7199C43.6635 22.1266 48.5037 19.4015 52.4897 14.7443L52.4897 14.7443Z" id="Shape" fill="#000000" fill-rule="evenodd" stroke="none" />
      </g>
    </g>
    <g id="iPad" transform="translate(91.54828 0)">
      <path d="M24.5972 21.353C24.5972 26.4189 20.4468 30.6304 15.0757 30.6304C9.70459 30.6304 5.5542 26.4189 5.5542 21.353C5.5542 16.2871 9.70459 12.0757 15.0757 12.0757C20.4468 12.0757 24.5972 16.2871 24.5972 21.353ZM55.8472 104.483L37.4146 104.483L37.4146 16.4092L72.8149 16.4092C91.3696 16.4092 103.76 28.3721 103.76 46.4995L103.76 46.6216C103.76 64.749 91.3696 76.7119 72.8149 76.7119L55.8472 76.7119L55.8472 104.483ZM225.891 93.3135C222.412 101.065 215.21 105.826 205.75 105.826C189.27 105.826 179.138 93.0083 179.138 71.7681L179.138 71.707C179.138 50.4058 189.27 37.7104 205.75 37.7104C215.027 37.7104 222.351 42.4712 225.891 50.4058L226.257 50.4058L226.257 16.4092L244.08 16.4092L244.08 104.483L226.257 104.483L226.257 93.3135L225.891 93.3135ZM85.083 46.5605C85.083 36.5508 78.8574 30.9966 68.2983 30.9966L55.8472 30.9966L55.8472 62.3076L68.2983 62.3076C78.8574 62.3076 85.083 56.6924 85.083 46.6826L85.083 46.5605ZM132.568 105.521C141.174 105.521 148.132 101.431 151.855 94.7173L152.222 94.7173L152.222 104.483L170.044 104.483L170.044 59.6221C170.044 46.4385 159.119 37.7104 142.212 37.7104C124.939 37.7104 114.563 46.3774 113.586 58.4624L113.525 59.1948L129.822 59.1948L129.944 58.6455C130.798 54.4341 134.827 51.3213 141.479 51.3213C148.438 51.3213 152.222 54.9224 152.222 60.7207L152.222 64.749L136.047 65.7256C119.812 66.7632 110.596 73.7212 110.596 85.623L110.596 85.7451C110.596 97.2808 119.446 105.521 132.568 105.521ZM23.9868 39.0532L23.9868 104.483L6.16455 104.483L6.16455 39.0532L23.9868 39.0532ZM197.266 71.7681C197.266 83.6699 202.82 91.0552 211.731 91.0552C220.398 91.0552 226.318 83.6089 226.318 71.7681L226.318 71.707C226.318 59.9272 220.337 52.481 211.731 52.481C202.881 52.481 197.266 59.7441 197.266 71.707L197.266 71.7681ZM128.235 84.8296L128.235 84.7075C128.235 80.0688 131.836 77.1392 138.733 76.7119L152.222 75.8574L152.222 80.5571C152.222 87.3931 146.362 92.52 138.367 92.52C132.202 92.52 128.235 89.6514 128.235 84.8296Z" />
    </g>
  </g>
  <g id="Delightfully-capable.-Surprisi" transform="translate(0 119)">
    <g id="Delightfully-capable.">
      <path d="M157.059 39.7964L153.491 39.7964L153.491 21.4214L150.517 21.4214L150.517 18.4683L153.491 18.4683L153.491 15.8433C153.491 11.7417 155.398 9.79346 159.335 9.79346C160.135 9.79346 160.976 9.85498 161.509 9.93701L161.509 12.8286C161.079 12.7671 160.525 12.7466 159.971 12.7466C158.002 12.7466 157.018 13.7515 157.018 15.8638L157.018 18.4683L161.407 18.4683L161.407 21.4214L157.059 21.4214L157.059 39.7964ZM37.2524 39.7964L27.3062 39.7964L27.3062 10.2036L37.2524 10.2036C46.0093 10.2036 51.2183 15.6587 51.2183 24.9487L51.2183 24.9897C51.2183 34.3208 46.0503 39.7964 37.2524 39.7964ZM76.9556 39.7964L80.5239 39.7964L80.5239 10.2036L76.9556 10.2036L76.9556 39.7964ZM120.801 39.7964L117.233 39.7964L117.233 10.2036L120.801 10.2036L120.801 21.8726L120.883 21.8726C122.032 19.4731 124.349 18.0581 127.528 18.0581C132.06 18.0581 135.157 21.5649 135.157 26.7329L135.157 39.7964L131.588 39.7964L131.588 27.3481C131.588 23.4927 129.62 21.2163 126.297 21.2163C122.996 21.2163 120.801 23.7183 120.801 27.3481L120.801 39.7964ZM190.979 39.7964L187.411 39.7964L187.411 10.2036L190.979 10.2036L190.979 39.7964ZM195.983 39.7964L199.551 39.7964L199.551 10.2036L195.983 10.2036L195.983 39.7964ZM330.289 40.2065C335.744 40.2065 339.353 35.8589 339.353 29.1323L339.353 29.1118C339.353 22.3853 335.703 18.0581 330.35 18.0581C327.335 18.0581 324.854 19.5757 323.521 22.0366L323.439 22.0366L323.439 10.2036L319.871 10.2036L319.871 39.7964L323.439 39.7964L323.439 36.187L323.521 36.187C324.854 38.6685 327.233 40.2065 330.289 40.2065ZM346.695 39.7964L343.126 39.7964L343.126 10.2036L346.695 10.2036L346.695 39.7964ZM89.5884 12.6235C89.5884 13.854 88.604 14.8589 87.353 14.8589C86.1226 14.8589 85.1177 13.854 85.1177 12.6235C85.1177 11.3726 86.1226 10.3882 87.353 10.3882C88.604 10.3882 89.5884 11.3726 89.5884 12.6235ZM146.621 40.2065C147.318 40.2065 148.077 40.1245 148.528 40.063L148.528 37.1714C148.22 37.1919 147.81 37.2534 147.379 37.2534C145.472 37.2534 144.467 36.6177 144.467 34.3413L144.467 21.4214L148.528 21.4214L148.528 18.4683L144.467 18.4683L144.467 12.7056L140.776 12.7056L140.776 18.4683L137.659 18.4683L137.659 21.4214L140.776 21.4214L140.776 34.3618C140.776 38.4429 142.704 40.2065 146.621 40.2065ZM30.9976 13.5259L30.9976 36.4741L37.0063 36.4741C43.7124 36.4741 47.4448 32.3726 47.4448 25.0308L47.4448 24.9897C47.4448 17.6069 43.7124 13.5259 37.0063 13.5259L30.9976 13.5259ZM72.8745 33.8901C72.1772 37.4175 68.6909 40.2065 64.0356 40.2065C57.9038 40.2065 54.2124 35.9204 54.2124 29.2144L54.2124 29.1938C54.2124 22.5903 57.9858 18.0581 63.8101 18.0581C69.6343 18.0581 73.1821 22.3853 73.1821 28.7837L73.1821 30.0962L57.8218 30.0962C57.9038 34.4849 60.3237 37.0483 64.1177 37.0483C66.8247 37.0483 68.7319 35.6948 69.3472 33.8696L69.4087 33.6851L72.9155 33.6851L72.8745 33.8901ZM103.021 47.3843C108.804 47.3843 112.434 44.144 112.434 39.2017L112.434 18.4683L108.866 18.4683L108.866 22.0776L108.784 22.0776C107.471 19.6987 105.092 18.0581 102.078 18.0581C96.6636 18.0581 92.9517 22.3647 92.9517 28.9888L92.9517 29.0093C92.9517 35.6743 96.6226 40.0015 101.996 40.0015C105.051 40.0015 107.512 38.4839 108.784 36.1255L108.866 36.1255L108.866 38.853C108.866 42.1548 106.733 44.2261 102.98 44.2261C100.068 44.2261 98.0376 43.2827 97.3608 41.7446L97.2788 41.5601L93.6899 41.5601L93.731 41.7446C94.4282 44.9028 97.7505 47.3843 103.021 47.3843ZM242.249 40.2065C247.068 40.2065 250.575 37.0688 251.149 33.0083L251.169 32.8647L247.663 32.8647L247.622 33.0288C247.027 35.4077 245.161 37.0483 242.249 37.0483C238.557 37.0483 236.014 34.1157 236.014 29.1528L236.014 29.1323C236.014 24.2925 238.496 21.2163 242.208 21.2163C245.345 21.2163 247.068 23.103 247.601 25.2358L247.642 25.3999L251.128 25.3999L251.108 25.2358C250.657 21.5854 247.519 18.0581 242.208 18.0581C236.281 18.0581 232.364 22.3647 232.364 29.0913L232.364 29.1118C232.364 35.8999 236.199 40.2065 242.249 40.2065ZM267.35 36.3306C266.099 38.6685 263.536 40.2065 260.685 40.2065C256.44 40.2065 253.589 37.6431 253.589 33.7671L253.589 33.7261C253.589 30.0962 256.419 27.8198 261.321 27.5327L267.432 27.1841L267.432 25.3999C267.432 22.7954 265.73 21.2163 262.756 21.2163C260.008 21.2163 258.286 22.5288 257.875 24.436L257.834 24.6206L254.389 24.6206L254.41 24.395C254.717 20.8882 257.773 18.0581 262.797 18.0581C267.842 18.0581 271 20.7856 271 25.0513L271 39.7964L267.432 39.7964L267.432 36.3306L267.35 36.3306ZM275.533 46.9741L279.101 46.9741L279.101 36.228L279.183 36.228C280.516 38.689 282.998 40.2065 286.012 40.2065C291.365 40.2065 295.015 35.8794 295.015 29.1528L295.015 29.1323C295.015 22.4058 291.406 18.0581 285.951 18.0581C282.895 18.0581 280.516 19.5962 279.183 22.0776L279.101 22.0776L279.101 18.4683L275.533 18.4683L275.533 46.9741ZM311.503 36.3306C310.252 38.6685 307.689 40.2065 304.838 40.2065C300.593 40.2065 297.743 37.6431 297.743 33.7671L297.743 33.7261C297.743 30.0962 300.573 27.8198 305.474 27.5327L311.585 27.1841L311.585 25.3999C311.585 22.7954 309.883 21.2163 306.91 21.2163C304.162 21.2163 302.439 22.5288 302.029 24.436L301.988 24.6206L298.542 24.6206L298.563 24.395C298.871 20.8882 301.926 18.0581 306.951 18.0581C311.996 18.0581 315.154 20.7856 315.154 25.0513L315.154 39.7964L311.585 39.7964L311.585 36.3306L311.503 36.3306ZM360.292 40.2065C364.947 40.2065 368.433 37.4175 369.13 33.8901L369.171 33.6851L365.665 33.6851L365.603 33.8696C364.988 35.6948 363.081 37.0483 360.374 37.0483C356.58 37.0483 354.16 34.4849 354.078 30.0962L369.438 30.0962L369.438 28.7837C369.438 22.3853 365.89 18.0581 360.066 18.0581C354.242 18.0581 350.468 22.5903 350.468 29.1938L350.468 29.2144C350.468 35.9204 354.16 40.2065 360.292 40.2065ZM89.1372 18.4683L89.1372 39.7964L85.5688 39.7964L85.5688 18.4683L89.1372 18.4683ZM172.378 40.2065C175.619 40.2065 177.792 38.7505 178.941 36.7612L179.023 36.7612L179.023 39.7964L182.591 39.7964L182.591 18.4683L179.023 18.4683L179.023 31.019C179.023 34.6489 176.829 37.0483 173.465 37.0483C170.184 37.0483 168.564 35.1411 168.564 31.6753L168.564 18.4683L164.996 18.4683L164.996 32.311C164.996 37.1714 167.703 40.2065 172.378 40.2065ZM213.661 41.1294C212.143 45.2104 210.277 46.9741 206.421 46.9741C205.724 46.9741 204.965 46.8921 204.514 46.8101L204.514 43.8979C204.822 43.9595 205.232 44.021 205.663 44.021C207.918 44.021 209.169 43.4468 210.031 41.0269L210.461 39.8169L202.545 18.4683L206.36 18.4683L212.246 36.228L212.328 36.228L218.234 18.4683L221.987 18.4683L213.661 41.1294ZM69.5522 27.3071C69.2036 23.1646 66.9067 21.2163 63.7896 21.2163C60.6929 21.2163 58.2729 23.3286 57.8833 27.3071L69.5522 27.3071ZM102.775 36.8433C98.981 36.8433 96.6021 33.8491 96.6021 29.0093L96.6021 28.9888C96.6021 24.2515 98.981 21.2163 102.775 21.2163C106.384 21.2163 108.866 24.2925 108.866 28.9888L108.866 29.0093C108.866 33.7466 106.405 36.8433 102.775 36.8433ZM285.253 37.0483C281.665 37.0483 279.081 33.9106 279.081 29.1528L279.081 29.1323C279.081 24.354 281.644 21.2163 285.253 21.2163C289.027 21.2163 291.365 24.231 291.365 29.1323L291.365 29.1528C291.365 34.0132 289.027 37.0483 285.253 37.0483ZM329.591 37.0483C325.982 37.0483 323.418 33.9106 323.418 29.1323L323.418 29.1118C323.418 24.354 326.002 21.2163 329.591 21.2163C333.365 21.2163 335.703 24.2515 335.703 29.1118L335.703 29.1323C335.703 34.0337 333.365 37.0483 329.591 37.0483ZM360.045 21.2163C363.163 21.2163 365.459 23.1646 365.808 27.3071L354.139 27.3071C354.529 23.3286 356.949 21.2163 360.045 21.2163ZM257.24 33.7261L257.24 33.7671C257.24 35.8179 258.921 37.1099 261.485 37.1099C264.848 37.1099 267.432 34.7925 267.432 31.6958L267.432 29.9526L261.731 30.3013C258.88 30.4653 257.24 31.7368 257.24 33.7261ZM301.393 33.7261L301.393 33.7671C301.393 35.8179 303.075 37.1099 305.638 37.1099C309.001 37.1099 311.585 34.7925 311.585 31.6958L311.585 29.9526L305.884 30.3013C303.034 30.4653 301.393 31.7368 301.393 33.7261ZM377.559 37.7456C377.559 39.0581 376.534 40.0835 375.221 40.0835C373.909 40.0835 372.883 39.0581 372.883 37.7456C372.883 36.4331 373.909 35.4077 375.221 35.4077C376.534 35.4077 377.559 36.4331 377.559 37.7456Z" />
    </g>
    <g id="Surprisingly-affordable.">
      <path d="M12.5508 90.5552C19.3184 90.5552 23.4814 87.2329 23.4814 81.9829L23.4814 81.9624C23.4814 77.4507 20.9385 74.9897 14.8682 73.6567L11.5869 72.939C7.73145 72.0981 5.94727 70.5806 5.94727 68.1606L5.94727 68.1401C5.94727 65.2896 8.53125 63.4028 12.4893 63.3823C16.2422 63.3823 18.7646 65.1665 19.2158 68.1812L19.2568 68.4683L22.9482 68.4683L22.9277 68.1606C22.5996 63.3208 18.375 59.978 12.5918 59.978C6.50098 59.978 2.19434 63.3823 2.17383 68.2427L2.17383 68.2632C2.17383 72.5903 4.88086 75.1948 10.6641 76.4663L13.9453 77.1841C18.0059 78.0864 19.708 79.5425 19.708 82.147L19.708 82.1675C19.708 85.2231 17.0215 87.1509 12.7559 87.1509C8.46973 87.1509 5.59863 85.3257 5.16797 82.3521L5.12695 82.0649L1.43555 82.0649L1.45605 82.3521C1.8252 87.4175 6.15234 90.5552 12.5508 90.5552ZM240.188 90.063L243.756 90.063L243.756 71.688L248.104 71.688L248.104 68.7349L243.715 68.7349L243.715 66.1304C243.715 64.0181 244.699 63.0132 246.668 63.0132C247.222 63.0132 247.775 63.0337 248.206 63.0952L248.206 60.2036C247.673 60.1216 246.832 60.0601 246.032 60.0601C242.095 60.0601 240.188 62.0083 240.188 66.1099L240.188 68.7349L237.214 68.7349L237.214 71.688L240.188 71.688L240.188 90.063ZM256.512 90.063L252.943 90.063L252.943 71.688L249.97 71.688L249.97 68.7349L252.943 68.7349L252.943 66.1099C252.943 62.0083 254.851 60.0601 258.788 60.0601C259.588 60.0601 260.429 60.1216 260.962 60.2036L260.962 63.0952C260.531 63.0337 259.978 63.0132 259.424 63.0132C257.455 63.0132 256.471 64.0181 256.471 66.1304L256.471 68.7349L260.859 68.7349L260.859 71.688L256.512 71.688L256.512 90.063ZM184.099 90.063L180.53 90.063L180.53 60.4702L184.099 60.4702L184.099 90.063ZM307.802 90.4731C310.857 90.4731 313.236 88.9351 314.569 86.4536L314.651 86.4536L314.651 90.063L318.22 90.063L318.22 60.4702L314.651 60.4702L314.651 72.3032L314.569 72.3032C313.236 69.8423 310.755 68.3247 307.74 68.3247C302.388 68.3247 298.737 72.6519 298.737 79.3784L298.737 79.3989C298.737 86.1255 302.347 90.4731 307.802 90.4731ZM354.724 90.4731C360.179 90.4731 363.788 86.1255 363.788 79.3989L363.788 79.3784C363.788 72.6519 360.138 68.3247 354.785 68.3247C351.771 68.3247 349.289 69.8423 347.956 72.3032L347.874 72.3032L347.874 60.4702L344.306 60.4702L344.306 90.063L347.874 90.063L347.874 86.4536L347.956 86.4536C349.289 88.9351 351.668 90.4731 354.724 90.4731ZM371.13 90.063L367.562 90.063L367.562 60.4702L371.13 60.4702L371.13 90.063ZM100.324 65.1255C101.575 65.1255 102.56 64.1206 102.56 62.8901C102.56 61.6392 101.575 60.6548 100.324 60.6548C99.0938 60.6548 98.0889 61.6392 98.0889 62.8901C98.0889 64.1206 99.0938 65.1255 100.324 65.1255ZM128.522 65.1255C129.773 65.1255 130.758 64.1206 130.758 62.8901C130.758 61.6392 129.773 60.6548 128.522 60.6548C127.292 60.6548 126.287 61.6392 126.287 62.8901C126.287 64.1206 127.292 65.1255 128.522 65.1255ZM52.9307 90.063L49.3623 90.063L49.3623 68.7349L52.9307 68.7349L52.9307 72.3442L53.0127 72.3442C53.7305 69.8833 55.5762 68.3247 57.9756 68.3247C58.5908 68.3247 59.124 68.4272 59.4111 68.4683L59.4111 71.9341C59.124 71.8315 58.3652 71.729 57.5039 71.729C54.7354 71.729 52.9307 73.6567 52.9307 76.897L52.9307 90.063ZM62.3027 97.2407L65.8711 97.2407L65.8711 86.4946L65.9531 86.4946C67.2861 88.9556 69.7676 90.4731 72.7822 90.4731C78.1348 90.4731 81.7852 86.146 81.7852 79.4194L81.7852 79.3989C81.7852 72.6724 78.1758 68.3247 72.7207 68.3247C69.665 68.3247 67.2861 69.8628 65.9531 72.3442L65.8711 72.3442L65.8711 68.7349L62.3027 68.7349L62.3027 97.2407ZM88.9424 90.063L85.374 90.063L85.374 68.7349L88.9424 68.7349L88.9424 72.3442L89.0244 72.3442C89.7422 69.8833 91.5879 68.3247 93.9873 68.3247C94.6025 68.3247 95.1357 68.4272 95.4229 68.4683L95.4229 71.9341C95.1357 71.8315 94.377 71.729 93.5156 71.729C90.7471 71.729 88.9424 73.6567 88.9424 76.897L88.9424 90.063ZM122.821 84.1157C122.821 87.8481 119.294 90.4731 114.536 90.4731C109.512 90.4731 106.477 87.9097 106.046 84.0952L106.025 83.9106L109.594 83.9106L109.635 84.1157C110.065 86.2485 111.645 87.4995 114.557 87.4995C117.448 87.4995 119.171 86.2896 119.171 84.3618L119.171 84.3413C119.171 82.8032 118.371 81.9419 115.951 81.3472L112.567 80.5269C108.548 79.563 106.6 77.6968 106.6 74.6206L106.6 74.6001C106.6 70.9292 109.819 68.3247 114.434 68.3247C119.109 68.3247 122.083 71.0522 122.35 74.6206L122.37 74.8872L118.966 74.8872L118.945 74.7437C118.658 72.6724 117.079 71.2983 114.434 71.2983C111.85 71.2983 110.25 72.5493 110.25 74.436L110.25 74.4565C110.25 75.9126 111.214 76.9175 113.572 77.4917L116.956 78.312C121.263 79.3579 122.821 81.0601 122.821 84.0952L122.821 84.1157ZM138.735 90.063L135.167 90.063L135.167 68.7349L138.735 68.7349L138.735 71.77L138.817 71.77C139.966 69.7808 142.14 68.3247 145.38 68.3247C150.056 68.3247 152.763 71.3599 152.763 76.2202L152.763 90.063L149.194 90.063L149.194 76.856C149.194 73.3901 147.574 71.4829 144.293 71.4829C140.93 71.4829 138.735 73.8823 138.735 77.5122L138.735 90.063ZM166.318 97.6509C172.102 97.6509 175.731 94.4106 175.731 89.4683L175.731 68.7349L172.163 68.7349L172.163 72.3442L172.081 72.3442C170.769 69.9653 168.39 68.3247 165.375 68.3247C159.961 68.3247 156.249 72.6313 156.249 79.2554L156.249 79.2759C156.249 85.9409 159.92 90.2681 165.293 90.2681C168.349 90.2681 170.81 88.7505 172.081 86.3921L172.163 86.3921L172.163 89.1196C172.163 92.4214 170.03 94.4927 166.277 94.4927C163.365 94.4927 161.335 93.5493 160.658 92.0112L160.576 91.8267L156.987 91.8267L157.028 92.0112C157.726 95.1694 161.048 97.6509 166.318 97.6509ZM230.856 86.5972C229.605 88.9351 227.042 90.4731 224.191 90.4731C219.946 90.4731 217.096 87.9097 217.096 84.0337L217.096 83.9927C217.096 80.3628 219.926 78.0864 224.827 77.7993L230.938 77.4507L230.938 75.6665C230.938 73.062 229.236 71.4829 226.263 71.4829C223.515 71.4829 221.792 72.7954 221.382 74.7026L221.341 74.8872L217.896 74.8872L217.916 74.6616C218.224 71.1548 221.279 68.3247 226.304 68.3247C231.349 68.3247 234.507 71.0522 234.507 75.3179L234.507 90.063L230.938 90.063L230.938 86.5972L230.856 86.5972ZM273.39 90.4731C279.275 90.4731 283.254 86.2075 283.254 79.3989L283.254 79.3579C283.254 72.5493 279.255 68.3247 273.369 68.3247C267.483 68.3247 263.505 72.5698 263.505 79.3579L263.505 79.3989C263.505 86.187 267.463 90.4731 273.39 90.4731ZM290.411 90.063L286.843 90.063L286.843 68.7349L290.411 68.7349L290.411 72.3442L290.493 72.3442C291.211 69.8833 293.057 68.3247 295.456 68.3247C296.071 68.3247 296.604 68.4272 296.892 68.4683L296.892 71.9341C296.604 71.8315 295.846 71.729 294.984 71.729C292.216 71.729 290.411 73.6567 290.411 76.897L290.411 90.063ZM335.938 86.5972C334.688 88.9351 332.124 90.4731 329.273 90.4731C325.028 90.4731 322.178 87.9097 322.178 84.0337L322.178 83.9927C322.178 80.3628 325.008 78.0864 329.909 77.7993L336.021 77.4507L336.021 75.6665C336.021 73.062 334.318 71.4829 331.345 71.4829C328.597 71.4829 326.874 72.7954 326.464 74.7026L326.423 74.8872L322.978 74.8872L322.998 74.6616C323.306 71.1548 326.361 68.3247 331.386 68.3247C336.431 68.3247 339.589 71.0522 339.589 75.3179L339.589 90.063L336.021 90.063L336.021 86.5972L335.938 86.5972ZM384.727 90.4731C389.382 90.4731 392.868 87.6841 393.565 84.1567L393.606 83.9517L390.1 83.9517L390.038 84.1362C389.423 85.9614 387.516 87.3149 384.809 87.3149C381.015 87.3149 378.595 84.7515 378.513 80.3628L393.873 80.3628L393.873 79.0503C393.873 72.6519 390.325 68.3247 384.501 68.3247C378.677 68.3247 374.903 72.8569 374.903 79.4604L374.903 79.481C374.903 86.187 378.595 90.4731 384.727 90.4731ZM34.5146 90.4731C37.7549 90.4731 39.9287 89.0171 41.0771 87.0278L41.1592 87.0278L41.1592 90.063L44.7275 90.063L44.7275 68.7349L41.1592 68.7349L41.1592 81.2856C41.1592 84.9155 38.9648 87.3149 35.6016 87.3149C32.3203 87.3149 30.7002 85.4077 30.7002 81.9419L30.7002 68.7349L27.1318 68.7349L27.1318 82.5776C27.1318 87.438 29.8389 90.4731 34.5146 90.4731ZM98.54 90.063L102.108 90.063L102.108 68.7349L98.54 68.7349L98.54 90.063ZM126.738 90.063L130.307 90.063L130.307 68.7349L126.738 68.7349L126.738 90.063ZM190.969 97.2407C194.824 97.2407 196.69 95.4771 198.208 91.396L206.534 68.7349L202.781 68.7349L196.875 86.4946L196.793 86.4946L190.907 68.7349L187.093 68.7349L195.009 90.0835L194.578 91.2935C193.717 93.7134 192.466 94.2876 190.21 94.2876C189.779 94.2876 189.369 94.2261 189.062 94.1646L189.062 97.0767C189.513 97.1587 190.271 97.2407 190.969 97.2407ZM72.0234 87.3149C68.4346 87.3149 65.8506 84.1772 65.8506 79.4194L65.8506 79.3989C65.8506 74.6206 68.4141 71.4829 72.0234 71.4829C75.7969 71.4829 78.1348 74.4976 78.1348 79.3989L78.1348 79.4194C78.1348 84.2798 75.7969 87.3149 72.0234 87.3149ZM166.072 87.1099C162.278 87.1099 159.899 84.1157 159.899 79.2759L159.899 79.2554C159.899 74.5181 162.278 71.4829 166.072 71.4829C169.682 71.4829 172.163 74.5591 172.163 79.2554L172.163 79.2759C172.163 84.0132 169.702 87.1099 166.072 87.1099ZM273.41 87.3149C269.637 87.3149 267.155 84.4233 267.155 79.3989L267.155 79.3579C267.155 74.3745 269.657 71.4829 273.369 71.4829C277.143 71.4829 279.604 74.354 279.604 79.3579L279.604 79.3989C279.604 84.4028 277.163 87.3149 273.41 87.3149ZM308.499 87.3149C304.726 87.3149 302.388 84.3003 302.388 79.3989L302.388 79.3784C302.388 74.5181 304.726 71.4829 308.499 71.4829C312.088 71.4829 314.672 74.6206 314.672 79.3784L314.672 79.3989C314.672 84.1772 312.108 87.3149 308.499 87.3149ZM354.026 87.3149C350.417 87.3149 347.854 84.1772 347.854 79.3989L347.854 79.3784C347.854 74.6206 350.438 71.4829 354.026 71.4829C357.8 71.4829 360.138 74.5181 360.138 79.3784L360.138 79.3989C360.138 84.3003 357.8 87.3149 354.026 87.3149ZM384.48 71.4829C387.598 71.4829 389.895 73.4312 390.243 77.5737L378.574 77.5737C378.964 73.5952 381.384 71.4829 384.48 71.4829ZM220.746 83.9927L220.746 84.0337C220.746 86.0845 222.428 87.3765 224.991 87.3765C228.354 87.3765 230.938 85.0591 230.938 81.9624L230.938 80.2192L225.237 80.5679C222.387 80.7319 220.746 82.0034 220.746 83.9927ZM325.828 83.9927L325.828 84.0337C325.828 86.0845 327.51 87.3765 330.073 87.3765C333.437 87.3765 336.021 85.0591 336.021 81.9624L336.021 80.2192L330.319 80.5679C327.469 80.7319 325.828 82.0034 325.828 83.9927ZM401.994 88.0122C401.994 89.3247 400.969 90.3501 399.656 90.3501C398.344 90.3501 397.318 89.3247 397.318 88.0122C397.318 86.6997 398.344 85.6743 399.656 85.6743C400.969 85.6743 401.994 86.6997 401.994 88.0122Z" />
    </g>
  </g>
</svg>