<?xml version="1.0" encoding="utf-8"?>
<svg width="530px" height="236px" viewBox="0 0 530 236" version="1.1" xmlns:xlink="http://www.w3.org/1999/xlink" xmlns="http://www.w3.org/2000/svg">
  <defs>
    <path d="M0 0L76.5483 0L76.5483 91.3943L0 91.3943L0 0Z" id="path_1" />
    <clipPath id="mask_1">
      <use xlink:href="#path_1" />
    </clipPath>
  </defs>
  <g id="Group-4">
    <g id="apple-13" transform="translate(0 22.99997)">
      <path d="M0 0L76.5483 0L76.5483 91.3943L0 91.3943L0 0Z" id="Background" fill="none" fill-rule="evenodd" stroke="none" />
      <g clip-path="url(#mask_1)">
        <path d="M64.0004 48.1376C63.9597 40.6739 67.3357 35.0406 74.1689 30.8918C70.3455 25.4212 64.5698 22.4113 56.9435 21.8215C49.7239 21.2521 41.8331 26.0313 38.9453 26.0313C35.8947 26.0313 28.8988 22.0249 23.4078 22.0249C12.0598 22.2079 0 31.0749 0 49.1138C0 54.442 0.976174 59.9466 2.92852 65.6274C5.53165 73.091 14.9273 91.3943 24.7297 91.0893C29.8547 90.9672 33.4746 87.449 40.1451 87.449C46.6123 87.449 49.9679 91.0893 55.6826 91.0893C65.5663 90.9469 74.0672 74.3113 76.5483 66.8273C63.2886 60.5838 64.0004 48.524 64.0004 48.1376L64.0004 48.1376ZM52.4897 14.7443C58.0417 8.15512 57.5333 2.15572 57.3706 0C52.4694 0.284718 46.7954 3.33526 43.5618 7.0976C40.0028 11.1243 37.9081 16.1069 38.3555 21.7199C43.6635 22.1266 48.5037 19.4015 52.4897 14.7443L52.4897 14.7443Z" id="Shape" fill="#000000" fill-rule="evenodd" stroke="none" />
      </g>
    </g>
    <g id="iPad-Air" transform="translate(91.54828 0)">
      <path d="M15.0757 39.1304C20.4468 39.1304 24.5972 34.9189 24.5972 29.853C24.5972 24.7871 20.4468 20.5757 15.0757 20.5757C9.70459 20.5757 5.5542 24.7871 5.5542 29.853C5.5542 34.9189 9.70459 39.1304 15.0757 39.1304ZM376.526 39.1304C381.897 39.1304 386.047 34.9189 386.047 29.853C386.047 24.7871 381.897 20.5757 376.526 20.5757C371.155 20.5757 367.004 24.7871 367.004 29.853C367.004 34.9189 371.155 39.1304 376.526 39.1304ZM37.4146 112.983L55.8472 112.983L55.8472 85.2119L72.8149 85.2119C91.3696 85.2119 103.76 73.249 103.76 55.1216L103.76 54.9995C103.76 36.8721 91.3696 24.9092 72.8149 24.9092L37.4146 24.9092L37.4146 112.983ZM205.75 114.326C215.21 114.326 222.412 109.565 225.891 101.813L226.257 101.813L226.257 112.983L244.08 112.983L244.08 24.9092L226.257 24.9092L226.257 58.9058L225.891 58.9058C222.351 50.9712 215.027 46.2104 205.75 46.2104C189.27 46.2104 179.138 58.9058 179.138 80.207L179.138 80.2681C179.138 101.508 189.27 114.326 205.75 114.326ZM295.959 112.983L276.611 112.983L307.373 24.9092L329.041 24.9092L359.741 112.983L340.393 112.983L333.74 91.6206L302.612 91.6206L295.959 112.983ZM68.2983 39.4966C78.8574 39.4966 85.083 45.0508 85.083 55.0605L85.083 55.1826C85.083 65.1924 78.8574 70.8076 68.2983 70.8076L55.8472 70.8076L55.8472 39.4966L68.2983 39.4966ZM318.359 41.999L317.993 41.999L306.885 77.8267L329.468 77.8267L318.359 41.999ZM151.855 103.217C148.132 109.931 141.174 114.021 132.568 114.021C119.446 114.021 110.596 105.781 110.596 94.2451L110.596 94.123C110.596 82.2212 119.812 75.2632 136.047 74.2256L152.222 73.249L152.222 69.2207C152.222 63.4224 148.438 59.8213 141.479 59.8213C134.827 59.8213 130.798 62.9341 129.944 67.1455L129.822 67.6948L113.525 67.6948L113.586 66.9624C114.563 54.8774 124.939 46.2104 142.212 46.2104C159.119 46.2104 170.044 54.9385 170.044 68.1221L170.044 112.983L152.222 112.983L152.222 103.217L151.855 103.217ZM415.161 112.983L397.339 112.983L397.339 47.5532L415.161 47.5532L415.161 58.9668L415.527 58.9668C417.48 50.9102 422.791 46.2104 430.42 46.2104C432.373 46.2104 434.204 46.5156 435.547 46.8818L435.547 62.5679C434.082 61.9575 431.641 61.5913 429.077 61.5913C420.288 61.5913 415.161 66.8403 415.161 76.3618L415.161 112.983ZM23.9868 112.983L23.9868 47.5532L6.16455 47.5532L6.16455 112.983L23.9868 112.983ZM211.731 99.5552C202.82 99.5552 197.266 92.1699 197.266 80.2681L197.266 80.207C197.266 68.2441 202.881 60.981 211.731 60.981C220.337 60.981 226.318 68.4272 226.318 80.207L226.318 80.2681C226.318 92.1089 220.398 99.5552 211.731 99.5552ZM128.235 93.2075L128.235 93.3296C128.235 98.1514 132.202 101.02 138.367 101.02C146.362 101.02 152.222 95.8931 152.222 89.0571L152.222 84.3574L138.733 85.2119C131.836 85.6392 128.235 88.5688 128.235 93.2075ZM367.615 112.983L385.437 112.983L385.437 47.5532L367.615 47.5532L367.615 112.983Z" />
    </g>
  </g>
  <g id="Light.-Bright.-Full-of-might." transform="translate(153.04828 135.99997)">
    <g id="Light.-Bright.">
      <path d="M4.10156 39.7964L22.0664 39.7964L22.0664 36.4741L7.79297 36.4741L7.79297 10.2036L4.10156 10.2036L4.10156 39.7964ZM57.4629 39.7964L61.0312 39.7964L61.0312 27.3481C61.0312 23.7183 63.2256 21.2163 66.5273 21.2163C69.8496 21.2163 71.8184 23.4927 71.8184 27.3481L71.8184 39.7964L75.3867 39.7964L75.3867 26.7329C75.3867 21.5649 72.29 18.0581 67.7578 18.0581C64.5791 18.0581 62.2617 19.4731 61.1133 21.8726L61.0312 21.8726L61.0312 10.2036L57.4629 10.2036L57.4629 39.7964ZM121.939 39.7964L110.763 39.7964L110.763 10.2036L121.98 10.2036C127.046 10.2036 130.471 13.1567 130.471 17.5864L130.471 17.6274C130.471 20.6831 128.174 23.6567 125.118 24.0874L125.118 24.1694C129.384 24.6616 131.968 27.5327 131.968 31.4497L131.968 31.4907C131.968 36.6997 128.235 39.7964 121.939 39.7964ZM183.996 39.7964L180.428 39.7964L180.428 10.2036L183.996 10.2036L183.996 21.8726L184.078 21.8726C185.227 19.4731 187.544 18.0581 190.723 18.0581C195.255 18.0581 198.352 21.5649 198.352 26.7329L198.352 39.7964L194.783 39.7964L194.783 27.3481C194.783 23.4927 192.814 21.2163 189.492 21.2163C186.19 21.2163 183.996 23.7183 183.996 27.3481L183.996 39.7964ZM27.583 14.8589C28.834 14.8589 29.8184 13.854 29.8184 12.6235C29.8184 11.3726 28.834 10.3882 27.583 10.3882C26.3525 10.3882 25.3477 11.3726 25.3477 12.6235C25.3477 13.854 26.3525 14.8589 27.583 14.8589ZM152.783 12.6235C152.783 13.854 151.799 14.8589 150.548 14.8589C149.317 14.8589 148.312 13.854 148.312 12.6235C148.312 11.3726 149.317 10.3882 150.548 10.3882C151.799 10.3882 152.783 11.3726 152.783 12.6235ZM88.7578 40.063C88.3066 40.1245 87.5479 40.2065 86.8506 40.2065C82.9336 40.2065 81.0059 38.4429 81.0059 34.3618L81.0059 21.4214L77.8887 21.4214L77.8887 18.4683L81.0059 18.4683L81.0059 12.7056L84.6973 12.7056L84.6973 18.4683L88.7578 18.4683L88.7578 21.4214L84.6973 21.4214L84.6973 34.3413C84.6973 36.6177 85.7021 37.2534 87.6094 37.2534C88.04 37.2534 88.4502 37.1919 88.7578 37.1714L88.7578 40.063ZM209.815 40.2065C210.513 40.2065 211.271 40.1245 211.723 40.063L211.723 37.1714C211.415 37.1919 211.005 37.2534 210.574 37.2534C208.667 37.2534 207.662 36.6177 207.662 34.3413L207.662 21.4214L211.723 21.4214L211.723 18.4683L207.662 18.4683L207.662 12.7056L203.971 12.7056L203.971 18.4683L200.854 18.4683L200.854 21.4214L203.971 21.4214L203.971 34.3618C203.971 38.4429 205.898 40.2065 209.815 40.2065ZM126.738 17.9761C126.738 15.064 124.708 13.4644 121.14 13.4644L114.454 13.4644L114.454 22.9595L119.991 22.9595C124.359 22.9595 126.738 21.2163 126.738 18.0171L126.738 17.9761ZM52.6641 39.2017C52.6641 44.144 49.0342 47.3843 43.251 47.3843C37.9805 47.3843 34.6582 44.9028 33.9609 41.7446L33.9199 41.5601L37.5088 41.5601L37.5908 41.7446C38.2676 43.2827 40.2979 44.2261 43.21 44.2261C46.9629 44.2261 49.0957 42.1548 49.0957 38.853L49.0957 36.1255L49.0137 36.1255C47.7422 38.4839 45.2812 40.0015 42.2256 40.0015C36.8525 40.0015 33.1816 35.6743 33.1816 29.0093L33.1816 28.9888C33.1816 22.3647 36.8936 18.0581 42.3076 18.0581C45.3223 18.0581 47.7012 19.6987 49.0137 22.0776L49.0957 22.0776L49.0957 18.4683L52.6641 18.4683L52.6641 39.2017ZM135.598 39.7964L139.166 39.7964L139.166 26.6304C139.166 23.3901 140.971 21.4624 143.739 21.4624C144.601 21.4624 145.359 21.5649 145.646 21.6675L145.646 18.2017C145.359 18.1606 144.826 18.0581 144.211 18.0581C141.812 18.0581 139.966 19.6167 139.248 22.0776L139.166 22.0776L139.166 18.4683L135.598 18.4683L135.598 39.7964ZM166.216 47.3843C171.999 47.3843 175.629 44.144 175.629 39.2017L175.629 18.4683L172.061 18.4683L172.061 22.0776L171.979 22.0776C170.666 19.6987 168.287 18.0581 165.272 18.0581C159.858 18.0581 156.146 22.3647 156.146 28.9888L156.146 29.0093C156.146 35.6743 159.817 40.0015 165.19 40.0015C168.246 40.0015 170.707 38.4839 171.979 36.1255L172.061 36.1255L172.061 38.853C172.061 42.1548 169.928 44.2261 166.175 44.2261C163.263 44.2261 161.232 43.2827 160.556 41.7446L160.474 41.5601L156.885 41.5601L156.926 41.7446C157.623 44.9028 160.945 47.3843 166.216 47.3843ZM29.3672 39.7964L29.3672 18.4683L25.7988 18.4683L25.7988 39.7964L29.3672 39.7964ZM152.332 18.4683L152.332 39.7964L148.764 39.7964L148.764 18.4683L152.332 18.4683ZM36.832 29.0093C36.832 33.8491 39.2109 36.8433 43.0049 36.8433C46.6348 36.8433 49.0957 33.7466 49.0957 29.0093L49.0957 28.9888C49.0957 24.2925 46.6143 21.2163 43.0049 21.2163C39.2109 21.2163 36.832 24.2515 36.832 28.9888L36.832 29.0093ZM165.97 36.8433C162.176 36.8433 159.797 33.8491 159.797 29.0093L159.797 28.9888C159.797 24.2515 162.176 21.2163 165.97 21.2163C169.579 21.2163 172.061 24.2925 172.061 28.9888L172.061 29.0093C172.061 33.7466 169.6 36.8433 165.97 36.8433ZM128.174 31.3062C128.174 27.8813 125.754 26.1382 121.037 26.1382L114.454 26.1382L114.454 36.5356L121.386 36.5356C125.815 36.5356 128.174 34.7515 128.174 31.3472L128.174 31.3062ZM94.7666 40.0835C96.0791 40.0835 97.1045 39.0581 97.1045 37.7456C97.1045 36.4331 96.0791 35.4077 94.7666 35.4077C93.4541 35.4077 92.4287 36.4331 92.4287 37.7456C92.4287 39.0581 93.4541 40.0835 94.7666 40.0835ZM220.069 37.7456C220.069 39.0581 219.044 40.0835 217.731 40.0835C216.419 40.0835 215.394 39.0581 215.394 37.7456C215.394 36.4331 216.419 35.4077 217.731 35.4077C219.044 35.4077 220.069 36.4331 220.069 37.7456Z" />
    </g>
    <g id="Full-of-might.">
      <path d="M99.3809 90.063L95.8125 90.063L95.8125 71.688L92.8389 71.688L92.8389 68.7349L95.8125 68.7349L95.8125 66.1099C95.8125 62.0083 97.7197 60.0601 101.657 60.0601C102.457 60.0601 103.298 60.1216 103.831 60.2036L103.831 63.0952C103.4 63.0337 102.847 63.0132 102.293 63.0132C100.324 63.0132 99.3398 64.0181 99.3398 66.1304L99.3398 68.7349L103.729 68.7349L103.729 71.688L99.3809 71.688L99.3809 90.063ZM6.5625 90.063L2.87109 90.063L2.87109 60.4702L20.8359 60.4702L20.8359 63.7925L6.5625 63.7925L6.5625 73.9644L19.667 73.9644L19.667 77.2456L6.5625 77.2456L6.5625 90.063ZM46.7988 90.063L50.3672 90.063L50.3672 60.4702L46.7988 60.4702L46.7988 90.063ZM58.9395 90.063L55.3711 90.063L55.3711 60.4702L58.9395 60.4702L58.9395 90.063ZM185.227 90.063L181.658 90.063L181.658 60.4702L185.227 60.4702L185.227 72.1392L185.309 72.1392C186.457 69.7397 188.774 68.3247 191.953 68.3247C196.485 68.3247 199.582 71.8315 199.582 76.9995L199.582 90.063L196.014 90.063L196.014 77.6147C196.014 73.7593 194.045 71.4829 190.723 71.4829C187.421 71.4829 185.227 73.9849 185.227 77.6147L185.227 90.063ZM154.014 62.8901C154.014 64.1206 153.029 65.1255 151.778 65.1255C150.548 65.1255 149.543 64.1206 149.543 62.8901C149.543 61.6392 150.548 60.6548 151.778 60.6548C153.029 60.6548 154.014 61.6392 154.014 62.8901ZM211.046 90.4731C211.743 90.4731 212.502 90.3911 212.953 90.3296L212.953 87.438C212.646 87.4585 212.235 87.52 211.805 87.52C209.897 87.52 208.893 86.8843 208.893 84.6079L208.893 71.688L212.953 71.688L212.953 68.7349L208.893 68.7349L208.893 62.9722L205.201 62.9722L205.201 68.7349L202.084 68.7349L202.084 71.688L205.201 71.688L205.201 84.6284C205.201 88.7095 207.129 90.4731 211.046 90.4731ZM81.2109 90.4731C87.0967 90.4731 91.0752 86.2075 91.0752 79.3989L91.0752 79.3579C91.0752 72.5493 87.0762 68.3247 81.1904 68.3247C75.3047 68.3247 71.3262 72.5698 71.3262 79.3579L71.3262 79.3989C71.3262 86.187 75.2842 90.4731 81.2109 90.4731ZM116.033 90.063L119.602 90.063L119.602 76.6919C119.602 73.7183 121.652 71.4829 124.482 71.4829C127.128 71.4829 128.851 73.1851 128.851 75.769L128.851 90.063L132.419 90.063L132.419 76.5073C132.419 73.5952 134.408 71.4829 137.238 71.4829C140.048 71.4829 141.668 73.2261 141.668 76.1587L141.668 90.063L145.236 90.063L145.236 75.3384C145.236 71.0933 142.509 68.3247 138.284 68.3247C135.29 68.3247 132.788 69.8628 131.599 72.4263L131.517 72.4263C130.594 69.8218 128.44 68.3247 125.528 68.3247C122.78 68.3247 120.647 69.7397 119.684 71.8521L119.602 71.8521L119.602 68.7349L116.033 68.7349L116.033 90.063ZM167.446 97.6509C173.229 97.6509 176.859 94.4106 176.859 89.4683L176.859 68.7349L173.291 68.7349L173.291 72.3442L173.209 72.3442C171.896 69.9653 169.518 68.3247 166.503 68.3247C161.089 68.3247 157.377 72.6313 157.377 79.2554L157.377 79.2759C157.377 85.9409 161.048 90.2681 166.421 90.2681C169.477 90.2681 171.938 88.7505 173.209 86.3921L173.291 86.3921L173.291 89.1196C173.291 92.4214 171.158 94.4927 167.405 94.4927C164.493 94.4927 162.463 93.5493 161.786 92.0112L161.704 91.8267L158.115 91.8267L158.156 92.0112C158.854 95.1694 162.176 97.6509 167.446 97.6509ZM38.3291 87.0278C37.1807 89.0171 35.0068 90.4731 31.7666 90.4731C27.0908 90.4731 24.3838 87.438 24.3838 82.5776L24.3838 68.7349L27.9521 68.7349L27.9521 81.9419C27.9521 85.4077 29.5723 87.3149 32.8535 87.3149C36.2168 87.3149 38.4111 84.9155 38.4111 81.2856L38.4111 68.7349L41.9795 68.7349L41.9795 90.063L38.4111 90.063L38.4111 87.0278L38.3291 87.0278ZM81.2314 87.3149C77.458 87.3149 74.9766 84.4233 74.9766 79.3989L74.9766 79.3579C74.9766 74.3745 77.4785 71.4829 81.1904 71.4829C84.9639 71.4829 87.4248 74.354 87.4248 79.3579L87.4248 79.3989C87.4248 84.4028 84.9844 87.3149 81.2314 87.3149ZM167.2 87.1099C163.406 87.1099 161.027 84.1157 161.027 79.2759L161.027 79.2554C161.027 74.5181 163.406 71.4829 167.2 71.4829C170.81 71.4829 173.291 74.5591 173.291 79.2554L173.291 79.2759C173.291 84.0132 170.83 87.1099 167.2 87.1099ZM153.562 90.063L149.994 90.063L149.994 68.7349L153.562 68.7349L153.562 90.063ZM221.3 88.0122C221.3 89.3247 220.274 90.3501 218.962 90.3501C217.649 90.3501 216.624 89.3247 216.624 88.0122C216.624 86.6997 217.649 85.6743 218.962 85.6743C220.274 85.6743 221.3 86.6997 221.3 88.0122Z" />
    </g>
  </g>
</svg>