<?xml version="1.0" encoding="utf-8"?>
<svg width="694px" height="184px" viewBox="0 0 694 184" version="1.1" xmlns:xlink="http://www.w3.org/1999/xlink" xmlns="http://www.w3.org/2000/svg">
  <defs>
    <path d="M0 0L100 0L100 119.394L0 119.394L0 0Z" id="path_1" />
    <clipPath id="mask_1">
      <use xlink:href="#path_1" />
    </clipPath>
  </defs>
  <g id="Group">
    <g id="apple-13">
      <path d="M0 0L100 0L100 119.394L0 119.394L0 0Z" id="Background" fill="none" fill-rule="evenodd" stroke="none" />
      <g clip-path="url(#mask_1)">
        <path d="M83.6079 62.8853C83.5547 53.135 87.9649 45.7758 96.8916 40.356C91.8969 33.2094 84.3518 29.2774 74.389 28.5069C64.9575 27.763 54.6493 34.0064 50.8767 34.0064C46.8916 34.0064 37.7524 28.7726 30.5792 28.7726C15.7545 29.0117 0 40.5951 0 64.1605C0 71.1212 1.27524 78.3121 3.82572 85.7333C7.22636 95.4836 19.5005 119.394 32.3061 118.996C39.0011 118.836 43.7301 114.24 52.4442 114.24C60.8927 114.24 65.2763 118.996 72.7418 118.996C85.6536 118.81 96.7588 97.0776 100 87.3008C82.678 79.1446 83.6079 63.39 83.6079 62.8853L83.6079 62.8853ZM68.5707 19.2614C75.8236 10.6536 75.1594 2.81615 74.9469 0C68.5441 0.371945 61.1318 4.35707 56.9075 9.27206C52.2582 14.5324 49.5218 21.0415 50.1063 28.3741C57.0404 28.9054 63.3634 25.3454 68.5707 19.2614L68.5707 19.2614Z" id="Shape" fill="#000000" fill-rule="evenodd" stroke="none" />
      </g>
    </g>
    <g id="iPhone-SE" transform="translate(115 14.0000305)">
      <path d="M24.5972 21.353C24.5972 26.4189 20.4468 30.6304 15.0757 30.6304C9.70459 30.6304 5.5542 26.4189 5.5542 21.353C5.5542 16.2871 9.70459 12.0757 15.0757 12.0757C20.4468 12.0757 24.5972 16.2871 24.5972 21.353ZM457.581 106.009C479.797 106.009 493.103 95.2666 493.103 78.3599L493.103 78.2988C493.103 64.4438 484.802 56.9365 466.37 53.2744L457.031 51.3823C446.899 49.3682 442.383 46.1333 442.383 40.5791L442.383 40.5181C442.383 34.2314 448.059 29.8979 457.52 29.8369C466.614 29.8369 472.961 34.0483 473.877 40.9453L473.938 41.6777L491.333 41.6777L491.272 40.5181C490.417 25.0762 477.905 14.8833 457.52 14.8833C437.988 14.8833 423.95 25.5034 423.95 41.6167L423.95 41.6777C423.95 54.9224 432.739 63.2231 450.134 66.7021L459.412 68.5332C470.337 70.7915 474.67 73.7822 474.67 79.7637L474.67 79.8247C474.67 86.5386 468.262 90.9941 458.069 90.9941C447.998 90.9941 440.735 86.7217 439.575 79.8857L439.453 79.2144L422.058 79.2144L422.119 80.1909C423.157 96.4263 436.646 106.009 457.581 106.009ZM55.8472 104.483L37.4146 104.483L37.4146 16.4092L72.8149 16.4092C91.3696 16.4092 103.76 28.3721 103.76 46.4995L103.76 46.6216C103.76 64.749 91.3696 76.7119 72.8149 76.7119L55.8472 76.7119L55.8472 104.483ZM113.525 104.483L131.348 104.483L131.348 67.0073C131.348 58.4624 136.414 52.481 144.287 52.481C152.405 52.481 156.921 57.9131 156.921 67.0684L156.921 104.483L174.744 104.483L174.744 63.4062C174.744 47.5981 165.955 37.7104 151.794 37.7104C141.968 37.7104 135.071 42.2271 131.714 50.3447L131.348 50.3447L131.348 16.4092L113.525 16.4092L113.525 104.483ZM562.683 104.483L504.333 104.483L504.333 16.4092L562.683 16.4092L562.683 31.6069L522.766 31.6069L522.766 52.7251L560.425 52.7251L560.425 67.1294L522.766 67.1294L522.766 89.2852L562.683 89.2852L562.683 104.483ZM85.083 46.5605C85.083 36.5508 78.8574 30.9966 68.2983 30.9966L55.8472 30.9966L55.8472 62.3076L68.2983 62.3076C78.8574 62.3076 85.083 56.6924 85.083 46.6826L85.083 46.5605ZM248.596 71.7681C248.596 93.1304 235.962 105.826 216.187 105.826C196.289 105.826 183.777 93.0693 183.777 71.7681L183.777 71.646C183.777 50.5889 196.594 37.7104 216.125 37.7104C235.718 37.7104 248.596 50.4668 248.596 71.646L248.596 71.7681ZM257.751 104.483L275.574 104.483L275.574 66.8853C275.574 58.3403 280.64 52.481 288.635 52.481C296.631 52.481 300.659 57.3638 300.659 65.9087L300.659 104.483L318.481 104.483L318.481 62.2466C318.481 46.9268 310.303 37.7104 295.898 37.7104C286.011 37.7104 279.297 42.2881 275.94 49.7954L275.574 49.7954L275.574 39.0532L257.751 39.0532L257.751 104.483ZM389.282 85.1348C387.268 94.7783 378.235 105.826 359.558 105.826C339.539 105.826 327.393 92.8252 327.393 71.8901L327.393 71.8291C327.393 51.0161 339.661 37.7104 358.826 37.7104C377.991 37.7104 390.015 50.7109 390.015 70.4863L390.015 75.9795L344.971 75.9795C345.154 86.4165 350.83 92.52 359.924 92.52C367.249 92.52 371.704 88.4917 372.986 84.8296L373.108 84.4634L389.465 84.4634L389.282 85.1348ZM23.9868 39.0532L23.9868 104.483L6.16455 104.483L6.16455 39.0532L23.9868 39.0532ZM372.925 64.749C371.826 55.7158 366.516 51.0161 359.131 51.0161C351.807 51.0161 346.313 55.8989 345.154 64.749L372.925 64.749ZM201.904 71.7681C201.904 84.5854 207.458 91.8486 216.248 91.8486C224.915 91.8486 230.469 84.5244 230.469 71.7681L230.469 71.646C230.469 59.0117 224.792 51.6875 216.125 51.6875C207.52 51.6875 201.904 59.0117 201.904 71.646L201.904 71.7681Z" />
    </g>
  </g>
  <g id="Hercules-in-your-pocket." transform="translate(136.5 133.00003)">
    <path d="M2.87109 40.063L6.5625 40.063L6.5625 26.5894L22.8047 26.5894L22.8047 40.063L26.4961 40.063L26.4961 10.4702L22.8047 10.4702L22.8047 23.2671L6.5625 23.2671L6.5625 10.4702L2.87109 10.4702L2.87109 40.063ZM109.491 40.063L113.06 40.063L113.06 10.4702L109.491 10.4702L109.491 40.063ZM360.035 40.063L363.604 40.063L363.604 32.0239L365.593 30.1167L373.509 40.063L377.651 40.063L368.115 27.9429L377.364 18.7349L373.037 18.7349L363.686 28.1479L363.604 28.1479L363.604 10.4702L360.035 10.4702L360.035 40.063ZM171.794 12.8901C171.794 14.1206 170.81 15.1255 169.559 15.1255C168.328 15.1255 167.323 14.1206 167.323 12.8901C167.323 11.6392 168.328 10.6548 169.559 10.6548C170.81 10.6548 171.794 11.6392 171.794 12.8901ZM408.577 40.4731C409.274 40.4731 410.033 40.3911 410.484 40.3296L410.484 37.438C410.177 37.4585 409.767 37.52 409.336 37.52C407.429 37.52 406.424 36.8843 406.424 34.6079L406.424 21.688L410.484 21.688L410.484 18.7349L406.424 18.7349L406.424 12.9722L402.732 12.9722L402.732 18.7349L399.615 18.7349L399.615 21.688L402.732 21.688L402.732 34.6284C402.732 38.7095 404.66 40.4731 408.577 40.4731ZM40.4619 40.4731C45.1172 40.4731 48.6035 37.6841 49.3008 34.1567L49.3418 33.9517L45.835 33.9517L45.7734 34.1362C45.1582 35.9614 43.251 37.3149 40.5439 37.3149C36.75 37.3149 34.3301 34.7515 34.248 30.3628L49.6084 30.3628L49.6084 29.0503C49.6084 22.6519 46.0605 18.3247 40.2363 18.3247C34.4121 18.3247 30.6387 22.8569 30.6387 29.4604L30.6387 29.481C30.6387 36.187 34.3301 40.4731 40.4619 40.4731ZM56.7656 40.063L53.1973 40.063L53.1973 18.7349L56.7656 18.7349L56.7656 22.3442L56.8477 22.3442C57.5654 19.8833 59.4111 18.3247 61.8105 18.3247C62.4258 18.3247 62.959 18.4272 63.2461 18.4683L63.2461 21.9341C62.959 21.8315 62.2002 21.729 61.3389 21.729C58.5703 21.729 56.7656 23.6567 56.7656 26.897L56.7656 40.063ZM74.9766 40.4731C79.7959 40.4731 83.3027 37.3354 83.877 33.2749L83.8975 33.1313L80.3906 33.1313L80.3496 33.2954C79.7549 35.6743 77.8887 37.3149 74.9766 37.3149C71.2852 37.3149 68.7422 34.3823 68.7422 29.4194L68.7422 29.3989C68.7422 24.5591 71.2236 21.4829 74.9355 21.4829C78.0732 21.4829 79.7959 23.3696 80.3291 25.5024L80.3701 25.6665L83.8564 25.6665L83.8359 25.5024C83.3848 21.8521 80.2471 18.3247 74.9355 18.3247C69.0088 18.3247 65.0918 22.6313 65.0918 29.3579L65.0918 29.3784C65.0918 36.1665 68.9268 40.4731 74.9766 40.4731ZM135.495 34.1567C134.798 37.6841 131.312 40.4731 126.656 40.4731C120.524 40.4731 116.833 36.187 116.833 29.481L116.833 29.4604C116.833 22.8569 120.606 18.3247 126.431 18.3247C132.255 18.3247 135.803 22.6519 135.803 29.0503L135.803 30.3628L120.442 30.3628C120.524 34.7515 122.944 37.3149 126.738 37.3149C129.445 37.3149 131.353 35.9614 131.968 34.1362L132.029 33.9517L135.536 33.9517L135.495 34.1567ZM146.959 40.4731C151.717 40.4731 155.244 37.8481 155.244 34.1157L155.244 34.0952C155.244 31.0601 153.686 29.3579 149.379 28.312L145.995 27.4917C143.637 26.9175 142.673 25.9126 142.673 24.4565L142.673 24.436C142.673 22.5493 144.272 21.2983 146.856 21.2983C149.502 21.2983 151.081 22.6724 151.368 24.7437L151.389 24.8872L154.793 24.8872L154.772 24.6206C154.506 21.0522 151.532 18.3247 146.856 18.3247C142.242 18.3247 139.022 20.9292 139.022 24.6001L139.022 24.6206C139.022 27.6968 140.971 29.563 144.99 30.5269L148.374 31.3472C150.794 31.9419 151.594 32.8032 151.594 34.3413L151.594 34.3618C151.594 36.2896 149.871 37.4995 146.979 37.4995C144.067 37.4995 142.488 36.2485 142.058 34.1157L142.017 33.9106L138.448 33.9106L138.469 34.0952C138.899 37.9097 141.935 40.4731 146.959 40.4731ZM176.203 40.063L179.771 40.063L179.771 27.5122C179.771 23.8823 181.966 21.4829 185.329 21.4829C188.61 21.4829 190.23 23.3901 190.23 26.856L190.23 40.063L193.799 40.063L193.799 26.2202C193.799 21.3599 191.092 18.3247 186.416 18.3247C183.176 18.3247 181.002 19.7808 179.854 21.77L179.771 21.77L179.771 18.7349L176.203 18.7349L176.203 40.063ZM236.209 40.4731C242.095 40.4731 246.073 36.2075 246.073 29.3989L246.073 29.3579C246.073 22.5493 242.074 18.3247 236.188 18.3247C230.303 18.3247 226.324 22.5698 226.324 29.3579L226.324 29.3989C226.324 36.187 230.282 40.4731 236.209 40.4731ZM271.79 40.063L275.358 40.063L275.358 26.897C275.358 23.6567 277.163 21.729 279.932 21.729C280.793 21.729 281.552 21.8315 281.839 21.9341L281.839 18.4683C281.552 18.4272 281.019 18.3247 280.403 18.3247C278.004 18.3247 276.158 19.8833 275.44 22.3442L275.358 22.3442L275.358 18.7349L271.79 18.7349L271.79 40.063ZM296.912 47.2407L293.344 47.2407L293.344 18.7349L296.912 18.7349L296.912 22.3442L296.994 22.3442C298.327 19.8628 300.706 18.3247 303.762 18.3247C309.217 18.3247 312.826 22.6724 312.826 29.3989L312.826 29.4194C312.826 36.146 309.176 40.4731 303.823 40.4731C300.809 40.4731 298.327 38.9556 296.994 36.4946L296.912 36.4946L296.912 47.2407ZM325.254 40.4731C331.14 40.4731 335.118 36.2075 335.118 29.3989L335.118 29.3579C335.118 22.5493 331.119 18.3247 325.233 18.3247C319.348 18.3247 315.369 22.5698 315.369 29.3579L315.369 29.3989C315.369 36.187 319.327 40.4731 325.254 40.4731ZM356.446 33.2749C355.872 37.3354 352.365 40.4731 347.546 40.4731C341.496 40.4731 337.661 36.1665 337.661 29.3784L337.661 29.3579C337.661 22.6313 341.578 18.3247 347.505 18.3247C352.816 18.3247 355.954 21.8521 356.405 25.5024L356.426 25.6665L352.939 25.6665L352.898 25.5024C352.365 23.3696 350.643 21.4829 347.505 21.4829C343.793 21.4829 341.312 24.5591 341.312 29.3989L341.312 29.4194C341.312 34.3823 343.854 37.3149 347.546 37.3149C350.458 37.3149 352.324 35.6743 352.919 33.2954L352.96 33.1313L356.467 33.1313L356.446 33.2749ZM397.749 34.1567C397.052 37.6841 393.565 40.4731 388.91 40.4731C382.778 40.4731 379.087 36.187 379.087 29.481L379.087 29.4604C379.087 22.8569 382.86 18.3247 388.685 18.3247C394.509 18.3247 398.057 22.6519 398.057 29.0503L398.057 30.3628L382.696 30.3628C382.778 34.7515 385.198 37.3149 388.992 37.3149C391.699 37.3149 393.606 35.9614 394.222 34.1362L394.283 33.9517L397.79 33.9517L397.749 34.1567ZM101.021 37.0278C99.873 39.0171 97.6992 40.4731 94.459 40.4731C89.7832 40.4731 87.0762 37.438 87.0762 32.5776L87.0762 18.7349L90.6445 18.7349L90.6445 31.9419C90.6445 35.4077 92.2646 37.3149 95.5459 37.3149C98.9092 37.3149 101.104 34.9155 101.104 31.2856L101.104 18.7349L104.672 18.7349L104.672 40.063L101.104 40.063L101.104 37.0278L101.021 37.0278ZM171.343 40.063L167.774 40.063L167.774 18.7349L171.343 18.7349L171.343 40.063ZM216.234 41.396C214.717 45.4771 212.851 47.2407 208.995 47.2407C208.298 47.2407 207.539 47.1587 207.088 47.0767L207.088 44.1646C207.396 44.2261 207.806 44.2876 208.236 44.2876C210.492 44.2876 211.743 43.7134 212.604 41.2935L213.035 40.0835L205.119 18.7349L208.934 18.7349L214.819 36.4946L214.901 36.4946L220.808 18.7349L224.561 18.7349L216.234 41.396ZM263.505 37.0278C262.356 39.0171 260.183 40.4731 256.942 40.4731C252.267 40.4731 249.56 37.438 249.56 32.5776L249.56 18.7349L253.128 18.7349L253.128 31.9419C253.128 35.4077 254.748 37.3149 258.029 37.3149C261.393 37.3149 263.587 34.9155 263.587 31.2856L263.587 18.7349L267.155 18.7349L267.155 40.063L263.587 40.063L263.587 37.0278L263.505 37.0278ZM40.2158 21.4829C43.333 21.4829 45.6299 23.4312 45.9785 27.5737L34.3096 27.5737C34.6992 23.5952 37.1191 21.4829 40.2158 21.4829ZM132.173 27.5737C131.824 23.4312 129.527 21.4829 126.41 21.4829C123.313 21.4829 120.894 23.5952 120.504 27.5737L132.173 27.5737ZM236.229 37.3149C232.456 37.3149 229.975 34.4233 229.975 29.3989L229.975 29.3579C229.975 24.3745 232.477 21.4829 236.188 21.4829C239.962 21.4829 242.423 24.354 242.423 29.3579L242.423 29.3989C242.423 34.4028 239.982 37.3149 236.229 37.3149ZM296.892 29.4194C296.892 34.1772 299.476 37.3149 303.064 37.3149C306.838 37.3149 309.176 34.2798 309.176 29.4194L309.176 29.3989C309.176 24.4976 306.838 21.4829 303.064 21.4829C299.455 21.4829 296.892 24.6206 296.892 29.3989L296.892 29.4194ZM325.274 37.3149C321.501 37.3149 319.02 34.4233 319.02 29.3989L319.02 29.3579C319.02 24.3745 321.521 21.4829 325.233 21.4829C329.007 21.4829 331.468 24.354 331.468 29.3579L331.468 29.3989C331.468 34.4028 329.027 37.3149 325.274 37.3149ZM394.427 27.5737C394.078 23.4312 391.781 21.4829 388.664 21.4829C385.567 21.4829 383.147 23.5952 382.758 27.5737L394.427 27.5737ZM418.831 38.0122C418.831 39.3247 417.806 40.3501 416.493 40.3501C415.181 40.3501 414.155 39.3247 414.155 38.0122C414.155 36.6997 415.181 35.6743 416.493 35.6743C417.806 35.6743 418.831 36.6997 418.831 38.0122Z" />
  </g>
</svg>