<?xml version="1.0" encoding="utf-8"?>
<svg width="879px" height="186px" viewBox="0 0 879 186" version="1.1" xmlns:xlink="http://www.w3.org/1999/xlink" xmlns="http://www.w3.org/2000/svg">
  <defs>
    <path d="M0 0L76.5483 0L76.5483 91.3943L0 91.3943L0 0Z" id="path_1" />
    <clipPath id="mask_1">
      <use xlink:href="#path_1" />
    </clipPath>
  </defs>
  <g id="Group-4">
    <g id="apple-13" transform="translate(0 22.99997)">
      <path d="M0 0L76.5483 0L76.5483 91.3943L0 91.3943L0 0Z" id="Background" fill="none" fill-rule="evenodd" stroke="none" />
      <g clip-path="url(#mask_1)">
        <path d="M64.0004 48.1376C63.9597 40.6739 67.3357 35.0406 74.1689 30.8918C70.3455 25.4212 64.5698 22.4113 56.9435 21.8215C49.7239 21.2521 41.8331 26.0313 38.9453 26.0313C35.8947 26.0313 28.8988 22.0249 23.4078 22.0249C12.0598 22.2079 0 31.0749 0 49.1138C0 54.442 0.976174 59.9466 2.92852 65.6274C5.53165 73.091 14.9273 91.3943 24.7297 91.0893C29.8547 90.9672 33.4746 87.449 40.1451 87.449C46.6123 87.449 49.9679 91.0893 55.6826 91.0893C65.5663 90.9469 74.0672 74.3113 76.5483 66.8273C63.2886 60.5838 64.0004 48.524 64.0004 48.1376L64.0004 48.1376ZM52.4897 14.7443C58.0417 8.15512 57.5333 2.15572 57.3706 0C52.4694 0.284718 46.7954 3.33526 43.5618 7.0976C40.0028 11.1243 37.9081 16.1069 38.3555 21.7199C43.6635 22.1266 48.5037 19.4015 52.4897 14.7443L52.4897 14.7443Z" id="Shape" fill="#000000" fill-rule="evenodd" stroke="none" />
      </g>
    </g>
    <g id="iPhone-13-Pro" transform="translate(91.54828 0)">
      <path d="M15.0757 39.1304C20.4468 39.1304 24.5972 34.9189 24.5972 29.853C24.5972 24.7871 20.4468 20.5757 15.0757 20.5757C9.70459 20.5757 5.5542 24.7871 5.5542 29.853C5.5542 34.9189 9.70459 39.1304 15.0757 39.1304ZM517.09 114.509C537.659 114.509 551.331 103.889 551.331 88.1416L551.331 88.0195C551.331 76.0566 542.786 68.4883 529.724 67.2676L529.724 66.9014C540.039 64.7651 548.096 57.624 548.096 46.6377L548.096 46.5156C548.096 32.6606 535.889 23.3833 516.907 23.3833C498.413 23.3833 486.023 33.3931 484.802 48.6519L484.741 49.3843L501.648 49.3843L501.709 48.835C502.441 41.999 508.301 37.5435 516.907 37.5435C525.574 37.5435 530.64 41.8159 530.64 48.957L530.64 49.0791C530.64 56.2202 524.658 61.103 515.442 61.103L505.615 61.103L505.615 74.2256L515.686 74.2256C526.306 74.2256 532.593 78.8643 532.593 87.2871L532.593 87.4092C532.593 94.6113 526.489 99.6772 517.029 99.6772C507.507 99.6772 501.282 94.9775 500.488 88.6909L500.366 88.0195L482.788 88.0195L482.849 88.813C484.07 104.011 497.131 114.509 517.09 114.509ZM37.4146 112.983L55.8472 112.983L55.8472 85.2119L72.8149 85.2119C91.3696 85.2119 103.76 73.249 103.76 55.1216L103.76 54.9995C103.76 36.8721 91.3696 24.9092 72.8149 24.9092L37.4146 24.9092L37.4146 112.983ZM131.348 112.983L113.525 112.983L113.525 24.9092L131.348 24.9092L131.348 58.8447L131.714 58.8447C135.071 50.7271 141.968 46.2104 151.794 46.2104C165.955 46.2104 174.744 56.0981 174.744 71.9062L174.744 112.983L156.921 112.983L156.921 75.5684C156.921 66.4131 152.405 60.981 144.287 60.981C136.414 60.981 131.348 66.9624 131.348 75.5073L131.348 112.983ZM464.6 112.983L446.35 112.983L446.35 41.8159L445.984 41.8159L423.523 57.0747L423.523 40.7173L446.289 24.9092L464.6 24.9092L464.6 112.983ZM607.3 112.983L588.867 112.983L588.867 24.9092L624.268 24.9092C642.822 24.9092 655.212 36.8721 655.212 54.9995L655.212 55.1216C655.212 73.249 642.822 85.2119 624.268 85.2119L607.3 85.2119L607.3 112.983ZM68.2983 39.4966C78.8574 39.4966 85.083 45.0508 85.083 55.0605L85.083 55.1826C85.083 65.1924 78.8574 70.8076 68.2983 70.8076L55.8472 70.8076L55.8472 39.4966L68.2983 39.4966ZM636.536 55.0605C636.536 45.0508 630.31 39.4966 619.751 39.4966L607.3 39.4966L607.3 70.8076L619.751 70.8076C630.31 70.8076 636.536 65.1924 636.536 55.1826L636.536 55.0605ZM216.187 114.326C235.962 114.326 248.596 101.63 248.596 80.2681L248.596 80.146C248.596 58.9668 235.718 46.2104 216.125 46.2104C196.594 46.2104 183.777 59.0889 183.777 80.146L183.777 80.2681C183.777 101.569 196.289 114.326 216.187 114.326ZM275.574 112.983L257.751 112.983L257.751 47.5532L275.574 47.5532L275.574 58.2954L275.94 58.2954C279.297 50.7881 286.011 46.2104 295.898 46.2104C310.303 46.2104 318.481 55.4268 318.481 70.7466L318.481 112.983L300.659 112.983L300.659 74.4087C300.659 65.8638 296.631 60.981 288.635 60.981C280.64 60.981 275.574 66.8403 275.574 75.3853L275.574 112.983ZM359.558 114.326C378.235 114.326 387.268 103.278 389.282 93.6348L389.465 92.9634L373.108 92.9634L372.986 93.3296C371.704 96.9917 367.249 101.02 359.924 101.02C350.83 101.02 345.154 94.9165 344.971 84.4795L390.015 84.4795L390.015 78.9863C390.015 59.2109 377.991 46.2104 358.826 46.2104C339.661 46.2104 327.393 59.5161 327.393 80.3291L327.393 80.3901C327.393 101.325 339.539 114.326 359.558 114.326ZM664.551 112.983L682.373 112.983L682.373 76.3618C682.373 66.8403 687.5 61.5913 696.289 61.5913C698.853 61.5913 701.294 61.9575 702.759 62.5679L702.759 46.8818C701.416 46.5156 699.585 46.2104 697.632 46.2104C690.002 46.2104 684.692 50.9102 682.739 58.9668L682.373 58.9668L682.373 47.5532L664.551 47.5532L664.551 112.983ZM772.461 80.2681C772.461 101.63 759.827 114.326 740.051 114.326C720.154 114.326 707.642 101.569 707.642 80.2681L707.642 80.146C707.642 59.0889 720.459 46.2104 739.99 46.2104C759.583 46.2104 772.461 58.9668 772.461 80.146L772.461 80.2681ZM23.9868 112.983L23.9868 47.5532L6.16455 47.5532L6.16455 112.983L23.9868 112.983ZM359.131 59.5161C366.516 59.5161 371.826 64.2158 372.925 73.249L345.154 73.249C346.313 64.3989 351.807 59.5161 359.131 59.5161ZM216.248 100.349C207.458 100.349 201.904 93.0854 201.904 80.2681L201.904 80.146C201.904 67.5117 207.52 60.1875 216.125 60.1875C224.792 60.1875 230.469 67.5117 230.469 80.146L230.469 80.2681C230.469 93.0244 224.915 100.349 216.248 100.349ZM725.769 80.2681C725.769 93.0854 731.323 100.349 740.112 100.349C748.779 100.349 754.333 93.0244 754.333 80.2681L754.333 80.146C754.333 67.5117 748.657 60.1875 739.99 60.1875C731.384 60.1875 725.769 67.5117 725.769 80.146L725.769 80.2681Z" />
    </g>
  </g>
  <g id="Oh.-So.-Pro." transform="translate(336.54828 135.99997)">
    <path d="M28.998 25.2769C28.998 34.6694 23.7686 40.5552 15.3809 40.5552C6.97266 40.5552 1.72266 34.6694 1.72266 25.2769L1.72266 25.2358C1.72266 15.8638 6.99316 9.97803 15.3809 9.97803C23.748 9.97803 28.998 15.8638 28.998 25.2358L28.998 25.2769ZM94.4795 31.9829C94.4795 37.2329 90.3164 40.5552 83.5488 40.5552C77.1504 40.5552 72.8232 37.4175 72.4541 32.3521L72.4336 32.0649L76.125 32.0649L76.166 32.3521C76.5967 35.3257 79.4678 37.1509 83.7539 37.1509C88.0195 37.1509 90.7061 35.2231 90.7061 32.1675L90.7061 32.147C90.7061 29.5425 89.0039 28.0864 84.9434 27.1841L81.6621 26.4663C75.8789 25.1948 73.1719 22.5903 73.1719 18.2632L73.1719 18.2427C73.1924 13.3823 77.499 9.97803 83.5898 9.97803C89.373 9.97803 93.5977 13.3208 93.9258 18.1606L93.9463 18.4683L90.2549 18.4683L90.2139 18.1812C89.7627 15.1665 87.2402 13.3823 83.4873 13.3823C79.5293 13.4028 76.9453 15.2896 76.9453 18.1401L76.9453 18.1606C76.9453 20.5806 78.7295 22.0981 82.585 22.939L85.8662 23.6567C91.9365 24.9897 94.4795 27.4507 94.4795 31.9624L94.4795 31.9829ZM36.791 40.063L33.2227 40.063L33.2227 10.4702L36.791 10.4702L36.791 22.1392L36.873 22.1392C38.0215 19.7397 40.3389 18.3247 43.5176 18.3247C48.0498 18.3247 51.1465 21.8315 51.1465 26.9995L51.1465 40.063L47.5781 40.063L47.5781 27.6147C47.5781 23.7593 45.6094 21.4829 42.2871 21.4829C38.9854 21.4829 36.791 23.9849 36.791 27.6147L36.791 40.063ZM138.715 40.063L142.406 40.063L142.406 29.5015L149.256 29.5015C154.813 29.5015 158.751 25.5845 158.751 19.9653L158.751 19.9243C158.751 14.3052 154.813 10.4702 149.256 10.4702L138.715 10.4702L138.715 40.063ZM5.49609 25.2769C5.49609 32.5571 9.31055 37.1509 15.3809 37.1509C21.4717 37.1509 25.2246 32.4956 25.2246 25.2769L25.2246 25.2358C25.2246 17.9761 21.4102 13.3823 15.3809 13.3823C9.33105 13.3823 5.49609 17.9556 5.49609 25.2358L5.49609 25.2769ZM148.312 13.7515C152.537 13.7515 154.978 16.0688 154.978 19.9653L154.978 20.0063C154.978 23.9028 152.537 26.2202 148.312 26.2202L142.406 26.2202L142.406 13.7515L148.312 13.7515ZM107.071 40.4731C112.957 40.4731 116.936 36.2075 116.936 29.3989L116.936 29.3579C116.936 22.5493 112.937 18.3247 107.051 18.3247C101.165 18.3247 97.1865 22.5698 97.1865 29.3579L97.1865 29.3989C97.1865 36.187 101.145 40.4731 107.071 40.4731ZM165.99 40.063L162.422 40.063L162.422 18.7349L165.99 18.7349L165.99 22.3442L166.072 22.3442C166.79 19.8833 168.636 18.3247 171.035 18.3247C171.65 18.3247 172.184 18.4272 172.471 18.4683L172.471 21.9341C172.184 21.8315 171.425 21.729 170.563 21.729C167.795 21.729 165.99 23.6567 165.99 26.897L165.99 40.063ZM184.201 40.4731C190.087 40.4731 194.065 36.2075 194.065 29.3989L194.065 29.3579C194.065 22.5493 190.066 18.3247 184.181 18.3247C178.295 18.3247 174.316 22.5698 174.316 29.3579L174.316 29.3989C174.316 36.187 178.274 40.4731 184.201 40.4731ZM107.092 37.3149C103.318 37.3149 100.837 34.4233 100.837 29.3989L100.837 29.3579C100.837 24.3745 103.339 21.4829 107.051 21.4829C110.824 21.4829 113.285 24.354 113.285 29.3579L113.285 29.3989C113.285 34.4028 110.845 37.3149 107.092 37.3149ZM184.222 37.3149C180.448 37.3149 177.967 34.4233 177.967 29.3989L177.967 29.3579C177.967 24.3745 180.469 21.4829 184.181 21.4829C187.954 21.4829 190.415 24.354 190.415 29.3579L190.415 29.3989C190.415 34.4028 187.975 37.3149 184.222 37.3149ZM57.873 40.3501C59.1855 40.3501 60.2109 39.3247 60.2109 38.0122C60.2109 36.6997 59.1855 35.6743 57.873 35.6743C56.5605 35.6743 55.5352 36.6997 55.5352 38.0122C55.5352 39.3247 56.5605 40.3501 57.873 40.3501ZM125.057 38.0122C125.057 39.3247 124.031 40.3501 122.719 40.3501C121.406 40.3501 120.381 39.3247 120.381 38.0122C120.381 36.6997 121.406 35.6743 122.719 35.6743C124.031 35.6743 125.057 36.6997 125.057 38.0122ZM202.187 38.0122C202.187 39.3247 201.161 40.3501 199.849 40.3501C198.536 40.3501 197.511 39.3247 197.511 38.0122C197.511 36.6997 198.536 35.6743 199.849 35.6743C201.161 35.6743 202.187 36.6997 202.187 38.0122Z" />
  </g>
</svg>