<?xml version="1.0" encoding="utf-8"?>
<svg width="672px" height="184px" viewBox="0 0 672 184" version="1.1" xmlns:xlink="http://www.w3.org/1999/xlink" xmlns="http://www.w3.org/2000/svg">
  <defs>
    <path d="M0 0L100 0L100 119.394L0 119.394L0 0Z" id="path_1" />
    <clipPath id="mask_1">
      <use xlink:href="#path_1" />
    </clipPath>
  </defs>
  <g id="Group">
    <g id="apple-13">
      <path d="M0 0L100 0L100 119.394L0 119.394L0 0Z" id="Background" fill="none" fill-rule="evenodd" stroke="none" />
      <g clip-path="url(#mask_1)">
        <path d="M83.6079 62.8853C83.5547 53.135 87.9649 45.7758 96.8916 40.356C91.8969 33.2094 84.3518 29.2774 74.389 28.5069C64.9575 27.763 54.6493 34.0064 50.8767 34.0064C46.8916 34.0064 37.7524 28.7726 30.5792 28.7726C15.7545 29.0117 0 40.5951 0 64.1605C0 71.1212 1.27524 78.3121 3.82572 85.7333C7.22636 95.4836 19.5005 119.394 32.3061 118.996C39.0011 118.836 43.7301 114.24 52.4442 114.24C60.8927 114.24 65.2763 118.996 72.7418 118.996C85.6536 118.81 96.7588 97.0776 100 87.3008C82.678 79.1446 83.6079 63.39 83.6079 62.8853L83.6079 62.8853ZM68.5707 19.2614C75.8236 10.6536 75.1594 2.81615 74.9469 0C68.5441 0.371945 61.1318 4.35707 56.9075 9.27206C52.2582 14.5324 49.5218 21.0415 50.1063 28.3741C57.0404 28.9054 63.3634 25.3454 68.5707 19.2614L68.5707 19.2614Z" id="Shape" fill="#000000" fill-rule="evenodd" stroke="none" />
      </g>
    </g>
    <g id="iPhone-13" transform="translate(115 14.0000305)">
      <path d="M24.5972 21.353C24.5972 26.4189 20.4468 30.6304 15.0757 30.6304C9.70459 30.6304 5.5542 26.4189 5.5542 21.353C5.5542 16.2871 9.70459 12.0757 15.0757 12.0757C20.4468 12.0757 24.5972 16.2871 24.5972 21.353ZM551.331 79.6416C551.331 95.3887 537.659 106.009 517.09 106.009C497.131 106.009 484.07 95.5107 482.849 80.313L482.788 79.5195L500.366 79.5195L500.488 80.1909C501.282 86.4775 507.507 91.1772 517.029 91.1772C526.489 91.1772 532.593 86.1113 532.593 78.9092L532.593 78.7871C532.593 70.3643 526.306 65.7256 515.686 65.7256L505.615 65.7256L505.615 52.603L515.442 52.603C524.658 52.603 530.64 47.7202 530.64 40.5791L530.64 40.457C530.64 33.3159 525.574 29.0435 516.907 29.0435C508.301 29.0435 502.441 33.499 501.709 40.335L501.648 40.8843L484.741 40.8843L484.802 40.1519C486.023 24.8931 498.413 14.8833 516.907 14.8833C535.889 14.8833 548.096 24.1606 548.096 38.0156L548.096 38.1377C548.096 49.124 540.039 56.2651 529.724 58.4014L529.724 58.7676C542.786 59.9883 551.331 67.5566 551.331 79.5195L551.331 79.6416ZM55.8472 104.483L37.4146 104.483L37.4146 16.4092L72.8149 16.4092C91.3696 16.4092 103.76 28.3721 103.76 46.4995L103.76 46.6216C103.76 64.749 91.3696 76.7119 72.8149 76.7119L55.8472 76.7119L55.8472 104.483ZM113.525 104.483L131.348 104.483L131.348 67.0073C131.348 58.4624 136.414 52.481 144.287 52.481C152.405 52.481 156.921 57.9131 156.921 67.0684L156.921 104.483L174.744 104.483L174.744 63.4062C174.744 47.5981 165.955 37.7104 151.794 37.7104C141.968 37.7104 135.071 42.2271 131.714 50.3447L131.348 50.3447L131.348 16.4092L113.525 16.4092L113.525 104.483ZM446.35 104.483L464.6 104.483L464.6 16.4092L446.289 16.4092L423.523 32.2173L423.523 48.5747L445.984 33.3159L446.35 33.3159L446.35 104.483ZM85.083 46.5605C85.083 36.5508 78.8574 30.9966 68.2983 30.9966L55.8472 30.9966L55.8472 62.3076L68.2983 62.3076C78.8574 62.3076 85.083 56.6924 85.083 46.6826L85.083 46.5605ZM248.596 71.7681C248.596 93.1304 235.962 105.826 216.187 105.826C196.289 105.826 183.777 93.0693 183.777 71.7681L183.777 71.646C183.777 50.5889 196.594 37.7104 216.125 37.7104C235.718 37.7104 248.596 50.4668 248.596 71.646L248.596 71.7681ZM257.751 104.483L275.574 104.483L275.574 66.8853C275.574 58.3403 280.64 52.481 288.635 52.481C296.631 52.481 300.659 57.3638 300.659 65.9087L300.659 104.483L318.481 104.483L318.481 62.2466C318.481 46.9268 310.303 37.7104 295.898 37.7104C286.011 37.7104 279.297 42.2881 275.94 49.7954L275.574 49.7954L275.574 39.0532L257.751 39.0532L257.751 104.483ZM389.282 85.1348C387.268 94.7783 378.235 105.826 359.558 105.826C339.539 105.826 327.393 92.8252 327.393 71.8901L327.393 71.8291C327.393 51.0161 339.661 37.7104 358.826 37.7104C377.991 37.7104 390.015 50.7109 390.015 70.4863L390.015 75.9795L344.971 75.9795C345.154 86.4165 350.83 92.52 359.924 92.52C367.249 92.52 371.704 88.4917 372.986 84.8296L373.108 84.4634L389.465 84.4634L389.282 85.1348ZM23.9868 39.0532L23.9868 104.483L6.16455 104.483L6.16455 39.0532L23.9868 39.0532ZM372.925 64.749C371.826 55.7158 366.516 51.0161 359.131 51.0161C351.807 51.0161 346.313 55.8989 345.154 64.749L372.925 64.749ZM201.904 71.7681C201.904 84.5854 207.458 91.8486 216.248 91.8486C224.915 91.8486 230.469 84.5244 230.469 71.7681L230.469 71.646C230.469 59.0117 224.792 51.6875 216.125 51.6875C207.52 51.6875 201.904 59.0117 201.904 71.646L201.904 71.7681Z" />
    </g>
  </g>
  <g id="Your-new-superpower." transform="translate(140 133.00003)">
    <path d="M14.7041 40.063L11.0127 40.063L11.0127 27.3276L0.512695 10.4702L4.7168 10.4702L12.7969 23.7593L12.9199 23.7593L21 10.4702L25.2041 10.4702L14.7041 27.3276L14.7041 40.063ZM46.7373 29.3989C46.7373 36.2075 42.7588 40.4731 36.873 40.4731C30.9463 40.4731 26.9883 36.187 26.9883 29.3989L26.9883 29.3579C26.9883 22.5698 30.9668 18.3247 36.8525 18.3247C42.7383 18.3247 46.7373 22.5493 46.7373 29.3579L46.7373 29.3989ZM76.0225 40.063L72.4541 40.063L72.4541 18.7349L76.0225 18.7349L76.0225 22.3442L76.1045 22.3442C76.8223 19.8833 78.668 18.3247 81.0674 18.3247C81.6826 18.3247 82.2158 18.4272 82.5029 18.4683L82.5029 21.9341C82.2158 21.8315 81.457 21.729 80.5957 21.729C77.8271 21.729 76.0225 23.6567 76.0225 26.897L76.0225 40.063ZM94.0078 40.063L97.5762 40.063L97.5762 27.5122C97.5762 23.8823 99.7705 21.4829 103.134 21.4829C106.415 21.4829 108.035 23.3901 108.035 26.856L108.035 40.063L111.604 40.063L111.604 26.2202C111.604 21.3599 108.896 18.3247 104.221 18.3247C100.98 18.3247 98.8066 19.7808 97.6582 21.77L97.5762 21.77L97.5762 18.7349L94.0078 18.7349L94.0078 40.063ZM133.752 34.1567C133.055 37.6841 129.568 40.4731 124.913 40.4731C118.781 40.4731 115.09 36.187 115.09 29.481L115.09 29.4604C115.09 22.8569 118.863 18.3247 124.688 18.3247C130.512 18.3247 134.06 22.6519 134.06 29.0503L134.06 30.3628L118.699 30.3628C118.781 34.7515 121.201 37.3149 124.995 37.3149C127.702 37.3149 129.609 35.9614 130.225 34.1362L130.286 33.9517L133.793 33.9517L133.752 34.1567ZM192.158 34.1157C192.158 37.8481 188.631 40.4731 183.873 40.4731C178.849 40.4731 175.813 37.9097 175.383 34.0952L175.362 33.9106L178.931 33.9106L178.972 34.1157C179.402 36.2485 180.981 37.4995 183.894 37.4995C186.785 37.4995 188.508 36.2896 188.508 34.3618L188.508 34.3413C188.508 32.8032 187.708 31.9419 185.288 31.3472L181.904 30.5269C177.885 29.563 175.937 27.6968 175.937 24.6206L175.937 24.6001C175.937 20.9292 179.156 18.3247 183.771 18.3247C188.446 18.3247 191.42 21.0522 191.687 24.6206L191.707 24.8872L188.303 24.8872L188.282 24.7437C187.995 22.6724 186.416 21.2983 183.771 21.2983C181.187 21.2983 179.587 22.5493 179.587 24.436L179.587 24.4565C179.587 25.9126 180.551 26.9175 182.909 27.4917L186.293 28.312C190.6 29.3579 192.158 31.0601 192.158 34.0952L192.158 34.1157ZM221.546 47.2407L217.978 47.2407L217.978 18.7349L221.546 18.7349L221.546 22.3442L221.628 22.3442C222.961 19.8628 225.34 18.3247 228.396 18.3247C233.851 18.3247 237.46 22.6724 237.46 29.3989L237.46 29.4194C237.46 36.146 233.81 40.4731 228.457 40.4731C225.442 40.4731 222.961 38.9556 221.628 36.4946L221.546 36.4946L221.546 47.2407ZM249.826 40.4731C254.481 40.4731 257.968 37.6841 258.665 34.1567L258.706 33.9517L255.199 33.9517L255.138 34.1362C254.522 35.9614 252.615 37.3149 249.908 37.3149C246.114 37.3149 243.694 34.7515 243.612 30.3628L258.973 30.3628L258.973 29.0503C258.973 22.6519 255.425 18.3247 249.601 18.3247C243.776 18.3247 240.003 22.8569 240.003 29.4604L240.003 29.481C240.003 36.187 243.694 40.4731 249.826 40.4731ZM266.13 40.063L262.562 40.063L262.562 18.7349L266.13 18.7349L266.13 22.3442L266.212 22.3442C266.93 19.8833 268.775 18.3247 271.175 18.3247C271.79 18.3247 272.323 18.4272 272.61 18.4683L272.61 21.9341C272.323 21.8315 271.564 21.729 270.703 21.729C267.935 21.729 266.13 23.6567 266.13 26.897L266.13 40.063ZM275.502 47.2407L279.07 47.2407L279.07 36.4946L279.152 36.4946C280.485 38.9556 282.967 40.4731 285.981 40.4731C291.334 40.4731 294.984 36.146 294.984 29.4194L294.984 29.3989C294.984 22.6724 291.375 18.3247 285.92 18.3247C282.864 18.3247 280.485 19.8628 279.152 22.3442L279.07 22.3442L279.07 18.7349L275.502 18.7349L275.502 47.2407ZM317.276 29.3989C317.276 36.2075 313.298 40.4731 307.412 40.4731C301.485 40.4731 297.527 36.187 297.527 29.3989L297.527 29.3579C297.527 22.5698 301.506 18.3247 307.392 18.3247C313.277 18.3247 317.276 22.5493 317.276 29.3579L317.276 29.3989ZM368.525 34.1567C367.828 37.6841 364.342 40.4731 359.687 40.4731C353.555 40.4731 349.863 36.187 349.863 29.481L349.863 29.4604C349.863 22.8569 353.637 18.3247 359.461 18.3247C365.285 18.3247 368.833 22.6519 368.833 29.0503L368.833 30.3628L353.473 30.3628C353.555 34.7515 355.975 37.3149 359.769 37.3149C362.476 37.3149 364.383 35.9614 364.998 34.1362L365.06 33.9517L368.566 33.9517L368.525 34.1567ZM372.422 40.063L375.99 40.063L375.99 26.897C375.99 23.6567 377.795 21.729 380.563 21.729C381.425 21.729 382.184 21.8315 382.471 21.9341L382.471 18.4683C382.184 18.4272 381.65 18.3247 381.035 18.3247C378.636 18.3247 376.79 19.8833 376.072 22.3442L375.99 22.3442L375.99 18.7349L372.422 18.7349L372.422 40.063ZM57.6064 40.4731C60.8467 40.4731 63.0205 39.0171 64.1689 37.0278L64.251 37.0278L64.251 40.063L67.8193 40.063L67.8193 18.7349L64.251 18.7349L64.251 31.2856C64.251 34.9155 62.0566 37.3149 58.6934 37.3149C55.4121 37.3149 53.792 35.4077 53.792 31.9419L53.792 18.7349L50.2236 18.7349L50.2236 32.5776C50.2236 37.438 52.9307 40.4731 57.6064 40.4731ZM141.873 40.063L145.503 40.063L150.302 23.5542L150.384 23.5542L155.203 40.063L158.833 40.063L164.78 18.7349L161.253 18.7349L156.987 36.0845L156.905 36.0845L152.065 18.7349L148.62 18.7349L143.801 36.0845L143.719 36.0845L139.453 18.7349L135.905 18.7349L141.873 40.063ZM203.13 40.4731C206.37 40.4731 208.544 39.0171 209.692 37.0278L209.774 37.0278L209.774 40.063L213.343 40.063L213.343 18.7349L209.774 18.7349L209.774 31.2856C209.774 34.9155 207.58 37.3149 204.217 37.3149C200.936 37.3149 199.315 35.4077 199.315 31.9419L199.315 18.7349L195.747 18.7349L195.747 32.5776C195.747 37.438 198.454 40.4731 203.13 40.4731ZM325.09 40.063L328.72 40.063L333.519 23.5542L333.601 23.5542L338.42 40.063L342.05 40.063L347.997 18.7349L344.47 18.7349L340.204 36.0845L340.122 36.0845L335.282 18.7349L331.837 18.7349L327.018 36.0845L326.936 36.0845L322.67 18.7349L319.122 18.7349L325.09 40.063ZM30.6387 29.3989C30.6387 34.4233 33.1201 37.3149 36.8936 37.3149C40.6465 37.3149 43.0869 34.4028 43.0869 29.3989L43.0869 29.3579C43.0869 24.354 40.626 21.4829 36.8525 21.4829C33.1406 21.4829 30.6387 24.3745 30.6387 29.3579L30.6387 29.3989ZM130.43 27.5737C130.081 23.4312 127.784 21.4829 124.667 21.4829C121.57 21.4829 119.15 23.5952 118.761 27.5737L130.43 27.5737ZM221.525 29.4194C221.525 34.1772 224.109 37.3149 227.698 37.3149C231.472 37.3149 233.81 34.2798 233.81 29.4194L233.81 29.3989C233.81 24.4976 231.472 21.4829 227.698 21.4829C224.089 21.4829 221.525 24.6206 221.525 29.3989L221.525 29.4194ZM249.58 21.4829C252.697 21.4829 254.994 23.4312 255.343 27.5737L243.674 27.5737C244.063 23.5952 246.483 21.4829 249.58 21.4829ZM285.223 37.3149C281.634 37.3149 279.05 34.1772 279.05 29.4194L279.05 29.3989C279.05 24.6206 281.613 21.4829 285.223 21.4829C288.996 21.4829 291.334 24.4976 291.334 29.3989L291.334 29.4194C291.334 34.2798 288.996 37.3149 285.223 37.3149ZM301.178 29.3989C301.178 34.4233 303.659 37.3149 307.433 37.3149C311.186 37.3149 313.626 34.4028 313.626 29.3989L313.626 29.3579C313.626 24.354 311.165 21.4829 307.392 21.4829C303.68 21.4829 301.178 24.3745 301.178 29.3579L301.178 29.3989ZM365.203 27.5737C364.854 23.4312 362.558 21.4829 359.44 21.4829C356.344 21.4829 353.924 23.5952 353.534 27.5737L365.203 27.5737ZM389.895 38.0122C389.895 39.3247 388.869 40.3501 387.557 40.3501C386.244 40.3501 385.219 39.3247 385.219 38.0122C385.219 36.6997 386.244 35.6743 387.557 35.6743C388.869 35.6743 389.895 36.6997 389.895 38.0122Z" />
  </g>
</svg>