<?xml version="1.0" encoding="utf-8"?>
<svg width="846px" height="169px" viewBox="0 0 846 169" version="1.1" xmlns:xlink="http://www.w3.org/1999/xlink" xmlns="http://www.w3.org/2000/svg">
  <defs>
    <path d="M0 0L76.5483 0L76.5483 91.3943L0 91.3943L0 0Z" id="path_1" />
    <clipPath id="mask_1">
      <use xlink:href="#path_1" />
    </clipPath>
  </defs>
  <g id="Group-3">
    <g id="apple-13" transform="translate(0 14)">
      <path d="M0 0L76.5483 0L76.5483 91.3943L0 91.3943L0 0Z" id="Background" fill="none" fill-rule="evenodd" stroke="none" />
      <g clip-path="url(#mask_1)">
        <path d="M64.0004 48.1376C63.9597 40.6739 67.3357 35.0406 74.1689 30.8918C70.3455 25.4212 64.5698 22.4113 56.9435 21.8215C49.7239 21.2521 41.8331 26.0313 38.9453 26.0313C35.8947 26.0313 28.8988 22.0249 23.4078 22.0249C12.0598 22.2079 0 31.0749 0 49.1138C0 54.442 0.976174 59.9466 2.92852 65.6274C5.53165 73.091 14.9273 91.3943 24.7297 91.0893C29.8547 90.9672 33.4746 87.449 40.1451 87.449C46.6123 87.449 49.9679 91.0893 55.6826 91.0893C65.5663 90.9469 74.0672 74.3113 76.5483 66.8273C63.2886 60.5838 64.0004 48.524 64.0004 48.1376L64.0004 48.1376ZM52.4897 14.7443C58.0417 8.15512 57.5333 2.15572 57.3706 0C52.4694 0.284718 46.7954 3.33526 43.5618 7.0976C40.0028 11.1243 37.9081 16.1069 38.3555 21.7199C43.6635 22.1266 48.5037 19.4015 52.4897 14.7443L52.4897 14.7443Z" id="Shape" fill="#000000" fill-rule="evenodd" stroke="none" />
      </g>
    </g>
    <g id="MacBook-Pro" transform="translate(91.54828 0)">
      <path d="M23.7427 104.483L7.32422 104.483L7.32422 16.4092L28.6255 16.4092L53.6499 79.7026L54.0161 79.7026L79.0405 16.4092L100.342 16.4092L100.342 104.483L83.9233 104.483L83.9233 44.9126L83.374 44.9126L59.6313 104.483L48.0347 104.483L24.231 44.9126L23.7427 44.9126L23.7427 104.483ZM290.527 104.483L251.526 104.483L251.526 16.4092L289.856 16.4092C306.458 16.4092 316.895 24.9541 316.895 38.5039L316.895 38.626C316.895 48.2695 309.57 56.5093 299.866 57.791L299.866 58.1572C312.134 59.0728 320.984 67.7397 320.984 79.2754L320.984 79.3975C320.984 94.8394 309.326 104.483 290.527 104.483ZM473.755 104.483L491.577 104.483L491.577 82.8154L496.155 77.7495L514.893 104.483L535.461 104.483L509.521 67.1904L534.241 39.0532L514.038 39.0532L491.943 65.2373L491.577 65.2373L491.577 16.4092L473.755 16.4092L473.755 104.483ZM585.083 104.483L566.65 104.483L566.65 16.4092L602.051 16.4092C620.605 16.4092 632.996 28.3721 632.996 46.4995L632.996 46.6216C632.996 64.749 620.605 76.7119 602.051 76.7119L585.083 76.7119L585.083 104.483ZM298.767 41.1284C298.767 34.1094 293.701 30.0811 285.095 30.0811L269.958 30.0811L269.958 53.2134L282.837 53.2134C293.213 53.2134 298.767 48.8799 298.767 41.2505L298.767 41.1284ZM614.319 46.5605C614.319 36.5508 608.093 30.9966 597.534 30.9966L585.083 30.9966L585.083 62.3076L597.534 62.3076C608.093 62.3076 614.319 56.6924 614.319 46.6826L614.319 46.5605ZM152.222 94.7173C148.499 101.431 141.541 105.521 132.935 105.521C119.812 105.521 110.962 97.2808 110.962 85.7451L110.962 85.623C110.962 73.7212 120.178 66.7632 136.414 65.7256L152.588 64.749L152.588 60.7207C152.588 54.9224 148.804 51.3213 141.846 51.3213C135.193 51.3213 131.165 54.4341 130.31 58.6455L130.188 59.1948L113.892 59.1948L113.953 58.4624C114.929 46.3774 125.305 37.7104 142.578 37.7104C159.485 37.7104 170.41 46.4385 170.41 59.6221L170.41 104.483L152.588 104.483L152.588 94.7173L152.222 94.7173ZM211.792 105.826C229.248 105.826 240.54 94.9614 241.394 80.6792L241.394 80.313L224.792 80.313L224.731 80.8623C223.511 87.4541 219.055 91.8486 211.914 91.8486C203.125 91.8486 197.632 84.5854 197.632 71.7681L197.632 71.707C197.632 59.1948 203.125 51.6875 211.853 51.6875C219.238 51.6875 223.572 56.4482 224.67 62.6738L224.792 63.2231L241.333 63.2231L241.333 62.7959C240.662 48.6357 229.37 37.7104 211.609 37.7104C192.017 37.7104 179.504 50.7109 179.504 71.646L179.504 71.707C179.504 92.8252 191.833 105.826 211.792 105.826ZM359.985 105.826C379.761 105.826 392.395 93.1304 392.395 71.7681L392.395 71.646C392.395 50.4668 379.517 37.7104 359.924 37.7104C340.393 37.7104 327.576 50.5889 327.576 71.646L327.576 71.7681C327.576 93.0693 340.088 105.826 359.985 105.826ZM463.989 71.7681C463.989 93.1304 451.355 105.826 431.58 105.826C411.682 105.826 399.17 93.0693 399.17 71.7681L399.17 71.646C399.17 50.5889 411.987 37.7104 431.519 37.7104C451.111 37.7104 463.989 50.4668 463.989 71.646L463.989 71.7681ZM642.334 104.483L660.156 104.483L660.156 67.8618C660.156 58.3403 665.283 53.0913 674.072 53.0913C676.636 53.0913 679.077 53.4575 680.542 54.0679L680.542 38.3818C679.199 38.0156 677.368 37.7104 675.415 37.7104C667.786 37.7104 662.476 42.4102 660.522 50.4668L660.156 50.4668L660.156 39.0532L642.334 39.0532L642.334 104.483ZM750.244 71.7681C750.244 93.1304 737.61 105.826 717.834 105.826C697.937 105.826 685.425 93.0693 685.425 71.7681L685.425 71.646C685.425 50.5889 698.242 37.7104 717.773 37.7104C737.366 37.7104 750.244 50.4668 750.244 71.646L750.244 71.7681ZM360.046 91.8486C351.257 91.8486 345.703 84.5854 345.703 71.7681L345.703 71.646C345.703 59.0117 351.318 51.6875 359.924 51.6875C368.591 51.6875 374.268 59.0117 374.268 71.646L374.268 71.7681C374.268 84.5244 368.713 91.8486 360.046 91.8486ZM417.297 71.7681C417.297 84.5854 422.852 91.8486 431.641 91.8486C440.308 91.8486 445.862 84.5244 445.862 71.7681L445.862 71.646C445.862 59.0117 440.186 51.6875 431.519 51.6875C422.913 51.6875 417.297 59.0117 417.297 71.646L417.297 71.7681ZM703.552 71.7681C703.552 84.5854 709.106 91.8486 717.896 91.8486C726.562 91.8486 732.117 84.5244 732.117 71.7681L732.117 71.646C732.117 59.0117 726.44 51.6875 717.773 51.6875C709.167 51.6875 703.552 59.0117 703.552 71.646L703.552 71.7681ZM302.185 78.1157C302.185 70.0591 296.326 65.7256 285.034 65.7256L269.958 65.7256L269.958 90.75L285.828 90.75C296.387 90.75 302.185 86.4165 302.185 78.2378L302.185 78.1157ZM128.601 84.7075L128.601 84.8296C128.601 89.6514 132.568 92.52 138.733 92.52C146.729 92.52 152.588 87.3931 152.588 80.5571L152.588 75.8574L139.099 76.7119C132.202 77.1392 128.601 80.0688 128.601 84.7075Z" />
    </g>
  </g>
  <g id="Supercharged-for-pros." transform="translate(221.54828 119)">
    <path d="M23.4814 31.9829C23.4814 37.2329 19.3184 40.5552 12.5508 40.5552C6.15234 40.5552 1.8252 37.4175 1.45605 32.3521L1.43555 32.0649L5.12695 32.0649L5.16797 32.3521C5.59863 35.3257 8.46973 37.1509 12.7559 37.1509C17.0215 37.1509 19.708 35.2231 19.708 32.1675L19.708 32.147C19.708 29.5425 18.0059 28.0864 13.9453 27.1841L10.6641 26.4663C4.88086 25.1948 2.17383 22.5903 2.17383 18.2632L2.17383 18.2427C2.19434 13.3823 6.50098 9.97803 12.5918 9.97803C18.375 9.97803 22.5996 13.3208 22.9277 18.1606L22.9482 18.4683L19.2568 18.4683L19.2158 18.1812C18.7646 15.1665 16.2422 13.3823 12.4893 13.3823C8.53125 13.4028 5.94727 15.2896 5.94727 18.1401L5.94727 18.1606C5.94727 20.5806 7.73145 22.0981 11.5869 22.939L14.8682 23.6567C20.9385 24.9897 23.4814 27.4507 23.4814 31.9624L23.4814 31.9829ZM262.172 40.063L265.74 40.063L265.74 21.688L270.088 21.688L270.088 18.7349L265.699 18.7349L265.699 16.1304C265.699 14.0181 266.684 13.0132 268.652 13.0132C269.206 13.0132 269.76 13.0337 270.19 13.0952L270.19 10.2036C269.657 10.1216 268.816 10.0601 268.017 10.0601C264.079 10.0601 262.172 12.0083 262.172 16.1099L262.172 18.7349L259.198 18.7349L259.198 21.688L262.172 21.688L262.172 40.063ZM128.112 40.063L131.681 40.063L131.681 27.6147C131.681 23.9849 133.875 21.4829 137.177 21.4829C140.499 21.4829 142.468 23.7593 142.468 27.6147L142.468 40.063L146.036 40.063L146.036 26.9995C146.036 21.8315 142.939 18.3247 138.407 18.3247C135.229 18.3247 132.911 19.7397 131.763 22.1392L131.681 22.1392L131.681 10.4702L128.112 10.4702L128.112 40.063ZM243.94 36.4536C242.607 38.9351 240.229 40.4731 237.173 40.4731C231.718 40.4731 228.108 36.1255 228.108 29.3989L228.108 29.3784C228.108 22.6519 231.759 18.3247 237.111 18.3247C240.126 18.3247 242.607 19.8423 243.94 22.3032L244.022 22.3032L244.022 10.4702L247.591 10.4702L247.591 40.063L244.022 40.063L244.022 36.4536L243.94 36.4536ZM49.3623 47.2407L52.9307 47.2407L52.9307 36.4946L53.0127 36.4946C54.3457 38.9556 56.8271 40.4731 59.8418 40.4731C65.1943 40.4731 68.8447 36.146 68.8447 29.4194L68.8447 29.3989C68.8447 22.6724 65.2354 18.3247 59.7803 18.3247C56.7246 18.3247 54.3457 19.8628 53.0127 22.3442L52.9307 22.3442L52.9307 18.7349L49.3623 18.7349L49.3623 47.2407ZM90.0498 34.1567C89.3525 37.6841 85.8662 40.4731 81.2109 40.4731C75.0791 40.4731 71.3877 36.187 71.3877 29.481L71.3877 29.4604C71.3877 22.8569 75.1611 18.3247 80.9854 18.3247C86.8096 18.3247 90.3574 22.6519 90.3574 29.0503L90.3574 30.3628L74.9971 30.3628C75.0791 34.7515 77.499 37.3149 81.293 37.3149C84 37.3149 85.9072 35.9614 86.5225 34.1362L86.584 33.9517L90.0908 33.9517L90.0498 34.1567ZM93.9463 40.063L97.5146 40.063L97.5146 26.897C97.5146 23.6567 99.3193 21.729 102.088 21.729C102.949 21.729 103.708 21.8315 103.995 21.9341L103.995 18.4683C103.708 18.4272 103.175 18.3247 102.56 18.3247C100.16 18.3247 98.3145 19.8833 97.5967 22.3442L97.5146 22.3442L97.5146 18.7349L93.9463 18.7349L93.9463 40.063ZM124.626 33.2749C124.052 37.3354 120.545 40.4731 115.726 40.4731C109.676 40.4731 105.841 36.1665 105.841 29.3784L105.841 29.3579C105.841 22.6313 109.758 18.3247 115.685 18.3247C120.996 18.3247 124.134 21.8521 124.585 25.5024L124.605 25.6665L121.119 25.6665L121.078 25.5024C120.545 23.3696 118.822 21.4829 115.685 21.4829C111.973 21.4829 109.491 24.5591 109.491 29.3989L109.491 29.4194C109.491 34.3823 112.034 37.3149 115.726 37.3149C118.638 37.3149 120.504 35.6743 121.099 33.2954L121.14 33.1313L124.646 33.1313L124.626 33.2749ZM163.468 36.5972C162.217 38.9351 159.653 40.4731 156.803 40.4731C152.558 40.4731 149.707 37.9097 149.707 34.0337L149.707 33.9927C149.707 30.3628 152.537 28.0864 157.438 27.7993L163.55 27.4507L163.55 25.6665C163.55 23.062 161.848 21.4829 158.874 21.4829C156.126 21.4829 154.403 22.7954 153.993 24.7026L153.952 24.8872L150.507 24.8872L150.527 24.6616C150.835 21.1548 153.891 18.3247 158.915 18.3247C163.96 18.3247 167.118 21.0522 167.118 25.3179L167.118 40.063L163.55 40.063L163.55 36.5972L163.468 36.5972ZM171.65 40.063L175.219 40.063L175.219 26.897C175.219 23.6567 177.023 21.729 179.792 21.729C180.653 21.729 181.412 21.8315 181.699 21.9341L181.699 18.4683C181.412 18.4272 180.879 18.3247 180.264 18.3247C177.864 18.3247 176.019 19.8833 175.301 22.3442L175.219 22.3442L175.219 18.7349L171.65 18.7349L171.65 40.063ZM203.027 39.4683C203.027 44.4106 199.397 47.6509 193.614 47.6509C188.344 47.6509 185.021 45.1694 184.324 42.0112L184.283 41.8267L187.872 41.8267L187.954 42.0112C188.631 43.5493 190.661 44.4927 193.573 44.4927C197.326 44.4927 199.459 42.4214 199.459 39.1196L199.459 36.3921L199.377 36.3921C198.105 38.7505 195.645 40.2681 192.589 40.2681C187.216 40.2681 183.545 35.9409 183.545 29.2759L183.545 29.2554C183.545 22.6313 187.257 18.3247 192.671 18.3247C195.686 18.3247 198.064 19.9653 199.377 22.3442L199.459 22.3442L199.459 18.7349L203.027 18.7349L203.027 39.4683ZM216.419 40.4731C221.074 40.4731 224.561 37.6841 225.258 34.1567L225.299 33.9517L221.792 33.9517L221.73 34.1362C221.115 35.9614 219.208 37.3149 216.501 37.3149C212.707 37.3149 210.287 34.7515 210.205 30.3628L225.565 30.3628L225.565 29.0503C225.565 22.6519 222.018 18.3247 216.193 18.3247C210.369 18.3247 206.596 22.8569 206.596 29.4604L206.596 29.481C206.596 36.187 210.287 40.4731 216.419 40.4731ZM292.482 29.3989C292.482 36.2075 288.504 40.4731 282.618 40.4731C276.691 40.4731 272.733 36.187 272.733 29.3989L272.733 29.3579C272.733 22.5698 276.712 18.3247 282.598 18.3247C288.483 18.3247 292.482 22.5493 292.482 29.3579L292.482 29.3989ZM296.071 40.063L299.64 40.063L299.64 26.897C299.64 23.6567 301.444 21.729 304.213 21.729C305.074 21.729 305.833 21.8315 306.12 21.9341L306.12 18.4683C305.833 18.4272 305.3 18.3247 304.685 18.3247C302.285 18.3247 300.439 19.8833 299.722 22.3442L299.64 22.3442L299.64 18.7349L296.071 18.7349L296.071 40.063ZM321.193 47.2407L317.625 47.2407L317.625 18.7349L321.193 18.7349L321.193 22.3442L321.275 22.3442C322.608 19.8628 324.987 18.3247 328.043 18.3247C333.498 18.3247 337.107 22.6724 337.107 29.3989L337.107 29.4194C337.107 36.146 333.457 40.4731 328.104 40.4731C325.09 40.4731 322.608 38.9556 321.275 36.4946L321.193 36.4946L321.193 47.2407ZM340.696 40.063L344.265 40.063L344.265 26.897C344.265 23.6567 346.069 21.729 348.838 21.729C349.699 21.729 350.458 21.8315 350.745 21.9341L350.745 18.4683C350.458 18.4272 349.925 18.3247 349.31 18.3247C346.91 18.3247 345.064 19.8833 344.347 22.3442L344.265 22.3442L344.265 18.7349L340.696 18.7349L340.696 40.063ZM372.34 29.3989C372.34 36.2075 368.361 40.4731 362.476 40.4731C356.549 40.4731 352.591 36.187 352.591 29.3989L352.591 29.3579C352.591 22.5698 356.569 18.3247 362.455 18.3247C368.341 18.3247 372.34 22.5493 372.34 29.3579L372.34 29.3989ZM383.496 40.4731C388.254 40.4731 391.781 37.8481 391.781 34.1157L391.781 34.0952C391.781 31.0601 390.223 29.3579 385.916 28.312L382.532 27.4917C380.174 26.9175 379.21 25.9126 379.21 24.4565L379.21 24.436C379.21 22.5493 380.81 21.2983 383.394 21.2983C386.039 21.2983 387.618 22.6724 387.905 24.7437L387.926 24.8872L391.33 24.8872L391.31 24.6206C391.043 21.0522 388.069 18.3247 383.394 18.3247C378.779 18.3247 375.56 20.9292 375.56 24.6001L375.56 24.6206C375.56 27.6968 377.508 29.563 381.527 30.5269L384.911 31.3472C387.331 31.9419 388.131 32.8032 388.131 34.3413L388.131 34.3618C388.131 36.2896 386.408 37.4995 383.517 37.4995C380.604 37.4995 379.025 36.2485 378.595 34.1157L378.554 33.9106L374.985 33.9106L375.006 34.0952C375.437 37.9097 378.472 40.4731 383.496 40.4731ZM41.0771 37.0278C39.9287 39.0171 37.7549 40.4731 34.5146 40.4731C29.8389 40.4731 27.1318 37.438 27.1318 32.5776L27.1318 18.7349L30.7002 18.7349L30.7002 31.9419C30.7002 35.4077 32.3203 37.3149 35.6016 37.3149C38.9648 37.3149 41.1592 34.9155 41.1592 31.2856L41.1592 18.7349L44.7275 18.7349L44.7275 40.063L41.1592 40.063L41.1592 37.0278L41.0771 37.0278ZM59.083 37.3149C55.4941 37.3149 52.9102 34.1772 52.9102 29.4194L52.9102 29.3989C52.9102 24.6206 55.4736 21.4829 59.083 21.4829C62.8564 21.4829 65.1943 24.4976 65.1943 29.3989L65.1943 29.4194C65.1943 34.2798 62.8564 37.3149 59.083 37.3149ZM86.7275 27.5737C86.3789 23.4312 84.082 21.4829 80.9648 21.4829C77.8682 21.4829 75.4482 23.5952 75.0586 27.5737L86.7275 27.5737ZM187.195 29.2759C187.195 34.1157 189.574 37.1099 193.368 37.1099C196.998 37.1099 199.459 34.0132 199.459 29.2759L199.459 29.2554C199.459 24.5591 196.978 21.4829 193.368 21.4829C189.574 21.4829 187.195 24.5181 187.195 29.2554L187.195 29.2759ZM216.173 21.4829C219.29 21.4829 221.587 23.4312 221.936 27.5737L210.267 27.5737C210.656 23.5952 213.076 21.4829 216.173 21.4829ZM231.759 29.3989C231.759 34.3003 234.097 37.3149 237.87 37.3149C241.479 37.3149 244.043 34.1772 244.043 29.3989L244.043 29.3784C244.043 24.6206 241.459 21.4829 237.87 21.4829C234.097 21.4829 231.759 24.5181 231.759 29.3784L231.759 29.3989ZM276.384 29.3989C276.384 34.4233 278.865 37.3149 282.639 37.3149C286.392 37.3149 288.832 34.4028 288.832 29.3989L288.832 29.3579C288.832 24.354 286.371 21.4829 282.598 21.4829C278.886 21.4829 276.384 24.3745 276.384 29.3579L276.384 29.3989ZM321.173 29.4194C321.173 34.1772 323.757 37.3149 327.346 37.3149C331.119 37.3149 333.457 34.2798 333.457 29.4194L333.457 29.3989C333.457 24.4976 331.119 21.4829 327.346 21.4829C323.736 21.4829 321.173 24.6206 321.173 29.3989L321.173 29.4194ZM356.241 29.3989C356.241 34.4233 358.723 37.3149 362.496 37.3149C366.249 37.3149 368.689 34.4028 368.689 29.3989L368.689 29.3579C368.689 24.354 366.229 21.4829 362.455 21.4829C358.743 21.4829 356.241 24.3745 356.241 29.3579L356.241 29.3989ZM153.357 33.9927L153.357 34.0337C153.357 36.0845 155.039 37.3765 157.603 37.3765C160.966 37.3765 163.55 35.0591 163.55 31.9624L163.55 30.2192L157.849 30.5679C154.998 30.7319 153.357 32.0034 153.357 33.9927ZM400.005 38.0122C400.005 39.3247 398.979 40.3501 397.667 40.3501C396.354 40.3501 395.329 39.3247 395.329 38.0122C395.329 36.6997 396.354 35.6743 397.667 35.6743C398.979 35.6743 400.005 36.6997 400.005 38.0122Z" />
  </g>
</svg>