<?xml version="1.0" encoding="utf-8"?>
<svg width="757px" height="184px" viewBox="0 0 757 184" version="1.1" xmlns:xlink="http://www.w3.org/1999/xlink" xmlns="http://www.w3.org/2000/svg">
  <defs>
    <path d="M0 0L100 0L100 119.394L0 119.394L0 0Z" id="path_1" />
    <clipPath id="mask_1">
      <use xlink:href="#path_1" />
    </clipPath>
  </defs>
  <g id="Group">
    <g id="apple-13">
      <path d="M0 0L100 0L100 119.394L0 119.394L0 0Z" id="Background" fill="none" fill-rule="evenodd" stroke="none" />
      <g clip-path="url(#mask_1)">
        <path d="M83.6079 62.8853C83.5547 53.135 87.9649 45.7758 96.8916 40.356C91.8969 33.2094 84.3518 29.2774 74.389 28.5069C64.9575 27.763 54.6493 34.0064 50.8767 34.0064C46.8916 34.0064 37.7524 28.7726 30.5792 28.7726C15.7545 29.0117 0 40.5951 0 64.1605C0 71.1212 1.27524 78.3121 3.82572 85.7333C7.22636 95.4836 19.5005 119.394 32.3061 118.996C39.0011 118.836 43.7301 114.24 52.4442 114.24C60.8927 114.24 65.2763 118.996 72.7418 118.996C85.6536 118.81 96.7588 97.0776 100 87.3008C82.678 79.1446 83.6079 63.39 83.6079 62.8853L83.6079 62.8853ZM68.5707 19.2614C75.8236 10.6536 75.1594 2.81615 74.9469 0C68.5441 0.371945 61.1318 4.35707 56.9075 9.27206C52.2582 14.5324 49.5218 21.0415 50.1063 28.3741C57.0404 28.9054 63.3634 25.3454 68.5707 19.2614L68.5707 19.2614Z" id="Shape" fill="#000000" fill-rule="evenodd" stroke="none" />
      </g>
    </g>
    <g id="Mac-Studio" transform="translate(115 14.0000305)">
      <path d="M553.833 30.6304C559.204 30.6304 563.354 26.4189 563.354 21.353C563.354 16.2871 559.204 12.0757 553.833 12.0757C548.462 12.0757 544.312 16.2871 544.312 21.353C544.312 26.4189 548.462 30.6304 553.833 30.6304ZM308.411 106.009C330.627 106.009 343.933 95.2666 343.933 78.3599L343.933 78.2988C343.933 64.4438 335.632 56.9365 317.2 53.2744L307.861 51.3823C297.729 49.3682 293.213 46.1333 293.213 40.5791L293.213 40.5181C293.213 34.2314 298.889 29.8979 308.35 29.8369C317.444 29.8369 323.792 34.0483 324.707 40.9453L324.768 41.6777L342.163 41.6777L342.102 40.5181C341.248 25.0762 328.735 14.8833 308.35 14.8833C288.818 14.8833 274.78 25.5034 274.78 41.6167L274.78 41.6777C274.78 54.9224 283.569 63.2231 300.964 66.7021L310.242 68.5332C321.167 70.7915 325.5 73.7822 325.5 79.7637L325.5 79.8247C325.5 86.5386 319.092 90.9941 308.899 90.9941C298.828 90.9941 291.565 86.7217 290.405 79.8857L290.283 79.2144L272.888 79.2144L272.949 80.1909C273.987 96.4263 287.476 106.009 308.411 106.009ZM7.32422 104.483L23.7427 104.483L23.7427 44.9126L24.231 44.9126L48.0347 104.483L59.6313 104.483L83.374 44.9126L83.9233 44.9126L83.9233 104.483L100.342 104.483L100.342 16.4092L79.0405 16.4092L54.0161 79.7026L53.6499 79.7026L28.6255 16.4092L7.32422 16.4092L7.32422 104.483ZM514.465 93.3135C510.986 101.065 503.784 105.826 494.324 105.826C477.844 105.826 467.712 93.0083 467.712 71.7681L467.712 71.707C467.712 50.4058 477.844 37.7104 494.324 37.7104C503.601 37.7104 510.925 42.4712 514.465 50.4058L514.832 50.4058L514.832 16.4092L532.654 16.4092L532.654 104.483L514.832 104.483L514.832 93.3135L514.465 93.3135ZM388.245 105.154C386.23 105.459 383.362 105.826 379.639 105.826C365.112 105.826 358.276 100.21 358.276 86.1724L358.276 52.481L349.182 52.481L349.182 39.0532L358.276 39.0532L358.276 23.062L376.282 23.062L376.282 39.0532L388.245 39.0532L388.245 52.481L376.282 52.481L376.282 84.2192C376.282 90.3228 379.028 92.3979 384.399 92.3979C385.986 92.3979 387.146 92.2148 388.245 92.0928L388.245 105.154ZM132.935 105.521C141.541 105.521 148.499 101.431 152.222 94.7173L152.588 94.7173L152.588 104.483L170.41 104.483L170.41 59.6221C170.41 46.4385 159.485 37.7104 142.578 37.7104C125.305 37.7104 114.929 46.3774 113.953 58.4624L113.892 59.1948L130.188 59.1948L130.31 58.6455C131.165 54.4341 135.193 51.3213 141.846 51.3213C148.804 51.3213 152.588 54.9224 152.588 60.7207L152.588 64.749L136.414 65.7256C120.178 66.7632 110.962 73.7212 110.962 85.623L110.962 85.7451C110.962 97.2808 119.812 105.521 132.935 105.521ZM241.394 80.6792C240.54 94.9614 229.248 105.826 211.792 105.826C191.833 105.826 179.504 92.8252 179.504 71.707L179.504 71.646C179.504 50.7109 192.017 37.7104 211.609 37.7104C229.37 37.7104 240.662 48.6357 241.333 62.7959L241.333 63.2231L224.792 63.2231L224.67 62.6738C223.572 56.4482 219.238 51.6875 211.853 51.6875C203.125 51.6875 197.632 59.1948 197.632 71.707L197.632 71.7681C197.632 84.5854 203.125 91.8486 211.914 91.8486C219.055 91.8486 223.511 87.4541 224.731 80.8623L224.792 80.313L241.394 80.313L241.394 80.6792ZM637.085 71.7681C637.085 93.1304 624.451 105.826 604.675 105.826C584.778 105.826 572.266 93.0693 572.266 71.7681L572.266 71.646C572.266 50.5889 585.083 37.7104 604.614 37.7104C624.207 37.7104 637.085 50.4668 637.085 71.646L637.085 71.7681ZM420.349 105.826C430.237 105.826 436.951 101.187 440.308 93.6797L440.674 93.6797L440.674 104.483L458.496 104.483L458.496 39.0532L440.674 39.0532L440.674 76.6509C440.674 85.1958 435.608 91.0552 427.612 91.0552C419.617 91.0552 415.588 86.1113 415.588 77.5664L415.588 39.0532L397.766 39.0532L397.766 81.2896C397.766 96.6094 405.945 105.826 420.349 105.826ZM544.922 104.483L562.744 104.483L562.744 39.0532L544.922 39.0532L544.922 104.483ZM590.393 71.7681C590.393 84.5854 595.947 91.8486 604.736 91.8486C613.403 91.8486 618.958 84.5244 618.958 71.7681L618.958 71.646C618.958 59.0117 613.281 51.6875 604.614 51.6875C596.008 51.6875 590.393 59.0117 590.393 71.646L590.393 71.7681ZM485.84 71.7681C485.84 83.6699 491.394 91.0552 500.305 91.0552C508.972 91.0552 514.893 83.6089 514.893 71.7681L514.893 71.707C514.893 59.9272 508.911 52.481 500.305 52.481C491.455 52.481 485.84 59.7441 485.84 71.707L485.84 71.7681ZM128.601 84.8296L128.601 84.7075C128.601 80.0688 132.202 77.1392 139.099 76.7119L152.588 75.8574L152.588 80.5571C152.588 87.3931 146.729 92.52 138.733 92.52C132.568 92.52 128.601 89.6514 128.601 84.8296Z" />
    </g>
  </g>
  <g id="Empower-station." transform="translate(226.5 133.00003)">
    <path d="M2.87109 40.063L21.2051 40.063L21.2051 36.7407L6.5625 36.7407L6.5625 26.5688L20.4463 26.5688L20.4463 23.2876L6.5625 23.2876L6.5625 13.7925L21.2051 13.7925L21.2051 10.4702L2.87109 10.4702L2.87109 40.063ZM245.663 15.1255C246.914 15.1255 247.898 14.1206 247.898 12.8901C247.898 11.6392 246.914 10.6548 245.663 10.6548C244.433 10.6548 243.428 11.6392 243.428 12.8901C243.428 14.1206 244.433 15.1255 245.663 15.1255ZM206.104 40.3296C205.652 40.3911 204.894 40.4731 204.196 40.4731C200.279 40.4731 198.352 38.7095 198.352 34.6284L198.352 21.688L195.234 21.688L195.234 18.7349L198.352 18.7349L198.352 12.9722L202.043 12.9722L202.043 18.7349L206.104 18.7349L206.104 21.688L202.043 21.688L202.043 34.6079C202.043 36.8843 203.048 37.52 204.955 37.52C205.386 37.52 205.796 37.4585 206.104 37.438L206.104 40.3296ZM239.839 40.3296C239.388 40.3911 238.629 40.4731 237.932 40.4731C234.015 40.4731 232.087 38.7095 232.087 34.6284L232.087 21.688L228.97 21.688L228.97 18.7349L232.087 18.7349L232.087 12.9722L235.778 12.9722L235.778 18.7349L239.839 18.7349L239.839 21.688L235.778 21.688L235.778 34.6079C235.778 36.8843 236.783 37.52 238.69 37.52C239.121 37.52 239.531 37.4585 239.839 37.438L239.839 40.3296ZM25.5117 40.063L29.0801 40.063L29.0801 26.6919C29.0801 23.7183 31.1309 21.4829 33.9609 21.4829C36.6064 21.4829 38.3291 23.1851 38.3291 25.769L38.3291 40.063L41.8975 40.063L41.8975 26.5073C41.8975 23.5952 43.8867 21.4829 46.7168 21.4829C49.5264 21.4829 51.1465 23.2261 51.1465 26.1587L51.1465 40.063L54.7148 40.063L54.7148 25.3384C54.7148 21.0933 51.9873 18.3247 47.7627 18.3247C44.7686 18.3247 42.2666 19.8628 41.0771 22.4263L40.9951 22.4263C40.0723 19.8218 37.9189 18.3247 35.0068 18.3247C32.2588 18.3247 30.126 19.7397 29.1621 21.8521L29.0801 21.8521L29.0801 18.7349L25.5117 18.7349L25.5117 40.063ZM62.8154 47.2407L59.2471 47.2407L59.2471 18.7349L62.8154 18.7349L62.8154 22.3442L62.8975 22.3442C64.2305 19.8628 66.6094 18.3247 69.665 18.3247C75.1201 18.3247 78.7295 22.6724 78.7295 29.3989L78.7295 29.4194C78.7295 36.146 75.0791 40.4731 69.7266 40.4731C66.7119 40.4731 64.2305 38.9556 62.8975 36.4946L62.8154 36.4946L62.8154 47.2407ZM91.1572 40.4731C97.043 40.4731 101.021 36.2075 101.021 29.3989L101.021 29.3579C101.021 22.5493 97.0225 18.3247 91.1367 18.3247C85.251 18.3247 81.2725 22.5698 81.2725 29.3579L81.2725 29.3989C81.2725 36.187 85.2305 40.4731 91.1572 40.4731ZM143.432 40.4731C148.087 40.4731 151.573 37.6841 152.271 34.1567L152.312 33.9517L148.805 33.9517L148.743 34.1362C148.128 35.9614 146.221 37.3149 143.514 37.3149C139.72 37.3149 137.3 34.7515 137.218 30.3628L152.578 30.3628L152.578 29.0503C152.578 22.6519 149.03 18.3247 143.206 18.3247C137.382 18.3247 133.608 22.8569 133.608 29.4604L133.608 29.481C133.608 36.187 137.3 40.4731 143.432 40.4731ZM159.735 40.063L156.167 40.063L156.167 18.7349L159.735 18.7349L159.735 22.3442L159.817 22.3442C160.535 19.8833 162.381 18.3247 164.78 18.3247C165.396 18.3247 165.929 18.4272 166.216 18.4683L166.216 21.9341C165.929 21.8315 165.17 21.729 164.309 21.729C161.54 21.729 159.735 23.6567 159.735 26.897L159.735 40.063ZM185.288 40.4731C190.046 40.4731 193.573 37.8481 193.573 34.1157L193.573 34.0952C193.573 31.0601 192.015 29.3579 187.708 28.312L184.324 27.4917C181.966 26.9175 181.002 25.9126 181.002 24.4565L181.002 24.436C181.002 22.5493 182.602 21.2983 185.186 21.2983C187.831 21.2983 189.41 22.6724 189.697 24.7437L189.718 24.8872L193.122 24.8872L193.102 24.6206C192.835 21.0522 189.861 18.3247 185.186 18.3247C180.571 18.3247 177.352 20.9292 177.352 24.6001L177.352 24.6206C177.352 27.6968 179.3 29.563 183.319 30.5269L186.703 31.3472C189.123 31.9419 189.923 32.8032 189.923 34.3413L189.923 34.3618C189.923 36.2896 188.2 37.4995 185.309 37.4995C182.396 37.4995 180.817 36.2485 180.387 34.1157L180.346 33.9106L176.777 33.9106L176.798 34.0952C177.229 37.9097 180.264 40.4731 185.288 40.4731ZM216.152 40.4731C219.003 40.4731 221.566 38.9351 222.817 36.5972L222.899 36.5972L222.899 40.063L226.468 40.063L226.468 25.3179C226.468 21.0522 223.31 18.3247 218.265 18.3247C213.24 18.3247 210.185 21.1548 209.877 24.6616L209.856 24.8872L213.302 24.8872L213.343 24.7026C213.753 22.7954 215.476 21.4829 218.224 21.4829C221.197 21.4829 222.899 23.062 222.899 25.6665L222.899 27.4507L216.788 27.7993C211.887 28.0864 209.057 30.3628 209.057 33.9927L209.057 34.0337C209.057 37.9097 211.907 40.4731 216.152 40.4731ZM271.011 29.3989C271.011 36.2075 267.032 40.4731 261.146 40.4731C255.22 40.4731 251.262 36.187 251.262 29.3989L251.262 29.3579C251.262 22.5698 255.24 18.3247 261.126 18.3247C267.012 18.3247 271.011 22.5493 271.011 29.3579L271.011 29.3989ZM274.6 40.063L278.168 40.063L278.168 27.5122C278.168 23.8823 280.362 21.4829 283.726 21.4829C287.007 21.4829 288.627 23.3901 288.627 26.856L288.627 40.063L292.195 40.063L292.195 26.2202C292.195 21.3599 289.488 18.3247 284.812 18.3247C281.572 18.3247 279.398 19.7808 278.25 21.77L278.168 21.77L278.168 18.7349L274.6 18.7349L274.6 40.063ZM112.465 40.063L108.835 40.063L102.867 18.7349L106.415 18.7349L110.681 36.0845L110.763 36.0845L115.582 18.7349L119.027 18.7349L123.867 36.0845L123.949 36.0845L128.215 18.7349L131.742 18.7349L125.795 40.063L122.165 40.063L117.346 23.5542L117.264 23.5542L112.465 40.063ZM243.879 40.063L247.447 40.063L247.447 18.7349L243.879 18.7349L243.879 40.063ZM62.7949 29.4194C62.7949 34.1772 65.3789 37.3149 68.9678 37.3149C72.7412 37.3149 75.0791 34.2798 75.0791 29.4194L75.0791 29.3989C75.0791 24.4976 72.7412 21.4829 68.9678 21.4829C65.3584 21.4829 62.7949 24.6206 62.7949 29.3989L62.7949 29.4194ZM91.1777 37.3149C87.4043 37.3149 84.9229 34.4233 84.9229 29.3989L84.9229 29.3579C84.9229 24.3745 87.4248 21.4829 91.1367 21.4829C94.9102 21.4829 97.3711 24.354 97.3711 29.3579L97.3711 29.3989C97.3711 34.4028 94.9307 37.3149 91.1777 37.3149ZM143.186 21.4829C146.303 21.4829 148.6 23.4312 148.948 27.5737L137.279 27.5737C137.669 23.5952 140.089 21.4829 143.186 21.4829ZM254.912 29.3989C254.912 34.4233 257.394 37.3149 261.167 37.3149C264.92 37.3149 267.36 34.4028 267.36 29.3989L267.36 29.3579C267.36 24.354 264.899 21.4829 261.126 21.4829C257.414 21.4829 254.912 24.3745 254.912 29.3579L254.912 29.3989ZM212.707 34.0337L212.707 33.9927C212.707 32.0034 214.348 30.7319 217.198 30.5679L222.899 30.2192L222.899 31.9624C222.899 35.0591 220.315 37.3765 216.952 37.3765C214.389 37.3765 212.707 36.0845 212.707 34.0337ZM301.26 38.0122C301.26 39.3247 300.234 40.3501 298.922 40.3501C297.609 40.3501 296.584 39.3247 296.584 38.0122C296.584 36.6997 297.609 35.6743 298.922 35.6743C300.234 35.6743 301.26 36.6997 301.26 38.0122Z" />
  </g>
</svg>