<?xml version="1.0" encoding="utf-8"?>
<svg width="435px" height="169px" viewBox="0 0 435 169" version="1.1" xmlns:xlink="http://www.w3.org/1999/xlink" xmlns="http://www.w3.org/2000/svg">
  <defs>
    <path d="M0 0L76.5483 0L76.5483 91.3943L0 91.3943L0 0Z" id="path_1" />
    <clipPath id="mask_1">
      <use xlink:href="#path_1" />
    </clipPath>
  </defs>
  <g id="Group-3">
    <g id="apple-13" transform="translate(0 14)">
      <path d="M0 0L76.5483 0L76.5483 91.3943L0 91.3943L0 0Z" id="Background" fill="none" fill-rule="evenodd" stroke="none" />
      <g clip-path="url(#mask_1)">
        <path d="M64.0004 48.1376C63.9597 40.6739 67.3357 35.0406 74.1689 30.8918C70.3455 25.4212 64.5698 22.4113 56.9435 21.8215C49.7239 21.2521 41.8331 26.0313 38.9453 26.0313C35.8947 26.0313 28.8988 22.0249 23.4078 22.0249C12.0598 22.2079 0 31.0749 0 49.1138C0 54.442 0.976174 59.9466 2.92852 65.6274C5.53165 73.091 14.9273 91.3943 24.7297 91.0893C29.8547 90.9672 33.4746 87.449 40.1451 87.449C46.6123 87.449 49.9679 91.0893 55.6826 91.0893C65.5663 90.9469 74.0672 74.3113 76.5483 66.8273C63.2886 60.5838 64.0004 48.524 64.0004 48.1376L64.0004 48.1376ZM52.4897 14.7443C58.0417 8.15512 57.5333 2.15572 57.3706 0C52.4694 0.284718 46.7954 3.33526 43.5618 7.0976C40.0028 11.1243 37.9081 16.1069 38.3555 21.7199C43.6635 22.1266 48.5037 19.4015 52.4897 14.7443L52.4897 14.7443Z" id="Shape" fill="#000000" fill-rule="evenodd" stroke="none" />
      </g>
    </g>
    <g id="Music" transform="translate(91.54828 0)">
      <path d="M259.094 30.6304C264.465 30.6304 268.616 26.4189 268.616 21.353C268.616 16.2871 264.465 12.0757 259.094 12.0757C253.723 12.0757 249.573 16.2871 249.573 21.353C249.573 26.4189 253.723 30.6304 259.094 30.6304ZM7.32422 104.483L23.7427 104.483L23.7427 44.9126L24.231 44.9126L48.0347 104.483L59.6313 104.483L83.374 44.9126L83.9233 44.9126L83.9233 104.483L100.342 104.483L100.342 16.4092L79.0405 16.4092L54.0161 79.7026L53.6499 79.7026L28.6255 16.4092L7.32422 16.4092L7.32422 104.483ZM241.028 84.5854C241.028 97.4028 229.248 105.826 212.402 105.826C194.275 105.826 184.204 97.4639 182.8 85.0737L182.739 84.5244L200.134 84.5244L200.256 85.0737C201.416 90.2007 205.261 93.1914 212.402 93.1914C219.116 93.1914 223.206 90.5669 223.206 86.3555L223.206 86.2944C223.206 82.8154 221.008 80.8013 214.6 79.3975L203.491 77.0781C190.796 74.3926 184.387 68.0449 184.387 58.2793L184.387 58.2183C184.387 45.7671 195.129 37.7104 211.792 37.7104C229.187 37.7104 238.892 46.9268 239.319 58.4014L239.319 59.0117L222.9 59.0117L222.839 58.5234C222.229 53.8237 218.384 50.2837 211.792 50.2837C205.627 50.2837 201.782 53.0303 201.782 57.2417L201.782 57.3027C201.782 60.6597 204.041 62.8569 210.632 64.2607L221.741 66.6411C235.413 69.5098 241.028 74.8809 241.028 84.5244L241.028 84.5854ZM339.417 80.6792C338.562 94.9614 327.271 105.826 309.814 105.826C289.856 105.826 277.527 92.8252 277.527 71.707L277.527 71.646C277.527 50.7109 290.039 37.7104 309.631 37.7104C327.393 37.7104 338.684 48.6357 339.355 62.7959L339.355 63.2231L322.815 63.2231L322.693 62.6738C321.594 56.4482 317.261 51.6875 309.875 51.6875C301.147 51.6875 295.654 59.1948 295.654 71.707L295.654 71.7681C295.654 84.5854 301.147 91.8486 309.937 91.8486C317.078 91.8486 321.533 87.4541 322.754 80.8623L322.815 80.313L339.417 80.313L339.417 80.6792ZM135.742 105.826C145.63 105.826 152.344 101.187 155.701 93.6797L156.067 93.6797L156.067 104.483L173.889 104.483L173.889 39.0532L156.067 39.0532L156.067 76.6509C156.067 85.1958 151.001 91.0552 143.005 91.0552C135.01 91.0552 130.981 86.1113 130.981 77.5664L130.981 39.0532L113.159 39.0532L113.159 81.2896C113.159 96.6094 121.338 105.826 135.742 105.826ZM268.005 104.483L268.005 39.0532L250.183 39.0532L250.183 104.483L268.005 104.483Z" />
    </g>
  </g>
  <g id="Hear-sound-all-around." transform="translate(21.048279 119)">
    <path d="M2.87109 40.063L6.5625 40.063L6.5625 26.5894L22.8047 26.5894L22.8047 40.063L26.4961 40.063L26.4961 10.4702L22.8047 10.4702L22.8047 23.2671L6.5625 23.2671L6.5625 10.4702L2.87109 10.4702L2.87109 40.063ZM196.711 36.4536C195.378 38.9351 192.999 40.4731 189.943 40.4731C184.488 40.4731 180.879 36.1255 180.879 29.3989L180.879 29.3784C180.879 22.6519 184.529 18.3247 189.882 18.3247C192.896 18.3247 195.378 19.8423 196.711 22.3032L196.793 22.3032L196.793 10.4702L200.361 10.4702L200.361 40.063L196.793 40.063L196.793 36.4536L196.711 36.4536ZM238.629 40.063L235.061 40.063L235.061 10.4702L238.629 10.4702L238.629 40.063ZM243.633 40.063L247.201 40.063L247.201 10.4702L243.633 10.4702L243.633 40.063ZM369.223 40.4731C372.278 40.4731 374.657 38.9351 375.99 36.4536L376.072 36.4536L376.072 40.063L379.641 40.063L379.641 10.4702L376.072 10.4702L376.072 22.3032L375.99 22.3032C374.657 19.8423 372.176 18.3247 369.161 18.3247C363.809 18.3247 360.158 22.6519 360.158 29.3784L360.158 29.3989C360.158 36.1255 363.768 40.4731 369.223 40.4731ZM40.4619 40.4731C45.1172 40.4731 48.6035 37.6841 49.3008 34.1567L49.3418 33.9517L45.835 33.9517L45.7734 34.1362C45.1582 35.9614 43.251 37.3149 40.5439 37.3149C36.75 37.3149 34.3301 34.7515 34.248 30.3628L49.6084 30.3628L49.6084 29.0503C49.6084 22.6519 46.0605 18.3247 40.2363 18.3247C34.4121 18.3247 30.6387 22.8569 30.6387 29.4604L30.6387 29.481C30.6387 36.187 34.3301 40.4731 40.4619 40.4731ZM66.0967 36.5972C64.8457 38.9351 62.2822 40.4731 59.4316 40.4731C55.1865 40.4731 52.3359 37.9097 52.3359 34.0337L52.3359 33.9927C52.3359 30.3628 55.166 28.0864 60.0674 27.7993L66.1787 27.4507L66.1787 25.6665C66.1787 23.062 64.4766 21.4829 61.5029 21.4829C58.7549 21.4829 57.0322 22.7954 56.6221 24.7026L56.5811 24.8872L53.1357 24.8872L53.1562 24.6616C53.4639 21.1548 56.5195 18.3247 61.5439 18.3247C66.5889 18.3247 69.7471 21.0522 69.7471 25.3179L69.7471 40.063L66.1787 40.063L66.1787 36.5972L66.0967 36.5972ZM74.2793 40.063L77.8477 40.063L77.8477 26.897C77.8477 23.6567 79.6523 21.729 82.4209 21.729C83.2822 21.729 84.041 21.8315 84.3281 21.9341L84.3281 18.4683C84.041 18.4272 83.5078 18.3247 82.8926 18.3247C80.4932 18.3247 78.6475 19.8833 77.9297 22.3442L77.8477 22.3442L77.8477 18.7349L74.2793 18.7349L74.2793 40.063ZM111.686 34.1157C111.686 37.8481 108.158 40.4731 103.4 40.4731C98.376 40.4731 95.3408 37.9097 94.9102 34.0952L94.8896 33.9106L98.458 33.9106L98.499 34.1157C98.9297 36.2485 100.509 37.4995 103.421 37.4995C106.312 37.4995 108.035 36.2896 108.035 34.3618L108.035 34.3413C108.035 32.8032 107.235 31.9419 104.815 31.3472L101.432 30.5269C97.4121 29.563 95.4639 27.6968 95.4639 24.6206L95.4639 24.6001C95.4639 20.9292 98.6836 18.3247 103.298 18.3247C107.974 18.3247 110.947 21.0522 111.214 24.6206L111.234 24.8872L107.83 24.8872L107.81 24.7437C107.522 22.6724 105.943 21.2983 103.298 21.2983C100.714 21.2983 99.1143 22.5493 99.1143 24.436L99.1143 24.4565C99.1143 25.9126 100.078 26.9175 102.437 27.4917L105.82 28.312C110.127 29.3579 111.686 31.0601 111.686 34.0952L111.686 34.1157ZM124.216 40.4731C130.102 40.4731 134.08 36.2075 134.08 29.3989L134.08 29.3579C134.08 22.5493 130.081 18.3247 124.195 18.3247C118.31 18.3247 114.331 22.5698 114.331 29.3579L114.331 29.3989C114.331 36.187 118.289 40.4731 124.216 40.4731ZM159.797 40.063L163.365 40.063L163.365 27.5122C163.365 23.8823 165.56 21.4829 168.923 21.4829C172.204 21.4829 173.824 23.3901 173.824 26.856L173.824 40.063L177.393 40.063L177.393 26.2202C177.393 21.3599 174.686 18.3247 170.01 18.3247C166.77 18.3247 164.596 19.7808 163.447 21.77L163.365 21.77L163.365 18.7349L159.797 18.7349L159.797 40.063ZM220.028 40.4731C222.879 40.4731 225.442 38.9351 226.693 36.5972L226.775 36.5972L226.775 40.063L230.344 40.063L230.344 25.3179C230.344 21.0522 227.186 18.3247 222.141 18.3247C217.116 18.3247 214.061 21.1548 213.753 24.6616L213.732 24.8872L217.178 24.8872L217.219 24.7026C217.629 22.7954 219.352 21.4829 222.1 21.4829C225.073 21.4829 226.775 23.062 226.775 25.6665L226.775 27.4507L220.664 27.7993C215.763 28.0864 212.933 30.3628 212.933 33.9927L212.933 34.0337C212.933 37.9097 215.783 40.4731 220.028 40.4731ZM273.533 36.5972C272.282 38.9351 269.719 40.4731 266.868 40.4731C262.623 40.4731 259.772 37.9097 259.772 34.0337L259.772 33.9927C259.772 30.3628 262.603 28.0864 267.504 27.7993L273.615 27.4507L273.615 25.6665C273.615 23.062 271.913 21.4829 268.939 21.4829C266.191 21.4829 264.469 22.7954 264.059 24.7026L264.018 24.8872L260.572 24.8872L260.593 24.6616C260.9 21.1548 263.956 18.3247 268.98 18.3247C274.025 18.3247 277.184 21.0522 277.184 25.3179L277.184 40.063L273.615 40.063L273.615 36.5972L273.533 36.5972ZM281.716 40.063L285.284 40.063L285.284 26.897C285.284 23.6567 287.089 21.729 289.857 21.729C290.719 21.729 291.478 21.8315 291.765 21.9341L291.765 18.4683C291.478 18.4272 290.944 18.3247 290.329 18.3247C287.93 18.3247 286.084 19.8833 285.366 22.3442L285.284 22.3442L285.284 18.7349L281.716 18.7349L281.716 40.063ZM313.359 29.3989C313.359 36.2075 309.381 40.4731 303.495 40.4731C297.568 40.4731 293.61 36.187 293.61 29.3989L293.61 29.3579C293.61 22.5698 297.589 18.3247 303.475 18.3247C309.36 18.3247 313.359 22.5493 313.359 29.3579L313.359 29.3989ZM342.645 40.063L339.076 40.063L339.076 18.7349L342.645 18.7349L342.645 21.77L342.727 21.77C343.875 19.7808 346.049 18.3247 349.289 18.3247C353.965 18.3247 356.672 21.3599 356.672 26.2202L356.672 40.063L353.104 40.063L353.104 26.856C353.104 23.3901 351.483 21.4829 348.202 21.4829C344.839 21.4829 342.645 23.8823 342.645 27.5122L342.645 40.063ZM151.512 37.0278C150.363 39.0171 148.189 40.4731 144.949 40.4731C140.273 40.4731 137.566 37.438 137.566 32.5776L137.566 18.7349L141.135 18.7349L141.135 31.9419C141.135 35.4077 142.755 37.3149 146.036 37.3149C149.399 37.3149 151.594 34.9155 151.594 31.2856L151.594 18.7349L155.162 18.7349L155.162 40.063L151.594 40.063L151.594 37.0278L151.512 37.0278ZM324.229 40.4731C327.469 40.4731 329.643 39.0171 330.791 37.0278L330.873 37.0278L330.873 40.063L334.441 40.063L334.441 18.7349L330.873 18.7349L330.873 31.2856C330.873 34.9155 328.679 37.3149 325.315 37.3149C322.034 37.3149 320.414 35.4077 320.414 31.9419L320.414 18.7349L316.846 18.7349L316.846 32.5776C316.846 37.438 319.553 40.4731 324.229 40.4731ZM40.2158 21.4829C43.333 21.4829 45.6299 23.4312 45.9785 27.5737L34.3096 27.5737C34.6992 23.5952 37.1191 21.4829 40.2158 21.4829ZM124.236 37.3149C120.463 37.3149 117.981 34.4233 117.981 29.3989L117.981 29.3579C117.981 24.3745 120.483 21.4829 124.195 21.4829C127.969 21.4829 130.43 24.354 130.43 29.3579L130.43 29.3989C130.43 34.4028 127.989 37.3149 124.236 37.3149ZM184.529 29.3989C184.529 34.3003 186.867 37.3149 190.641 37.3149C194.25 37.3149 196.813 34.1772 196.813 29.3989L196.813 29.3784C196.813 24.6206 194.229 21.4829 190.641 21.4829C186.867 21.4829 184.529 24.5181 184.529 29.3784L184.529 29.3989ZM297.261 29.3989C297.261 34.4233 299.742 37.3149 303.516 37.3149C307.269 37.3149 309.709 34.4028 309.709 29.3989L309.709 29.3579C309.709 24.354 307.248 21.4829 303.475 21.4829C299.763 21.4829 297.261 24.3745 297.261 29.3579L297.261 29.3989ZM369.92 37.3149C366.146 37.3149 363.809 34.3003 363.809 29.3989L363.809 29.3784C363.809 24.5181 366.146 21.4829 369.92 21.4829C373.509 21.4829 376.093 24.6206 376.093 29.3784L376.093 29.3989C376.093 34.1772 373.529 37.3149 369.92 37.3149ZM55.9863 33.9927L55.9863 34.0337C55.9863 36.0845 57.668 37.3765 60.2314 37.3765C63.5947 37.3765 66.1787 35.0591 66.1787 31.9624L66.1787 30.2192L60.4775 30.5679C57.627 30.7319 55.9863 32.0034 55.9863 33.9927ZM216.583 34.0337L216.583 33.9927C216.583 32.0034 218.224 30.7319 221.074 30.5679L226.775 30.2192L226.775 31.9624C226.775 35.0591 224.191 37.3765 220.828 37.3765C218.265 37.3765 216.583 36.0845 216.583 34.0337ZM263.423 33.9927L263.423 34.0337C263.423 36.0845 265.104 37.3765 267.668 37.3765C271.031 37.3765 273.615 35.0591 273.615 31.9624L273.615 30.2192L267.914 30.5679C265.063 30.7319 263.423 32.0034 263.423 33.9927ZM388.992 38.0122C388.992 39.3247 387.967 40.3501 386.654 40.3501C385.342 40.3501 384.316 39.3247 384.316 38.0122C384.316 36.6997 385.342 35.6743 386.654 35.6743C387.967 35.6743 388.992 36.6997 388.992 38.0122Z" />
  </g>
</svg>