<?xml version="1.0" encoding="utf-8"?>
<svg width="935px" height="191px" viewBox="0 0 935 191" version="1.1" xmlns:xlink="http://www.w3.org/1999/xlink" xmlns="http://www.w3.org/2000/svg">
  <defs>
    <path d="M0 0L100 0L100 119.394L0 119.394L0 0Z" id="path_1" />
    <clipPath id="mask_1">
      <use xlink:href="#path_1" />
    </clipPath>
  </defs>
  <g id="Group-2">
    <g id="apple-13">
      <path d="M0 0L100 0L100 119.394L0 119.394L0 0Z" id="Background" fill="none" fill-rule="evenodd" stroke="none" />
      <g clip-path="url(#mask_1)">
        <path d="M83.6079 62.8853C83.5547 53.135 87.9649 45.7758 96.8916 40.356C91.8969 33.2094 84.3518 29.2774 74.389 28.5069C64.9575 27.763 54.6493 34.0064 50.8767 34.0064C46.8916 34.0064 37.7524 28.7726 30.5792 28.7726C15.7545 29.0117 0 40.5951 0 64.1605C0 71.1212 1.27524 78.3121 3.82572 85.7333C7.22636 95.4836 19.5005 119.394 32.3061 118.996C39.0011 118.836 43.7301 114.24 52.4442 114.24C60.8927 114.24 65.2763 118.996 72.7418 118.996C85.6536 118.81 96.7588 97.0776 100 87.3008C82.678 79.1446 83.6079 63.39 83.6079 62.8853L83.6079 62.8853ZM68.5707 19.2614C75.8236 10.6536 75.1594 2.81615 74.9469 0C68.5441 0.371945 61.1318 4.35707 56.9075 9.27206C52.2582 14.5324 49.5218 21.0415 50.1063 28.3741C57.0404 28.9054 63.3634 25.3454 68.5707 19.2614L68.5707 19.2614Z" id="Shape" fill="#000000" fill-rule="evenodd" stroke="none" />
      </g>
    </g>
    <g id="Studio-Display" transform="translate(115 5.0000305)">
      <path d="M294.434 29.853C294.434 34.9189 290.283 39.1304 284.912 39.1304C279.541 39.1304 275.391 34.9189 275.391 29.853C275.391 24.7871 279.541 20.5757 284.912 20.5757C290.283 20.5757 294.434 24.7871 294.434 29.853ZM498.84 39.1304C504.211 39.1304 508.362 34.9189 508.362 29.853C508.362 24.7871 504.211 20.5757 498.84 20.5757C493.469 20.5757 489.319 24.7871 489.319 29.853C489.319 34.9189 493.469 39.1304 498.84 39.1304ZM39.4897 114.509C61.7065 114.509 75.0122 103.767 75.0122 86.8599L75.0122 86.7988C75.0122 72.9438 66.7114 65.4365 48.2788 61.7744L38.9404 59.8823C28.8086 57.8682 24.292 54.6333 24.292 49.0791L24.292 49.0181C24.292 42.7314 29.9683 38.3979 39.4287 38.3369C48.5229 38.3369 54.8706 42.5483 55.7861 49.4453L55.8472 50.1777L73.2422 50.1777L73.1812 49.0181C72.3267 33.5762 59.8145 23.3833 39.4287 23.3833C19.8975 23.3833 5.85938 34.0034 5.85938 50.1167L5.85938 50.1777C5.85938 63.4224 14.6484 71.7231 32.0435 75.2021L41.3208 77.0332C52.2461 79.2915 56.5796 82.2822 56.5796 88.2637L56.5796 88.3247C56.5796 95.0386 50.1709 99.4941 39.978 99.4941C29.9072 99.4941 22.644 95.2217 21.4844 88.3857L21.3623 87.7144L3.96729 87.7144L4.02832 88.6909C5.06592 104.926 18.5547 114.509 39.4897 114.509ZM225.403 114.326C234.863 114.326 242.065 109.565 245.544 101.813L245.911 101.813L245.911 112.983L263.733 112.983L263.733 24.9092L245.911 24.9092L245.911 58.9058L245.544 58.9058C242.004 50.9712 234.68 46.2104 225.403 46.2104C208.923 46.2104 198.792 58.9058 198.792 80.207L198.792 80.2681C198.792 101.508 208.923 114.326 225.403 114.326ZM437.195 112.983L403.564 112.983L403.564 24.9092L437.195 24.9092C463.562 24.9092 479.187 40.5952 479.187 68.4883L479.187 68.6104C479.187 96.5645 463.623 112.983 437.195 112.983ZM676.392 112.983L658.569 112.983L658.569 24.9092L676.392 24.9092L676.392 112.983ZM110.718 114.326C114.441 114.326 117.31 113.959 119.324 113.654L119.324 100.593C118.225 100.715 117.065 100.898 115.479 100.898C110.107 100.898 107.361 98.8228 107.361 92.7192L107.361 60.981L119.324 60.981L119.324 47.5532L107.361 47.5532L107.361 31.562L89.3555 31.562L89.3555 47.5532L80.2612 47.5532L80.2612 60.981L89.3555 60.981L89.3555 94.6724C89.3555 108.71 96.1914 114.326 110.718 114.326ZM421.997 40.1069L421.997 97.7241L434.998 97.7241C451.477 97.7241 460.388 87.7144 460.388 68.6714L460.388 68.5493C460.388 50.1777 451.172 40.1069 434.998 40.1069L421.997 40.1069ZM335.754 114.326C355.53 114.326 368.164 101.63 368.164 80.2681L368.164 80.146C368.164 58.9668 355.286 46.2104 335.693 46.2104C316.162 46.2104 303.345 59.0889 303.345 80.146L303.345 80.2681C303.345 101.569 315.857 114.326 335.754 114.326ZM575.195 93.0854C575.195 105.903 563.416 114.326 546.57 114.326C528.442 114.326 518.372 105.964 516.968 93.5737L516.907 93.0244L534.302 93.0244L534.424 93.5737C535.583 98.7007 539.429 101.691 546.57 101.691C553.284 101.691 557.373 99.0669 557.373 94.8555L557.373 94.7944C557.373 91.3154 555.176 89.3013 548.767 87.8975L537.659 85.5781C524.963 82.8926 518.555 76.5449 518.555 66.7793L518.555 66.7183C518.555 54.2671 529.297 46.2104 545.959 46.2104C563.354 46.2104 573.059 55.4268 573.486 66.9014L573.486 67.5117L557.068 67.5117L557.007 67.0234C556.396 62.3237 552.551 58.7837 545.959 58.7837C539.795 58.7837 535.95 61.5303 535.95 65.7417L535.95 65.8027C535.95 69.1597 538.208 71.3569 544.8 72.7607L555.908 75.1411C569.58 78.0098 575.195 83.3809 575.195 93.0244L575.195 93.0854ZM583.984 134.345L601.807 134.345L601.807 101.813L602.173 101.813C605.713 109.565 613.098 114.326 622.437 114.326C638.794 114.326 648.926 101.508 648.926 80.2681L648.926 80.207C648.926 58.9058 638.794 46.2104 622.192 46.2104C612.915 46.2104 605.774 51.0322 602.234 58.9668L601.807 58.9668L601.807 47.5532L583.984 47.5532L583.984 134.345ZM707.886 114.021C716.492 114.021 723.45 109.931 727.173 103.217L727.539 103.217L727.539 112.983L745.361 112.983L745.361 68.1221C745.361 54.9385 734.436 46.2104 717.529 46.2104C700.256 46.2104 689.88 54.8774 688.904 66.9624L688.843 67.6948L705.139 67.6948L705.261 67.1455C706.116 62.9341 710.144 59.8213 716.797 59.8213C723.755 59.8213 727.539 63.4224 727.539 69.2207L727.539 73.249L711.365 74.2256C695.129 75.2632 685.913 82.2212 685.913 94.123L685.913 94.2451C685.913 105.781 694.763 114.021 707.886 114.021ZM171.387 102.18C168.03 109.687 161.316 114.326 151.428 114.326C137.024 114.326 128.845 105.109 128.845 89.7896L128.845 47.5532L146.667 47.5532L146.667 86.0664C146.667 94.6113 150.696 99.5552 158.691 99.5552C166.687 99.5552 171.753 93.6958 171.753 85.1509L171.753 47.5532L189.575 47.5532L189.575 112.983L171.753 112.983L171.753 102.18L171.387 102.18ZM293.823 112.983L276.001 112.983L276.001 47.5532L293.823 47.5532L293.823 112.983ZM795.532 114.143C790.405 129.584 781.616 134.528 767.09 134.528C763.611 134.528 760.071 134.101 757.996 133.735L757.996 120.49C759.277 120.734 761.353 121.101 763.977 121.101C769.287 121.101 772.217 119.575 773.804 115.119L774.597 112.983L751.465 47.5532L771.057 47.5532L784.851 98.7007L785.339 98.7007L799.194 47.5532L817.993 47.5532L795.532 114.143ZM335.815 100.349C327.026 100.349 321.472 93.0854 321.472 80.2681L321.472 80.146C321.472 67.5117 327.087 60.1875 335.693 60.1875C344.36 60.1875 350.037 67.5117 350.037 80.146L350.037 80.2681C350.037 93.0244 344.482 100.349 335.815 100.349ZM489.929 112.983L507.751 112.983L507.751 47.5532L489.929 47.5532L489.929 112.983ZM231.384 99.5552C222.473 99.5552 216.919 92.1699 216.919 80.2681L216.919 80.207C216.919 68.2441 222.534 60.981 231.384 60.981C239.99 60.981 245.972 68.4272 245.972 80.207L245.972 80.2681C245.972 92.1089 240.051 99.5552 231.384 99.5552ZM616.333 99.5552C607.666 99.5552 601.746 92.1089 601.746 80.3291L601.746 80.2681C601.746 68.4272 607.666 60.981 616.333 60.981C625.183 60.981 630.798 68.2441 630.798 80.207L630.798 80.2681C630.798 92.1699 625.183 99.5552 616.333 99.5552ZM703.552 93.3296L703.552 93.2075C703.552 88.5688 707.153 85.6392 714.05 85.2119L727.539 84.3574L727.539 89.0571C727.539 95.8931 721.68 101.02 713.684 101.02C707.52 101.02 703.552 98.1514 703.552 93.3296Z" />
    </g>
  </g>
  <g id="Immerse-yourself." transform="translate(312 141)">
    <path d="M291.908 40.063L295.477 40.063L295.477 21.688L299.824 21.688L299.824 18.7349L295.436 18.7349L295.436 16.1304C295.436 14.0181 296.42 13.0132 298.389 13.0132C298.942 13.0132 299.496 13.0337 299.927 13.0952L299.927 10.2036C299.394 10.1216 298.553 10.0601 297.753 10.0601C293.815 10.0601 291.908 12.0083 291.908 16.1099L291.908 18.7349L288.935 18.7349L288.935 21.688L291.908 21.688L291.908 40.063ZM6.5625 40.063L2.87109 40.063L2.87109 10.4702L6.5625 10.4702L6.5625 40.063ZM285.94 40.063L282.372 40.063L282.372 10.4702L285.94 10.4702L285.94 40.063ZM15.3193 40.063L11.751 40.063L11.751 18.7349L15.3193 18.7349L15.3193 21.8521L15.4014 21.8521C16.3652 19.7397 18.498 18.3247 21.2461 18.3247C24.1582 18.3247 26.3115 19.8218 27.2344 22.4263L27.3164 22.4263C28.5059 19.8628 31.0078 18.3247 34.002 18.3247C38.2266 18.3247 40.9541 21.0933 40.9541 25.3384L40.9541 40.063L37.3857 40.063L37.3857 26.1587C37.3857 23.2261 35.7656 21.4829 32.9561 21.4829C30.126 21.4829 28.1367 23.5952 28.1367 26.5073L28.1367 40.063L24.5684 40.063L24.5684 25.769C24.5684 23.1851 22.8457 21.4829 20.2002 21.4829C17.3701 21.4829 15.3193 23.7183 15.3193 26.6919L15.3193 40.063ZM45.4863 40.063L49.0547 40.063L49.0547 26.6919C49.0547 23.7183 51.1055 21.4829 53.9355 21.4829C56.5811 21.4829 58.3037 23.1851 58.3037 25.769L58.3037 40.063L61.8721 40.063L61.8721 26.5073C61.8721 23.5952 63.8613 21.4829 66.6914 21.4829C69.501 21.4829 71.1211 23.2261 71.1211 26.1587L71.1211 40.063L74.6895 40.063L74.6895 25.3384C74.6895 21.0933 71.9619 18.3247 67.7373 18.3247C64.7432 18.3247 62.2412 19.8628 61.0518 22.4263L60.9697 22.4263C60.0469 19.8218 57.8936 18.3247 54.9814 18.3247C52.2334 18.3247 50.1006 19.7397 49.1367 21.8521L49.0547 21.8521L49.0547 18.7349L45.4863 18.7349L45.4863 40.063ZM96.8379 34.1567C96.1406 37.6841 92.6543 40.4731 87.999 40.4731C81.8672 40.4731 78.1758 36.187 78.1758 29.481L78.1758 29.4604C78.1758 22.8569 81.9492 18.3247 87.7734 18.3247C93.5977 18.3247 97.1455 22.6519 97.1455 29.0503L97.1455 30.3628L81.7852 30.3628C81.8672 34.7515 84.2871 37.3149 88.0811 37.3149C90.7881 37.3149 92.6953 35.9614 93.3105 34.1362L93.3721 33.9517L96.8789 33.9517L96.8379 34.1567ZM100.734 40.063L104.303 40.063L104.303 26.897C104.303 23.6567 106.107 21.729 108.876 21.729C109.737 21.729 110.496 21.8315 110.783 21.9341L110.783 18.4683C110.496 18.4272 109.963 18.3247 109.348 18.3247C106.948 18.3247 105.103 19.8833 104.385 22.3442L104.303 22.3442L104.303 18.7349L100.734 18.7349L100.734 40.063ZM129.527 34.1157C129.527 37.8481 126 40.4731 121.242 40.4731C116.218 40.4731 113.183 37.9097 112.752 34.0952L112.731 33.9106L116.3 33.9106L116.341 34.1157C116.771 36.2485 118.351 37.4995 121.263 37.4995C124.154 37.4995 125.877 36.2896 125.877 34.3618L125.877 34.3413C125.877 32.8032 125.077 31.9419 122.657 31.3472L119.273 30.5269C115.254 29.563 113.306 27.6968 113.306 24.6206L113.306 24.6001C113.306 20.9292 116.525 18.3247 121.14 18.3247C125.815 18.3247 128.789 21.0522 129.056 24.6206L129.076 24.8872L125.672 24.8872L125.651 24.7437C125.364 22.6724 123.785 21.2983 121.14 21.2983C118.556 21.2983 116.956 22.5493 116.956 24.436L116.956 24.4565C116.956 25.9126 117.92 26.9175 120.278 27.4917L123.662 28.312C127.969 29.3579 129.527 31.0601 129.527 34.0952L129.527 34.1157ZM141.996 40.4731C146.651 40.4731 150.138 37.6841 150.835 34.1567L150.876 33.9517L147.369 33.9517L147.308 34.1362C146.692 35.9614 144.785 37.3149 142.078 37.3149C138.284 37.3149 135.864 34.7515 135.782 30.3628L151.143 30.3628L151.143 29.0503C151.143 22.6519 147.595 18.3247 141.771 18.3247C135.946 18.3247 132.173 22.8569 132.173 29.4604L132.173 29.481C132.173 36.187 135.864 40.4731 141.996 40.4731ZM192.609 40.4731C198.495 40.4731 202.474 36.2075 202.474 29.3989L202.474 29.3579C202.474 22.5493 198.475 18.3247 192.589 18.3247C186.703 18.3247 182.725 22.5698 182.725 29.3579L182.725 29.3989C182.725 36.187 186.683 40.4731 192.609 40.4731ZM228.19 40.063L231.759 40.063L231.759 26.897C231.759 23.6567 233.563 21.729 236.332 21.729C237.193 21.729 237.952 21.8315 238.239 21.9341L238.239 18.4683C237.952 18.4272 237.419 18.3247 236.804 18.3247C234.404 18.3247 232.559 19.8833 231.841 22.3442L231.759 22.3442L231.759 18.7349L228.19 18.7349L228.19 40.063ZM256.983 34.1157C256.983 37.8481 253.456 40.4731 248.698 40.4731C243.674 40.4731 240.639 37.9097 240.208 34.0952L240.188 33.9106L243.756 33.9106L243.797 34.1157C244.228 36.2485 245.807 37.4995 248.719 37.4995C251.61 37.4995 253.333 36.2896 253.333 34.3618L253.333 34.3413C253.333 32.8032 252.533 31.9419 250.113 31.3472L246.729 30.5269C242.71 29.563 240.762 27.6968 240.762 24.6206L240.762 24.6001C240.762 20.9292 243.981 18.3247 248.596 18.3247C253.271 18.3247 256.245 21.0522 256.512 24.6206L256.532 24.8872L253.128 24.8872L253.107 24.7437C252.82 22.6724 251.241 21.2983 248.596 21.2983C246.012 21.2983 244.412 22.5493 244.412 24.436L244.412 24.4565C244.412 25.9126 245.376 26.9175 247.734 27.4917L251.118 28.312C255.425 29.3579 256.983 31.0601 256.983 34.0952L256.983 34.1157ZM269.452 40.4731C274.107 40.4731 277.594 37.6841 278.291 34.1567L278.332 33.9517L274.825 33.9517L274.764 34.1362C274.148 35.9614 272.241 37.3149 269.534 37.3149C265.74 37.3149 263.32 34.7515 263.238 30.3628L278.599 30.3628L278.599 29.0503C278.599 22.6519 275.051 18.3247 269.227 18.3247C263.402 18.3247 259.629 22.8569 259.629 29.4604L259.629 29.481C259.629 36.187 263.32 40.4731 269.452 40.4731ZM172.635 41.396C171.117 45.4771 169.251 47.2407 165.396 47.2407C164.698 47.2407 163.939 47.1587 163.488 47.0767L163.488 44.1646C163.796 44.2261 164.206 44.2876 164.637 44.2876C166.893 44.2876 168.144 43.7134 169.005 41.2935L169.436 40.0835L161.52 18.7349L165.334 18.7349L171.22 36.4946L171.302 36.4946L177.208 18.7349L180.961 18.7349L172.635 41.396ZM219.905 37.0278C218.757 39.0171 216.583 40.4731 213.343 40.4731C208.667 40.4731 205.96 37.438 205.96 32.5776L205.96 18.7349L209.528 18.7349L209.528 31.9419C209.528 35.4077 211.148 37.3149 214.43 37.3149C217.793 37.3149 219.987 34.9155 219.987 31.2856L219.987 18.7349L223.556 18.7349L223.556 40.063L219.987 40.063L219.987 37.0278L219.905 37.0278ZM93.5156 27.5737C93.167 23.4312 90.8701 21.4829 87.7529 21.4829C84.6562 21.4829 82.2363 23.5952 81.8467 27.5737L93.5156 27.5737ZM141.75 21.4829C144.867 21.4829 147.164 23.4312 147.513 27.5737L135.844 27.5737C136.233 23.5952 138.653 21.4829 141.75 21.4829ZM192.63 37.3149C188.856 37.3149 186.375 34.4233 186.375 29.3989L186.375 29.3579C186.375 24.3745 188.877 21.4829 192.589 21.4829C196.362 21.4829 198.823 24.354 198.823 29.3579L198.823 29.3989C198.823 34.4028 196.383 37.3149 192.63 37.3149ZM269.206 21.4829C272.323 21.4829 274.62 23.4312 274.969 27.5737L263.3 27.5737C263.689 23.5952 266.109 21.4829 269.206 21.4829ZM308.048 38.0122C308.048 39.3247 307.022 40.3501 305.71 40.3501C304.397 40.3501 303.372 39.3247 303.372 38.0122C303.372 36.6997 304.397 35.6743 305.71 35.6743C307.022 35.6743 308.048 36.6997 308.048 38.0122Z" />
  </g>
</svg>