<?xml version="1.0" encoding="utf-8"?>
<svg width="589px" height="184px" viewBox="0 0 589 184" version="1.1" xmlns:xlink="http://www.w3.org/1999/xlink" xmlns="http://www.w3.org/2000/svg">
  <defs>
    <path d="M0 0L100 0L100 119.394L0 119.394L0 0Z" id="path_1" />
    <clipPath id="mask_1">
      <use xlink:href="#path_1" />
    </clipPath>
  </defs>
  <g id="Group">
    <g id="apple-13">
      <path d="M0 0L100 0L100 119.394L0 119.394L0 0Z" id="Background" fill="none" fill-rule="evenodd" stroke="none" />
      <g clip-path="url(#mask_1)">
        <path d="M83.6079 62.8853C83.5547 53.135 87.9649 45.7758 96.8916 40.356C91.8969 33.2094 84.3518 29.2774 74.389 28.5069C64.9575 27.763 54.6493 34.0064 50.8767 34.0064C46.8916 34.0064 37.7524 28.7726 30.5792 28.7726C15.7545 29.0117 0 40.5951 0 64.1605C0 71.1212 1.27524 78.3121 3.82572 85.7333C7.22636 95.4836 19.5005 119.394 32.3061 118.996C39.0011 118.836 43.7301 114.24 52.4442 114.24C60.8927 114.24 65.2763 118.996 72.7418 118.996C85.6536 118.81 96.7588 97.0776 100 87.3008C82.678 79.1446 83.6079 63.39 83.6079 62.8853L83.6079 62.8853ZM68.5707 19.2614C75.8236 10.6536 75.1594 2.81615 74.9469 0C68.5441 0.371945 61.1318 4.35707 56.9075 9.27206C52.2582 14.5324 49.5218 21.0415 50.1063 28.3741C57.0404 28.9054 63.3634 25.3454 68.5707 19.2614L68.5707 19.2614Z" id="Shape" fill="#000000" fill-rule="evenodd" stroke="none" />
      </g>
    </g>
    <g id="Watch-7" transform="translate(115 14.0000305)">
      <path d="M43.9453 104.483L25.9399 104.483L2.62451 16.4092L21.7285 16.4092L35.6445 79.5195L36.0107 79.5195L52.2461 16.4092L68.4204 16.4092L84.6558 79.5195L85.022 79.5195L98.999 16.4092L118.103 16.4092L94.7266 104.483L76.7212 104.483L60.5469 45.4619L60.1807 45.4619L43.9453 104.483ZM307.861 104.483L325.684 104.483L325.684 67.0073C325.684 58.4624 330.75 52.481 338.623 52.481C346.741 52.481 351.257 57.9131 351.257 67.0684L351.257 104.483L369.08 104.483L369.08 63.4062C369.08 47.5981 360.291 37.7104 346.13 37.7104C336.304 37.7104 329.407 42.2271 326.05 50.3447L325.684 50.3447L325.684 16.4092L307.861 16.4092L307.861 104.483ZM429.565 104.483L410.217 104.483L448.12 31.4238L448.12 31.0576L403.32 31.0576L403.32 16.4092L466.309 16.4092L466.309 31.2407L429.565 104.483ZM220.886 105.826C224.609 105.826 227.478 105.459 229.492 105.154L229.492 92.0928C228.394 92.2148 227.234 92.3979 225.647 92.3979C220.276 92.3979 217.529 90.3228 217.529 84.2192L217.529 52.481L229.492 52.481L229.492 39.0532L217.529 39.0532L217.529 23.062L199.524 23.062L199.524 39.0532L190.43 39.0532L190.43 52.481L199.524 52.481L199.524 86.1724C199.524 100.21 206.36 105.826 220.886 105.826ZM165.222 94.7173C161.499 101.431 154.541 105.521 145.935 105.521C132.812 105.521 123.962 97.2808 123.962 85.7451L123.962 85.623C123.962 73.7212 133.179 66.7632 149.414 65.7256L165.588 64.749L165.588 60.7207C165.588 54.9224 161.804 51.3213 154.846 51.3213C148.193 51.3213 144.165 54.4341 143.311 58.6455L143.188 59.1948L126.892 59.1948L126.953 58.4624C127.93 46.3774 138.306 37.7104 155.579 37.7104C172.485 37.7104 183.411 46.4385 183.411 59.6221L183.411 104.483L165.588 104.483L165.588 94.7173L165.222 94.7173ZM298.828 80.6792C297.974 94.9614 286.682 105.826 269.226 105.826C249.268 105.826 236.938 92.8252 236.938 71.707L236.938 71.646C236.938 50.7109 249.451 37.7104 269.043 37.7104C286.804 37.7104 298.096 48.6357 298.767 62.7959L298.767 63.2231L282.227 63.2231L282.104 62.6738C281.006 56.4482 276.672 51.6875 269.287 51.6875C260.559 51.6875 255.066 59.1948 255.066 71.707L255.066 71.7681C255.066 84.5854 260.559 91.8486 269.348 91.8486C276.489 91.8486 280.945 87.4541 282.166 80.8623L282.227 80.313L298.828 80.313L298.828 80.6792ZM141.602 84.7075L141.602 84.8296C141.602 89.6514 145.569 92.52 151.733 92.52C159.729 92.52 165.588 87.3931 165.588 80.5571L165.588 75.8574L152.1 76.7119C145.203 77.1392 141.602 80.0688 141.602 84.7075Z" />
    </g>
  </g>
  <g id="Full-screen-ahead." transform="translate(136 133.00003)">
    <path d="M6.5625 40.063L2.87109 40.063L2.87109 10.4702L20.8359 10.4702L20.8359 13.7925L6.5625 13.7925L6.5625 23.9644L19.667 23.9644L19.667 27.2456L6.5625 27.2456L6.5625 40.063ZM46.7988 40.063L50.3672 40.063L50.3672 10.4702L46.7988 10.4702L46.7988 40.063ZM58.9395 40.063L55.3711 40.063L55.3711 10.4702L58.9395 10.4702L58.9395 40.063ZM224.499 40.063L220.931 40.063L220.931 10.4702L224.499 10.4702L224.499 22.1392L224.581 22.1392C225.729 19.7397 228.047 18.3247 231.226 18.3247C235.758 18.3247 238.854 21.8315 238.854 26.9995L238.854 40.063L235.286 40.063L235.286 27.6147C235.286 23.7593 233.317 21.4829 229.995 21.4829C226.693 21.4829 224.499 23.9849 224.499 27.6147L224.499 40.063ZM294 40.4731C297.056 40.4731 299.435 38.9351 300.768 36.4536L300.85 36.4536L300.85 40.063L304.418 40.063L304.418 10.4702L300.85 10.4702L300.85 22.3032L300.768 22.3032C299.435 19.8423 296.953 18.3247 293.938 18.3247C288.586 18.3247 284.936 22.6519 284.936 29.3784L284.936 29.3989C284.936 36.1255 288.545 40.4731 294 40.4731ZM79.9395 40.4731C84.6973 40.4731 88.2246 37.8481 88.2246 34.1157L88.2246 34.0952C88.2246 31.0601 86.666 29.3579 82.3594 28.312L78.9756 27.4917C76.6172 26.9175 75.6533 25.9126 75.6533 24.4565L75.6533 24.436C75.6533 22.5493 77.2529 21.2983 79.8369 21.2983C82.4824 21.2983 84.0615 22.6724 84.3486 24.7437L84.3691 24.8872L87.7734 24.8872L87.7529 24.6206C87.4863 21.0522 84.5127 18.3247 79.8369 18.3247C75.2227 18.3247 72.0029 20.9292 72.0029 24.6001L72.0029 24.6206C72.0029 27.6968 73.9512 29.563 77.9707 30.5269L81.3545 31.3472C83.7744 31.9419 84.5742 32.8032 84.5742 34.3413L84.5742 34.3618C84.5742 36.2896 82.8516 37.4995 79.96 37.4995C77.0479 37.4995 75.4688 36.2485 75.0381 34.1157L74.9971 33.9106L71.4287 33.9106L71.4492 34.0952C71.8799 37.9097 74.915 40.4731 79.9395 40.4731ZM109.655 33.2749C109.081 37.3354 105.574 40.4731 100.755 40.4731C94.7051 40.4731 90.8701 36.1665 90.8701 29.3784L90.8701 29.3579C90.8701 22.6313 94.7871 18.3247 100.714 18.3247C106.025 18.3247 109.163 21.8521 109.614 25.5024L109.635 25.6665L106.148 25.6665L106.107 25.5024C105.574 23.3696 103.852 21.4829 100.714 21.4829C97.002 21.4829 94.5205 24.5591 94.5205 29.3989L94.5205 29.4194C94.5205 34.3823 97.0635 37.3149 100.755 37.3149C103.667 37.3149 105.533 35.6743 106.128 33.2954L106.169 33.1313L109.676 33.1313L109.655 33.2749ZM112.957 40.063L116.525 40.063L116.525 26.897C116.525 23.6567 118.33 21.729 121.099 21.729C121.96 21.729 122.719 21.8315 123.006 21.9341L123.006 18.4683C122.719 18.4272 122.186 18.3247 121.57 18.3247C119.171 18.3247 117.325 19.8833 116.607 22.3442L116.525 22.3442L116.525 18.7349L112.957 18.7349L112.957 40.063ZM143.514 34.1567C142.816 37.6841 139.33 40.4731 134.675 40.4731C128.543 40.4731 124.852 36.187 124.852 29.481L124.852 29.4604C124.852 22.8569 128.625 18.3247 134.449 18.3247C140.273 18.3247 143.821 22.6519 143.821 29.0503L143.821 30.3628L128.461 30.3628C128.543 34.7515 130.963 37.3149 134.757 37.3149C137.464 37.3149 139.371 35.9614 139.986 34.1362L140.048 33.9517L143.555 33.9517L143.514 34.1567ZM156.188 40.4731C160.843 40.4731 164.329 37.6841 165.026 34.1567L165.067 33.9517L161.561 33.9517L161.499 34.1362C160.884 35.9614 158.977 37.3149 156.27 37.3149C152.476 37.3149 150.056 34.7515 149.974 30.3628L165.334 30.3628L165.334 29.0503C165.334 22.6519 161.786 18.3247 155.962 18.3247C150.138 18.3247 146.364 22.8569 146.364 29.4604L146.364 29.481C146.364 36.187 150.056 40.4731 156.188 40.4731ZM172.491 40.063L168.923 40.063L168.923 18.7349L172.491 18.7349L172.491 21.77L172.573 21.77C173.722 19.7808 175.896 18.3247 179.136 18.3247C183.812 18.3247 186.519 21.3599 186.519 26.2202L186.519 40.063L182.95 40.063L182.95 26.856C182.95 23.3901 181.33 21.4829 178.049 21.4829C174.686 21.4829 172.491 23.8823 172.491 27.5122L172.491 40.063ZM205.898 40.4731C208.749 40.4731 211.312 38.9351 212.563 36.5972L212.646 36.5972L212.646 40.063L216.214 40.063L216.214 25.3179C216.214 21.0522 213.056 18.3247 208.011 18.3247C202.986 18.3247 199.931 21.1548 199.623 24.6616L199.603 24.8872L203.048 24.8872L203.089 24.7026C203.499 22.7954 205.222 21.4829 207.97 21.4829C210.943 21.4829 212.646 23.062 212.646 25.6665L212.646 27.4507L206.534 27.7993C201.633 28.0864 198.803 30.3628 198.803 33.9927L198.803 34.0337C198.803 37.9097 201.653 40.4731 205.898 40.4731ZM252.164 40.4731C256.819 40.4731 260.306 37.6841 261.003 34.1567L261.044 33.9517L257.537 33.9517L257.476 34.1362C256.86 35.9614 254.953 37.3149 252.246 37.3149C248.452 37.3149 246.032 34.7515 245.95 30.3628L261.311 30.3628L261.311 29.0503C261.311 22.6519 257.763 18.3247 251.938 18.3247C246.114 18.3247 242.341 22.8569 242.341 29.4604L242.341 29.481C242.341 36.187 246.032 40.4731 252.164 40.4731ZM277.799 36.5972C276.548 38.9351 273.984 40.4731 271.134 40.4731C266.889 40.4731 264.038 37.9097 264.038 34.0337L264.038 33.9927C264.038 30.3628 266.868 28.0864 271.77 27.7993L277.881 27.4507L277.881 25.6665C277.881 23.062 276.179 21.4829 273.205 21.4829C270.457 21.4829 268.734 22.7954 268.324 24.7026L268.283 24.8872L264.838 24.8872L264.858 24.6616C265.166 21.1548 268.222 18.3247 273.246 18.3247C278.291 18.3247 281.449 21.0522 281.449 25.3179L281.449 40.063L277.881 40.063L277.881 36.5972L277.799 36.5972ZM38.3291 37.0278C37.1807 39.0171 35.0068 40.4731 31.7666 40.4731C27.0908 40.4731 24.3838 37.438 24.3838 32.5776L24.3838 18.7349L27.9521 18.7349L27.9521 31.9419C27.9521 35.4077 29.5723 37.3149 32.8535 37.3149C36.2168 37.3149 38.4111 34.9155 38.4111 31.2856L38.4111 18.7349L41.9795 18.7349L41.9795 40.063L38.4111 40.063L38.4111 37.0278L38.3291 37.0278ZM140.191 27.5737C139.843 23.4312 137.546 21.4829 134.429 21.4829C131.332 21.4829 128.912 23.5952 128.522 27.5737L140.191 27.5737ZM155.941 21.4829C159.059 21.4829 161.355 23.4312 161.704 27.5737L150.035 27.5737C150.425 23.5952 152.845 21.4829 155.941 21.4829ZM251.918 21.4829C255.035 21.4829 257.332 23.4312 257.681 27.5737L246.012 27.5737C246.401 23.5952 248.821 21.4829 251.918 21.4829ZM294.697 37.3149C290.924 37.3149 288.586 34.3003 288.586 29.3989L288.586 29.3784C288.586 24.5181 290.924 21.4829 294.697 21.4829C298.286 21.4829 300.87 24.6206 300.87 29.3784L300.87 29.3989C300.87 34.1772 298.307 37.3149 294.697 37.3149ZM202.453 34.0337L202.453 33.9927C202.453 32.0034 204.094 30.7319 206.944 30.5679L212.646 30.2192L212.646 31.9624C212.646 35.0591 210.062 37.3765 206.698 37.3765C204.135 37.3765 202.453 36.0845 202.453 34.0337ZM267.688 33.9927L267.688 34.0337C267.688 36.0845 269.37 37.3765 271.934 37.3765C275.297 37.3765 277.881 35.0591 277.881 31.9624L277.881 30.2192L272.18 30.5679C269.329 30.7319 267.688 32.0034 267.688 33.9927ZM313.77 38.0122C313.77 39.3247 312.744 40.3501 311.432 40.3501C310.119 40.3501 309.094 39.3247 309.094 38.0122C309.094 36.6997 310.119 35.6743 311.432 35.6743C312.744 35.6743 313.77 36.6997 313.77 38.0122Z" />
  </g>
</svg>