<?xml version="1.0" encoding="utf-8"?>
<svg width="564px" height="186px" viewBox="0 0 564 186" version="1.1" xmlns:xlink="http://www.w3.org/1999/xlink" xmlns="http://www.w3.org/2000/svg">
  <defs>
    <path d="M0 0L76.5483 0L76.5483 91.3943L0 91.3943L0 0Z" id="path_1" />
    <clipPath id="mask_1">
      <use xlink:href="#path_1" />
    </clipPath>
  </defs>
  <g id="Group-4">
    <g id="apple-13" transform="translate(0 22.99997)">
      <path d="M0 0L76.5483 0L76.5483 91.3943L0 91.3943L0 0Z" id="Background" fill="none" fill-rule="evenodd" stroke="none" />
      <g clip-path="url(#mask_1)">
        <path d="M64.0004 48.1376C63.9597 40.6739 67.3357 35.0406 74.1689 30.8918C70.3455 25.4212 64.5698 22.4113 56.9435 21.8215C49.7239 21.2521 41.8331 26.0313 38.9453 26.0313C35.8947 26.0313 28.8988 22.0249 23.4078 22.0249C12.0598 22.2079 0 31.0749 0 49.1138C0 54.442 0.976174 59.9466 2.92852 65.6274C5.53165 73.091 14.9273 91.3943 24.7297 91.0893C29.8547 90.9672 33.4746 87.449 40.1451 87.449C46.6123 87.449 49.9679 91.0893 55.6826 91.0893C65.5663 90.9469 74.0672 74.3113 76.5483 66.8273C63.2886 60.5838 64.0004 48.524 64.0004 48.1376L64.0004 48.1376ZM52.4897 14.7443C58.0417 8.15512 57.5333 2.15572 57.3706 0C52.4694 0.284718 46.7954 3.33526 43.5618 7.0976C40.0028 11.1243 37.9081 16.1069 38.3555 21.7199C43.6635 22.1266 48.5037 19.4015 52.4897 14.7443L52.4897 14.7443Z" id="Shape" fill="#000000" fill-rule="evenodd" stroke="none" />
      </g>
    </g>
    <g id="Watch-7" transform="translate(91.54828 0)">
      <path d="M43.9453 112.983L25.9399 112.983L2.62451 24.9092L21.7285 24.9092L35.6445 88.0195L36.0107 88.0195L52.2461 24.9092L68.4204 24.9092L84.6558 88.0195L85.022 88.0195L98.999 24.9092L118.103 24.9092L94.7266 112.983L76.7212 112.983L60.5469 53.9619L60.1807 53.9619L43.9453 112.983ZM307.861 112.983L325.684 112.983L325.684 75.5073C325.684 66.9624 330.75 60.981 338.623 60.981C346.741 60.981 351.257 66.4131 351.257 75.5684L351.257 112.983L369.08 112.983L369.08 71.9062C369.08 56.0981 360.291 46.2104 346.13 46.2104C336.304 46.2104 329.407 50.7271 326.05 58.8447L325.684 58.8447L325.684 24.9092L307.861 24.9092L307.861 112.983ZM429.565 112.983L410.217 112.983L448.12 39.9238L448.12 39.5576L403.32 39.5576L403.32 24.9092L466.309 24.9092L466.309 39.7407L429.565 112.983ZM220.886 114.326C224.609 114.326 227.478 113.959 229.492 113.654L229.492 100.593C228.394 100.715 227.234 100.898 225.647 100.898C220.276 100.898 217.529 98.8228 217.529 92.7192L217.529 60.981L229.492 60.981L229.492 47.5532L217.529 47.5532L217.529 31.562L199.524 31.562L199.524 47.5532L190.43 47.5532L190.43 60.981L199.524 60.981L199.524 94.6724C199.524 108.71 206.36 114.326 220.886 114.326ZM165.222 103.217C161.499 109.931 154.541 114.021 145.935 114.021C132.812 114.021 123.962 105.781 123.962 94.2451L123.962 94.123C123.962 82.2212 133.179 75.2632 149.414 74.2256L165.588 73.249L165.588 69.2207C165.588 63.4224 161.804 59.8213 154.846 59.8213C148.193 59.8213 144.165 62.9341 143.311 67.1455L143.188 67.6948L126.892 67.6948L126.953 66.9624C127.93 54.8774 138.306 46.2104 155.579 46.2104C172.485 46.2104 183.411 54.9385 183.411 68.1221L183.411 112.983L165.588 112.983L165.588 103.217L165.222 103.217ZM298.828 89.1792C297.974 103.461 286.682 114.326 269.226 114.326C249.268 114.326 236.938 101.325 236.938 80.207L236.938 80.146C236.938 59.2109 249.451 46.2104 269.043 46.2104C286.804 46.2104 298.096 57.1357 298.767 71.2959L298.767 71.7231L282.227 71.7231L282.104 71.1738C281.006 64.9482 276.672 60.1875 269.287 60.1875C260.559 60.1875 255.066 67.6948 255.066 80.207L255.066 80.2681C255.066 93.0854 260.559 100.349 269.348 100.349C276.489 100.349 280.945 95.9541 282.166 89.3623L282.227 88.813L298.828 88.813L298.828 89.1792ZM141.602 93.2075L141.602 93.3296C141.602 98.1514 145.569 101.02 151.733 101.02C159.729 101.02 165.588 95.8931 165.588 89.0571L165.588 84.3574L152.1 85.2119C145.203 85.6392 141.602 88.5688 141.602 93.2075Z" />
    </g>
  </g>
  <g id="Full-screen-ahead." transform="translate(123.54828 135.99997)">
    <path d="M6.5625 40.063L2.87109 40.063L2.87109 10.4702L20.8359 10.4702L20.8359 13.7925L6.5625 13.7925L6.5625 23.9644L19.667 23.9644L19.667 27.2456L6.5625 27.2456L6.5625 40.063ZM46.7988 40.063L50.3672 40.063L50.3672 10.4702L46.7988 10.4702L46.7988 40.063ZM58.9395 40.063L55.3711 40.063L55.3711 10.4702L58.9395 10.4702L58.9395 40.063ZM224.499 40.063L220.931 40.063L220.931 10.4702L224.499 10.4702L224.499 22.1392L224.581 22.1392C225.729 19.7397 228.047 18.3247 231.226 18.3247C235.758 18.3247 238.854 21.8315 238.854 26.9995L238.854 40.063L235.286 40.063L235.286 27.6147C235.286 23.7593 233.317 21.4829 229.995 21.4829C226.693 21.4829 224.499 23.9849 224.499 27.6147L224.499 40.063ZM294 40.4731C297.056 40.4731 299.435 38.9351 300.768 36.4536L300.85 36.4536L300.85 40.063L304.418 40.063L304.418 10.4702L300.85 10.4702L300.85 22.3032L300.768 22.3032C299.435 19.8423 296.953 18.3247 293.938 18.3247C288.586 18.3247 284.936 22.6519 284.936 29.3784L284.936 29.3989C284.936 36.1255 288.545 40.4731 294 40.4731ZM79.9395 40.4731C84.6973 40.4731 88.2246 37.8481 88.2246 34.1157L88.2246 34.0952C88.2246 31.0601 86.666 29.3579 82.3594 28.312L78.9756 27.4917C76.6172 26.9175 75.6533 25.9126 75.6533 24.4565L75.6533 24.436C75.6533 22.5493 77.2529 21.2983 79.8369 21.2983C82.4824 21.2983 84.0615 22.6724 84.3486 24.7437L84.3691 24.8872L87.7734 24.8872L87.7529 24.6206C87.4863 21.0522 84.5127 18.3247 79.8369 18.3247C75.2227 18.3247 72.0029 20.9292 72.0029 24.6001L72.0029 24.6206C72.0029 27.6968 73.9512 29.563 77.9707 30.5269L81.3545 31.3472C83.7744 31.9419 84.5742 32.8032 84.5742 34.3413L84.5742 34.3618C84.5742 36.2896 82.8516 37.4995 79.96 37.4995C77.0479 37.4995 75.4688 36.2485 75.0381 34.1157L74.9971 33.9106L71.4287 33.9106L71.4492 34.0952C71.8799 37.9097 74.915 40.4731 79.9395 40.4731ZM109.655 33.2749C109.081 37.3354 105.574 40.4731 100.755 40.4731C94.7051 40.4731 90.8701 36.1665 90.8701 29.3784L90.8701 29.3579C90.8701 22.6313 94.7871 18.3247 100.714 18.3247C106.025 18.3247 109.163 21.8521 109.614 25.5024L109.635 25.6665L106.148 25.6665L106.107 25.5024C105.574 23.3696 103.852 21.4829 100.714 21.4829C97.002 21.4829 94.5205 24.5591 94.5205 29.3989L94.5205 29.4194C94.5205 34.3823 97.0635 37.3149 100.755 37.3149C103.667 37.3149 105.533 35.6743 106.128 33.2954L106.169 33.1313L109.676 33.1313L109.655 33.2749ZM112.957 40.063L116.525 40.063L116.525 26.897C116.525 23.6567 118.33 21.729 121.099 21.729C121.96 21.729 122.719 21.8315 123.006 21.9341L123.006 18.4683C122.719 18.4272 122.186 18.3247 121.57 18.3247C119.171 18.3247 117.325 19.8833 116.607 22.3442L116.525 22.3442L116.525 18.7349L112.957 18.7349L112.957 40.063ZM143.514 34.1567C142.816 37.6841 139.33 40.4731 134.675 40.4731C128.543 40.4731 124.852 36.187 124.852 29.481L124.852 29.4604C124.852 22.8569 128.625 18.3247 134.449 18.3247C140.273 18.3247 143.821 22.6519 143.821 29.0503L143.821 30.3628L128.461 30.3628C128.543 34.7515 130.963 37.3149 134.757 37.3149C137.464 37.3149 139.371 35.9614 139.986 34.1362L140.048 33.9517L143.555 33.9517L143.514 34.1567ZM156.188 40.4731C160.843 40.4731 164.329 37.6841 165.026 34.1567L165.067 33.9517L161.561 33.9517L161.499 34.1362C160.884 35.9614 158.977 37.3149 156.27 37.3149C152.476 37.3149 150.056 34.7515 149.974 30.3628L165.334 30.3628L165.334 29.0503C165.334 22.6519 161.786 18.3247 155.962 18.3247C150.138 18.3247 146.364 22.8569 146.364 29.4604L146.364 29.481C146.364 36.187 150.056 40.4731 156.188 40.4731ZM172.491 40.063L168.923 40.063L168.923 18.7349L172.491 18.7349L172.491 21.77L172.573 21.77C173.722 19.7808 175.896 18.3247 179.136 18.3247C183.812 18.3247 186.519 21.3599 186.519 26.2202L186.519 40.063L182.95 40.063L182.95 26.856C182.95 23.3901 181.33 21.4829 178.049 21.4829C174.686 21.4829 172.491 23.8823 172.491 27.5122L172.491 40.063ZM205.898 40.4731C208.749 40.4731 211.312 38.9351 212.563 36.5972L212.646 36.5972L212.646 40.063L216.214 40.063L216.214 25.3179C216.214 21.0522 213.056 18.3247 208.011 18.3247C202.986 18.3247 199.931 21.1548 199.623 24.6616L199.603 24.8872L203.048 24.8872L203.089 24.7026C203.499 22.7954 205.222 21.4829 207.97 21.4829C210.943 21.4829 212.646 23.062 212.646 25.6665L212.646 27.4507L206.534 27.7993C201.633 28.0864 198.803 30.3628 198.803 33.9927L198.803 34.0337C198.803 37.9097 201.653 40.4731 205.898 40.4731ZM252.164 40.4731C256.819 40.4731 260.306 37.6841 261.003 34.1567L261.044 33.9517L257.537 33.9517L257.476 34.1362C256.86 35.9614 254.953 37.3149 252.246 37.3149C248.452 37.3149 246.032 34.7515 245.95 30.3628L261.311 30.3628L261.311 29.0503C261.311 22.6519 257.763 18.3247 251.938 18.3247C246.114 18.3247 242.341 22.8569 242.341 29.4604L242.341 29.481C242.341 36.187 246.032 40.4731 252.164 40.4731ZM277.799 36.5972C276.548 38.9351 273.984 40.4731 271.134 40.4731C266.889 40.4731 264.038 37.9097 264.038 34.0337L264.038 33.9927C264.038 30.3628 266.868 28.0864 271.77 27.7993L277.881 27.4507L277.881 25.6665C277.881 23.062 276.179 21.4829 273.205 21.4829C270.457 21.4829 268.734 22.7954 268.324 24.7026L268.283 24.8872L264.838 24.8872L264.858 24.6616C265.166 21.1548 268.222 18.3247 273.246 18.3247C278.291 18.3247 281.449 21.0522 281.449 25.3179L281.449 40.063L277.881 40.063L277.881 36.5972L277.799 36.5972ZM38.3291 37.0278C37.1807 39.0171 35.0068 40.4731 31.7666 40.4731C27.0908 40.4731 24.3838 37.438 24.3838 32.5776L24.3838 18.7349L27.9521 18.7349L27.9521 31.9419C27.9521 35.4077 29.5723 37.3149 32.8535 37.3149C36.2168 37.3149 38.4111 34.9155 38.4111 31.2856L38.4111 18.7349L41.9795 18.7349L41.9795 40.063L38.4111 40.063L38.4111 37.0278L38.3291 37.0278ZM140.191 27.5737C139.843 23.4312 137.546 21.4829 134.429 21.4829C131.332 21.4829 128.912 23.5952 128.522 27.5737L140.191 27.5737ZM155.941 21.4829C159.059 21.4829 161.355 23.4312 161.704 27.5737L150.035 27.5737C150.425 23.5952 152.845 21.4829 155.941 21.4829ZM251.918 21.4829C255.035 21.4829 257.332 23.4312 257.681 27.5737L246.012 27.5737C246.401 23.5952 248.821 21.4829 251.918 21.4829ZM294.697 37.3149C290.924 37.3149 288.586 34.3003 288.586 29.3989L288.586 29.3784C288.586 24.5181 290.924 21.4829 294.697 21.4829C298.286 21.4829 300.87 24.6206 300.87 29.3784L300.87 29.3989C300.87 34.1772 298.307 37.3149 294.697 37.3149ZM202.453 34.0337L202.453 33.9927C202.453 32.0034 204.094 30.7319 206.944 30.5679L212.646 30.2192L212.646 31.9624C212.646 35.0591 210.062 37.3765 206.698 37.3765C204.135 37.3765 202.453 36.0845 202.453 34.0337ZM267.688 33.9927L267.688 34.0337C267.688 36.0845 269.37 37.3765 271.934 37.3765C275.297 37.3765 277.881 35.0591 277.881 31.9624L277.881 30.2192L272.18 30.5679C269.329 30.7319 267.688 32.0034 267.688 33.9927ZM313.77 38.0122C313.77 39.3247 312.744 40.3501 311.432 40.3501C310.119 40.3501 309.094 39.3247 309.094 38.0122C309.094 36.6997 310.119 35.6743 311.432 35.6743C312.744 35.6743 313.77 36.6997 313.77 38.0122Z" />
  </g>
</svg>