<?xml version="1.0" encoding="utf-8"?>
<svg width="544px" height="136px" viewBox="0 0 544 136" version="1.1" xmlns:xlink="http://www.w3.org/1999/xlink" xmlns="http://www.w3.org/2000/svg">
  <defs>
    <path d="M0 0L76.5483 0L76.5483 91.3943L0 91.3943L0 0Z" id="path_1" />
    <clipPath id="mask_1">
      <use xlink:href="#path_1" />
    </clipPath>
  </defs>
  <g id="Group-5">
    <g id="apple-13" transform="translate(0 22.99997)">
      <path d="M0 0L76.5483 0L76.5483 91.3943L0 91.3943L0 0Z" id="Background" fill="none" fill-rule="evenodd" stroke="none" />
      <g clip-path="url(#mask_1)">
        <path d="M64.0004 48.1376C63.9597 40.6739 67.3357 35.0406 74.1689 30.8918C70.3455 25.4212 64.5698 22.4113 56.9435 21.8215C49.7239 21.2521 41.8331 26.0313 38.9453 26.0313C35.8947 26.0313 28.8988 22.0249 23.4078 22.0249C12.0598 22.2079 0 31.0749 0 49.1138C0 54.442 0.976174 59.9466 2.92852 65.6274C5.53165 73.091 14.9273 91.3943 24.7297 91.0893C29.8547 90.9672 33.4746 87.449 40.1451 87.449C46.6123 87.449 49.9679 91.0893 55.6826 91.0893C65.5663 90.9469 74.0672 74.3113 76.5483 66.8273C63.2886 60.5838 64.0004 48.524 64.0004 48.1376L64.0004 48.1376ZM52.4897 14.7443C58.0417 8.15512 57.5333 2.15572 57.3706 0C52.4694 0.284718 46.7954 3.33526 43.5618 7.0976C40.0028 11.1243 37.9081 16.1069 38.3555 21.7199C43.6635 22.1266 48.5037 19.4015 52.4897 14.7443L52.4897 14.7443Z" id="Shape" fill="#000000" fill-rule="evenodd" stroke="none" />
      </g>
    </g>
    <g id="AirPods" transform="translate(91.54834 0)">
      <path d="M101.624 39.1304C106.995 39.1304 111.145 34.9189 111.145 29.853C111.145 24.7871 106.995 20.5757 101.624 20.5757C96.2524 20.5757 92.1021 24.7871 92.1021 29.853C92.1021 34.9189 96.2524 39.1304 101.624 39.1304ZM1.70898 112.983L21.0571 112.983L27.71 91.6206L58.8379 91.6206L65.4907 112.983L84.8389 112.983L54.1382 24.9092L32.4707 24.9092L1.70898 112.983ZM169.434 112.983L187.866 112.983L187.866 85.2119L204.834 85.2119C223.389 85.2119 235.779 73.249 235.779 55.1216L235.779 54.9995C235.779 36.8721 223.389 24.9092 204.834 24.9092L169.434 24.9092L169.434 112.983ZM340.942 114.326C350.403 114.326 357.605 109.565 361.084 101.813L361.45 101.813L361.45 112.983L379.272 112.983L379.272 24.9092L361.45 24.9092L361.45 58.9058L361.084 58.9058C357.544 50.9712 350.22 46.2104 340.942 46.2104C324.463 46.2104 314.331 58.9058 314.331 80.207L314.331 80.2681C314.331 101.508 324.463 114.326 340.942 114.326ZM200.317 39.4966C210.876 39.4966 217.102 45.0508 217.102 55.0605L217.102 55.1826C217.102 65.1924 210.876 70.8076 200.317 70.8076L187.866 70.8076L187.866 39.4966L200.317 39.4966ZM43.0908 41.999L43.457 41.999L54.5654 77.8267L31.9824 77.8267L43.0908 41.999ZM140.259 112.983L122.437 112.983L122.437 47.5532L140.259 47.5532L140.259 58.9668L140.625 58.9668C142.578 50.9102 147.888 46.2104 155.518 46.2104C157.471 46.2104 159.302 46.5156 160.645 46.8818L160.645 62.5679C159.18 61.9575 156.738 61.5913 154.175 61.5913C145.386 61.5913 140.259 66.8403 140.259 76.3618L140.259 112.983ZM307.556 80.2681C307.556 101.63 294.922 114.326 275.146 114.326C255.249 114.326 242.737 101.569 242.737 80.2681L242.737 80.146C242.737 59.0889 255.554 46.2104 275.085 46.2104C294.678 46.2104 307.556 58.9668 307.556 80.146L307.556 80.2681ZM446.716 93.0854C446.716 105.903 434.937 114.326 418.091 114.326C399.963 114.326 389.893 105.964 388.489 93.5737L388.428 93.0244L405.823 93.0244L405.945 93.5737C407.104 98.7007 410.95 101.691 418.091 101.691C424.805 101.691 428.894 99.0669 428.894 94.8555L428.894 94.7944C428.894 91.3154 426.697 89.3013 420.288 87.8975L409.18 85.5781C396.484 82.8926 390.076 76.5449 390.076 66.7793L390.076 66.7183C390.076 54.2671 400.818 46.2104 417.48 46.2104C434.875 46.2104 444.58 55.4268 445.007 66.9014L445.007 67.5117L428.589 67.5117L428.528 67.0234C427.917 62.3237 424.072 58.7837 417.48 58.7837C411.316 58.7837 407.471 61.5303 407.471 65.7417L407.471 65.8027C407.471 69.1597 409.729 71.3569 416.321 72.7607L427.429 75.1411C441.101 78.0098 446.716 83.3809 446.716 93.0244L446.716 93.0854ZM110.535 112.983L110.535 47.5532L92.7124 47.5532L92.7124 112.983L110.535 112.983ZM260.864 80.2681C260.864 93.0854 266.418 100.349 275.208 100.349C283.875 100.349 289.429 93.0244 289.429 80.2681L289.429 80.146C289.429 67.5117 283.752 60.1875 275.085 60.1875C266.479 60.1875 260.864 67.5117 260.864 80.146L260.864 80.2681ZM346.924 99.5552C338.013 99.5552 332.458 92.1699 332.458 80.2681L332.458 80.207C332.458 68.2441 338.074 60.981 346.924 60.981C355.53 60.981 361.511 68.4272 361.511 80.207L361.511 80.2681C361.511 92.1089 355.591 99.5552 346.924 99.5552Z" />
    </g>
  </g>
</svg>