<?xml version="1.0" encoding="utf-8"?>
<svg width="404px" height="136px" viewBox="0 0 404 136" version="1.1" xmlns:xlink="http://www.w3.org/1999/xlink" xmlns="http://www.w3.org/2000/svg">
  <defs>
    <path d="M0 0L76.5483 0L76.5483 91.3943L0 91.3943L0 0Z" id="path_1" />
    <clipPath id="mask_1">
      <use xlink:href="#path_1" />
    </clipPath>
  </defs>
  <g id="Group-5">
    <g id="apple-13" transform="translate(0 22.99997)">
      <path d="M0 0L76.5483 0L76.5483 91.3943L0 91.3943L0 0Z" id="Background" fill="none" fill-rule="evenodd" stroke="none" />
      <g clip-path="url(#mask_1)">
        <path d="M64.0004 48.1376C63.9597 40.6739 67.3357 35.0406 74.1689 30.8918C70.3455 25.4212 64.5698 22.4113 56.9435 21.8215C49.7239 21.2521 41.8331 26.0313 38.9453 26.0313C35.8947 26.0313 28.8988 22.0249 23.4078 22.0249C12.0598 22.2079 0 31.0749 0 49.1138C0 54.442 0.976174 59.9466 2.92852 65.6274C5.53165 73.091 14.9273 91.3943 24.7297 91.0893C29.8547 90.9672 33.4746 87.449 40.1451 87.449C46.6123 87.449 49.9679 91.0893 55.6826 91.0893C65.5663 90.9469 74.0672 74.3113 76.5483 66.8273C63.2886 60.5838 64.0004 48.524 64.0004 48.1376L64.0004 48.1376ZM52.4897 14.7443C58.0417 8.15512 57.5333 2.15572 57.3706 0C52.4694 0.284718 46.7954 3.33526 43.5618 7.0976C40.0028 11.1243 37.9081 16.1069 38.3555 21.7199C43.6635 22.1266 48.5037 19.4015 52.4897 14.7443L52.4897 14.7443Z" id="Shape" fill="#000000" fill-rule="evenodd" stroke="none" />
      </g>
    </g>
    <g id="Store" transform="translate(91.54834 0)">
      <path d="M39.4897 114.509C61.7065 114.509 75.0122 103.767 75.0122 86.8599L75.0122 86.7988C75.0122 72.9438 66.7114 65.4365 48.2788 61.7744L38.9404 59.8823C28.8086 57.8682 24.292 54.6333 24.292 49.0791L24.292 49.0181C24.292 42.7314 29.9683 38.3979 39.4287 38.3369C48.5229 38.3369 54.8706 42.5483 55.7861 49.4453L55.8472 50.1777L73.2422 50.1777L73.1812 49.0181C72.3267 33.5762 59.8145 23.3833 39.4287 23.3833C19.8975 23.3833 5.85938 34.0034 5.85938 50.1167L5.85938 50.1777C5.85938 63.4224 14.6484 71.7231 32.0435 75.2021L41.3208 77.0332C52.2461 79.2915 56.5796 82.2822 56.5796 88.2637L56.5796 88.3247C56.5796 95.0386 50.1709 99.4941 39.978 99.4941C29.9072 99.4941 22.644 95.2217 21.4844 88.3857L21.3623 87.7144L3.96729 87.7144L4.02832 88.6909C5.06592 104.926 18.5547 114.509 39.4897 114.509ZM110.718 114.326C114.441 114.326 117.31 113.959 119.324 113.654L119.324 100.593C118.225 100.715 117.065 100.898 115.479 100.898C110.107 100.898 107.361 98.8228 107.361 92.7192L107.361 60.981L119.324 60.981L119.324 47.5532L107.361 47.5532L107.361 31.562L89.3555 31.562L89.3555 47.5532L80.2612 47.5532L80.2612 60.981L89.3555 60.981L89.3555 94.6724C89.3555 108.71 96.1914 114.326 110.718 114.326ZM191.589 80.2681C191.589 101.63 178.955 114.326 159.18 114.326C139.282 114.326 126.77 101.569 126.77 80.2681L126.77 80.146C126.77 59.0889 139.587 46.2104 159.119 46.2104C178.711 46.2104 191.589 58.9668 191.589 80.146L191.589 80.2681ZM200.745 112.983L218.567 112.983L218.567 76.3618C218.567 66.8403 223.694 61.5913 232.483 61.5913C235.046 61.5913 237.488 61.9575 238.953 62.5679L238.953 46.8818C237.61 46.5156 235.779 46.2104 233.826 46.2104C226.196 46.2104 220.886 50.9102 218.933 58.9668L218.567 58.9668L218.567 47.5532L200.745 47.5532L200.745 112.983ZM305.725 93.6348C303.711 103.278 294.678 114.326 276.001 114.326C255.981 114.326 243.835 101.325 243.835 80.3901L243.835 80.3291C243.835 59.5161 256.104 46.2104 275.269 46.2104C294.434 46.2104 306.458 59.2109 306.458 78.9863L306.458 84.4795L261.414 84.4795C261.597 94.9165 267.273 101.02 276.367 101.02C283.691 101.02 288.147 96.9917 289.429 93.3296L289.551 92.9634L305.908 92.9634L305.725 93.6348ZM289.368 73.249C288.269 64.2158 282.959 59.5161 275.574 59.5161C268.25 59.5161 262.756 64.3989 261.597 73.249L289.368 73.249ZM144.897 80.2681C144.897 93.0854 150.452 100.349 159.241 100.349C167.908 100.349 173.462 93.0244 173.462 80.2681L173.462 80.146C173.462 67.5117 167.786 60.1875 159.119 60.1875C150.513 60.1875 144.897 67.5117 144.897 80.146L144.897 80.2681Z" />
    </g>
  </g>
</svg>