<?xml version="1.0" encoding="utf-8"?>
<svg width="370px" height="136px" viewBox="0 0 370 136" version="1.1" xmlns:xlink="http://www.w3.org/1999/xlink" xmlns="http://www.w3.org/2000/svg">
  <defs>
    <path d="M0 0L76.5483 0L76.5483 91.3943L0 91.3943L0 0Z" id="path_1" />
    <clipPath id="mask_1">
      <use xlink:href="#path_1" />
    </clipPath>
  </defs>
  <g id="Group-5">
    <g id="apple-13" transform="translate(0 22.99997)">
      <path d="M0 0L76.5483 0L76.5483 91.3943L0 91.3943L0 0Z" id="Background" fill="none" fill-rule="evenodd" stroke="none" />
      <g clip-path="url(#mask_1)">
        <path d="M64.0004 48.1376C63.9597 40.6739 67.3357 35.0406 74.1689 30.8918C70.3455 25.4212 64.5698 22.4113 56.9435 21.8215C49.7239 21.2521 41.8331 26.0313 38.9453 26.0313C35.8947 26.0313 28.8988 22.0249 23.4078 22.0249C12.0598 22.2079 0 31.0749 0 49.1138C0 54.442 0.976174 59.9466 2.92852 65.6274C5.53165 73.091 14.9273 91.3943 24.7297 91.0893C29.8547 90.9672 33.4746 87.449 40.1451 87.449C46.6123 87.449 49.9679 91.0893 55.6826 91.0893C65.5663 90.9469 74.0672 74.3113 76.5483 66.8273C63.2886 60.5838 64.0004 48.524 64.0004 48.1376L64.0004 48.1376ZM52.4897 14.7443C58.0417 8.15512 57.5333 2.15572 57.3706 0C52.4694 0.284718 46.7954 3.33526 43.5618 7.0976C40.0028 11.1243 37.9081 16.1069 38.3555 21.7199C43.6635 22.1266 48.5037 19.4015 52.4897 14.7443L52.4897 14.7443Z" id="Shape" fill="#000000" fill-rule="evenodd" stroke="none" />
      </g>
    </g>
    <g id="Card" transform="translate(91.54834 0)">
      <path d="M84.9609 82.4043C83.252 101.142 67.8101 114.509 46.5088 114.509C20.752 114.509 4.57764 97.2969 4.57764 68.9155L4.57764 68.8545C4.57764 40.4731 20.813 23.3833 46.5088 23.3833C67.8711 23.3833 83.1909 36.8721 84.8999 55.5488L84.9609 56.0981L67.0166 56.0981L66.7725 55.0605C64.6973 45.356 57.4951 39.0083 46.5088 39.0083C32.4097 39.0083 23.3765 50.3608 23.3765 68.7935L23.3765 68.8545C23.3765 87.4092 32.4097 98.8838 46.5088 98.8838C57.1289 98.8838 64.5752 92.7803 66.9556 82.3433L67.0776 81.7329L85.022 81.7329L84.9609 82.4043ZM253.113 101.813C249.634 109.565 242.432 114.326 232.971 114.326C216.492 114.326 206.36 101.508 206.36 80.2681L206.36 80.207C206.36 58.9058 216.492 46.2104 232.971 46.2104C242.249 46.2104 249.573 50.9712 253.113 58.9058L253.479 58.9058L253.479 24.9092L271.301 24.9092L271.301 112.983L253.479 112.983L253.479 101.813L253.113 101.813ZM133.606 103.217C129.883 109.931 122.925 114.021 114.319 114.021C101.196 114.021 92.3462 105.781 92.3462 94.2451L92.3462 94.123C92.3462 82.2212 101.562 75.2632 117.798 74.2256L133.972 73.249L133.972 69.2207C133.972 63.4224 130.188 59.8213 123.23 59.8213C116.577 59.8213 112.549 62.9341 111.694 67.1455L111.572 67.6948L95.2759 67.6948L95.3369 66.9624C96.3135 54.8774 106.689 46.2104 123.962 46.2104C140.869 46.2104 151.794 54.9385 151.794 68.1221L151.794 112.983L133.972 112.983L133.972 103.217L133.606 103.217ZM163.269 112.983L181.091 112.983L181.091 76.3618C181.091 66.8403 186.218 61.5913 195.007 61.5913C197.571 61.5913 200.012 61.9575 201.477 62.5679L201.477 46.8818C200.134 46.5156 198.303 46.2104 196.35 46.2104C188.721 46.2104 183.411 50.9102 181.458 58.9668L181.091 58.9668L181.091 47.5532L163.269 47.5532L163.269 112.983ZM224.487 80.2681C224.487 92.1699 230.042 99.5552 238.953 99.5552C247.62 99.5552 253.54 92.1089 253.54 80.2681L253.54 80.207C253.54 68.4272 247.559 60.981 238.953 60.981C230.103 60.981 224.487 68.2441 224.487 80.207L224.487 80.2681ZM109.985 93.2075L109.985 93.3296C109.985 98.1514 113.953 101.02 120.117 101.02C128.113 101.02 133.972 95.8931 133.972 89.0571L133.972 84.3574L120.483 85.2119C113.586 85.6392 109.985 88.5688 109.985 93.2075Z" />
    </g>
  </g>
</svg>