<?xml version="1.0" encoding="utf-8"?>
<svg width="531px" height="136px" viewBox="0 0 531 136" version="1.1" xmlns:xlink="http://www.w3.org/1999/xlink" xmlns="http://www.w3.org/2000/svg">
  <defs>
    <path d="M0 0L76.5483 0L76.5483 91.3943L0 91.3943L0 0Z" id="path_1" />
    <clipPath id="mask_1">
      <use xlink:href="#path_1" />
    </clipPath>
  </defs>
  <g id="Group-5">
    <g id="apple-13" transform="translate(0 22.99997)">
      <path d="M0 0L76.5483 0L76.5483 91.3943L0 91.3943L0 0Z" id="Background" fill="none" fill-rule="evenodd" stroke="none" />
      <g clip-path="url(#mask_1)">
        <path d="M64.0004 48.1376C63.9597 40.6739 67.3357 35.0406 74.1689 30.8918C70.3455 25.4212 64.5698 22.4113 56.9435 21.8215C49.7239 21.2521 41.8331 26.0313 38.9453 26.0313C35.8947 26.0313 28.8988 22.0249 23.4078 22.0249C12.0598 22.2079 0 31.0749 0 49.1138C0 54.442 0.976174 59.9466 2.92852 65.6274C5.53165 73.091 14.9273 91.3943 24.7297 91.0893C29.8547 90.9672 33.4746 87.449 40.1451 87.449C46.6123 87.449 49.9679 91.0893 55.6826 91.0893C65.5663 90.9469 74.0672 74.3113 76.5483 66.8273C63.2886 60.5838 64.0004 48.524 64.0004 48.1376L64.0004 48.1376ZM52.4897 14.7443C58.0417 8.15512 57.5333 2.15572 57.3706 0C52.4694 0.284718 46.7954 3.33526 43.5618 7.0976C40.0028 11.1243 37.9081 16.1069 38.3555 21.7199C43.6635 22.1266 48.5037 19.4015 52.4897 14.7443L52.4897 14.7443Z" id="Shape" fill="#000000" fill-rule="evenodd" stroke="none" />
      </g>
    </g>
    <g id="iPad-Air" transform="translate(91.54834 0)">
      <path d="M15.0757 39.1304C20.4468 39.1304 24.5972 34.9189 24.5972 29.853C24.5972 24.7871 20.4468 20.5757 15.0757 20.5757C9.70459 20.5757 5.5542 24.7871 5.5542 29.853C5.5542 34.9189 9.70459 39.1304 15.0757 39.1304ZM376.526 39.1304C381.897 39.1304 386.047 34.9189 386.047 29.853C386.047 24.7871 381.897 20.5757 376.526 20.5757C371.155 20.5757 367.004 24.7871 367.004 29.853C367.004 34.9189 371.155 39.1304 376.526 39.1304ZM37.4146 112.983L55.8472 112.983L55.8472 85.2119L72.8149 85.2119C91.3696 85.2119 103.76 73.249 103.76 55.1216L103.76 54.9995C103.76 36.8721 91.3696 24.9092 72.8149 24.9092L37.4146 24.9092L37.4146 112.983ZM205.75 114.326C215.21 114.326 222.412 109.565 225.891 101.813L226.257 101.813L226.257 112.983L244.08 112.983L244.08 24.9092L226.257 24.9092L226.257 58.9058L225.891 58.9058C222.351 50.9712 215.027 46.2104 205.75 46.2104C189.27 46.2104 179.138 58.9058 179.138 80.207L179.138 80.2681C179.138 101.508 189.27 114.326 205.75 114.326ZM295.959 112.983L276.611 112.983L307.373 24.9092L329.041 24.9092L359.741 112.983L340.393 112.983L333.74 91.6206L302.612 91.6206L295.959 112.983ZM68.2983 39.4966C78.8574 39.4966 85.083 45.0508 85.083 55.0605L85.083 55.1826C85.083 65.1924 78.8574 70.8076 68.2983 70.8076L55.8472 70.8076L55.8472 39.4966L68.2983 39.4966ZM318.359 41.999L317.993 41.999L306.885 77.8267L329.468 77.8267L318.359 41.999ZM151.855 103.217C148.132 109.931 141.174 114.021 132.568 114.021C119.446 114.021 110.596 105.781 110.596 94.2451L110.596 94.123C110.596 82.2212 119.812 75.2632 136.047 74.2256L152.222 73.249L152.222 69.2207C152.222 63.4224 148.438 59.8213 141.479 59.8213C134.827 59.8213 130.798 62.9341 129.944 67.1455L129.822 67.6948L113.525 67.6948L113.586 66.9624C114.563 54.8774 124.939 46.2104 142.212 46.2104C159.119 46.2104 170.044 54.9385 170.044 68.1221L170.044 112.983L152.222 112.983L152.222 103.217L151.855 103.217ZM415.161 112.983L397.339 112.983L397.339 47.5532L415.161 47.5532L415.161 58.9668L415.527 58.9668C417.48 50.9102 422.791 46.2104 430.42 46.2104C432.373 46.2104 434.204 46.5156 435.547 46.8818L435.547 62.5679C434.082 61.9575 431.641 61.5913 429.077 61.5913C420.288 61.5913 415.161 66.8403 415.161 76.3618L415.161 112.983ZM23.9868 112.983L23.9868 47.5532L6.16455 47.5532L6.16455 112.983L23.9868 112.983ZM211.731 99.5552C202.82 99.5552 197.266 92.1699 197.266 80.2681L197.266 80.207C197.266 68.2441 202.881 60.981 211.731 60.981C220.337 60.981 226.318 68.4272 226.318 80.207L226.318 80.2681C226.318 92.1089 220.398 99.5552 211.731 99.5552ZM128.235 93.2075L128.235 93.3296C128.235 98.1514 132.202 101.02 138.367 101.02C146.362 101.02 152.222 95.8931 152.222 89.0571L152.222 84.3574L138.733 85.2119C131.836 85.6392 128.235 88.5688 128.235 93.2075ZM367.615 112.983L385.437 112.983L385.437 47.5532L367.615 47.5532L367.615 112.983Z" />
    </g>
  </g>
</svg>