<?xml version="1.0" encoding="utf-8"?>
<svg width="621.5483px" height="136px" viewBox="0 0 621.5483 136" version="1.1" xmlns:xlink="http://www.w3.org/1999/xlink" xmlns="http://www.w3.org/2000/svg">
  <defs>
    <path d="M0 0L76.5483 0L76.5483 91.3943L0 91.3943L0 0Z" id="path_1" />
    <clipPath id="mask_1">
      <use xlink:href="#path_1" />
    </clipPath>
  </defs>
  <g id="Group-4">
    <g id="apple-13" transform="translate(0 22.99997)">
      <path d="M0 0L76.5483 0L76.5483 91.3943L0 91.3943L0 0Z" id="Background" fill="none" fill-rule="evenodd" stroke="none" />
      <g clip-path="url(#mask_1)">
        <path d="M64.0004 48.1376C63.9597 40.6739 67.3357 35.0406 74.1689 30.8918C70.3455 25.4212 64.5698 22.4113 56.9435 21.8215C49.7239 21.2521 41.8331 26.0313 38.9453 26.0313C35.8947 26.0313 28.8988 22.0249 23.4078 22.0249C12.0598 22.2079 0 31.0749 0 49.1138C0 54.442 0.976174 59.9466 2.92852 65.6274C5.53165 73.091 14.9273 91.3943 24.7297 91.0893C29.8547 90.9672 33.4746 87.449 40.1451 87.449C46.6123 87.449 49.9679 91.0893 55.6826 91.0893C65.5663 90.9469 74.0672 74.3113 76.5483 66.8273C63.2886 60.5838 64.0004 48.524 64.0004 48.1376L64.0004 48.1376ZM52.4897 14.7443C58.0417 8.15512 57.5333 2.15572 57.3706 0C52.4694 0.284718 46.7954 3.33526 43.5618 7.0976C40.0028 11.1243 37.9081 16.1069 38.3555 21.7199C43.6635 22.1266 48.5037 19.4015 52.4897 14.7443L52.4897 14.7443Z" id="Shape" fill="#000000" fill-rule="evenodd" stroke="none" />
      </g>
    </g>
    <g id="iPad-Mini" transform="translate(91.54828 0)">
      <path d="M24.5972 29.853C24.5972 34.9189 20.4468 39.1304 15.0757 39.1304C9.70459 39.1304 5.5542 34.9189 5.5542 29.853C5.5542 24.7871 9.70459 20.5757 15.0757 20.5757C20.4468 20.5757 24.5972 24.7871 24.5972 29.853ZM407.166 29.853C407.166 34.9189 403.015 39.1304 397.644 39.1304C392.273 39.1304 388.123 34.9189 388.123 29.853C388.123 24.7871 392.273 20.5757 397.644 20.5757C403.015 20.5757 407.166 24.7871 407.166 29.853ZM509.277 29.853C509.277 34.9189 505.127 39.1304 499.756 39.1304C494.385 39.1304 490.234 34.9189 490.234 29.853C490.234 24.7871 494.385 20.5757 499.756 20.5757C505.127 20.5757 509.277 24.7871 509.277 29.853ZM55.8472 112.983L37.4146 112.983L37.4146 24.9092L72.8149 24.9092C91.3696 24.9092 103.76 36.8721 103.76 54.9995L103.76 55.1216C103.76 73.249 91.3696 85.2119 72.8149 85.2119L55.8472 85.2119L55.8472 112.983ZM225.891 101.813C222.412 109.565 215.21 114.326 205.75 114.326C189.27 114.326 179.138 101.508 179.138 80.2681L179.138 80.207C179.138 58.9058 189.27 46.2104 205.75 46.2104C215.027 46.2104 222.351 50.9712 225.891 58.9058L226.257 58.9058L226.257 24.9092L244.08 24.9092L244.08 112.983L226.257 112.983L226.257 101.813L225.891 101.813ZM282.227 112.983L298.645 112.983L298.645 53.4126L299.133 53.4126L322.937 112.983L334.534 112.983L358.276 53.4126L358.826 53.4126L358.826 112.983L375.244 112.983L375.244 24.9092L353.943 24.9092L328.918 88.2026L328.552 88.2026L303.528 24.9092L282.227 24.9092L282.227 112.983ZM85.083 55.0605C85.083 45.0508 78.8574 39.4966 68.2983 39.4966L55.8472 39.4966L55.8472 70.8076L68.2983 70.8076C78.8574 70.8076 85.083 65.1924 85.083 55.1826L85.083 55.0605ZM132.568 114.021C141.174 114.021 148.132 109.931 151.855 103.217L152.222 103.217L152.222 112.983L170.044 112.983L170.044 68.1221C170.044 54.9385 159.119 46.2104 142.212 46.2104C124.939 46.2104 114.563 54.8774 113.586 66.9624L113.525 67.6948L129.822 67.6948L129.944 67.1455C130.798 62.9341 134.827 59.8213 141.479 59.8213C148.438 59.8213 152.222 63.4224 152.222 69.2207L152.222 73.249L136.047 74.2256C119.812 75.2632 110.596 82.2212 110.596 94.123L110.596 94.2451C110.596 105.781 119.446 114.021 132.568 114.021ZM418.457 112.983L436.279 112.983L436.279 75.3853C436.279 66.8403 441.345 60.981 449.341 60.981C457.336 60.981 461.365 65.8638 461.365 74.4087L461.365 112.983L479.187 112.983L479.187 70.7466C479.187 55.4268 471.008 46.2104 456.604 46.2104C446.716 46.2104 440.002 50.7881 436.646 58.2954L436.279 58.2954L436.279 47.5532L418.457 47.5532L418.457 112.983ZM23.9868 47.5532L23.9868 112.983L6.16455 112.983L6.16455 47.5532L23.9868 47.5532ZM197.266 80.2681C197.266 92.1699 202.82 99.5552 211.731 99.5552C220.398 99.5552 226.318 92.1089 226.318 80.2681L226.318 80.207C226.318 68.4272 220.337 60.981 211.731 60.981C202.881 60.981 197.266 68.2441 197.266 80.207L197.266 80.2681ZM128.235 93.3296L128.235 93.2075C128.235 88.5688 131.836 85.6392 138.733 85.2119L152.222 84.3574L152.222 89.0571C152.222 95.8931 146.362 101.02 138.367 101.02C132.202 101.02 128.235 98.1514 128.235 93.3296ZM406.555 112.983L388.733 112.983L388.733 47.5532L406.555 47.5532L406.555 112.983ZM508.667 112.983L490.845 112.983L490.845 47.5532L508.667 47.5532L508.667 112.983Z" />
    </g>
  </g>
</svg>