<?xml version="1.0" encoding="utf-8"?>
<svg width="646px" height="136px" viewBox="0 0 646 136" version="1.1" xmlns:xlink="http://www.w3.org/1999/xlink" xmlns="http://www.w3.org/2000/svg">
  <defs>
    <path d="M0 0L76.5483 0L76.5483 91.3943L0 91.3943L0 0Z" id="path_1" />
    <clipPath id="mask_1">
      <use xlink:href="#path_1" />
    </clipPath>
  </defs>
  <g id="Group-5">
    <g id="apple-13" transform="translate(0 22.99997)">
      <path d="M0 0L76.5483 0L76.5483 91.3943L0 91.3943L0 0Z" id="Background" fill="none" fill-rule="evenodd" stroke="none" />
      <g clip-path="url(#mask_1)">
        <path d="M64.0004 48.1376C63.9597 40.6739 67.3357 35.0406 74.1689 30.8918C70.3455 25.4212 64.5698 22.4113 56.9435 21.8215C49.7239 21.2521 41.8331 26.0313 38.9453 26.0313C35.8947 26.0313 28.8988 22.0249 23.4078 22.0249C12.0598 22.2079 0 31.0749 0 49.1138C0 54.442 0.976174 59.9466 2.92852 65.6274C5.53165 73.091 14.9273 91.3943 24.7297 91.0893C29.8547 90.9672 33.4746 87.449 40.1451 87.449C46.6123 87.449 49.9679 91.0893 55.6826 91.0893C65.5663 90.9469 74.0672 74.3113 76.5483 66.8273C63.2886 60.5838 64.0004 48.524 64.0004 48.1376L64.0004 48.1376ZM52.4897 14.7443C58.0417 8.15512 57.5333 2.15572 57.3706 0C52.4694 0.284718 46.7954 3.33526 43.5618 7.0976C40.0028 11.1243 37.9081 16.1069 38.3555 21.7199C43.6635 22.1266 48.5037 19.4015 52.4897 14.7443L52.4897 14.7443Z" id="Shape" fill="#000000" fill-rule="evenodd" stroke="none" />
      </g>
    </g>
    <g id="iPhone-12" transform="translate(91.54834 0)">
      <path d="M24.5972 29.853C24.5972 34.9189 20.4468 39.1304 15.0757 39.1304C9.70459 39.1304 5.5542 34.9189 5.5542 29.853C5.5542 24.7871 9.70459 20.5757 15.0757 20.5757C20.4468 20.5757 24.5972 24.7871 24.5972 29.853ZM548.34 112.983L484.314 112.983L484.314 100.349L515.442 71.2349C526.794 60.6147 529.175 56.2812 529.175 50.1777L529.175 50.0557C529.114 42.8535 523.621 37.7266 515.808 37.7266C506.775 37.7266 500.671 43.647 500.427 51.5815L500.366 52.1309L483.276 52.1309L483.276 51.6426C483.276 35.041 497.07 23.3833 515.686 23.3833C534.302 23.3833 547.119 34.0034 547.119 49.0181L547.119 49.1401C547.119 59.8213 542.053 66.7793 526.855 80.7563L508.423 97.6021L508.423 98.3345L548.34 98.3345L548.34 112.983ZM55.8472 112.983L37.4146 112.983L37.4146 24.9092L72.8149 24.9092C91.3696 24.9092 103.76 36.8721 103.76 54.9995L103.76 55.1216C103.76 73.249 91.3696 85.2119 72.8149 85.2119L55.8472 85.2119L55.8472 112.983ZM113.525 112.983L131.348 112.983L131.348 75.5073C131.348 66.9624 136.414 60.981 144.287 60.981C152.405 60.981 156.921 66.4131 156.921 75.5684L156.921 112.983L174.744 112.983L174.744 71.9062C174.744 56.0981 165.955 46.2104 151.794 46.2104C141.968 46.2104 135.071 50.7271 131.714 58.8447L131.348 58.8447L131.348 24.9092L113.525 24.9092L113.525 112.983ZM446.35 112.983L464.6 112.983L464.6 24.9092L446.289 24.9092L423.523 40.7173L423.523 57.0747L445.984 41.8159L446.35 41.8159L446.35 112.983ZM85.083 55.0605C85.083 45.0508 78.8574 39.4966 68.2983 39.4966L55.8472 39.4966L55.8472 70.8076L68.2983 70.8076C78.8574 70.8076 85.083 65.1924 85.083 55.1826L85.083 55.0605ZM248.596 80.2681C248.596 101.63 235.962 114.326 216.187 114.326C196.289 114.326 183.777 101.569 183.777 80.2681L183.777 80.146C183.777 59.0889 196.594 46.2104 216.125 46.2104C235.718 46.2104 248.596 58.9668 248.596 80.146L248.596 80.2681ZM257.751 112.983L275.574 112.983L275.574 75.3853C275.574 66.8403 280.64 60.981 288.635 60.981C296.631 60.981 300.659 65.8638 300.659 74.4087L300.659 112.983L318.481 112.983L318.481 70.7466C318.481 55.4268 310.303 46.2104 295.898 46.2104C286.011 46.2104 279.297 50.7881 275.94 58.2954L275.574 58.2954L275.574 47.5532L257.751 47.5532L257.751 112.983ZM389.282 93.6348C387.268 103.278 378.235 114.326 359.558 114.326C339.539 114.326 327.393 101.325 327.393 80.3901L327.393 80.3291C327.393 59.5161 339.661 46.2104 358.826 46.2104C377.991 46.2104 390.015 59.2109 390.015 78.9863L390.015 84.4795L344.971 84.4795C345.154 94.9165 350.83 101.02 359.924 101.02C367.249 101.02 371.704 96.9917 372.986 93.3296L373.108 92.9634L389.465 92.9634L389.282 93.6348ZM23.9868 47.5532L23.9868 112.983L6.16455 112.983L6.16455 47.5532L23.9868 47.5532ZM372.925 73.249C371.826 64.2158 366.516 59.5161 359.131 59.5161C351.807 59.5161 346.313 64.3989 345.154 73.249L372.925 73.249ZM201.904 80.2681C201.904 93.0854 207.458 100.349 216.248 100.349C224.915 100.349 230.469 93.0244 230.469 80.2681L230.469 80.146C230.469 67.5117 224.792 60.1875 216.125 60.1875C207.52 60.1875 201.904 67.5117 201.904 80.146L201.904 80.2681Z" />
    </g>
  </g>
</svg>