<?xml version="1.0" encoding="utf-8"?>
<svg width="870px" height="136px" viewBox="0 0 870 136" version="1.1" xmlns:xlink="http://www.w3.org/1999/xlink" xmlns="http://www.w3.org/2000/svg">
  <defs>
    <path d="M0 0L76.5483 0L76.5483 91.3943L0 91.3943L0 0Z" id="path_1" />
    <clipPath id="mask_1">
      <use xlink:href="#path_1" />
    </clipPath>
  </defs>
  <g id="Group-5">
    <g id="apple-13" transform="translate(0 22.99997)">
      <path d="M0 0L76.5483 0L76.5483 91.3943L0 91.3943L0 0Z" id="Background" fill="none" fill-rule="evenodd" stroke="none" />
      <g clip-path="url(#mask_1)">
        <path d="M64.0004 48.1376C63.9597 40.6739 67.3357 35.0406 74.1689 30.8918C70.3455 25.4212 64.5698 22.4113 56.9435 21.8215C49.7239 21.2521 41.8331 26.0313 38.9453 26.0313C35.8947 26.0313 28.8988 22.0249 23.4078 22.0249C12.0598 22.2079 0 31.0749 0 49.1138C0 54.442 0.976174 59.9466 2.92852 65.6274C5.53165 73.091 14.9273 91.3943 24.7297 91.0893C29.8547 90.9672 33.4746 87.449 40.1451 87.449C46.6123 87.449 49.9679 91.0893 55.6826 91.0893C65.5663 90.9469 74.0672 74.3113 76.5483 66.8273C63.2886 60.5838 64.0004 48.524 64.0004 48.1376L64.0004 48.1376ZM52.4897 14.7443C58.0417 8.15512 57.5333 2.15572 57.3706 0C52.4694 0.284718 46.7954 3.33526 43.5618 7.0976C40.0028 11.1243 37.9081 16.1069 38.3555 21.7199C43.6635 22.1266 48.5037 19.4015 52.4897 14.7443L52.4897 14.7443Z" id="Shape" fill="#000000" fill-rule="evenodd" stroke="none" />
      </g>
    </g>
    <g id="iPhone-13-Pro" transform="translate(91.54834 0)">
      <path d="M15.0757 39.1304C20.4468 39.1304 24.5972 34.9189 24.5972 29.853C24.5972 24.7871 20.4468 20.5757 15.0757 20.5757C9.70459 20.5757 5.5542 24.7871 5.5542 29.853C5.5542 34.9189 9.70459 39.1304 15.0757 39.1304ZM517.09 114.509C537.659 114.509 551.331 103.889 551.331 88.1416L551.331 88.0195C551.331 76.0566 542.786 68.4883 529.724 67.2676L529.724 66.9014C540.039 64.7651 548.096 57.624 548.096 46.6377L548.096 46.5156C548.096 32.6606 535.889 23.3833 516.907 23.3833C498.413 23.3833 486.023 33.3931 484.802 48.6519L484.741 49.3843L501.648 49.3843L501.709 48.835C502.441 41.999 508.301 37.5435 516.907 37.5435C525.574 37.5435 530.64 41.8159 530.64 48.957L530.64 49.0791C530.64 56.2202 524.658 61.103 515.442 61.103L505.615 61.103L505.615 74.2256L515.686 74.2256C526.306 74.2256 532.593 78.8643 532.593 87.2871L532.593 87.4092C532.593 94.6113 526.489 99.6772 517.029 99.6772C507.507 99.6772 501.282 94.9775 500.488 88.6909L500.366 88.0195L482.788 88.0195L482.849 88.813C484.07 104.011 497.131 114.509 517.09 114.509ZM37.4146 112.983L55.8472 112.983L55.8472 85.2119L72.8149 85.2119C91.3696 85.2119 103.76 73.249 103.76 55.1216L103.76 54.9995C103.76 36.8721 91.3696 24.9092 72.8149 24.9092L37.4146 24.9092L37.4146 112.983ZM131.348 112.983L113.525 112.983L113.525 24.9092L131.348 24.9092L131.348 58.8447L131.714 58.8447C135.071 50.7271 141.968 46.2104 151.794 46.2104C165.955 46.2104 174.744 56.0981 174.744 71.9062L174.744 112.983L156.921 112.983L156.921 75.5684C156.921 66.4131 152.405 60.981 144.287 60.981C136.414 60.981 131.348 66.9624 131.348 75.5073L131.348 112.983ZM464.6 112.983L446.35 112.983L446.35 41.8159L445.984 41.8159L423.523 57.0747L423.523 40.7173L446.289 24.9092L464.6 24.9092L464.6 112.983ZM607.3 112.983L588.867 112.983L588.867 24.9092L624.268 24.9092C642.822 24.9092 655.212 36.8721 655.212 54.9995L655.212 55.1216C655.212 73.249 642.822 85.2119 624.268 85.2119L607.3 85.2119L607.3 112.983ZM68.2983 39.4966C78.8574 39.4966 85.083 45.0508 85.083 55.0605L85.083 55.1826C85.083 65.1924 78.8574 70.8076 68.2983 70.8076L55.8472 70.8076L55.8472 39.4966L68.2983 39.4966ZM636.536 55.0605C636.536 45.0508 630.31 39.4966 619.751 39.4966L607.3 39.4966L607.3 70.8076L619.751 70.8076C630.31 70.8076 636.536 65.1924 636.536 55.1826L636.536 55.0605ZM216.187 114.326C235.962 114.326 248.596 101.63 248.596 80.2681L248.596 80.146C248.596 58.9668 235.718 46.2104 216.125 46.2104C196.594 46.2104 183.777 59.0889 183.777 80.146L183.777 80.2681C183.777 101.569 196.289 114.326 216.187 114.326ZM275.574 112.983L257.751 112.983L257.751 47.5532L275.574 47.5532L275.574 58.2954L275.94 58.2954C279.297 50.7881 286.011 46.2104 295.898 46.2104C310.303 46.2104 318.481 55.4268 318.481 70.7466L318.481 112.983L300.659 112.983L300.659 74.4087C300.659 65.8638 296.631 60.981 288.635 60.981C280.64 60.981 275.574 66.8403 275.574 75.3853L275.574 112.983ZM359.558 114.326C378.235 114.326 387.268 103.278 389.282 93.6348L389.465 92.9634L373.108 92.9634L372.986 93.3296C371.704 96.9917 367.249 101.02 359.924 101.02C350.83 101.02 345.154 94.9165 344.971 84.4795L390.015 84.4795L390.015 78.9863C390.015 59.2109 377.991 46.2104 358.826 46.2104C339.661 46.2104 327.393 59.5161 327.393 80.3291L327.393 80.3901C327.393 101.325 339.539 114.326 359.558 114.326ZM664.551 112.983L682.373 112.983L682.373 76.3618C682.373 66.8403 687.5 61.5913 696.289 61.5913C698.853 61.5913 701.294 61.9575 702.759 62.5679L702.759 46.8818C701.416 46.5156 699.585 46.2104 697.632 46.2104C690.002 46.2104 684.692 50.9102 682.739 58.9668L682.373 58.9668L682.373 47.5532L664.551 47.5532L664.551 112.983ZM772.461 80.2681C772.461 101.63 759.827 114.326 740.051 114.326C720.154 114.326 707.642 101.569 707.642 80.2681L707.642 80.146C707.642 59.0889 720.459 46.2104 739.99 46.2104C759.583 46.2104 772.461 58.9668 772.461 80.146L772.461 80.2681ZM23.9868 112.983L23.9868 47.5532L6.16455 47.5532L6.16455 112.983L23.9868 112.983ZM359.131 59.5161C366.516 59.5161 371.826 64.2158 372.925 73.249L345.154 73.249C346.313 64.3989 351.807 59.5161 359.131 59.5161ZM216.248 100.349C207.458 100.349 201.904 93.0854 201.904 80.2681L201.904 80.146C201.904 67.5117 207.52 60.1875 216.125 60.1875C224.792 60.1875 230.469 67.5117 230.469 80.146L230.469 80.2681C230.469 93.0244 224.915 100.349 216.248 100.349ZM725.769 80.2681C725.769 93.0854 731.323 100.349 740.112 100.349C748.779 100.349 754.333 93.0244 754.333 80.2681L754.333 80.146C754.333 67.5117 748.657 60.1875 739.99 60.1875C731.384 60.1875 725.769 67.5117 725.769 80.146L725.769 80.2681Z" />
    </g>
  </g>
</svg>