<?xml version="1.0" encoding="utf-8"?>
<svg width="847px" height="136px" viewBox="0 0 847 136" version="1.1" xmlns:xlink="http://www.w3.org/1999/xlink" xmlns="http://www.w3.org/2000/svg">
  <defs>
    <path d="M0 0L76.5483 0L76.5483 91.3943L0 91.3943L0 0Z" id="path_1" />
    <clipPath id="mask_1">
      <use xlink:href="#path_1" />
    </clipPath>
  </defs>
  <g id="Group-5">
    <g id="apple-13" transform="translate(0 22.99997)">
      <path d="M0 0L76.5483 0L76.5483 91.3943L0 91.3943L0 0Z" id="Background" fill="none" fill-rule="evenodd" stroke="none" />
      <g clip-path="url(#mask_1)">
        <path d="M64.0004 48.1376C63.9597 40.6739 67.3357 35.0406 74.1689 30.8918C70.3455 25.4212 64.5698 22.4113 56.9435 21.8215C49.7239 21.2521 41.8331 26.0313 38.9453 26.0313C35.8947 26.0313 28.8988 22.0249 23.4078 22.0249C12.0598 22.2079 0 31.0749 0 49.1138C0 54.442 0.976174 59.9466 2.92852 65.6274C5.53165 73.091 14.9273 91.3943 24.7297 91.0893C29.8547 90.9672 33.4746 87.449 40.1451 87.449C46.6123 87.449 49.9679 91.0893 55.6826 91.0893C65.5663 90.9469 74.0672 74.3113 76.5483 66.8273C63.2886 60.5838 64.0004 48.524 64.0004 48.1376L64.0004 48.1376ZM52.4897 14.7443C58.0417 8.15512 57.5333 2.15572 57.3706 0C52.4694 0.284718 46.7954 3.33526 43.5618 7.0976C40.0028 11.1243 37.9081 16.1069 38.3555 21.7199C43.6635 22.1266 48.5037 19.4015 52.4897 14.7443L52.4897 14.7443Z" id="Shape" fill="#000000" fill-rule="evenodd" stroke="none" />
      </g>
    </g>
    <g id="MacBook-Pro" transform="translate(91.54834 0)">
      <path d="M23.7427 112.983L7.32422 112.983L7.32422 24.9092L28.6255 24.9092L53.6499 88.2026L54.0161 88.2026L79.0405 24.9092L100.342 24.9092L100.342 112.983L83.9233 112.983L83.9233 53.4126L83.374 53.4126L59.6313 112.983L48.0347 112.983L24.231 53.4126L23.7427 53.4126L23.7427 112.983ZM290.527 112.983L251.526 112.983L251.526 24.9092L289.856 24.9092C306.458 24.9092 316.895 33.4541 316.895 47.0039L316.895 47.126C316.895 56.7695 309.57 65.0093 299.866 66.291L299.866 66.6572C312.134 67.5728 320.984 76.2397 320.984 87.7754L320.984 87.8975C320.984 103.339 309.326 112.983 290.527 112.983ZM473.755 112.983L491.577 112.983L491.577 91.3154L496.155 86.2495L514.893 112.983L535.461 112.983L509.521 75.6904L534.241 47.5532L514.038 47.5532L491.943 73.7373L491.577 73.7373L491.577 24.9092L473.755 24.9092L473.755 112.983ZM585.083 112.983L566.65 112.983L566.65 24.9092L602.051 24.9092C620.605 24.9092 632.996 36.8721 632.996 54.9995L632.996 55.1216C632.996 73.249 620.605 85.2119 602.051 85.2119L585.083 85.2119L585.083 112.983ZM298.767 49.6284C298.767 42.6094 293.701 38.5811 285.095 38.5811L269.958 38.5811L269.958 61.7134L282.837 61.7134C293.213 61.7134 298.767 57.3799 298.767 49.7505L298.767 49.6284ZM614.319 55.0605C614.319 45.0508 608.093 39.4966 597.534 39.4966L585.083 39.4966L585.083 70.8076L597.534 70.8076C608.093 70.8076 614.319 65.1924 614.319 55.1826L614.319 55.0605ZM152.222 103.217C148.499 109.931 141.541 114.021 132.935 114.021C119.812 114.021 110.962 105.781 110.962 94.2451L110.962 94.123C110.962 82.2212 120.178 75.2632 136.414 74.2256L152.588 73.249L152.588 69.2207C152.588 63.4224 148.804 59.8213 141.846 59.8213C135.193 59.8213 131.165 62.9341 130.31 67.1455L130.188 67.6948L113.892 67.6948L113.953 66.9624C114.929 54.8774 125.305 46.2104 142.578 46.2104C159.485 46.2104 170.41 54.9385 170.41 68.1221L170.41 112.983L152.588 112.983L152.588 103.217L152.222 103.217ZM211.792 114.326C229.248 114.326 240.54 103.461 241.394 89.1792L241.394 88.813L224.792 88.813L224.731 89.3623C223.511 95.9541 219.055 100.349 211.914 100.349C203.125 100.349 197.632 93.0854 197.632 80.2681L197.632 80.207C197.632 67.6948 203.125 60.1875 211.853 60.1875C219.238 60.1875 223.572 64.9482 224.67 71.1738L224.792 71.7231L241.333 71.7231L241.333 71.2959C240.662 57.1357 229.37 46.2104 211.609 46.2104C192.017 46.2104 179.504 59.2109 179.504 80.146L179.504 80.207C179.504 101.325 191.833 114.326 211.792 114.326ZM359.985 114.326C379.761 114.326 392.395 101.63 392.395 80.2681L392.395 80.146C392.395 58.9668 379.517 46.2104 359.924 46.2104C340.393 46.2104 327.576 59.0889 327.576 80.146L327.576 80.2681C327.576 101.569 340.088 114.326 359.985 114.326ZM463.989 80.2681C463.989 101.63 451.355 114.326 431.58 114.326C411.682 114.326 399.17 101.569 399.17 80.2681L399.17 80.146C399.17 59.0889 411.987 46.2104 431.519 46.2104C451.111 46.2104 463.989 58.9668 463.989 80.146L463.989 80.2681ZM642.334 112.983L660.156 112.983L660.156 76.3618C660.156 66.8403 665.283 61.5913 674.072 61.5913C676.636 61.5913 679.077 61.9575 680.542 62.5679L680.542 46.8818C679.199 46.5156 677.368 46.2104 675.415 46.2104C667.786 46.2104 662.476 50.9102 660.522 58.9668L660.156 58.9668L660.156 47.5532L642.334 47.5532L642.334 112.983ZM750.244 80.2681C750.244 101.63 737.61 114.326 717.834 114.326C697.937 114.326 685.425 101.569 685.425 80.2681L685.425 80.146C685.425 59.0889 698.242 46.2104 717.773 46.2104C737.366 46.2104 750.244 58.9668 750.244 80.146L750.244 80.2681ZM360.046 100.349C351.257 100.349 345.703 93.0854 345.703 80.2681L345.703 80.146C345.703 67.5117 351.318 60.1875 359.924 60.1875C368.591 60.1875 374.268 67.5117 374.268 80.146L374.268 80.2681C374.268 93.0244 368.713 100.349 360.046 100.349ZM417.297 80.2681C417.297 93.0854 422.852 100.349 431.641 100.349C440.308 100.349 445.862 93.0244 445.862 80.2681L445.862 80.146C445.862 67.5117 440.186 60.1875 431.519 60.1875C422.913 60.1875 417.297 67.5117 417.297 80.146L417.297 80.2681ZM703.552 80.2681C703.552 93.0854 709.106 100.349 717.896 100.349C726.562 100.349 732.117 93.0244 732.117 80.2681L732.117 80.146C732.117 67.5117 726.44 60.1875 717.773 60.1875C709.167 60.1875 703.552 67.5117 703.552 80.146L703.552 80.2681ZM302.185 86.6157C302.185 78.5591 296.326 74.2256 285.034 74.2256L269.958 74.2256L269.958 99.25L285.828 99.25C296.387 99.25 302.185 94.9165 302.185 86.7378L302.185 86.6157ZM128.601 93.2075L128.601 93.3296C128.601 98.1514 132.568 101.02 138.733 101.02C146.729 101.02 152.588 95.8931 152.588 89.0571L152.588 84.3574L139.099 85.2119C132.202 85.6392 128.601 88.5688 128.601 93.2075Z" />
    </g>
  </g>
</svg>