<?xml version="1.0" encoding="utf-8"?>
<svg width="734px" height="136px" viewBox="0 0 734 136" version="1.1" xmlns:xlink="http://www.w3.org/1999/xlink" xmlns="http://www.w3.org/2000/svg">
  <defs>
    <path d="M0 0L76.5483 0L76.5483 91.3943L0 91.3943L0 0Z" id="path_1" />
    <clipPath id="mask_1">
      <use xlink:href="#path_1" />
    </clipPath>
  </defs>
  <g id="Group-5">
    <g id="apple-13" transform="translate(0 22.99997)">
      <path d="M0 0L76.5483 0L76.5483 91.3943L0 91.3943L0 0Z" id="Background" fill="none" fill-rule="evenodd" stroke="none" />
      <g clip-path="url(#mask_1)">
        <path d="M64.0004 48.1376C63.9597 40.6739 67.3357 35.0406 74.1689 30.8918C70.3455 25.4212 64.5698 22.4113 56.9435 21.8215C49.7239 21.2521 41.8331 26.0313 38.9453 26.0313C35.8947 26.0313 28.8988 22.0249 23.4078 22.0249C12.0598 22.2079 0 31.0749 0 49.1138C0 54.442 0.976174 59.9466 2.92852 65.6274C5.53165 73.091 14.9273 91.3943 24.7297 91.0893C29.8547 90.9672 33.4746 87.449 40.1451 87.449C46.6123 87.449 49.9679 91.0893 55.6826 91.0893C65.5663 90.9469 74.0672 74.3113 76.5483 66.8273C63.2886 60.5838 64.0004 48.524 64.0004 48.1376L64.0004 48.1376ZM52.4897 14.7443C58.0417 8.15512 57.5333 2.15572 57.3706 0C52.4694 0.284718 46.7954 3.33526 43.5618 7.0976C40.0028 11.1243 37.9081 16.1069 38.3555 21.7199C43.6635 22.1266 48.5037 19.4015 52.4897 14.7443L52.4897 14.7443Z" id="Shape" fill="#000000" fill-rule="evenodd" stroke="none" />
      </g>
    </g>
    <g id="Mac-Studio" transform="translate(91.54834 0)">
      <path d="M553.833 39.1304C559.204 39.1304 563.354 34.9189 563.354 29.853C563.354 24.7871 559.204 20.5757 553.833 20.5757C548.462 20.5757 544.312 24.7871 544.312 29.853C544.312 34.9189 548.462 39.1304 553.833 39.1304ZM308.411 114.509C330.627 114.509 343.933 103.767 343.933 86.8599L343.933 86.7988C343.933 72.9438 335.632 65.4365 317.2 61.7744L307.861 59.8823C297.729 57.8682 293.213 54.6333 293.213 49.0791L293.213 49.0181C293.213 42.7314 298.889 38.3979 308.35 38.3369C317.444 38.3369 323.792 42.5483 324.707 49.4453L324.768 50.1777L342.163 50.1777L342.102 49.0181C341.248 33.5762 328.735 23.3833 308.35 23.3833C288.818 23.3833 274.78 34.0034 274.78 50.1167L274.78 50.1777C274.78 63.4224 283.569 71.7231 300.964 75.2021L310.242 77.0332C321.167 79.2915 325.5 82.2822 325.5 88.2637L325.5 88.3247C325.5 95.0386 319.092 99.4941 308.899 99.4941C298.828 99.4941 291.565 95.2217 290.405 88.3857L290.283 87.7144L272.888 87.7144L272.949 88.6909C273.987 104.926 287.476 114.509 308.411 114.509ZM7.32422 112.983L23.7427 112.983L23.7427 53.4126L24.231 53.4126L48.0347 112.983L59.6313 112.983L83.374 53.4126L83.9233 53.4126L83.9233 112.983L100.342 112.983L100.342 24.9092L79.0405 24.9092L54.0161 88.2026L53.6499 88.2026L28.6255 24.9092L7.32422 24.9092L7.32422 112.983ZM514.465 101.813C510.986 109.565 503.784 114.326 494.324 114.326C477.844 114.326 467.712 101.508 467.712 80.2681L467.712 80.207C467.712 58.9058 477.844 46.2104 494.324 46.2104C503.601 46.2104 510.925 50.9712 514.465 58.9058L514.832 58.9058L514.832 24.9092L532.654 24.9092L532.654 112.983L514.832 112.983L514.832 101.813L514.465 101.813ZM388.245 113.654C386.23 113.959 383.362 114.326 379.639 114.326C365.112 114.326 358.276 108.71 358.276 94.6724L358.276 60.981L349.182 60.981L349.182 47.5532L358.276 47.5532L358.276 31.562L376.282 31.562L376.282 47.5532L388.245 47.5532L388.245 60.981L376.282 60.981L376.282 92.7192C376.282 98.8228 379.028 100.898 384.399 100.898C385.986 100.898 387.146 100.715 388.245 100.593L388.245 113.654ZM132.935 114.021C141.541 114.021 148.499 109.931 152.222 103.217L152.588 103.217L152.588 112.983L170.41 112.983L170.41 68.1221C170.41 54.9385 159.485 46.2104 142.578 46.2104C125.305 46.2104 114.929 54.8774 113.953 66.9624L113.892 67.6948L130.188 67.6948L130.31 67.1455C131.165 62.9341 135.193 59.8213 141.846 59.8213C148.804 59.8213 152.588 63.4224 152.588 69.2207L152.588 73.249L136.414 74.2256C120.178 75.2632 110.962 82.2212 110.962 94.123L110.962 94.2451C110.962 105.781 119.812 114.021 132.935 114.021ZM241.394 89.1792C240.54 103.461 229.248 114.326 211.792 114.326C191.833 114.326 179.504 101.325 179.504 80.207L179.504 80.146C179.504 59.2109 192.017 46.2104 211.609 46.2104C229.37 46.2104 240.662 57.1357 241.333 71.2959L241.333 71.7231L224.792 71.7231L224.67 71.1738C223.572 64.9482 219.238 60.1875 211.853 60.1875C203.125 60.1875 197.632 67.6948 197.632 80.207L197.632 80.2681C197.632 93.0854 203.125 100.349 211.914 100.349C219.055 100.349 223.511 95.9541 224.731 89.3623L224.792 88.813L241.394 88.813L241.394 89.1792ZM637.085 80.2681C637.085 101.63 624.451 114.326 604.675 114.326C584.778 114.326 572.266 101.569 572.266 80.2681L572.266 80.146C572.266 59.0889 585.083 46.2104 604.614 46.2104C624.207 46.2104 637.085 58.9668 637.085 80.146L637.085 80.2681ZM420.349 114.326C430.237 114.326 436.951 109.687 440.308 102.18L440.674 102.18L440.674 112.983L458.496 112.983L458.496 47.5532L440.674 47.5532L440.674 85.1509C440.674 93.6958 435.608 99.5552 427.612 99.5552C419.617 99.5552 415.588 94.6113 415.588 86.0664L415.588 47.5532L397.766 47.5532L397.766 89.7896C397.766 105.109 405.945 114.326 420.349 114.326ZM544.922 112.983L562.744 112.983L562.744 47.5532L544.922 47.5532L544.922 112.983ZM590.393 80.2681C590.393 93.0854 595.947 100.349 604.736 100.349C613.403 100.349 618.958 93.0244 618.958 80.2681L618.958 80.146C618.958 67.5117 613.281 60.1875 604.614 60.1875C596.008 60.1875 590.393 67.5117 590.393 80.146L590.393 80.2681ZM485.84 80.2681C485.84 92.1699 491.394 99.5552 500.305 99.5552C508.972 99.5552 514.893 92.1089 514.893 80.2681L514.893 80.207C514.893 68.4272 508.911 60.981 500.305 60.981C491.455 60.981 485.84 68.2441 485.84 80.207L485.84 80.2681ZM128.601 93.3296L128.601 93.2075C128.601 88.5688 132.202 85.6392 139.099 85.2119L152.588 84.3574L152.588 89.0571C152.588 95.8931 146.729 101.02 138.733 101.02C132.568 101.02 128.601 98.1514 128.601 93.3296Z" />
    </g>
  </g>
</svg>