<?xml version="1.0" encoding="utf-8"?>
<svg width="437px" height="136px" viewBox="0 0 437 136" version="1.1" xmlns:xlink="http://www.w3.org/1999/xlink" xmlns="http://www.w3.org/2000/svg">
  <defs>
    <path d="M0 0L76.5483 0L76.5483 91.3943L0 91.3943L0 0Z" id="path_1" />
    <clipPath id="mask_1">
      <use xlink:href="#path_1" />
    </clipPath>
  </defs>
  <g id="Group-5">
    <g id="apple-13" transform="translate(0 22.99997)">
      <path d="M0 0L76.5483 0L76.5483 91.3943L0 91.3943L0 0Z" id="Background" fill="none" fill-rule="evenodd" stroke="none" />
      <g clip-path="url(#mask_1)">
        <path d="M64.0004 48.1376C63.9597 40.6739 67.3357 35.0406 74.1689 30.8918C70.3455 25.4212 64.5698 22.4113 56.9435 21.8215C49.7239 21.2521 41.8331 26.0313 38.9453 26.0313C35.8947 26.0313 28.8988 22.0249 23.4078 22.0249C12.0598 22.2079 0 31.0749 0 49.1138C0 54.442 0.976174 59.9466 2.92852 65.6274C5.53165 73.091 14.9273 91.3943 24.7297 91.0893C29.8547 90.9672 33.4746 87.449 40.1451 87.449C46.6123 87.449 49.9679 91.0893 55.6826 91.0893C65.5663 90.9469 74.0672 74.3113 76.5483 66.8273C63.2886 60.5838 64.0004 48.524 64.0004 48.1376L64.0004 48.1376ZM52.4897 14.7443C58.0417 8.15512 57.5333 2.15572 57.3706 0C52.4694 0.284718 46.7954 3.33526 43.5618 7.0976C40.0028 11.1243 37.9081 16.1069 38.3555 21.7199C43.6635 22.1266 48.5037 19.4015 52.4897 14.7443L52.4897 14.7443Z" id="Shape" fill="#000000" fill-rule="evenodd" stroke="none" />
      </g>
    </g>
    <g id="Music" transform="translate(91.54834 0)">
      <path d="M259.094 39.1304C264.465 39.1304 268.616 34.9189 268.616 29.853C268.616 24.7871 264.465 20.5757 259.094 20.5757C253.723 20.5757 249.573 24.7871 249.573 29.853C249.573 34.9189 253.723 39.1304 259.094 39.1304ZM7.32422 112.983L23.7427 112.983L23.7427 53.4126L24.231 53.4126L48.0347 112.983L59.6313 112.983L83.374 53.4126L83.9233 53.4126L83.9233 112.983L100.342 112.983L100.342 24.9092L79.0405 24.9092L54.0161 88.2026L53.6499 88.2026L28.6255 24.9092L7.32422 24.9092L7.32422 112.983ZM241.028 93.0854C241.028 105.903 229.248 114.326 212.402 114.326C194.275 114.326 184.204 105.964 182.8 93.5737L182.739 93.0244L200.134 93.0244L200.256 93.5737C201.416 98.7007 205.261 101.691 212.402 101.691C219.116 101.691 223.206 99.0669 223.206 94.8555L223.206 94.7944C223.206 91.3154 221.008 89.3013 214.6 87.8975L203.491 85.5781C190.796 82.8926 184.387 76.5449 184.387 66.7793L184.387 66.7183C184.387 54.2671 195.129 46.2104 211.792 46.2104C229.187 46.2104 238.892 55.4268 239.319 66.9014L239.319 67.5117L222.9 67.5117L222.839 67.0234C222.229 62.3237 218.384 58.7837 211.792 58.7837C205.627 58.7837 201.782 61.5303 201.782 65.7417L201.782 65.8027C201.782 69.1597 204.041 71.3569 210.632 72.7607L221.741 75.1411C235.413 78.0098 241.028 83.3809 241.028 93.0244L241.028 93.0854ZM339.417 89.1792C338.562 103.461 327.271 114.326 309.814 114.326C289.856 114.326 277.527 101.325 277.527 80.207L277.527 80.146C277.527 59.2109 290.039 46.2104 309.631 46.2104C327.393 46.2104 338.684 57.1357 339.355 71.2959L339.355 71.7231L322.815 71.7231L322.693 71.1738C321.594 64.9482 317.261 60.1875 309.875 60.1875C301.147 60.1875 295.654 67.6948 295.654 80.207L295.654 80.2681C295.654 93.0854 301.147 100.349 309.937 100.349C317.078 100.349 321.533 95.9541 322.754 89.3623L322.815 88.813L339.417 88.813L339.417 89.1792ZM135.742 114.326C145.63 114.326 152.344 109.687 155.701 102.18L156.067 102.18L156.067 112.983L173.889 112.983L173.889 47.5532L156.067 47.5532L156.067 85.1509C156.067 93.6958 151.001 99.5552 143.005 99.5552C135.01 99.5552 130.981 94.6113 130.981 86.0664L130.981 47.5532L113.159 47.5532L113.159 89.7896C113.159 105.109 121.338 114.326 135.742 114.326ZM268.005 112.983L268.005 47.5532L250.183 47.5532L250.183 112.983L268.005 112.983Z" />
    </g>
  </g>
</svg>