<?xml version="1.0" encoding="utf-8"?>
<svg width="912px" height="136px" viewBox="0 0 912 136" version="1.1" xmlns:xlink="http://www.w3.org/1999/xlink" xmlns="http://www.w3.org/2000/svg">
  <defs>
    <path d="M0 0L76.5483 0L76.5483 91.3943L0 91.3943L0 0Z" id="path_1" />
    <clipPath id="mask_1">
      <use xlink:href="#path_1" />
    </clipPath>
  </defs>
  <g id="Group-5">
    <g id="apple-13" transform="translate(0 22.99997)">
      <path d="M0 0L76.5483 0L76.5483 91.3943L0 91.3943L0 0Z" id="Background" fill="none" fill-rule="evenodd" stroke="none" />
      <g clip-path="url(#mask_1)">
        <path d="M64.0004 48.1376C63.9597 40.6739 67.3357 35.0406 74.1689 30.8918C70.3455 25.4212 64.5698 22.4113 56.9435 21.8215C49.7239 21.2521 41.8331 26.0313 38.9453 26.0313C35.8947 26.0313 28.8988 22.0249 23.4078 22.0249C12.0598 22.2079 0 31.0749 0 49.1138C0 54.442 0.976174 59.9466 2.92852 65.6274C5.53165 73.091 14.9273 91.3943 24.7297 91.0893C29.8547 90.9672 33.4746 87.449 40.1451 87.449C46.6123 87.449 49.9679 91.0893 55.6826 91.0893C65.5663 90.9469 74.0672 74.3113 76.5483 66.8273C63.2886 60.5838 64.0004 48.524 64.0004 48.1376L64.0004 48.1376ZM52.4897 14.7443C58.0417 8.15512 57.5333 2.15572 57.3706 0C52.4694 0.284718 46.7954 3.33526 43.5618 7.0976C40.0028 11.1243 37.9081 16.1069 38.3555 21.7199C43.6635 22.1266 48.5037 19.4015 52.4897 14.7443L52.4897 14.7443Z" id="Shape" fill="#000000" fill-rule="evenodd" stroke="none" />
      </g>
    </g>
    <g id="Studio-Display" transform="translate(91.54834 0)">
      <path d="M294.434 29.853C294.434 34.9189 290.283 39.1304 284.912 39.1304C279.541 39.1304 275.391 34.9189 275.391 29.853C275.391 24.7871 279.541 20.5757 284.912 20.5757C290.283 20.5757 294.434 24.7871 294.434 29.853ZM498.84 39.1304C504.211 39.1304 508.362 34.9189 508.362 29.853C508.362 24.7871 504.211 20.5757 498.84 20.5757C493.469 20.5757 489.319 24.7871 489.319 29.853C489.319 34.9189 493.469 39.1304 498.84 39.1304ZM39.4897 114.509C61.7065 114.509 75.0122 103.767 75.0122 86.8599L75.0122 86.7988C75.0122 72.9438 66.7114 65.4365 48.2788 61.7744L38.9404 59.8823C28.8086 57.8682 24.292 54.6333 24.292 49.0791L24.292 49.0181C24.292 42.7314 29.9683 38.3979 39.4287 38.3369C48.5229 38.3369 54.8706 42.5483 55.7861 49.4453L55.8472 50.1777L73.2422 50.1777L73.1812 49.0181C72.3267 33.5762 59.8145 23.3833 39.4287 23.3833C19.8975 23.3833 5.85938 34.0034 5.85938 50.1167L5.85938 50.1777C5.85938 63.4224 14.6484 71.7231 32.0435 75.2021L41.3208 77.0332C52.2461 79.2915 56.5796 82.2822 56.5796 88.2637L56.5796 88.3247C56.5796 95.0386 50.1709 99.4941 39.978 99.4941C29.9072 99.4941 22.644 95.2217 21.4844 88.3857L21.3623 87.7144L3.96729 87.7144L4.02832 88.6909C5.06592 104.926 18.5547 114.509 39.4897 114.509ZM225.403 114.326C234.863 114.326 242.065 109.565 245.544 101.813L245.911 101.813L245.911 112.983L263.733 112.983L263.733 24.9092L245.911 24.9092L245.911 58.9058L245.544 58.9058C242.004 50.9712 234.68 46.2104 225.403 46.2104C208.923 46.2104 198.792 58.9058 198.792 80.207L198.792 80.2681C198.792 101.508 208.923 114.326 225.403 114.326ZM437.195 112.983L403.564 112.983L403.564 24.9092L437.195 24.9092C463.562 24.9092 479.187 40.5952 479.187 68.4883L479.187 68.6104C479.187 96.5645 463.623 112.983 437.195 112.983ZM676.392 112.983L658.569 112.983L658.569 24.9092L676.392 24.9092L676.392 112.983ZM110.718 114.326C114.441 114.326 117.31 113.959 119.324 113.654L119.324 100.593C118.225 100.715 117.065 100.898 115.479 100.898C110.107 100.898 107.361 98.8228 107.361 92.7192L107.361 60.981L119.324 60.981L119.324 47.5532L107.361 47.5532L107.361 31.562L89.3555 31.562L89.3555 47.5532L80.2612 47.5532L80.2612 60.981L89.3555 60.981L89.3555 94.6724C89.3555 108.71 96.1914 114.326 110.718 114.326ZM421.997 40.1069L421.997 97.7241L434.998 97.7241C451.477 97.7241 460.388 87.7144 460.388 68.6714L460.388 68.5493C460.388 50.1777 451.172 40.1069 434.998 40.1069L421.997 40.1069ZM335.754 114.326C355.53 114.326 368.164 101.63 368.164 80.2681L368.164 80.146C368.164 58.9668 355.286 46.2104 335.693 46.2104C316.162 46.2104 303.345 59.0889 303.345 80.146L303.345 80.2681C303.345 101.569 315.857 114.326 335.754 114.326ZM575.195 93.0854C575.195 105.903 563.416 114.326 546.57 114.326C528.442 114.326 518.372 105.964 516.968 93.5737L516.907 93.0244L534.302 93.0244L534.424 93.5737C535.583 98.7007 539.429 101.691 546.57 101.691C553.284 101.691 557.373 99.0669 557.373 94.8555L557.373 94.7944C557.373 91.3154 555.176 89.3013 548.767 87.8975L537.659 85.5781C524.963 82.8926 518.555 76.5449 518.555 66.7793L518.555 66.7183C518.555 54.2671 529.297 46.2104 545.959 46.2104C563.354 46.2104 573.059 55.4268 573.486 66.9014L573.486 67.5117L557.068 67.5117L557.007 67.0234C556.396 62.3237 552.551 58.7837 545.959 58.7837C539.795 58.7837 535.95 61.5303 535.95 65.7417L535.95 65.8027C535.95 69.1597 538.208 71.3569 544.8 72.7607L555.908 75.1411C569.58 78.0098 575.195 83.3809 575.195 93.0244L575.195 93.0854ZM583.984 134.345L601.807 134.345L601.807 101.813L602.173 101.813C605.713 109.565 613.098 114.326 622.437 114.326C638.794 114.326 648.926 101.508 648.926 80.2681L648.926 80.207C648.926 58.9058 638.794 46.2104 622.192 46.2104C612.915 46.2104 605.774 51.0322 602.234 58.9668L601.807 58.9668L601.807 47.5532L583.984 47.5532L583.984 134.345ZM707.886 114.021C716.492 114.021 723.45 109.931 727.173 103.217L727.539 103.217L727.539 112.983L745.361 112.983L745.361 68.1221C745.361 54.9385 734.436 46.2104 717.529 46.2104C700.256 46.2104 689.88 54.8774 688.904 66.9624L688.843 67.6948L705.139 67.6948L705.261 67.1455C706.116 62.9341 710.144 59.8213 716.797 59.8213C723.755 59.8213 727.539 63.4224 727.539 69.2207L727.539 73.249L711.365 74.2256C695.129 75.2632 685.913 82.2212 685.913 94.123L685.913 94.2451C685.913 105.781 694.763 114.021 707.886 114.021ZM171.387 102.18C168.03 109.687 161.316 114.326 151.428 114.326C137.024 114.326 128.845 105.109 128.845 89.7896L128.845 47.5532L146.667 47.5532L146.667 86.0664C146.667 94.6113 150.696 99.5552 158.691 99.5552C166.687 99.5552 171.753 93.6958 171.753 85.1509L171.753 47.5532L189.575 47.5532L189.575 112.983L171.753 112.983L171.753 102.18L171.387 102.18ZM293.823 112.983L276.001 112.983L276.001 47.5532L293.823 47.5532L293.823 112.983ZM795.532 114.143C790.405 129.584 781.616 134.528 767.09 134.528C763.611 134.528 760.071 134.101 757.996 133.735L757.996 120.49C759.277 120.734 761.353 121.101 763.977 121.101C769.287 121.101 772.217 119.575 773.804 115.119L774.597 112.983L751.465 47.5532L771.057 47.5532L784.851 98.7007L785.339 98.7007L799.194 47.5532L817.993 47.5532L795.532 114.143ZM335.815 100.349C327.026 100.349 321.472 93.0854 321.472 80.2681L321.472 80.146C321.472 67.5117 327.087 60.1875 335.693 60.1875C344.36 60.1875 350.037 67.5117 350.037 80.146L350.037 80.2681C350.037 93.0244 344.482 100.349 335.815 100.349ZM489.929 112.983L507.751 112.983L507.751 47.5532L489.929 47.5532L489.929 112.983ZM231.384 99.5552C222.473 99.5552 216.919 92.1699 216.919 80.2681L216.919 80.207C216.919 68.2441 222.534 60.981 231.384 60.981C239.99 60.981 245.972 68.4272 245.972 80.207L245.972 80.2681C245.972 92.1089 240.051 99.5552 231.384 99.5552ZM616.333 99.5552C607.666 99.5552 601.746 92.1089 601.746 80.3291L601.746 80.2681C601.746 68.4272 607.666 60.981 616.333 60.981C625.183 60.981 630.798 68.2441 630.798 80.207L630.798 80.2681C630.798 92.1699 625.183 99.5552 616.333 99.5552ZM703.552 93.3296L703.552 93.2075C703.552 88.5688 707.153 85.6392 714.05 85.2119L727.539 84.3574L727.539 89.0571C727.539 95.8931 721.68 101.02 713.684 101.02C707.52 101.02 703.552 98.1514 703.552 93.3296Z" />
    </g>
  </g>
</svg>