<?xml version="1.0" encoding="utf-8"?>
<svg width="72px" height="121px" viewBox="0 0 72 121" version="1.1" xmlns:xlink="http://www.w3.org/1999/xlink" xmlns="http://www.w3.org/2000/svg">
  <defs>
    <filter id="filter_1">
      <feColorMatrix in="SourceGraphic" type="matrix" values="0 0 0 0 0 0 0 0 0 0 0 0 0 0 0 0 0 0 1 0" color-interpolation-filters="sRGB" />
    </filter>
    <path d="M0 0L72 0L72 121L0 121L0 0Z" id="path_1" />
    <clipPath id="mask_1">
      <use xlink:href="#path_1" />
    </clipPath>
  </defs>
  <g id="ipad" filter="url(#filter_1)">
    <path d="M0 0L72 0L72 121L0 121L0 0Z" id="Background" fill="#FFFFFF" fill-opacity="0" fill-rule="evenodd" stroke="none" />
    <g clip-path="url(#mask_1)">
      <path d="M68.8535 15.6852L3.26392 15.6852C1.40422 15.8585 -0.0093194 17.3238 -7.71523e-05 19.0687L-7.74384e-05 109.079C0.0125563 109.876 0.363561 110.635 0.975699 111.189C1.58784 111.744 2.41095 112.049 3.26391 112.037L68.8559 112.037C69.6834 112.043 70.4795 111.742 71.0692 111.2C71.6588 110.658 71.9936 109.919 71.9999 109.146C71.9999 109.124 71.9999 109.102 71.9999 109.079L71.9999 19.0687C72.0609 17.346 70.689 15.8707 68.8535 15.6852L68.8535 15.6852ZM35.9999 18.867C36.8747 18.867 37.5839 19.5291 37.5839 20.3459C37.5839 21.1627 36.8747 21.8248 35.9999 21.8248C35.1251 21.8248 34.4159 21.1627 34.4159 20.3459L34.4159 20.3459C34.4159 19.5291 35.1251 18.867 35.9999 18.867L35.9999 18.867ZM35.9999 109.684C34.5816 109.684 33.4319 108.611 33.4319 107.287C33.4319 105.963 34.5816 104.889 35.9999 104.889C37.4181 104.889 38.5679 105.963 38.5679 107.287L38.5679 107.287C38.5547 108.602 37.4089 109.662 35.9999 109.662L35.9999 109.684ZM67.1999 103.074L4.79993 103.074L4.79993 24.6481L67.1999 24.6481L67.1999 103.074Z" id="Shape" fill="#F5F5F7" fill-rule="evenodd" stroke="none" />
    </g>
  </g>
</svg>