<?xml version="1.0" encoding="utf-8"?>
<svg width="23px" height="54px" viewBox="0 0 23 54" version="1.1" xmlns:xlink="http://www.w3.org/1999/xlink" xmlns="http://www.w3.org/2000/svg">
  <g id="ipad_mini">
    <path d="M0 0L23 0L23 54L0 54L0 0Z" id="Shape" fill="none" stroke="none" />
    <path d="M2.3 17C1.0297 17 0 18.0308 0 19.3023L0 47.6976C0 48.9692 1.0297 50 2.3 50L20.7 50C21.9703 50 23 48.9692 23 47.6977L23 19.3023C23 18.0308 21.9703 17 20.7 17L2.3 17ZM21 47.2564C21 47.6671 20.6728 48 20.2692 48L2.7308 48C2.3272 48 2 47.6671 2 47.2564L2 19.7436C2 19.3329 2.3272 19 2.7308 19L20.2693 19C20.6728 19 21 19.3329 21 19.7436L21 47.2564Z" id="Shape" fill="#000000" fill-rule="evenodd" stroke="none" />
  </g>
</svg>