<?xml version="1.0" encoding="utf-8"?>
<svg width="94px" height="120px" viewBox="0 0 94 120" version="1.1" xmlns:xlink="http://www.w3.org/1999/xlink" xmlns="http://www.w3.org/2000/svg">
  <defs>
    <filter id="filter_1">
      <feColorMatrix in="SourceGraphic" type="matrix" values="0 0 0 0 0 0 0 0 0 0 0 0 0 0 0 0 0 0 1 0" color-interpolation-filters="sRGB" />
    </filter>
    <path d="M0 0L94 0L94 120L0 120L0 0Z" id="path_1" />
    <clipPath id="mask_1">
      <use xlink:href="#path_1" />
    </clipPath>
  </defs>
  <g id="ipad_pro" filter="url(#filter_1)">
    <path d="M0 0L94 0L94 120L0 120L0 0Z" id="Background" fill="#FFFFFF" fill-opacity="0" fill-rule="evenodd" stroke="none" />
    <g clip-path="url(#mask_1)">
      <path d="M73.3659 13.3333L73.3659 11.1111C73.3659 9.88376 72.3394 8.88884 71.0732 8.88884L6.87805 8.88884C5.61184 8.88884 4.58537 9.88376 4.58537 11.1111L4.58537 104.444C4.58537 105.672 5.61184 106.667 6.87805 106.667L22.9268 106.667C23.1042 108.516 24.1875 110.169 25.8385 111.111L6.87805 111.111C3.07941 111.111 2.91086e-13 108.126 2.91086e-13 104.444L2.91086e-13 11.1111C-1.09324e-06 7.42917 3.07941 4.4444 6.87805 4.4444L71.0732 4.4444C74.8718 4.4444 77.9512 7.42917 77.9512 11.1111L77.9512 13.3333L73.3659 13.3333ZM87.122 15.5555C90.9206 15.5555 94 18.5403 94 22.2222L94 104.444C94 108.126 90.9206 111.111 87.122 111.111L32.0976 111.111C28.299 111.111 25.2195 108.126 25.2195 104.444L25.2195 22.2222C25.2195 18.5403 28.299 15.5555 32.0976 15.5555L87.122 15.5555ZM89.4146 22.2222C89.4146 20.9949 88.3882 19.9999 87.1219 19.9999L32.0976 19.9999C30.8313 19.9999 29.8049 20.9949 29.8049 22.2222L29.8049 104.444C29.8049 105.672 30.8313 106.667 32.0976 106.667L87.1219 106.667C88.3882 106.667 89.4146 105.672 89.4146 104.444L89.4146 22.2222Z" id="Shape" fill="#F5F5F7" fill-rule="evenodd" stroke="none" />
    </g>
  </g>
</svg>