<?xml version="1.0" encoding="utf-8"?>
<svg width="28px" height="72px" viewBox="0 0 28 72" version="1.1" xmlns:xlink="http://www.w3.org/1999/xlink" xmlns="http://www.w3.org/2000/svg">
  <g id="iphone_se">
    <path d="M0 0L27.8333 0L27.8333 72L0 72L0 0Z" id="Rectangle" fill="none" fill-rule="evenodd" stroke="none" />
    <path d="M23.4386 7.54385L4.39474 7.54385C1.9706 7.55109 0.00723986 9.51445 0 11.9386L3.49262e-07 61.7456C0.00729714 64.1699 1.9707 66.1332 4.39484 66.1404L23.4386 66.1404C25.8627 66.1331 27.8261 64.1698 27.8333 61.7456L27.8333 11.9386C27.826 9.51435 25.8626 7.55104 23.4385 7.54385L23.4386 7.54385ZM10.6206 10.8399L17.2127 10.8399C17.3436 10.8399 17.4645 10.9795 17.5299 11.2062C17.5953 11.4328 17.5953 11.712 17.5299 11.9386C17.4645 12.1652 17.3436 12.3048 17.2127 12.3048L10.6206 12.3048C10.4898 12.3048 10.3689 12.1652 10.3035 11.9386C10.238 11.712 10.238 11.4328 10.3035 11.2062C10.3689 10.9795 10.4898 10.8399 10.6206 10.8399L10.6206 10.8399ZM8.24027 10.6568C8.64479 10.6568 8.97272 10.9847 8.97272 11.3893C8.97273 11.7938 8.6448 12.1217 8.24027 12.1217C7.83575 12.1217 7.50781 11.7938 7.50781 11.3893C7.50781 10.9847 7.83575 10.6568 8.24027 10.6568L8.24027 10.6568ZM13.9166 65.0417C12.5008 65.0417 11.353 63.8939 11.353 62.4781C11.353 61.0623 12.5008 59.9145 13.9166 59.9145C15.3324 59.9145 16.4802 61.0622 16.4802 62.4781C16.4802 63.8939 15.3325 65.0417 13.9166 65.0417L13.9166 65.0417ZM26.3684 58.8158L1.46484 58.8158L1.46484 14.8684L26.3684 14.8684L26.3684 58.8158Z" id="Shape" fill="#1D1D1F" fill-rule="evenodd" stroke="none" />
    <path d="M12.2686 62.478C12.2686 61.5679 13.0064 60.83 13.9166 60.83C14.8268 60.83 15.5646 61.5679 15.5646 62.478C15.5646 63.3882 14.8268 64.1261 13.9166 64.1261C13.0064 64.1261 12.2686 63.3882 12.2686 62.478Z" id="Circle" fill="#1D1D1F" fill-rule="evenodd" stroke="none" />
  </g>
</svg>