<?xml version="1.0" encoding="utf-8"?>
<svg width="19px" height="10px" viewBox="0 0 19 10" version="1.1" xmlns:xlink="http://www.w3.org/1999/xlink" xmlns="http://www.w3.org/2000/svg">
  <path d="M0.998993 0L18.001 0Q18.0994 0 18.1959 0.0191954Q18.2924 0.0383907 18.3833 0.0760438Q18.4742 0.113697 18.556 0.168361Q18.6378 0.223024 18.7074 0.292598Q18.777 0.362172 18.8316 0.443982Q18.8863 0.525792 18.924 0.616695Q18.9616 0.707597 18.9808 0.804099Q19 0.900601 19 0.998993L19 1.00101Q19 1.0994 18.9808 1.1959Q18.9616 1.2924 18.924 1.38331Q18.8863 1.47421 18.8316 1.55602Q18.777 1.63783 18.7074 1.7074Q18.6378 1.77698 18.556 1.83164Q18.4742 1.8863 18.3833 1.92396Q18.2924 1.96161 18.1959 1.9808Q18.0994 2 18.001 2L0.998993 2Q0.900601 2 0.804099 1.9808Q0.707597 1.96161 0.616695 1.92396Q0.525792 1.8863 0.443982 1.83164Q0.362172 1.77698 0.292598 1.7074Q0.223024 1.63783 0.168361 1.55602Q0.113697 1.47421 0.0760438 1.38331Q0.0383907 1.2924 0.0191954 1.1959Q0 1.0994 0 1.00101L0 0.998993Q0 0.900601 0.0191954 0.804099Q0.0383907 0.707597 0.0760438 0.616695Q0.113697 0.525792 0.168361 0.443982Q0.223024 0.362172 0.292598 0.292598Q0.362172 0.223024 0.443982 0.168361Q0.525792 0.113697 0.616695 0.0760438Q0.707597 0.0383907 0.804099 0.0191954Q0.900601 0 0.998993 0Z" id="Rectangle" fill="#D3D3D3" fill-rule="evenodd" stroke="none" />
  <path d="M0.998993 8L18.001 8Q18.0994 8 18.1959 8.0192Q18.2924 8.03839 18.3833 8.07604Q18.4742 8.1137 18.556 8.16836Q18.6378 8.22302 18.7074 8.2926Q18.777 8.36217 18.8316 8.44398Q18.8863 8.52579 18.924 8.61669Q18.9616 8.7076 18.9808 8.8041Q19 8.9006 19 8.99899L19 9.00101Q19 9.0994 18.9808 9.1959Q18.9616 9.2924 18.924 9.3833Q18.8863 9.47421 18.8316 9.55602Q18.777 9.63783 18.7074 9.7074Q18.6378 9.77698 18.556 9.83164Q18.4742 9.8863 18.3833 9.92395Q18.2924 9.96161 18.1959 9.9808Q18.0994 10 18.001 10L0.998993 10Q0.900601 10 0.804099 9.9808Q0.707597 9.96161 0.616695 9.92395Q0.525792 9.8863 0.443982 9.83164Q0.362172 9.77698 0.292598 9.7074Q0.223024 9.63783 0.168361 9.55602Q0.113697 9.47421 0.0760438 9.3833Q0.0383907 9.2924 0.0191954 9.1959Q0 9.0994 0 9.00101L0 8.99899Q0 8.9006 0.0191954 8.8041Q0.0383907 8.7076 0.0760438 8.61669Q0.113697 8.52579 0.168361 8.44398Q0.223024 8.36217 0.292598 8.2926Q0.362172 8.22302 0.443982 8.16836Q0.525792 8.1137 0.616695 8.07604Q0.707597 8.03839 0.804099 8.0192Q0.900601 8 0.998993 8Z" id="Rectangle-Copy" fill="#D3D3D3" fill-rule="evenodd" stroke="none" />
</svg>