<?xml version="1.0" encoding="utf-8"?>
<svg width="24px" height="9px" viewBox="0 0 24 9" version="1.1" xmlns:xlink="http://www.w3.org/1999/xlink" xmlns="http://www.w3.org/2000/svg">
  <path d="M0.999023 7L23.001 7Q23.0994 7 23.1959 7.0192Q23.2924 7.03839 23.3833 7.07605Q23.4742 7.1137 23.556 7.16837Q23.6378 7.22303 23.7074 7.29261Q23.777 7.36218 23.8316 7.44399Q23.8863 7.52581 23.924 7.61671Q23.9616 7.70762 23.9808 7.80412Q24 7.90063 24 7.99902L24 8.00098Q24 8.09937 23.9808 8.19588Q23.9616 8.29238 23.924 8.38328Q23.8863 8.47419 23.8316 8.556Q23.777 8.63782 23.7074 8.70739Q23.6378 8.77697 23.556 8.83163Q23.4742 8.8863 23.3833 8.92395Q23.2924 8.96161 23.1959 8.9808Q23.0994 9 23.001 9L0.999023 9Q0.900628 9 0.804124 8.9808Q0.707619 8.96161 0.616714 8.92395Q0.525808 8.8863 0.443996 8.83163Q0.362183 8.77697 0.292607 8.70739Q0.223031 8.63782 0.168366 8.556Q0.1137 8.47419 0.0760461 8.38328Q0.0383919 8.29238 0.019196 8.19588Q0 8.09937 0 8.00098L0 7.99902Q0 7.90063 0.019196 7.80412Q0.0383919 7.70762 0.0760461 7.61671Q0.1137 7.52581 0.168366 7.44399Q0.223031 7.36218 0.292607 7.29261Q0.362183 7.22303 0.443996 7.16837Q0.525808 7.1137 0.616714 7.07605Q0.707619 7.03839 0.804124 7.0192Q0.900628 7 0.999023 7Z" id="Rectangle-2" fill="#D3D3D3" fill-rule="evenodd" stroke="none" />
  <path d="M0.999023 0L23.001 0Q23.0994 0 23.1959 0.019196Q23.2924 0.0383919 23.3833 0.0760461Q23.4742 0.1137 23.556 0.168366Q23.6378 0.223031 23.7074 0.292607Q23.777 0.362183 23.8316 0.443996Q23.8863 0.525808 23.924 0.616714Q23.9616 0.707619 23.9808 0.804124Q24 0.900628 24 0.999023L24 1.00098Q24 1.09937 23.9808 1.19588Q23.9616 1.29238 23.924 1.38329Q23.8863 1.47419 23.8316 1.556Q23.777 1.63782 23.7074 1.70739Q23.6378 1.77697 23.556 1.83163Q23.4742 1.8863 23.3833 1.92395Q23.2924 1.96161 23.1959 1.9808Q23.0994 2 23.001 2L0.999023 2Q0.900628 2 0.804124 1.9808Q0.707619 1.96161 0.616714 1.92395Q0.525808 1.8863 0.443996 1.83163Q0.362183 1.77697 0.292607 1.70739Q0.223031 1.63782 0.168366 1.556Q0.1137 1.47419 0.0760461 1.38329Q0.0383919 1.29238 0.019196 1.19588Q0 1.09937 0 1.00098L0 0.999023Q0 0.900628 0.019196 0.804124Q0.0383919 0.707619 0.0760461 0.616714Q0.1137 0.525808 0.168366 0.443996Q0.223031 0.362183 0.292607 0.292607Q0.362183 0.223031 0.443996 0.168366Q0.525808 0.1137 0.616714 0.0760461Q0.707619 0.0383919 0.804124 0.019196Q0.900628 0 0.999023 0Z" id="Rectangle-2-Copy" fill="#D3D3D3" fill-rule="evenodd" stroke="none" />
</svg>