<?xml version="1.0" encoding="utf-8"?>
<svg width="15px" height="44px" viewBox="0 0 15 44" version="1.1" xmlns:xlink="http://www.w3.org/1999/xlink" xmlns="http://www.w3.org/2000/svg">
  <g id="search">
    <path d="M0 0L15 0L15 44L0 44L0 0Z" id="Rectangle" fill="none" fill-rule="evenodd" stroke="none" />
    <path d="M13.98 27.343L10.48 23.843C12.3111 21.6004 12.0632 18.3161 9.9162 16.3738C7.76917 14.4314 4.47653 14.5127 2.42797 16.5586C0.379408 18.6046 0.293871 21.8971 2.23344 24.0466C4.17301 26.1961 7.45699 26.4483 9.70197 24.62L13.202 28.12C13.341 28.259 13.5436 28.3133 13.7334 28.2624C13.9233 28.2115 14.0716 28.0632 14.1224 27.8733C14.1732 27.6834 14.1189 27.4808 13.9799 27.3419L13.98 27.343ZM1.95899 20.418C1.95899 18.0338 3.89246 16.1002 6.27765 16.1C8.66283 16.0998 10.5966 18.0332 10.597 20.4183C10.5974 22.8035 8.66419 24.7375 6.27901 24.738C3.89382 24.7364 1.96064 22.8032 1.95899 20.418L1.95899 20.418Z" id="Shape" fill="#FFFFFF" fill-rule="evenodd" stroke="none" />
  </g>
</svg>