<?xml version="1.0" encoding="utf-8"?>
<svg width="567px" height="177px" viewBox="0 0 567 177" version="1.1" xmlns:xlink="http://www.w3.org/1999/xlink" xmlns="http://www.w3.org/2000/svg">
  <defs>
    <path d="M0 0L100 0L100 119.394L0 119.394L0 0Z" id="path_1" />
    <clipPath id="mask_1">
      <use xlink:href="#path_1" />
    </clipPath>
  </defs>
  <g id="Group">
    <g id="apple-13">
      <path d="M0 0L100 0L100 119.394L0 119.394L0 0Z" id="Background" fill="none" fill-rule="evenodd" stroke="none" />
      <g clip-path="url(#mask_1)">
        <path d="M83.6079 62.8853C83.5547 53.135 87.9649 45.7758 96.8916 40.356C91.8969 33.2094 84.3518 29.2774 74.389 28.5069C64.9575 27.763 54.6493 34.0064 50.8767 34.0064C46.8916 34.0064 37.7524 28.7726 30.5792 28.7726C15.7545 29.0117 0 40.5951 0 64.1605C0 71.1212 1.27524 78.3122 3.82572 85.7334C7.22636 95.4836 19.5005 119.394 32.3061 118.996C39.0011 118.836 43.7301 114.24 52.4442 114.24C60.8927 114.24 65.2763 118.996 72.7418 118.996C85.6536 118.81 96.7588 97.0777 100 87.3008C82.678 79.1446 83.6079 63.3901 83.6079 62.8853L83.6079 62.8853ZM68.5707 19.2614C75.8236 10.6536 75.1594 2.81615 74.9469 0C68.5441 0.371945 61.1318 4.35707 56.9075 9.27206C52.2582 14.5324 49.5218 21.0415 50.1063 28.3741C57.0404 28.9054 63.3634 25.3454 68.5707 19.2614L68.5707 19.2614Z" id="Shape" fill="#000000" fill-rule="evenodd" stroke="none" />
      </g>
    </g>
    <g id="AirPods" transform="translate(115 14.0000305)">
      <path d="M101.624 30.6304C106.995 30.6304 111.145 26.4189 111.145 21.353C111.145 16.2871 106.995 12.0757 101.624 12.0757C96.2524 12.0757 92.1021 16.2871 92.1021 21.353C92.1021 26.4189 96.2524 30.6304 101.624 30.6304ZM1.70898 104.483L21.0571 104.483L27.71 83.1206L58.8379 83.1206L65.4907 104.483L84.8389 104.483L54.1382 16.4092L32.4707 16.4092L1.70898 104.483ZM169.434 104.483L187.866 104.483L187.866 76.7119L204.834 76.7119C223.389 76.7119 235.779 64.749 235.779 46.6216L235.779 46.4995C235.779 28.3721 223.389 16.4092 204.834 16.4092L169.434 16.4092L169.434 104.483ZM340.942 105.826C350.403 105.826 357.605 101.065 361.084 93.3135L361.45 93.3135L361.45 104.483L379.272 104.483L379.272 16.4092L361.45 16.4092L361.45 50.4058L361.084 50.4058C357.544 42.4712 350.22 37.7104 340.942 37.7104C324.463 37.7104 314.331 50.4058 314.331 71.707L314.331 71.7681C314.331 93.0083 324.463 105.826 340.942 105.826ZM200.317 30.9966C210.876 30.9966 217.102 36.5508 217.102 46.5605L217.102 46.6826C217.102 56.6924 210.876 62.3076 200.317 62.3076L187.866 62.3076L187.866 30.9966L200.317 30.9966ZM43.0908 33.499L43.457 33.499L54.5654 69.3267L31.9824 69.3267L43.0908 33.499ZM140.259 104.483L122.437 104.483L122.437 39.0532L140.259 39.0532L140.259 50.4668L140.625 50.4668C142.578 42.4102 147.888 37.7104 155.518 37.7104C157.471 37.7104 159.302 38.0156 160.645 38.3818L160.645 54.0679C159.18 53.4575 156.738 53.0913 154.175 53.0913C145.386 53.0913 140.259 58.3403 140.259 67.8618L140.259 104.483ZM307.556 71.7681C307.556 93.1304 294.922 105.826 275.146 105.826C255.249 105.826 242.737 93.0693 242.737 71.7681L242.737 71.646C242.737 50.5889 255.554 37.7104 275.085 37.7104C294.678 37.7104 307.556 50.4668 307.556 71.646L307.556 71.7681ZM446.716 84.5854C446.716 97.4028 434.937 105.826 418.091 105.826C399.963 105.826 389.893 97.4639 388.489 85.0737L388.428 84.5244L405.823 84.5244L405.945 85.0737C407.104 90.2007 410.95 93.1914 418.091 93.1914C424.805 93.1914 428.894 90.5669 428.894 86.3555L428.894 86.2944C428.894 82.8154 426.697 80.8013 420.288 79.3975L409.18 77.0781C396.484 74.3926 390.076 68.0449 390.076 58.2793L390.076 58.2183C390.076 45.7671 400.818 37.7104 417.48 37.7104C434.875 37.7104 444.58 46.9268 445.007 58.4014L445.007 59.0117L428.589 59.0117L428.528 58.5234C427.917 53.8237 424.072 50.2837 417.48 50.2837C411.316 50.2837 407.471 53.0303 407.471 57.2417L407.471 57.3027C407.471 60.6597 409.729 62.8569 416.321 64.2607L427.429 66.6411C441.101 69.5098 446.716 74.8809 446.716 84.5244L446.716 84.5854ZM110.535 104.483L110.535 39.0532L92.7124 39.0532L92.7124 104.483L110.535 104.483ZM260.864 71.7681C260.864 84.5854 266.418 91.8486 275.208 91.8486C283.875 91.8486 289.429 84.5244 289.429 71.7681L289.429 71.646C289.429 59.0117 283.752 51.6875 275.085 51.6875C266.479 51.6875 260.864 59.0117 260.864 71.646L260.864 71.7681ZM346.924 91.0552C338.013 91.0552 332.458 83.6699 332.458 71.7681L332.458 71.707C332.458 59.7441 338.074 52.481 346.924 52.481C355.53 52.481 361.511 59.9272 361.511 71.707L361.511 71.7681C361.511 83.6089 355.591 91.0552 346.924 91.0552Z" />
    </g>
  </g>
  <g id="It's-magic,-remastered." transform="translate(113.5 133.00003)">
    <path d="M2.46094 34.4111L5.625 34.4111L5.625 9.0459L2.46094 9.0459L2.46094 34.4111ZM24.6094 17.9932L22.3945 17.9932L22.043 9.0459L24.9609 9.0459L24.6094 17.9932ZM320.467 34.7627C323.086 34.7627 325.125 33.4443 326.268 31.3174L326.338 31.3174L326.338 34.4111L329.396 34.4111L329.396 9.0459L326.338 9.0459L326.338 19.1885L326.268 19.1885C325.125 17.0791 322.998 15.7783 320.414 15.7783C315.826 15.7783 312.697 19.4873 312.697 25.2529L312.697 25.2705C312.697 31.0361 315.791 34.7627 320.467 34.7627ZM122.66 13.0361C123.732 13.0361 124.576 12.1748 124.576 11.1201C124.576 10.0479 123.732 9.2041 122.66 9.2041C121.605 9.2041 120.744 10.0479 120.744 11.1201C120.744 12.1748 121.605 13.0361 122.66 13.0361ZM16.0137 34.7627C16.6113 34.7627 17.2617 34.6924 17.6484 34.6396L17.6484 32.1611C17.3848 32.1787 17.0332 32.2314 16.6641 32.2314C15.0293 32.2314 14.168 31.6865 14.168 29.7354L14.168 18.6611L17.6484 18.6611L17.6484 16.1299L14.168 16.1299L14.168 11.1904L11.0039 11.1904L11.0039 16.1299L8.33203 16.1299L8.33203 18.6611L11.0039 18.6611L11.0039 29.7529C11.0039 33.251 12.6562 34.7627 16.0137 34.7627ZM260.719 34.7627C261.316 34.7627 261.967 34.6924 262.354 34.6396L262.354 32.1611C262.09 32.1787 261.738 32.2314 261.369 32.2314C259.734 32.2314 258.873 31.6865 258.873 29.7354L258.873 18.6611L262.354 18.6611L262.354 16.1299L258.873 16.1299L258.873 11.1904L255.709 11.1904L255.709 16.1299L253.037 16.1299L253.037 18.6611L255.709 18.6611L255.709 29.7529C255.709 33.251 257.361 34.7627 260.719 34.7627ZM36.5449 34.7627C40.623 34.7627 43.6465 32.5127 43.6465 29.3135L43.6465 29.2959C43.6465 26.6943 42.3105 25.2354 38.6191 24.3389L35.7188 23.6357C33.6973 23.1436 32.8711 22.2822 32.8711 21.0342L32.8711 21.0166C32.8711 19.3994 34.2422 18.3271 36.457 18.3271C38.7246 18.3271 40.0781 19.5049 40.3242 21.2803L40.3418 21.4033L43.2598 21.4033L43.2422 21.1748C43.0137 18.1162 40.4648 15.7783 36.457 15.7783C32.502 15.7783 29.7422 18.0107 29.7422 21.1572L29.7422 21.1748C29.7422 23.8115 31.4121 25.4111 34.8574 26.2373L37.7578 26.9404C39.832 27.4502 40.5176 28.1885 40.5176 29.5068L40.5176 29.5244C40.5176 31.1768 39.041 32.2139 36.5625 32.2139C34.0664 32.2139 32.7129 31.1416 32.3438 29.3135L32.3086 29.1377L29.25 29.1377L29.2676 29.2959C29.6367 32.5654 32.2383 34.7627 36.5449 34.7627ZM57.252 34.4111L54.1934 34.4111L54.1934 16.1299L57.252 16.1299L57.252 18.8018L57.3223 18.8018C58.1484 16.9912 59.9766 15.7783 62.332 15.7783C64.8281 15.7783 66.6738 17.0615 67.4648 19.2939L67.5352 19.2939C68.5547 17.0967 70.6992 15.7783 73.2656 15.7783C76.8867 15.7783 79.2246 18.1514 79.2246 21.79L79.2246 34.4111L76.166 34.4111L76.166 22.4932C76.166 19.9795 74.7773 18.4854 72.3691 18.4854C69.9434 18.4854 68.2383 20.2959 68.2383 22.792L68.2383 34.4111L65.1797 34.4111L65.1797 22.1592C65.1797 19.9443 63.7031 18.4854 61.4355 18.4854C59.0098 18.4854 57.252 20.4014 57.252 22.9502L57.252 34.4111ZM88.4531 34.7627C90.8965 34.7627 93.0938 33.4443 94.166 31.4404L94.2363 31.4404L94.2363 34.4111L97.2949 34.4111L97.2949 21.7725C97.2949 18.1162 94.5879 15.7783 90.2637 15.7783C85.957 15.7783 83.3379 18.2041 83.0742 21.21L83.0566 21.4033L86.0098 21.4033L86.0449 21.2451C86.3965 19.6104 87.873 18.4854 90.2285 18.4854C92.7773 18.4854 94.2363 19.8389 94.2363 22.0713L94.2363 23.6006L88.998 23.8994C84.7969 24.1455 82.3711 26.0967 82.3711 29.208L82.3711 29.2432C82.3711 32.5654 84.8145 34.7627 88.4531 34.7627ZM116.982 33.9014C116.982 38.1377 113.871 40.915 108.914 40.915C104.396 40.915 101.549 38.7881 100.951 36.0811L100.916 35.9229L103.992 35.9229L104.062 36.0811C104.643 37.3994 106.383 38.208 108.879 38.208C112.096 38.208 113.924 36.4326 113.924 33.6025L113.924 31.2646L113.854 31.2646C112.764 33.2861 110.654 34.5869 108.035 34.5869C103.43 34.5869 100.283 30.8779 100.283 25.165L100.283 25.1475C100.283 19.4697 103.465 15.7783 108.105 15.7783C110.689 15.7783 112.729 17.1846 113.854 19.2236L113.924 19.2236L113.924 16.1299L116.982 16.1299L116.982 33.9014ZM143.561 28.5928C143.068 32.0732 140.062 34.7627 135.932 34.7627C130.746 34.7627 127.459 31.0713 127.459 25.2529L127.459 25.2354C127.459 19.4697 130.816 15.7783 135.896 15.7783C140.449 15.7783 143.139 18.8018 143.525 21.9307L143.543 22.0713L140.555 22.0713L140.52 21.9307C140.062 20.1025 138.586 18.4854 135.896 18.4854C132.715 18.4854 130.588 21.1221 130.588 25.2705L130.588 25.2881C130.588 29.542 132.768 32.0557 135.932 32.0557C138.428 32.0557 140.027 30.6494 140.537 28.6104L140.572 28.4697L143.578 28.4697L143.561 28.5928ZM164.566 34.4111L161.508 34.4111L161.508 16.1299L164.566 16.1299L164.566 19.2236L164.637 19.2236C165.252 17.1143 166.834 15.7783 168.891 15.7783C169.418 15.7783 169.875 15.8662 170.121 15.9014L170.121 18.8721C169.875 18.7842 169.225 18.6963 168.486 18.6963C166.113 18.6963 164.566 20.3486 164.566 23.126L164.566 34.4111ZM180.123 34.7627C184.113 34.7627 187.102 32.3721 187.699 29.3486L187.734 29.1729L184.729 29.1729L184.676 29.3311C184.148 30.8955 182.514 32.0557 180.193 32.0557C176.941 32.0557 174.867 29.8584 174.797 26.0967L187.963 26.0967L187.963 24.9717C187.963 19.4873 184.922 15.7783 179.93 15.7783C174.938 15.7783 171.703 19.6631 171.703 25.3232L171.703 25.3408C171.703 31.0889 174.867 34.7627 180.123 34.7627ZM194.098 34.4111L191.039 34.4111L191.039 16.1299L194.098 16.1299L194.098 18.8018L194.168 18.8018C194.994 16.9912 196.822 15.7783 199.178 15.7783C201.674 15.7783 203.52 17.0615 204.311 19.2939L204.381 19.2939C205.4 17.0967 207.545 15.7783 210.111 15.7783C213.732 15.7783 216.07 18.1514 216.07 21.79L216.07 34.4111L213.012 34.4111L213.012 22.4932C213.012 19.9795 211.623 18.4854 209.215 18.4854C206.789 18.4854 205.084 20.2959 205.084 22.792L205.084 34.4111L202.025 34.4111L202.025 22.1592C202.025 19.9443 200.549 18.4854 198.281 18.4854C195.855 18.4854 194.098 20.4014 194.098 22.9502L194.098 34.4111ZM225.299 34.7627C227.742 34.7627 229.939 33.4443 231.012 31.4404L231.082 31.4404L231.082 34.4111L234.141 34.4111L234.141 21.7725C234.141 18.1162 231.434 15.7783 227.109 15.7783C222.803 15.7783 220.184 18.2041 219.92 21.21L219.902 21.4033L222.855 21.4033L222.891 21.2451C223.242 19.6104 224.719 18.4854 227.074 18.4854C229.623 18.4854 231.082 19.8389 231.082 22.0713L231.082 23.6006L225.844 23.8994C221.643 24.1455 219.217 26.0967 219.217 29.208L219.217 29.2432C219.217 32.5654 221.66 34.7627 225.299 34.7627ZM251.613 29.3135C251.613 32.5127 248.59 34.7627 244.512 34.7627C240.205 34.7627 237.604 32.5654 237.234 29.2959L237.217 29.1377L240.275 29.1377L240.311 29.3135C240.68 31.1416 242.033 32.2139 244.529 32.2139C247.008 32.2139 248.484 31.1768 248.484 29.5244L248.484 29.5068C248.484 28.1885 247.799 27.4502 245.725 26.9404L242.824 26.2373C239.379 25.4111 237.709 23.8115 237.709 21.1748L237.709 21.1572C237.709 18.0107 240.469 15.7783 244.424 15.7783C248.432 15.7783 250.98 18.1162 251.209 21.1748L251.227 21.4033L248.309 21.4033L248.291 21.2803C248.045 19.5049 246.691 18.3271 244.424 18.3271C242.209 18.3271 240.838 19.3994 240.838 21.0166L240.838 21.0342C240.838 22.2822 241.664 23.1436 243.686 23.6357L246.586 24.3389C250.277 25.2354 251.613 26.6943 251.613 29.2959L251.613 29.3135ZM280.723 29.3486C280.125 32.3721 277.137 34.7627 273.146 34.7627C267.891 34.7627 264.727 31.0889 264.727 25.3408L264.727 25.3232C264.727 19.6631 267.961 15.7783 272.953 15.7783C277.945 15.7783 280.986 19.4873 280.986 24.9717L280.986 26.0967L267.82 26.0967C267.891 29.8584 269.965 32.0557 273.217 32.0557C275.537 32.0557 277.172 30.8955 277.699 29.3311L277.752 29.1729L280.758 29.1729L280.723 29.3486ZM284.062 34.4111L287.121 34.4111L287.121 23.126C287.121 20.3486 288.668 18.6963 291.041 18.6963C291.779 18.6963 292.43 18.7842 292.676 18.8721L292.676 15.9014C292.43 15.8662 291.973 15.7783 291.445 15.7783C289.389 15.7783 287.807 17.1143 287.191 19.2236L287.121 19.2236L287.121 16.1299L284.062 16.1299L284.062 34.4111ZM310.254 29.3486C309.656 32.3721 306.668 34.7627 302.678 34.7627C297.422 34.7627 294.258 31.0889 294.258 25.3408L294.258 25.3232C294.258 19.6631 297.492 15.7783 302.484 15.7783C307.477 15.7783 310.518 19.4873 310.518 24.9717L310.518 26.0967L297.352 26.0967C297.422 29.8584 299.496 32.0557 302.748 32.0557C305.068 32.0557 306.703 30.8955 307.23 29.3311L307.283 29.1729L310.289 29.1729L310.254 29.3486ZM124.189 34.4111L124.189 16.1299L121.131 16.1299L121.131 34.4111L124.189 34.4111ZM103.412 25.165C103.412 29.3135 105.451 31.8799 108.703 31.8799C111.814 31.8799 113.924 29.2256 113.924 25.165L113.924 25.1475C113.924 21.1221 111.797 18.4854 108.703 18.4854C105.451 18.4854 103.412 21.0869 103.412 25.1475L103.412 25.165ZM179.912 18.4854C182.584 18.4854 184.553 20.1553 184.852 23.7061L174.85 23.7061C175.184 20.2959 177.258 18.4854 179.912 18.4854ZM277.875 23.7061C277.576 20.1553 275.607 18.4854 272.936 18.4854C270.281 18.4854 268.207 20.2959 267.873 23.7061L277.875 23.7061ZM307.406 23.7061C307.107 20.1553 305.139 18.4854 302.467 18.4854C299.812 18.4854 297.738 20.2959 297.404 23.7061L307.406 23.7061ZM321.064 32.0557C317.83 32.0557 315.826 29.4717 315.826 25.2705L315.826 25.2529C315.826 21.0869 317.83 18.4854 321.064 18.4854C324.141 18.4854 326.355 21.1748 326.355 25.2529L326.355 25.2705C326.355 29.3662 324.158 32.0557 321.064 32.0557ZM85.5 29.2432L85.5 29.208C85.5 27.5029 86.9062 26.4131 89.3496 26.2725L94.2363 25.9736L94.2363 27.4678C94.2363 30.1221 92.0215 32.1084 89.1387 32.1084C86.9414 32.1084 85.5 31.001 85.5 29.2432ZM222.346 29.2432L222.346 29.208C222.346 27.5029 223.752 26.4131 226.195 26.2725L231.082 25.9736L231.082 27.4678C231.082 30.1221 228.867 32.1084 225.984 32.1084C223.787 32.1084 222.346 31.001 222.346 29.2432ZM337.412 32.6533C337.412 33.7783 336.533 34.6572 335.408 34.6572C334.283 34.6572 333.404 33.7783 333.404 32.6533C333.404 31.5283 334.283 30.6494 335.408 30.6494C336.533 30.6494 337.412 31.5283 337.412 32.6533ZM145.16 39.3857L147.34 39.3857L149.906 30.79L146.707 30.79L145.16 39.3857Z" />
  </g>
</svg>