<?xml version="1.0" encoding="utf-8"?>
<svg width="441px" height="220px" viewBox="0 0 441 220" version="1.1" xmlns:xlink="http://www.w3.org/1999/xlink" xmlns="http://www.w3.org/2000/svg">
  <defs>
    <path d="M0 0L100 0L100 119.394L0 119.394L0 0Z" id="path_1" />
    <clipPath id="mask_1">
      <use xlink:href="#path_1" />
    </clipPath>
  </defs>
  <g id="Group" transform="translate(23.5 0)">
    <g id="apple-13">
      <path d="M0 0L100 0L100 119.394L0 119.394L0 0Z" id="Background" fill="none" fill-rule="evenodd" stroke="none" />
      <g clip-path="url(#mask_1)">
        <path d="M83.6079 62.8853C83.5547 53.135 87.9649 45.7758 96.8916 40.356C91.8969 33.2094 84.3518 29.2774 74.389 28.5069C64.9575 27.763 54.6493 34.0064 50.8767 34.0064C46.8916 34.0064 37.7524 28.7726 30.5792 28.7726C15.7545 29.0117 0 40.5951 0 64.1605C0 71.1212 1.27524 78.3122 3.82572 85.7334C7.22636 95.4836 19.5005 119.394 32.3061 118.996C39.0011 118.836 43.7301 114.24 52.4442 114.24C60.8927 114.24 65.2763 118.996 72.7418 118.996C85.6536 118.81 96.7588 97.0777 100 87.3008C82.678 79.1446 83.6079 63.3901 83.6079 62.8853L83.6079 62.8853ZM68.5707 19.2614C75.8236 10.6536 75.1594 2.81615 74.9469 0C68.5441 0.371945 61.1318 4.35707 56.9075 9.27206C52.2582 14.5324 49.5218 21.0415 50.1063 28.3741C57.0404 28.9054 63.3634 25.3454 68.5707 19.2614L68.5707 19.2614Z" id="Shape" fill="#000000" fill-rule="evenodd" stroke="none" />
      </g>
    </g>
    <g id="Card" transform="translate(115 14.0000305)">
      <path d="M84.9609 73.9043C83.252 92.6421 67.8101 106.009 46.5088 106.009C20.752 106.009 4.57764 88.7969 4.57764 60.4155L4.57764 60.3545C4.57764 31.9731 20.813 14.8833 46.5088 14.8833C67.8711 14.8833 83.1909 28.3721 84.8999 47.0488L84.9609 47.5981L67.0166 47.5981L66.7725 46.5605C64.6973 36.856 57.4951 30.5083 46.5088 30.5083C32.4097 30.5083 23.3765 41.8608 23.3765 60.2935L23.3765 60.3545C23.3765 78.9092 32.4097 90.3838 46.5088 90.3838C57.1289 90.3838 64.5752 84.2803 66.9556 73.8433L67.0776 73.2329L85.022 73.2329L84.9609 73.9043ZM253.113 93.3135C249.634 101.065 242.432 105.826 232.971 105.826C216.492 105.826 206.36 93.0083 206.36 71.7681L206.36 71.707C206.36 50.4058 216.492 37.7104 232.971 37.7104C242.249 37.7104 249.573 42.4712 253.113 50.4058L253.479 50.4058L253.479 16.4092L271.301 16.4092L271.301 104.483L253.479 104.483L253.479 93.3135L253.113 93.3135ZM133.606 94.7173C129.883 101.431 122.925 105.521 114.319 105.521C101.196 105.521 92.3462 97.2808 92.3462 85.7451L92.3462 85.623C92.3462 73.7212 101.562 66.7632 117.798 65.7256L133.972 64.749L133.972 60.7207C133.972 54.9224 130.188 51.3213 123.23 51.3213C116.577 51.3213 112.549 54.4341 111.694 58.6455L111.572 59.1948L95.2759 59.1948L95.3369 58.4624C96.3135 46.3774 106.689 37.7104 123.962 37.7104C140.869 37.7104 151.794 46.4385 151.794 59.6221L151.794 104.483L133.972 104.483L133.972 94.7173L133.606 94.7173ZM163.269 104.483L181.091 104.483L181.091 67.8618C181.091 58.3403 186.218 53.0913 195.007 53.0913C197.571 53.0913 200.012 53.4575 201.477 54.0679L201.477 38.3818C200.134 38.0156 198.303 37.7104 196.35 37.7104C188.721 37.7104 183.411 42.4102 181.458 50.4668L181.091 50.4668L181.091 39.0532L163.269 39.0532L163.269 104.483ZM224.487 71.7681C224.487 83.6699 230.042 91.0552 238.953 91.0552C247.62 91.0552 253.54 83.6089 253.54 71.7681L253.54 71.707C253.54 59.9272 247.559 52.481 238.953 52.481C230.103 52.481 224.487 59.7441 224.487 71.707L224.487 71.7681ZM109.985 84.7075L109.985 84.8296C109.985 89.6514 113.953 92.52 120.117 92.52C128.113 92.52 133.972 87.3931 133.972 80.5571L133.972 75.8574L120.483 76.7119C113.586 77.1392 109.985 80.0688 109.985 84.7075Z" />
    </g>
  </g>
  <g id="A-new-kind-of-credit-card.-Cre" transform="translate(0 133.00003)">
    <g id="A-new-kind-of-credit-card.">
      <path d="M225.835 34.1826L228.894 34.1826L228.894 18.4326L232.62 18.4326L232.62 15.9014L228.858 15.9014L228.858 13.6689C228.858 11.8584 229.702 10.9971 231.39 10.9971C231.864 10.9971 232.339 11.0146 232.708 11.0674L232.708 8.58887C232.251 8.51855 231.53 8.46582 230.845 8.46582C227.47 8.46582 225.835 10.1357 225.835 13.6514L225.835 15.9014L223.286 15.9014L223.286 18.4326L225.835 18.4326L225.835 34.1826ZM32.2295 34.1826L35.5518 34.1826L38.1182 26.9229L48.3311 26.9229L50.8975 34.1826L54.2197 34.1826L44.7979 8.81738L41.6689 8.81738L32.2295 34.1826ZM137.874 34.1826L134.815 34.1826L134.815 8.81738L137.874 8.81738L137.874 23.9697L137.944 23.9697L145.96 15.9014L149.669 15.9014L141.741 23.7939L149.915 34.1826L146.364 34.1826L139.579 25.6572L137.874 27.292L137.874 34.1826ZM185.3 34.5342C187.919 34.5342 189.958 33.2158 191.101 31.0889L191.171 31.0889L191.171 34.1826L194.229 34.1826L194.229 8.81738L191.171 8.81738L191.171 18.96L191.101 18.96C189.958 16.8506 187.831 15.5498 185.247 15.5498C180.659 15.5498 177.53 19.2588 177.53 25.0244L177.53 25.042C177.53 30.8076 180.624 34.5342 185.3 34.5342ZM297.606 34.5342C300.226 34.5342 302.265 33.2158 303.407 31.0889L303.478 31.0889L303.478 34.1826L306.536 34.1826L306.536 8.81738L303.478 8.81738L303.478 18.96L303.407 18.96C302.265 16.8506 300.138 15.5498 297.554 15.5498C292.966 15.5498 289.837 19.2588 289.837 25.0244L289.837 25.042C289.837 30.8076 292.931 34.5342 297.606 34.5342ZM390.384 34.5342C393.003 34.5342 395.042 33.2158 396.185 31.0889L396.255 31.0889L396.255 34.1826L399.313 34.1826L399.313 8.81738L396.255 8.81738L396.255 18.96L396.185 18.96C395.042 16.8506 392.915 15.5498 390.331 15.5498C385.743 15.5498 382.614 19.2588 382.614 25.0244L382.614 25.042C382.614 30.8076 385.708 34.5342 390.384 34.5342ZM153.765 12.8076C154.837 12.8076 155.681 11.9463 155.681 10.8916C155.681 9.81934 154.837 8.97559 153.765 8.97559C152.71 8.97559 151.849 9.81934 151.849 10.8916C151.849 11.9463 152.71 12.8076 153.765 12.8076ZM314.306 10.8916C314.306 11.9463 313.462 12.8076 312.39 12.8076C311.335 12.8076 310.474 11.9463 310.474 10.8916C310.474 9.81934 311.335 8.97559 312.39 8.97559C313.462 8.97559 314.306 9.81934 314.306 10.8916ZM324.026 34.5342C324.624 34.5342 325.274 34.4639 325.661 34.4111L325.661 31.9326C325.397 31.9502 325.046 32.0029 324.677 32.0029C323.042 32.0029 322.181 31.458 322.181 29.5068L322.181 18.4326L325.661 18.4326L325.661 15.9014L322.181 15.9014L322.181 10.9619L319.017 10.9619L319.017 15.9014L316.345 15.9014L316.345 18.4326L319.017 18.4326L319.017 29.5244C319.017 33.0225 320.669 34.5342 324.026 34.5342ZM43.1982 12.6143L43.2686 12.6143L47.3818 24.2334L39.085 24.2334L43.1982 12.6143ZM64.0283 34.1826L67.0869 34.1826L67.0869 23.4248C67.0869 20.3135 68.9678 18.2568 71.8506 18.2568C74.6631 18.2568 76.0518 19.8916 76.0518 22.8623L76.0518 34.1826L79.1104 34.1826L79.1104 22.3174C79.1104 18.1514 76.79 15.5498 72.7822 15.5498C70.0049 15.5498 68.1416 16.7979 67.1572 18.5029L67.0869 18.5029L67.0869 15.9014L64.0283 15.9014L64.0283 34.1826ZM98.0947 29.1201C97.4971 32.1436 94.5088 34.5342 90.5186 34.5342C85.2627 34.5342 82.0986 30.8604 82.0986 25.1123L82.0986 25.0947C82.0986 19.4346 85.333 15.5498 90.3252 15.5498C95.3174 15.5498 98.3584 19.2588 98.3584 24.7432L98.3584 25.8682L85.1924 25.8682C85.2627 29.6299 87.3369 31.8271 90.5889 31.8271C92.9092 31.8271 94.5439 30.667 95.0713 29.1025L95.124 28.9443L98.1299 28.9443L98.0947 29.1201ZM162.519 34.1826L159.46 34.1826L159.46 15.9014L162.519 15.9014L162.519 18.5029L162.589 18.5029C163.573 16.7979 165.437 15.5498 168.214 15.5498C172.222 15.5498 174.542 18.1514 174.542 22.3174L174.542 34.1826L171.483 34.1826L171.483 22.8623C171.483 19.8916 170.095 18.2568 167.282 18.2568C164.399 18.2568 162.519 20.3135 162.519 23.4248L162.519 34.1826ZM221.774 25.042C221.774 30.8779 218.364 34.5342 213.319 34.5342C208.239 34.5342 204.847 30.8604 204.847 25.042L204.847 25.0068C204.847 19.1885 208.257 15.5498 213.302 15.5498C218.347 15.5498 221.774 19.1709 221.774 25.0068L221.774 25.042ZM258.372 28.3643C257.88 31.8447 254.874 34.5342 250.743 34.5342C245.558 34.5342 242.271 30.8428 242.271 25.0244L242.271 25.0068C242.271 19.2412 245.628 15.5498 250.708 15.5498C255.261 15.5498 257.95 18.5732 258.337 21.7021L258.354 21.8428L255.366 21.8428L255.331 21.7021C254.874 19.874 253.397 18.2568 250.708 18.2568C247.526 18.2568 245.399 20.8936 245.399 25.042L245.399 25.0596C245.399 29.3135 247.579 31.8271 250.743 31.8271C253.239 31.8271 254.839 30.4209 255.349 28.3818L255.384 28.2412L258.39 28.2412L258.372 28.3643ZM261.202 34.1826L264.261 34.1826L264.261 22.8975C264.261 20.1201 265.808 18.4678 268.181 18.4678C268.919 18.4678 269.569 18.5557 269.815 18.6436L269.815 15.6729C269.569 15.6377 269.112 15.5498 268.585 15.5498C266.528 15.5498 264.946 16.8857 264.331 18.9951L264.261 18.9951L264.261 15.9014L261.202 15.9014L261.202 34.1826ZM287.394 29.1201C286.796 32.1436 283.808 34.5342 279.817 34.5342C274.562 34.5342 271.397 30.8604 271.397 25.1123L271.397 25.0947C271.397 19.4346 274.632 15.5498 279.624 15.5498C284.616 15.5498 287.657 19.2588 287.657 24.7432L287.657 25.8682L274.491 25.8682C274.562 29.6299 276.636 31.8271 279.888 31.8271C282.208 31.8271 283.843 30.667 284.37 29.1025L284.423 28.9443L287.429 28.9443L287.394 29.1201ZM351.519 28.3643C351.026 31.8447 348.021 34.5342 343.89 34.5342C338.704 34.5342 335.417 30.8428 335.417 25.0244L335.417 25.0068C335.417 19.2412 338.774 15.5498 343.854 15.5498C348.407 15.5498 351.097 18.5732 351.483 21.7021L351.501 21.8428L348.513 21.8428L348.478 21.7021C348.021 19.874 346.544 18.2568 343.854 18.2568C340.673 18.2568 338.546 20.8936 338.546 25.042L338.546 25.0596C338.546 29.3135 340.726 31.8271 343.89 31.8271C346.386 31.8271 347.985 30.4209 348.495 28.3818L348.53 28.2412L351.536 28.2412L351.519 28.3643ZM359.692 34.5342C362.136 34.5342 364.333 33.2158 365.405 31.2119L365.476 31.2119L365.476 34.1826L368.534 34.1826L368.534 21.5439C368.534 17.8877 365.827 15.5498 361.503 15.5498C357.196 15.5498 354.577 17.9756 354.313 20.9814L354.296 21.1748L357.249 21.1748L357.284 21.0166C357.636 19.3818 359.112 18.2568 361.468 18.2568C364.017 18.2568 365.476 19.6104 365.476 21.8428L365.476 23.3721L360.237 23.6709C356.036 23.917 353.61 25.8682 353.61 28.9795L353.61 29.0146C353.61 32.3369 356.054 34.5342 359.692 34.5342ZM375.478 34.1826L372.419 34.1826L372.419 15.9014L375.478 15.9014L375.478 18.9951L375.548 18.9951C376.163 16.8857 377.745 15.5498 379.802 15.5498C380.329 15.5498 380.786 15.6377 381.032 15.6729L381.032 18.6436C380.786 18.5557 380.136 18.4678 379.397 18.4678C377.024 18.4678 375.478 20.1201 375.478 22.8975L375.478 34.1826ZM105.056 34.1826L108.167 34.1826L112.28 20.0322L112.351 20.0322L116.481 34.1826L119.593 34.1826L124.69 15.9014L121.667 15.9014L118.011 30.7725L117.94 30.7725L113.792 15.9014L110.839 15.9014L106.708 30.7725L106.638 30.7725L102.981 15.9014L99.9404 15.9014L105.056 34.1826ZM155.294 34.1826L155.294 15.9014L152.235 15.9014L152.235 34.1826L155.294 34.1826ZM95.2471 23.4775C94.9482 19.9268 92.9795 18.2568 90.3076 18.2568C87.6533 18.2568 85.5791 20.0674 85.2451 23.4775L95.2471 23.4775ZM185.897 31.8271C182.663 31.8271 180.659 29.2432 180.659 25.042L180.659 25.0244C180.659 20.8584 182.663 18.2568 185.897 18.2568C188.974 18.2568 191.188 20.9463 191.188 25.0244L191.188 25.042C191.188 29.1377 188.991 31.8271 185.897 31.8271ZM313.919 34.1826L310.86 34.1826L310.86 15.9014L313.919 15.9014L313.919 34.1826ZM207.976 25.042C207.976 29.3486 210.103 31.8271 213.337 31.8271C216.554 31.8271 218.646 29.3311 218.646 25.042L218.646 25.0068C218.646 20.7178 216.536 18.2568 213.302 18.2568C210.12 18.2568 207.976 20.7354 207.976 25.0068L207.976 25.042ZM284.546 23.4775C284.247 19.9268 282.278 18.2568 279.606 18.2568C276.952 18.2568 274.878 20.0674 274.544 23.4775L284.546 23.4775ZM298.204 31.8271C294.97 31.8271 292.966 29.2432 292.966 25.042L292.966 25.0244C292.966 20.8584 294.97 18.2568 298.204 18.2568C301.28 18.2568 303.495 20.9463 303.495 25.0244L303.495 25.042C303.495 29.1377 301.298 31.8271 298.204 31.8271ZM390.981 31.8271C387.747 31.8271 385.743 29.2432 385.743 25.042L385.743 25.0244C385.743 20.8584 387.747 18.2568 390.981 18.2568C394.058 18.2568 396.272 20.9463 396.272 25.0244L396.272 25.042C396.272 29.1377 394.075 31.8271 390.981 31.8271ZM356.739 29.0146L356.739 28.9795C356.739 27.2744 358.146 26.1846 360.589 26.0439L365.476 25.7451L365.476 27.2393C365.476 29.8936 363.261 31.8799 360.378 31.8799C358.181 31.8799 356.739 30.7725 356.739 29.0146ZM407.329 32.4248C407.329 33.5498 406.45 34.4287 405.325 34.4287C404.2 34.4287 403.321 33.5498 403.321 32.4248C403.321 31.2998 404.2 30.4209 405.325 30.4209C406.45 30.4209 407.329 31.2998 407.329 32.4248Z" />
    </g>
    <g id="Created-by-Apple,-not-a-bank.">
      <path d="M23.3965 69.835C22.4297 74.6865 18.3691 77.833 13.0605 77.833C6.01172 77.833 1.47656 72.7002 1.47656 64.7197L1.47656 64.7021C1.47656 56.7217 5.99414 51.624 13.0605 51.624C18.334 51.624 22.4297 54.8232 23.3965 59.6221L23.4316 59.7979L20.2324 59.7979L20.1094 59.4111C19.125 56.335 16.6289 54.542 13.0605 54.542C7.99805 54.542 4.72852 58.5322 4.72852 64.7021L4.72852 64.7197C4.72852 70.8896 8.01562 74.915 13.0605 74.915C16.6113 74.915 19.0723 73.1572 20.1797 69.8174L20.2324 69.6592L23.4316 69.6592L23.3965 69.835ZM110.443 77.7627C113.062 77.7627 115.102 76.4443 116.244 74.3174L116.314 74.3174L116.314 77.4111L119.373 77.4111L119.373 52.0459L116.314 52.0459L116.314 62.1885L116.244 62.1885C115.102 60.0791 112.975 58.7783 110.391 58.7783C105.803 58.7783 102.674 62.4873 102.674 68.2529L102.674 68.2705C102.674 74.0361 105.768 77.7627 110.443 77.7627ZM147.744 68.2705C147.744 74.0361 144.65 77.7627 139.975 77.7627C137.355 77.7627 135.316 76.4443 134.174 74.3174L134.104 74.3174L134.104 77.4111L131.045 77.4111L131.045 52.0459L134.104 52.0459L134.104 62.1885L134.174 62.1885C135.316 60.0791 137.443 58.7783 140.027 58.7783C144.615 58.7783 147.744 62.4873 147.744 68.2529L147.744 68.2705ZM177.486 77.4111L174.164 77.4111L183.604 52.0459L186.732 52.0459L196.154 77.4111L192.832 77.4111L190.266 70.1514L180.053 70.1514L177.486 77.4111ZM238.289 77.4111L241.348 77.4111L241.348 52.0459L238.289 52.0459L238.289 77.4111ZM377.648 68.2705C377.648 74.0361 374.555 77.7627 369.879 77.7627C367.26 77.7627 365.221 76.4443 364.078 74.3174L364.008 74.3174L364.008 77.4111L360.949 77.4111L360.949 52.0459L364.008 52.0459L364.008 62.1885L364.078 62.1885C365.221 60.0791 367.348 58.7783 369.932 58.7783C374.52 58.7783 377.648 62.4873 377.648 68.2529L377.648 68.2705ZM418.008 77.4111L421.066 77.4111L421.066 70.5205L422.771 68.8857L429.557 77.4111L433.107 77.4111L424.934 67.0225L432.861 59.1299L429.152 59.1299L421.137 67.1982L421.066 67.1982L421.066 52.0459L418.008 52.0459L418.008 77.4111ZM80.2266 77.7627C80.8242 77.7627 81.4746 77.6924 81.8613 77.6396L81.8613 75.1611C81.5977 75.1787 81.2461 75.2314 80.877 75.2314C79.2422 75.2314 78.3809 74.6865 78.3809 72.7354L78.3809 61.6611L81.8613 61.6611L81.8613 59.1299L78.3809 59.1299L78.3809 54.1904L75.2168 54.1904L75.2168 59.1299L72.5449 59.1299L72.5449 61.6611L75.2168 61.6611L75.2168 72.7529C75.2168 76.251 76.8691 77.7627 80.2266 77.7627ZM324.686 77.6396C324.299 77.6924 323.648 77.7627 323.051 77.7627C319.693 77.7627 318.041 76.251 318.041 72.7529L318.041 61.6611L315.369 61.6611L315.369 59.1299L318.041 59.1299L318.041 54.1904L321.205 54.1904L321.205 59.1299L324.686 59.1299L324.686 61.6611L321.205 61.6611L321.205 72.7354C321.205 74.6865 322.066 75.2314 323.701 75.2314C324.07 75.2314 324.422 75.1787 324.686 75.1611L324.686 77.6396ZM185.203 55.8428L185.133 55.8428L181.02 67.4619L189.316 67.4619L185.203 55.8428ZM29.7422 77.4111L26.6836 77.4111L26.6836 59.1299L29.7422 59.1299L29.7422 62.2236L29.8125 62.2236C30.4277 60.1143 32.0098 58.7783 34.0664 58.7783C34.5938 58.7783 35.0508 58.8662 35.2969 58.9014L35.2969 61.8721C35.0508 61.7842 34.4004 61.6963 33.6621 61.6963C31.2891 61.6963 29.7422 63.3486 29.7422 66.126L29.7422 77.4111ZM45.2988 77.7627C49.2891 77.7627 52.2773 75.3721 52.875 72.3486L52.9102 72.1729L49.9043 72.1729L49.8516 72.3311C49.3242 73.8955 47.6895 75.0557 45.3691 75.0557C42.1172 75.0557 40.043 72.8584 39.9727 69.0967L53.1387 69.0967L53.1387 67.9717C53.1387 62.4873 50.0977 58.7783 45.1055 58.7783C40.1133 58.7783 36.8789 62.6631 36.8789 68.3232L36.8789 68.3408C36.8789 74.0889 40.043 77.7627 45.2988 77.7627ZM67.2715 74.4404C66.1992 76.4443 64.002 77.7627 61.5586 77.7627C57.9199 77.7627 55.4766 75.5654 55.4766 72.2432L55.4766 72.208C55.4766 69.0967 57.9023 67.1455 62.1035 66.8994L67.3418 66.6006L67.3418 65.0713C67.3418 62.8389 65.8828 61.4854 63.334 61.4854C60.9785 61.4854 59.502 62.6104 59.1504 64.2451L59.1152 64.4033L56.1621 64.4033L56.1797 64.21C56.4434 61.2041 59.0625 58.7783 63.3691 58.7783C67.6934 58.7783 70.4004 61.1162 70.4004 64.7725L70.4004 77.4111L67.3418 77.4111L67.3418 74.4404L67.2715 74.4404ZM100.23 72.3486C99.6328 75.3721 96.6445 77.7627 92.6543 77.7627C87.3984 77.7627 84.2344 74.0889 84.2344 68.3408L84.2344 68.3232C84.2344 62.6631 87.4688 58.7783 92.4609 58.7783C97.4531 58.7783 100.494 62.4873 100.494 67.9717L100.494 69.0967L87.3281 69.0967C87.3984 72.8584 89.4727 75.0557 92.7246 75.0557C95.0449 75.0557 96.6797 73.8955 97.207 72.3311L97.2598 72.1729L100.266 72.1729L100.23 72.3486ZM198.58 83.5635L201.639 83.5635L201.639 74.3525L201.709 74.3525C202.852 76.4619 204.979 77.7627 207.562 77.7627C212.15 77.7627 215.279 74.0537 215.279 68.2881L215.279 68.2705C215.279 62.5049 212.186 58.7783 207.51 58.7783C204.891 58.7783 202.852 60.0967 201.709 62.2236L201.639 62.2236L201.639 59.1299L198.58 59.1299L198.58 83.5635ZM221.414 83.5635L218.355 83.5635L218.355 59.1299L221.414 59.1299L221.414 62.2236L221.484 62.2236C222.627 60.0967 224.666 58.7783 227.285 58.7783C231.961 58.7783 235.055 62.5049 235.055 68.2705L235.055 68.2881C235.055 74.0537 231.926 77.7627 227.338 77.7627C224.754 77.7627 222.627 76.4619 221.484 74.3525L221.414 74.3525L221.414 83.5635ZM260.578 72.3486C259.98 75.3721 256.992 77.7627 253.002 77.7627C247.746 77.7627 244.582 74.0889 244.582 68.3408L244.582 68.3232C244.582 62.6631 247.816 58.7783 252.809 58.7783C257.801 58.7783 260.842 62.4873 260.842 67.9717L260.842 69.0967L247.676 69.0967C247.746 72.8584 249.82 75.0557 253.072 75.0557C255.393 75.0557 257.027 73.8955 257.555 72.3311L257.607 72.1729L260.613 72.1729L260.578 72.3486ZM282.094 77.4111L279.035 77.4111L279.035 59.1299L282.094 59.1299L282.094 61.7314L282.164 61.7314C283.148 60.0264 285.012 58.7783 287.789 58.7783C291.797 58.7783 294.117 61.3799 294.117 65.5459L294.117 77.4111L291.059 77.4111L291.059 66.0908C291.059 63.1201 289.67 61.4854 286.857 61.4854C283.975 61.4854 282.094 63.542 282.094 66.6533L282.094 77.4111ZM305.578 77.7627C310.623 77.7627 314.033 74.1064 314.033 68.2705L314.033 68.2354C314.033 62.3994 310.605 58.7783 305.561 58.7783C300.516 58.7783 297.105 62.417 297.105 68.2354L297.105 68.2705C297.105 74.0889 300.498 77.7627 305.578 77.7627ZM340.682 77.7627C343.125 77.7627 345.322 76.4443 346.395 74.4404L346.465 74.4404L346.465 77.4111L349.523 77.4111L349.523 64.7725C349.523 61.1162 346.816 58.7783 342.492 58.7783C338.186 58.7783 335.566 61.2041 335.303 64.21L335.285 64.4033L338.238 64.4033L338.273 64.2451C338.625 62.6104 340.102 61.4854 342.457 61.4854C345.006 61.4854 346.465 62.8389 346.465 65.0713L346.465 66.6006L341.227 66.8994C337.025 67.1455 334.6 69.0967 334.6 72.208L334.6 72.2432C334.6 75.5654 337.043 77.7627 340.682 77.7627ZM386.068 77.7627C388.512 77.7627 390.709 76.4443 391.781 74.4404L391.852 74.4404L391.852 77.4111L394.91 77.4111L394.91 64.7725C394.91 61.1162 392.203 58.7783 387.879 58.7783C383.572 58.7783 380.953 61.2041 380.689 64.21L380.672 64.4033L383.625 64.4033L383.66 64.2451C384.012 62.6104 385.488 61.4854 387.844 61.4854C390.393 61.4854 391.852 62.8389 391.852 65.0713L391.852 66.6006L386.613 66.8994C382.412 67.1455 379.986 69.0967 379.986 72.208L379.986 72.2432C379.986 75.5654 382.43 77.7627 386.068 77.7627ZM401.854 77.4111L398.795 77.4111L398.795 59.1299L401.854 59.1299L401.854 61.7314L401.924 61.7314C402.908 60.0264 404.771 58.7783 407.549 58.7783C411.557 58.7783 413.877 61.3799 413.877 65.5459L413.877 77.4111L410.818 77.4111L410.818 66.0908C410.818 63.1201 409.43 61.4854 406.617 61.4854C403.734 61.4854 401.854 63.542 401.854 66.6533L401.854 77.4111ZM152.578 83.5635C155.883 83.5635 157.482 82.0518 158.783 78.5537L165.92 59.1299L162.703 59.1299L157.641 74.3525L157.57 74.3525L152.525 59.1299L149.256 59.1299L156.041 77.4287L155.672 78.4658C154.934 80.54 153.861 81.0322 151.928 81.0322C151.559 81.0322 151.207 80.9795 150.943 80.9268L150.943 83.4229C151.33 83.4932 151.98 83.5635 152.578 83.5635ZM45.0879 61.4854C47.7598 61.4854 49.7285 63.1553 50.0273 66.7061L40.0254 66.7061C40.3594 63.2959 42.4336 61.4854 45.0879 61.4854ZM97.3828 66.7061C97.084 63.1553 95.1152 61.4854 92.4434 61.4854C89.7891 61.4854 87.7148 63.2959 87.3809 66.7061L97.3828 66.7061ZM111.041 75.0557C107.807 75.0557 105.803 72.4717 105.803 68.2705L105.803 68.2529C105.803 64.0869 107.807 61.4854 111.041 61.4854C114.117 61.4854 116.332 64.1748 116.332 68.2529L116.332 68.2705C116.332 72.3662 114.135 75.0557 111.041 75.0557ZM134.086 68.2705C134.086 72.3662 136.283 75.0557 139.377 75.0557C142.611 75.0557 144.615 72.4717 144.615 68.2705L144.615 68.2529C144.615 64.0869 142.611 61.4854 139.377 61.4854C136.301 61.4854 134.086 64.1748 134.086 68.2529L134.086 68.2705ZM206.912 75.0557C203.836 75.0557 201.621 72.3662 201.621 68.2881L201.621 68.2705C201.621 64.1748 203.818 61.4854 206.912 61.4854C210.146 61.4854 212.15 64.0693 212.15 68.2705L212.15 68.2881C212.15 72.4541 210.146 75.0557 206.912 75.0557ZM221.396 68.2881C221.396 72.3662 223.611 75.0557 226.688 75.0557C229.922 75.0557 231.926 72.4541 231.926 68.2881L231.926 68.2705C231.926 64.0693 229.922 61.4854 226.688 61.4854C223.594 61.4854 221.396 64.1748 221.396 68.2705L221.396 68.2881ZM257.73 66.7061C257.432 63.1553 255.463 61.4854 252.791 61.4854C250.137 61.4854 248.062 63.2959 247.729 66.7061L257.73 66.7061ZM305.596 75.0557C302.361 75.0557 300.234 72.5771 300.234 68.2705L300.234 68.2354C300.234 63.9639 302.379 61.4854 305.561 61.4854C308.795 61.4854 310.904 63.9463 310.904 68.2354L310.904 68.2705C310.904 72.5596 308.812 75.0557 305.596 75.0557ZM363.99 68.2705C363.99 72.3662 366.188 75.0557 369.281 75.0557C372.516 75.0557 374.52 72.4717 374.52 68.2705L374.52 68.2529C374.52 64.0869 372.516 61.4854 369.281 61.4854C366.205 61.4854 363.99 64.1748 363.99 68.2529L363.99 68.2705ZM58.6055 72.208L58.6055 72.2432C58.6055 74.001 60.0469 75.1084 62.2441 75.1084C65.127 75.1084 67.3418 73.1221 67.3418 70.4678L67.3418 68.9736L62.4551 69.2725C60.0117 69.4131 58.6055 70.5029 58.6055 72.208ZM337.729 72.2432L337.729 72.208C337.729 70.5029 339.135 69.4131 341.578 69.2725L346.465 68.9736L346.465 70.4678C346.465 73.1221 344.25 75.1084 341.367 75.1084C339.17 75.1084 337.729 74.001 337.729 72.2432ZM383.115 72.2432L383.115 72.208C383.115 70.5029 384.521 69.4131 386.965 69.2725L391.852 68.9736L391.852 70.4678C391.852 73.1221 389.637 75.1084 386.754 75.1084C384.557 75.1084 383.115 74.001 383.115 72.2432ZM439.119 75.6533C439.119 76.7783 438.24 77.6572 437.115 77.6572C435.99 77.6572 435.111 76.7783 435.111 75.6533C435.111 74.5283 435.99 73.6494 437.115 73.6494C438.24 73.6494 439.119 74.5283 439.119 75.6533ZM262.688 82.3857L264.867 82.3857L267.434 73.79L264.234 73.79L262.688 82.3857Z" />
    </g>
  </g>
</svg>