<?xml version="1.0" encoding="utf-8"?>
<svg width="366px" height="220px" viewBox="0 0 366 220" version="1.1" xmlns:xlink="http://www.w3.org/1999/xlink" xmlns="http://www.w3.org/2000/svg">
  <defs>
    <path d="M0 0L100 0L100 119.394L0 119.394L0 0Z" id="path_1" />
    <clipPath id="mask_1">
      <use xlink:href="#path_1" />
    </clipPath>
  </defs>
  <g id="Group">
    <g id="apple-13">
      <path d="M0 0L100 0L100 119.394L0 119.394L0 0Z" id="Background" fill="none" fill-rule="evenodd" stroke="none" />
      <g clip-path="url(#mask_1)">
        <path d="M83.6079 62.8853C83.5547 53.135 87.9649 45.7758 96.8916 40.356C91.8969 33.2094 84.3518 29.2774 74.389 28.5069C64.9575 27.763 54.6493 34.0064 50.8767 34.0064C46.8916 34.0064 37.7524 28.7726 30.5792 28.7726C15.7545 29.0117 0 40.5951 0 64.1605C0 71.1212 1.27524 78.3122 3.82572 85.7334C7.22636 95.4836 19.5005 119.394 32.3061 118.996C39.0011 118.836 43.7301 114.24 52.4442 114.24C60.8927 114.24 65.2763 118.996 72.7418 118.996C85.6536 118.81 96.7588 97.0777 100 87.3008C82.678 79.1446 83.6079 63.3901 83.6079 62.8853L83.6079 62.8853ZM68.5707 19.2614C75.8236 10.6536 75.1594 2.81615 74.9469 0C68.5441 0.371945 61.1318 4.35707 56.9075 9.27206C52.2582 14.5324 49.5218 21.0415 50.1063 28.3741C57.0404 28.9054 63.3634 25.3454 68.5707 19.2614L68.5707 19.2614Z" id="Shape" fill="#000000" fill-rule="evenodd" stroke="none" />
      </g>
    </g>
    <g id="iPad" transform="translate(115 14.0000305)">
      <path d="M24.5972 21.353C24.5972 26.4189 20.4468 30.6304 15.0757 30.6304C9.70459 30.6304 5.5542 26.4189 5.5542 21.353C5.5542 16.2871 9.70459 12.0757 15.0757 12.0757C20.4468 12.0757 24.5972 16.2871 24.5972 21.353ZM55.8472 104.483L37.4146 104.483L37.4146 16.4092L72.8149 16.4092C91.3696 16.4092 103.76 28.3721 103.76 46.4995L103.76 46.6216C103.76 64.749 91.3696 76.7119 72.8149 76.7119L55.8472 76.7119L55.8472 104.483ZM225.891 93.3135C222.412 101.065 215.21 105.826 205.75 105.826C189.27 105.826 179.138 93.0083 179.138 71.7681L179.138 71.707C179.138 50.4058 189.27 37.7104 205.75 37.7104C215.027 37.7104 222.351 42.4712 225.891 50.4058L226.257 50.4058L226.257 16.4092L244.08 16.4092L244.08 104.483L226.257 104.483L226.257 93.3135L225.891 93.3135ZM85.083 46.5605C85.083 36.5508 78.8574 30.9966 68.2983 30.9966L55.8472 30.9966L55.8472 62.3076L68.2983 62.3076C78.8574 62.3076 85.083 56.6924 85.083 46.6826L85.083 46.5605ZM132.568 105.521C141.174 105.521 148.132 101.431 151.855 94.7173L152.222 94.7173L152.222 104.483L170.044 104.483L170.044 59.6221C170.044 46.4385 159.119 37.7104 142.212 37.7104C124.939 37.7104 114.563 46.3774 113.586 58.4624L113.525 59.1948L129.822 59.1948L129.944 58.6455C130.798 54.4341 134.827 51.3213 141.479 51.3213C148.438 51.3213 152.222 54.9224 152.222 60.7207L152.222 64.749L136.047 65.7256C119.812 66.7632 110.596 73.7212 110.596 85.623L110.596 85.7451C110.596 97.2808 119.446 105.521 132.568 105.521ZM23.9868 39.0532L23.9868 104.483L6.16455 104.483L6.16455 39.0532L23.9868 39.0532ZM197.266 71.7681C197.266 83.6699 202.82 91.0552 211.731 91.0552C220.398 91.0552 226.318 83.6089 226.318 71.7681L226.318 71.707C226.318 59.9272 220.337 52.481 211.731 52.481C202.881 52.481 197.266 59.7441 197.266 71.707L197.266 71.7681ZM128.235 84.8296L128.235 84.7075C128.235 80.0688 131.836 77.1392 138.733 76.7119L152.222 75.8574L152.222 80.5571C152.222 87.3931 146.362 92.52 138.367 92.52C132.202 92.52 128.235 89.6514 128.235 84.8296Z" />
    </g>
  </g>
  <g id="Delightfully-capable.-Surprisi" transform="translate(10 133.00003)">
    <g id="Delightfully-capable.">
      <path d="M134.622 34.1826L131.563 34.1826L131.563 18.4326L129.015 18.4326L129.015 15.9014L131.563 15.9014L131.563 13.6514C131.563 10.1357 133.198 8.46582 136.573 8.46582C137.259 8.46582 137.979 8.51855 138.437 8.58887L138.437 11.0674C138.067 11.0146 137.593 10.9971 137.118 10.9971C135.431 10.9971 134.587 11.8584 134.587 13.6689L134.587 15.9014L138.349 15.9014L138.349 18.4326L134.622 18.4326L134.622 34.1826ZM31.9307 34.1826L23.4053 34.1826L23.4053 8.81738L31.9307 8.81738C39.4365 8.81738 43.9014 13.4932 43.9014 21.4561L43.9014 21.4912C43.9014 29.4893 39.4717 34.1826 31.9307 34.1826ZM65.9619 34.1826L69.0205 34.1826L69.0205 8.81738L65.9619 8.81738L65.9619 34.1826ZM103.544 34.1826L100.485 34.1826L100.485 8.81738L103.544 8.81738L103.544 18.8193L103.614 18.8193C104.599 16.7627 106.585 15.5498 109.31 15.5498C113.194 15.5498 115.849 18.5557 115.849 22.9854L115.849 34.1826L112.79 34.1826L112.79 23.5127C112.79 20.208 111.103 18.2568 108.255 18.2568C105.425 18.2568 103.544 20.4014 103.544 23.5127L103.544 34.1826ZM163.696 34.1826L160.638 34.1826L160.638 8.81738L163.696 8.81738L163.696 34.1826ZM167.985 34.1826L171.044 34.1826L171.044 8.81738L167.985 8.81738L167.985 34.1826ZM283.104 34.5342C287.78 34.5342 290.874 30.8076 290.874 25.042L290.874 25.0244C290.874 19.2588 287.745 15.5498 283.157 15.5498C280.573 15.5498 278.446 16.8506 277.304 18.96L277.233 18.96L277.233 8.81738L274.175 8.81738L274.175 34.1826L277.233 34.1826L277.233 31.0889L277.304 31.0889C278.446 33.2158 280.485 34.5342 283.104 34.5342ZM297.167 34.1826L294.108 34.1826L294.108 8.81738L297.167 8.81738L297.167 34.1826ZM76.79 10.8916C76.79 11.9463 75.9463 12.8076 74.874 12.8076C73.8193 12.8076 72.958 11.9463 72.958 10.8916C72.958 9.81934 73.8193 8.97559 74.874 8.97559C75.9463 8.97559 76.79 9.81934 76.79 10.8916ZM125.675 34.5342C126.272 34.5342 126.923 34.4639 127.31 34.4111L127.31 31.9326C127.046 31.9502 126.694 32.0029 126.325 32.0029C124.69 32.0029 123.829 31.458 123.829 29.5068L123.829 18.4326L127.31 18.4326L127.31 15.9014L123.829 15.9014L123.829 10.9619L120.665 10.9619L120.665 15.9014L117.993 15.9014L117.993 18.4326L120.665 18.4326L120.665 29.5244C120.665 33.0225 122.317 34.5342 125.675 34.5342ZM26.5693 11.665L26.5693 31.335L31.7197 31.335C37.4678 31.335 40.667 27.8193 40.667 21.5264L40.667 21.4912C40.667 15.1631 37.4678 11.665 31.7197 11.665L26.5693 11.665ZM62.4639 29.1201C61.8662 32.1436 58.8779 34.5342 54.8877 34.5342C49.6318 34.5342 46.4678 30.8604 46.4678 25.1123L46.4678 25.0947C46.4678 19.4346 49.7021 15.5498 54.6943 15.5498C59.6865 15.5498 62.7275 19.2588 62.7275 24.7432L62.7275 25.8682L49.5615 25.8682C49.6318 29.6299 51.7061 31.8271 54.958 31.8271C57.2783 31.8271 58.9131 30.667 59.4404 29.1025L59.4932 28.9443L62.499 28.9443L62.4639 29.1201ZM88.3037 40.6865C93.2607 40.6865 96.3721 37.9092 96.3721 33.6729L96.3721 15.9014L93.3135 15.9014L93.3135 18.9951L93.2432 18.9951C92.1182 16.9561 90.0791 15.5498 87.4951 15.5498C82.8545 15.5498 79.6729 19.2412 79.6729 24.9189L79.6729 24.9365C79.6729 30.6494 82.8193 34.3584 87.4248 34.3584C90.0439 34.3584 92.1533 33.0576 93.2432 31.0361L93.3135 31.0361L93.3135 33.374C93.3135 36.2041 91.4854 37.9795 88.2686 37.9795C85.7725 37.9795 84.0322 37.1709 83.4521 35.8525L83.3818 35.6943L80.3057 35.6943L80.3408 35.8525C80.9385 38.5596 83.7861 40.6865 88.3037 40.6865ZM207.642 34.5342C211.772 34.5342 214.778 31.8447 215.271 28.3643L215.288 28.2412L212.282 28.2412L212.247 28.3818C211.737 30.4209 210.138 31.8271 207.642 31.8271C204.478 31.8271 202.298 29.3135 202.298 25.0596L202.298 25.042C202.298 20.8936 204.425 18.2568 207.606 18.2568C210.296 18.2568 211.772 19.874 212.229 21.7021L212.265 21.8428L215.253 21.8428L215.235 21.7021C214.849 18.5732 212.159 15.5498 207.606 15.5498C202.526 15.5498 199.169 19.2412 199.169 25.0068L199.169 25.0244C199.169 30.8428 202.456 34.5342 207.642 34.5342ZM229.157 31.2119C228.085 33.2158 225.888 34.5342 223.444 34.5342C219.806 34.5342 217.362 32.3369 217.362 29.0146L217.362 28.9795C217.362 25.8682 219.788 23.917 223.989 23.6709L229.228 23.3721L229.228 21.8428C229.228 19.6104 227.769 18.2568 225.22 18.2568C222.864 18.2568 221.388 19.3818 221.036 21.0166L221.001 21.1748L218.048 21.1748L218.065 20.9814C218.329 17.9756 220.948 15.5498 225.255 15.5498C229.579 15.5498 232.286 17.8877 232.286 21.5439L232.286 34.1826L229.228 34.1826L229.228 31.2119L229.157 31.2119ZM236.171 40.335L239.229 40.335L239.229 31.124L239.3 31.124C240.442 33.2334 242.569 34.5342 245.153 34.5342C249.741 34.5342 252.87 30.8252 252.87 25.0596L252.87 25.042C252.87 19.2764 249.776 15.5498 245.101 15.5498C242.481 15.5498 240.442 16.8682 239.3 18.9951L239.229 18.9951L239.229 15.9014L236.171 15.9014L236.171 40.335ZM267.003 31.2119C265.931 33.2158 263.733 34.5342 261.29 34.5342C257.651 34.5342 255.208 32.3369 255.208 29.0146L255.208 28.9795C255.208 25.8682 257.634 23.917 261.835 23.6709L267.073 23.3721L267.073 21.8428C267.073 19.6104 265.614 18.2568 263.065 18.2568C260.71 18.2568 259.233 19.3818 258.882 21.0166L258.847 21.1748L255.894 21.1748L255.911 20.9814C256.175 17.9756 258.794 15.5498 263.101 15.5498C267.425 15.5498 270.132 17.8877 270.132 21.5439L270.132 34.1826L267.073 34.1826L267.073 31.2119L267.003 31.2119ZM308.821 34.5342C312.812 34.5342 315.8 32.1436 316.397 29.1201L316.433 28.9443L313.427 28.9443L313.374 29.1025C312.847 30.667 311.212 31.8271 308.892 31.8271C305.64 31.8271 303.565 29.6299 303.495 25.8682L316.661 25.8682L316.661 24.7432C316.661 19.2588 313.62 15.5498 308.628 15.5498C303.636 15.5498 300.401 19.4346 300.401 25.0947L300.401 25.1123C300.401 30.8604 303.565 34.5342 308.821 34.5342ZM76.4033 15.9014L76.4033 34.1826L73.3447 34.1826L73.3447 15.9014L76.4033 15.9014ZM147.753 34.5342C150.53 34.5342 152.394 33.2861 153.378 31.5811L153.448 31.5811L153.448 34.1826L156.507 34.1826L156.507 15.9014L153.448 15.9014L153.448 26.6592C153.448 29.7705 151.567 31.8271 148.685 31.8271C145.872 31.8271 144.483 30.1924 144.483 27.2217L144.483 15.9014L141.425 15.9014L141.425 27.7666C141.425 31.9326 143.745 34.5342 147.753 34.5342ZM183.138 35.3252C181.837 38.8232 180.237 40.335 176.933 40.335C176.335 40.335 175.685 40.2646 175.298 40.1943L175.298 37.6982C175.562 37.751 175.913 37.8037 176.282 37.8037C178.216 37.8037 179.288 37.3115 180.026 35.2373L180.396 34.2002L173.61 15.9014L176.88 15.9014L181.925 31.124L181.995 31.124L187.058 15.9014L190.274 15.9014L183.138 35.3252ZM59.6162 23.4775C59.3174 19.9268 57.3486 18.2568 54.6768 18.2568C52.0225 18.2568 49.9482 20.0674 49.6143 23.4775L59.6162 23.4775ZM88.0928 31.6514C84.8408 31.6514 82.8018 29.085 82.8018 24.9365L82.8018 24.9189C82.8018 20.8584 84.8408 18.2568 88.0928 18.2568C91.1865 18.2568 93.3135 20.8936 93.3135 24.9189L93.3135 24.9365C93.3135 28.9971 91.2041 31.6514 88.0928 31.6514ZM244.503 31.8271C241.427 31.8271 239.212 29.1377 239.212 25.0596L239.212 25.042C239.212 20.9463 241.409 18.2568 244.503 18.2568C247.737 18.2568 249.741 20.8408 249.741 25.042L249.741 25.0596C249.741 29.2256 247.737 31.8271 244.503 31.8271ZM282.507 31.8271C279.413 31.8271 277.216 29.1377 277.216 25.042L277.216 25.0244C277.216 20.9463 279.431 18.2568 282.507 18.2568C285.741 18.2568 287.745 20.8584 287.745 25.0244L287.745 25.042C287.745 29.2432 285.741 31.8271 282.507 31.8271ZM308.61 18.2568C311.282 18.2568 313.251 19.9268 313.55 23.4775L303.548 23.4775C303.882 20.0674 305.956 18.2568 308.61 18.2568ZM220.491 28.9795L220.491 29.0146C220.491 30.7725 221.933 31.8799 224.13 31.8799C227.013 31.8799 229.228 29.8936 229.228 27.2393L229.228 25.7451L224.341 26.0439C221.897 26.1846 220.491 27.2744 220.491 28.9795ZM258.337 28.9795L258.337 29.0146C258.337 30.7725 259.778 31.8799 261.976 31.8799C264.858 31.8799 267.073 29.8936 267.073 27.2393L267.073 25.7451L262.187 26.0439C259.743 26.1846 258.337 27.2744 258.337 28.9795ZM323.622 32.4248C323.622 33.5498 322.743 34.4287 321.618 34.4287C320.493 34.4287 319.614 33.5498 319.614 32.4248C319.614 31.2998 320.493 30.4209 321.618 30.4209C322.743 30.4209 323.622 31.2998 323.622 32.4248Z" />
    </g>
    <g id="Surprisingly-affordable.">
      <path d="M10.7578 77.833C16.5586 77.833 20.127 74.9854 20.127 70.4854L20.127 70.4678C20.127 66.6006 17.9473 64.4912 12.7441 63.3486L9.93164 62.7334C6.62695 62.0127 5.09766 60.7119 5.09766 58.6377L5.09766 58.6201C5.09766 56.1768 7.3125 54.5596 10.7051 54.542C13.9219 54.542 16.084 56.0713 16.4707 58.6553L16.5059 58.9014L19.6699 58.9014L19.6523 58.6377C19.3711 54.4893 15.75 51.624 10.793 51.624C5.57227 51.624 1.88086 54.542 1.86328 58.708L1.86328 58.7256C1.86328 62.4346 4.18359 64.667 9.14062 65.7568L11.9531 66.3721C15.4336 67.1455 16.8926 68.3936 16.8926 70.626L16.8926 70.6436C16.8926 73.2627 14.5898 74.915 10.9336 74.915C7.25977 74.915 4.79883 73.3506 4.42969 70.8018L4.39453 70.5557L1.23047 70.5557L1.24805 70.8018C1.56445 75.1436 5.27344 77.833 10.7578 77.833ZM205.875 77.4111L208.934 77.4111L208.934 61.6611L212.66 61.6611L212.66 59.1299L208.898 59.1299L208.898 56.8975C208.898 55.0869 209.742 54.2256 211.43 54.2256C211.904 54.2256 212.379 54.2432 212.748 54.2959L212.748 51.8174C212.291 51.7471 211.57 51.6943 210.885 51.6943C207.51 51.6943 205.875 53.3643 205.875 56.8799L205.875 59.1299L203.326 59.1299L203.326 61.6611L205.875 61.6611L205.875 77.4111ZM219.867 77.4111L216.809 77.4111L216.809 61.6611L214.26 61.6611L214.26 59.1299L216.809 59.1299L216.809 56.8799C216.809 53.3643 218.443 51.6943 221.818 51.6943C222.504 51.6943 223.225 51.7471 223.682 51.8174L223.682 54.2959C223.312 54.2432 222.838 54.2256 222.363 54.2256C220.676 54.2256 219.832 55.0869 219.832 56.8975L219.832 59.1299L223.594 59.1299L223.594 61.6611L219.867 61.6611L219.867 77.4111ZM157.799 77.4111L154.74 77.4111L154.74 52.0459L157.799 52.0459L157.799 77.4111ZM263.83 77.7627C266.449 77.7627 268.488 76.4443 269.631 74.3174L269.701 74.3174L269.701 77.4111L272.76 77.4111L272.76 52.0459L269.701 52.0459L269.701 62.1885L269.631 62.1885C268.488 60.0791 266.361 58.7783 263.777 58.7783C259.189 58.7783 256.061 62.4873 256.061 68.2529L256.061 68.2705C256.061 74.0361 259.154 77.7627 263.83 77.7627ZM304.049 77.7627C308.725 77.7627 311.818 74.0361 311.818 68.2705L311.818 68.2529C311.818 62.4873 308.689 58.7783 304.102 58.7783C301.518 58.7783 299.391 60.0791 298.248 62.1885L298.178 62.1885L298.178 52.0459L295.119 52.0459L295.119 77.4111L298.178 77.4111L298.178 74.3174L298.248 74.3174C299.391 76.4443 301.43 77.7627 304.049 77.7627ZM318.111 77.4111L315.053 77.4111L315.053 52.0459L318.111 52.0459L318.111 77.4111ZM85.9922 56.0361C87.0645 56.0361 87.9082 55.1748 87.9082 54.1201C87.9082 53.0479 87.0645 52.2041 85.9922 52.2041C84.9375 52.2041 84.0762 53.0479 84.0762 54.1201C84.0762 55.1748 84.9375 56.0361 85.9922 56.0361ZM110.162 56.0361C111.234 56.0361 112.078 55.1748 112.078 54.1201C112.078 53.0479 111.234 52.2041 110.162 52.2041C109.107 52.2041 108.246 53.0479 108.246 54.1201C108.246 55.1748 109.107 56.0361 110.162 56.0361ZM45.3691 77.4111L42.3105 77.4111L42.3105 59.1299L45.3691 59.1299L45.3691 62.2236L45.4395 62.2236C46.0547 60.1143 47.6367 58.7783 49.6934 58.7783C50.2207 58.7783 50.6777 58.8662 50.9238 58.9014L50.9238 61.8721C50.6777 61.7842 50.0273 61.6963 49.2891 61.6963C46.916 61.6963 45.3691 63.3486 45.3691 66.126L45.3691 77.4111ZM53.4023 83.5635L56.4609 83.5635L56.4609 74.3525L56.5312 74.3525C57.6738 76.4619 59.8008 77.7627 62.3848 77.7627C66.9727 77.7627 70.1016 74.0537 70.1016 68.2881L70.1016 68.2705C70.1016 62.5049 67.0078 58.7783 62.332 58.7783C59.7129 58.7783 57.6738 60.0967 56.5312 62.2236L56.4609 62.2236L56.4609 59.1299L53.4023 59.1299L53.4023 83.5635ZM76.2363 77.4111L73.1777 77.4111L73.1777 59.1299L76.2363 59.1299L76.2363 62.2236L76.3066 62.2236C76.9219 60.1143 78.5039 58.7783 80.5605 58.7783C81.0879 58.7783 81.5449 58.8662 81.791 58.9014L81.791 61.8721C81.5449 61.7842 80.8945 61.6963 80.1562 61.6963C77.7832 61.6963 76.2363 63.3486 76.2363 66.126L76.2363 77.4111ZM105.275 72.3135C105.275 75.5127 102.252 77.7627 98.1738 77.7627C93.8672 77.7627 91.2656 75.5654 90.8965 72.2959L90.8789 72.1377L93.9375 72.1377L93.9727 72.3135C94.3418 74.1416 95.6953 75.2139 98.1914 75.2139C100.67 75.2139 102.146 74.1768 102.146 72.5244L102.146 72.5068C102.146 71.1885 101.461 70.4502 99.3867 69.9404L96.4863 69.2373C93.041 68.4111 91.3711 66.8115 91.3711 64.1748L91.3711 64.1572C91.3711 61.0107 94.1309 58.7783 98.0859 58.7783C102.094 58.7783 104.643 61.1162 104.871 64.1748L104.889 64.4033L101.971 64.4033L101.953 64.2803C101.707 62.5049 100.354 61.3271 98.0859 61.3271C95.8711 61.3271 94.5 62.3994 94.5 64.0166L94.5 64.0342C94.5 65.2822 95.3262 66.1436 97.3477 66.6357L100.248 67.3389C103.939 68.2354 105.275 69.6943 105.275 72.2959L105.275 72.3135ZM118.916 77.4111L115.857 77.4111L115.857 59.1299L118.916 59.1299L118.916 61.7314L118.986 61.7314C119.971 60.0264 121.834 58.7783 124.611 58.7783C128.619 58.7783 130.939 61.3799 130.939 65.5459L130.939 77.4111L127.881 77.4111L127.881 66.0908C127.881 63.1201 126.492 61.4854 123.68 61.4854C120.797 61.4854 118.916 63.542 118.916 66.6533L118.916 77.4111ZM142.559 83.915C147.516 83.915 150.627 81.1377 150.627 76.9014L150.627 59.1299L147.568 59.1299L147.568 62.2236L147.498 62.2236C146.373 60.1846 144.334 58.7783 141.75 58.7783C137.109 58.7783 133.928 62.4697 133.928 68.1475L133.928 68.165C133.928 73.8779 137.074 77.5869 141.68 77.5869C144.299 77.5869 146.408 76.2861 147.498 74.2646L147.568 74.2646L147.568 76.6025C147.568 79.4326 145.74 81.208 142.523 81.208C140.027 81.208 138.287 80.3994 137.707 79.0811L137.637 78.9229L134.561 78.9229L134.596 79.0811C135.193 81.7881 138.041 83.915 142.559 83.915ZM197.877 74.4404C196.805 76.4443 194.607 77.7627 192.164 77.7627C188.525 77.7627 186.082 75.5654 186.082 72.2432L186.082 72.208C186.082 69.0967 188.508 67.1455 192.709 66.8994L197.947 66.6006L197.947 65.0713C197.947 62.8389 196.488 61.4854 193.939 61.4854C191.584 61.4854 190.107 62.6104 189.756 64.2451L189.721 64.4033L186.768 64.4033L186.785 64.21C187.049 61.2041 189.668 58.7783 193.975 58.7783C198.299 58.7783 201.006 61.1162 201.006 64.7725L201.006 77.4111L197.947 77.4111L197.947 74.4404L197.877 74.4404ZM234.334 77.7627C239.379 77.7627 242.789 74.1064 242.789 68.2705L242.789 68.2354C242.789 62.3994 239.361 58.7783 234.316 58.7783C229.271 58.7783 225.861 62.417 225.861 68.2354L225.861 68.2705C225.861 74.0889 229.254 77.7627 234.334 77.7627ZM248.924 77.4111L245.865 77.4111L245.865 59.1299L248.924 59.1299L248.924 62.2236L248.994 62.2236C249.609 60.1143 251.191 58.7783 253.248 58.7783C253.775 58.7783 254.232 58.8662 254.479 58.9014L254.479 61.8721C254.232 61.7842 253.582 61.6963 252.844 61.6963C250.471 61.6963 248.924 63.3486 248.924 66.126L248.924 77.4111ZM287.947 74.4404C286.875 76.4443 284.678 77.7627 282.234 77.7627C278.596 77.7627 276.152 75.5654 276.152 72.2432L276.152 72.208C276.152 69.0967 278.578 67.1455 282.779 66.8994L288.018 66.6006L288.018 65.0713C288.018 62.8389 286.559 61.4854 284.01 61.4854C281.654 61.4854 280.178 62.6104 279.826 64.2451L279.791 64.4033L276.838 64.4033L276.855 64.21C277.119 61.2041 279.738 58.7783 284.045 58.7783C288.369 58.7783 291.076 61.1162 291.076 64.7725L291.076 77.4111L288.018 77.4111L288.018 74.4404L287.947 74.4404ZM329.766 77.7627C333.756 77.7627 336.744 75.3721 337.342 72.3486L337.377 72.1729L334.371 72.1729L334.318 72.3311C333.791 73.8955 332.156 75.0557 329.836 75.0557C326.584 75.0557 324.51 72.8584 324.439 69.0967L337.605 69.0967L337.605 67.9717C337.605 62.4873 334.564 58.7783 329.572 58.7783C324.58 58.7783 321.346 62.6631 321.346 68.3232L321.346 68.3408C321.346 74.0889 324.51 77.7627 329.766 77.7627ZM29.584 77.7627C32.3613 77.7627 34.2246 76.5146 35.209 74.8096L35.2793 74.8096L35.2793 77.4111L38.3379 77.4111L38.3379 59.1299L35.2793 59.1299L35.2793 69.8877C35.2793 72.999 33.3984 75.0557 30.5156 75.0557C27.7031 75.0557 26.3145 73.4209 26.3145 70.4502L26.3145 59.1299L23.2559 59.1299L23.2559 70.9951C23.2559 75.1611 25.5762 77.7627 29.584 77.7627ZM84.4629 77.4111L87.5215 77.4111L87.5215 59.1299L84.4629 59.1299L84.4629 77.4111ZM108.633 77.4111L111.691 77.4111L111.691 59.1299L108.633 59.1299L108.633 77.4111ZM163.688 83.5635C166.992 83.5635 168.592 82.0518 169.893 78.5537L177.029 59.1299L173.812 59.1299L168.75 74.3525L168.68 74.3525L163.635 59.1299L160.365 59.1299L167.15 77.4287L166.781 78.4658C166.043 80.54 164.971 81.0322 163.037 81.0322C162.668 81.0322 162.316 80.9795 162.053 80.9268L162.053 83.4229C162.439 83.4932 163.09 83.5635 163.688 83.5635ZM61.7344 75.0557C58.6582 75.0557 56.4434 72.3662 56.4434 68.2881L56.4434 68.2705C56.4434 64.1748 58.6406 61.4854 61.7344 61.4854C64.9688 61.4854 66.9727 64.0693 66.9727 68.2705L66.9727 68.2881C66.9727 72.4541 64.9688 75.0557 61.7344 75.0557ZM142.348 74.8799C139.096 74.8799 137.057 72.3135 137.057 68.165L137.057 68.1475C137.057 64.0869 139.096 61.4854 142.348 61.4854C145.441 61.4854 147.568 64.1221 147.568 68.1475L147.568 68.165C147.568 72.2256 145.459 74.8799 142.348 74.8799ZM234.352 75.0557C231.117 75.0557 228.99 72.5771 228.99 68.2705L228.99 68.2354C228.99 63.9639 231.135 61.4854 234.316 61.4854C237.551 61.4854 239.66 63.9463 239.66 68.2354L239.66 68.2705C239.66 72.5596 237.568 75.0557 234.352 75.0557ZM264.428 75.0557C261.193 75.0557 259.189 72.4717 259.189 68.2705L259.189 68.2529C259.189 64.0869 261.193 61.4854 264.428 61.4854C267.504 61.4854 269.719 64.1748 269.719 68.2529L269.719 68.2705C269.719 72.3662 267.521 75.0557 264.428 75.0557ZM303.451 75.0557C300.357 75.0557 298.16 72.3662 298.16 68.2705L298.16 68.2529C298.16 64.1748 300.375 61.4854 303.451 61.4854C306.686 61.4854 308.689 64.0869 308.689 68.2529L308.689 68.2705C308.689 72.4717 306.686 75.0557 303.451 75.0557ZM329.555 61.4854C332.227 61.4854 334.195 63.1553 334.494 66.7061L324.492 66.7061C324.826 63.2959 326.9 61.4854 329.555 61.4854ZM189.211 72.208L189.211 72.2432C189.211 74.001 190.652 75.1084 192.85 75.1084C195.732 75.1084 197.947 73.1221 197.947 70.4678L197.947 68.9736L193.061 69.2725C190.617 69.4131 189.211 70.5029 189.211 72.208ZM279.281 72.208L279.281 72.2432C279.281 74.001 280.723 75.1084 282.92 75.1084C285.803 75.1084 288.018 73.1221 288.018 70.4678L288.018 68.9736L283.131 69.2725C280.688 69.4131 279.281 70.5029 279.281 72.208ZM344.566 75.6533C344.566 76.7783 343.688 77.6572 342.562 77.6572C341.438 77.6572 340.559 76.7783 340.559 75.6533C340.559 74.5283 341.438 73.6494 342.562 73.6494C343.688 73.6494 344.566 74.5283 344.566 75.6533Z" />
    </g>
  </g>
</svg>