<?xml version="1.0" encoding="utf-8"?>
<svg width="673px" height="177px" viewBox="0 0 673 177" version="1.1" xmlns:xlink="http://www.w3.org/1999/xlink" xmlns="http://www.w3.org/2000/svg">
  <defs>
    <path d="M0 0L100 0L100 119.394L0 119.394L0 0Z" id="path_1" />
    <clipPath id="mask_1">
      <use xlink:href="#path_1" />
    </clipPath>
  </defs>
  <g id="Group">
    <g id="apple-13">
      <path d="M0 0L100 0L100 119.394L0 119.394L0 0Z" id="Background" fill="none" fill-rule="evenodd" stroke="none" />
      <g clip-path="url(#mask_1)">
        <path d="M83.6079 62.8853C83.5547 53.135 87.9649 45.7758 96.8916 40.356C91.8969 33.2094 84.3518 29.2774 74.389 28.5069C64.9575 27.763 54.6493 34.0064 50.8767 34.0064C46.8916 34.0064 37.7524 28.7726 30.5792 28.7726C15.7545 29.0117 0 40.5951 0 64.1605C0 71.1212 1.27524 78.3122 3.82572 85.7334C7.22636 95.4836 19.5005 119.394 32.3061 118.996C39.0011 118.836 43.7301 114.24 52.4442 114.24C60.8927 114.24 65.2763 118.996 72.7418 118.996C85.6536 118.81 96.7588 97.0777 100 87.3008C82.678 79.1446 83.6079 63.3901 83.6079 62.8853L83.6079 62.8853ZM68.5707 19.2614C75.8236 10.6536 75.1594 2.81615 74.9469 0C68.5441 0.371945 61.1318 4.35707 56.9075 9.27206C52.2582 14.5324 49.5218 21.0415 50.1063 28.3741C57.0404 28.9054 63.3634 25.3454 68.5707 19.2614L68.5707 19.2614Z" id="Shape" fill="#000000" fill-rule="evenodd" stroke="none" />
      </g>
    </g>
    <g id="iPhone-13" transform="translate(115 14.0000305)">
      <path d="M24.5972 21.353C24.5972 26.4189 20.4468 30.6304 15.0757 30.6304C9.70459 30.6304 5.5542 26.4189 5.5542 21.353C5.5542 16.2871 9.70459 12.0757 15.0757 12.0757C20.4468 12.0757 24.5972 16.2871 24.5972 21.353ZM551.331 79.6416C551.331 95.3887 537.659 106.009 517.09 106.009C497.131 106.009 484.07 95.5107 482.849 80.313L482.788 79.5195L500.366 79.5195L500.488 80.1909C501.282 86.4775 507.507 91.1772 517.029 91.1772C526.489 91.1772 532.593 86.1113 532.593 78.9092L532.593 78.7871C532.593 70.3643 526.306 65.7256 515.686 65.7256L505.615 65.7256L505.615 52.603L515.442 52.603C524.658 52.603 530.64 47.7202 530.64 40.5791L530.64 40.457C530.64 33.3159 525.574 29.0435 516.907 29.0435C508.301 29.0435 502.441 33.499 501.709 40.335L501.648 40.8843L484.741 40.8843L484.802 40.1519C486.023 24.8931 498.413 14.8833 516.907 14.8833C535.889 14.8833 548.096 24.1606 548.096 38.0156L548.096 38.1377C548.096 49.124 540.039 56.2651 529.724 58.4014L529.724 58.7676C542.786 59.9883 551.331 67.5566 551.331 79.5195L551.331 79.6416ZM55.8472 104.483L37.4146 104.483L37.4146 16.4092L72.8149 16.4092C91.3696 16.4092 103.76 28.3721 103.76 46.4995L103.76 46.6216C103.76 64.749 91.3696 76.7119 72.8149 76.7119L55.8472 76.7119L55.8472 104.483ZM113.525 104.483L131.348 104.483L131.348 67.0073C131.348 58.4624 136.414 52.481 144.287 52.481C152.405 52.481 156.921 57.9131 156.921 67.0684L156.921 104.483L174.744 104.483L174.744 63.4062C174.744 47.5981 165.955 37.7104 151.794 37.7104C141.968 37.7104 135.071 42.2271 131.714 50.3447L131.348 50.3447L131.348 16.4092L113.525 16.4092L113.525 104.483ZM446.35 104.483L464.6 104.483L464.6 16.4092L446.289 16.4092L423.523 32.2173L423.523 48.5747L445.984 33.3159L446.35 33.3159L446.35 104.483ZM85.083 46.5605C85.083 36.5508 78.8574 30.9966 68.2983 30.9966L55.8472 30.9966L55.8472 62.3076L68.2983 62.3076C78.8574 62.3076 85.083 56.6924 85.083 46.6826L85.083 46.5605ZM248.596 71.7681C248.596 93.1304 235.962 105.826 216.187 105.826C196.289 105.826 183.777 93.0693 183.777 71.7681L183.777 71.646C183.777 50.5889 196.594 37.7104 216.125 37.7104C235.718 37.7104 248.596 50.4668 248.596 71.646L248.596 71.7681ZM257.751 104.483L275.574 104.483L275.574 66.8853C275.574 58.3403 280.64 52.481 288.635 52.481C296.631 52.481 300.659 57.3638 300.659 65.9087L300.659 104.483L318.481 104.483L318.481 62.2466C318.481 46.9268 310.303 37.7104 295.898 37.7104C286.011 37.7104 279.297 42.2881 275.94 49.7954L275.574 49.7954L275.574 39.0532L257.751 39.0532L257.751 104.483ZM389.282 85.1348C387.268 94.7783 378.235 105.826 359.558 105.826C339.539 105.826 327.393 92.8252 327.393 71.8901L327.393 71.8291C327.393 51.0161 339.661 37.7104 358.826 37.7104C377.991 37.7104 390.015 50.7109 390.015 70.4863L390.015 75.9795L344.971 75.9795C345.154 86.4165 350.83 92.52 359.924 92.52C367.249 92.52 371.704 88.4917 372.986 84.8296L373.108 84.4634L389.465 84.4634L389.282 85.1348ZM23.9868 39.0532L23.9868 104.483L6.16455 104.483L6.16455 39.0532L23.9868 39.0532ZM372.925 64.749C371.826 55.7158 366.516 51.0161 359.131 51.0161C351.807 51.0161 346.313 55.8989 345.154 64.749L372.925 64.749ZM201.904 71.7681C201.904 84.5854 207.458 91.8486 216.248 91.8486C224.915 91.8486 230.469 84.5244 230.469 71.7681L230.469 71.646C230.469 59.0117 224.792 51.6875 216.125 51.6875C207.52 51.6875 201.904 59.0117 201.904 71.646L201.904 71.7681Z" />
    </g>
  </g>
  <g id="Your-new-superpower." transform="translate(168 133.00003)">
    <path d="M12.6035 34.4111L9.43945 34.4111L9.43945 23.4951L0.439453 9.0459L4.04297 9.0459L10.9688 20.4365L11.0742 20.4365L18 9.0459L21.6035 9.0459L12.6035 23.4951L12.6035 34.4111ZM40.0605 25.2705C40.0605 31.1064 36.6504 34.7627 31.6055 34.7627C26.5254 34.7627 23.1328 31.0889 23.1328 25.2705L23.1328 25.2354C23.1328 19.417 26.543 15.7783 31.5879 15.7783C36.6328 15.7783 40.0605 19.3994 40.0605 25.2354L40.0605 25.2705ZM65.1621 34.4111L62.1035 34.4111L62.1035 16.1299L65.1621 16.1299L65.1621 19.2236L65.2324 19.2236C65.8477 17.1143 67.4297 15.7783 69.4863 15.7783C70.0137 15.7783 70.4707 15.8662 70.7168 15.9014L70.7168 18.8721C70.4707 18.7842 69.8203 18.6963 69.082 18.6963C66.709 18.6963 65.1621 20.3486 65.1621 23.126L65.1621 34.4111ZM80.5781 34.4111L83.6367 34.4111L83.6367 23.6533C83.6367 20.542 85.5176 18.4854 88.4004 18.4854C91.2129 18.4854 92.6016 20.1201 92.6016 23.0908L92.6016 34.4111L95.6602 34.4111L95.6602 22.5459C95.6602 18.3799 93.3398 15.7783 89.332 15.7783C86.5547 15.7783 84.6914 17.0264 83.707 18.7314L83.6367 18.7314L83.6367 16.1299L80.5781 16.1299L80.5781 34.4111ZM114.645 29.3486C114.047 32.3721 111.059 34.7627 107.068 34.7627C101.812 34.7627 98.6484 31.0889 98.6484 25.3408L98.6484 25.3232C98.6484 19.6631 101.883 15.7783 106.875 15.7783C111.867 15.7783 114.908 19.4873 114.908 24.9717L114.908 26.0967L101.742 26.0967C101.812 29.8584 103.887 32.0557 107.139 32.0557C109.459 32.0557 111.094 30.8955 111.621 29.3311L111.674 29.1729L114.68 29.1729L114.645 29.3486ZM164.707 29.3135C164.707 32.5127 161.684 34.7627 157.605 34.7627C153.299 34.7627 150.697 32.5654 150.328 29.2959L150.311 29.1377L153.369 29.1377L153.404 29.3135C153.773 31.1416 155.127 32.2139 157.623 32.2139C160.102 32.2139 161.578 31.1768 161.578 29.5244L161.578 29.5068C161.578 28.1885 160.893 27.4502 158.818 26.9404L155.918 26.2373C152.473 25.4111 150.803 23.8115 150.803 21.1748L150.803 21.1572C150.803 18.0107 153.562 15.7783 157.518 15.7783C161.525 15.7783 164.074 18.1162 164.303 21.1748L164.32 21.4033L161.402 21.4033L161.385 21.2803C161.139 19.5049 159.785 18.3271 157.518 18.3271C155.303 18.3271 153.932 19.3994 153.932 21.0166L153.932 21.0342C153.932 22.2822 154.758 23.1436 156.779 23.6357L159.68 24.3389C163.371 25.2354 164.707 26.6943 164.707 29.2959L164.707 29.3135ZM189.896 40.5635L186.838 40.5635L186.838 16.1299L189.896 16.1299L189.896 19.2236L189.967 19.2236C191.109 17.0967 193.148 15.7783 195.768 15.7783C200.443 15.7783 203.537 19.5049 203.537 25.2705L203.537 25.2881C203.537 31.0537 200.408 34.7627 195.82 34.7627C193.236 34.7627 191.109 33.4619 189.967 31.3525L189.896 31.3525L189.896 40.5635ZM214.137 34.7627C218.127 34.7627 221.115 32.3721 221.713 29.3486L221.748 29.1729L218.742 29.1729L218.689 29.3311C218.162 30.8955 216.527 32.0557 214.207 32.0557C210.955 32.0557 208.881 29.8584 208.811 26.0967L221.977 26.0967L221.977 24.9717C221.977 19.4873 218.936 15.7783 213.943 15.7783C208.951 15.7783 205.717 19.6631 205.717 25.3232L205.717 25.3408C205.717 31.0889 208.881 34.7627 214.137 34.7627ZM228.111 34.4111L225.053 34.4111L225.053 16.1299L228.111 16.1299L228.111 19.2236L228.182 19.2236C228.797 17.1143 230.379 15.7783 232.436 15.7783C232.963 15.7783 233.42 15.8662 233.666 15.9014L233.666 18.8721C233.42 18.7842 232.77 18.6963 232.031 18.6963C229.658 18.6963 228.111 20.3486 228.111 23.126L228.111 34.4111ZM236.145 40.5635L239.203 40.5635L239.203 31.3525L239.273 31.3525C240.416 33.4619 242.543 34.7627 245.127 34.7627C249.715 34.7627 252.844 31.0537 252.844 25.2881L252.844 25.2705C252.844 19.5049 249.75 15.7783 245.074 15.7783C242.455 15.7783 240.416 17.0967 239.273 19.2236L239.203 19.2236L239.203 16.1299L236.145 16.1299L236.145 40.5635ZM271.951 25.2705C271.951 31.1064 268.541 34.7627 263.496 34.7627C258.416 34.7627 255.023 31.0889 255.023 25.2705L255.023 25.2354C255.023 19.417 258.434 15.7783 263.479 15.7783C268.523 15.7783 271.951 19.3994 271.951 25.2354L271.951 25.2705ZM315.879 29.3486C315.281 32.3721 312.293 34.7627 308.303 34.7627C303.047 34.7627 299.883 31.0889 299.883 25.3408L299.883 25.3232C299.883 19.6631 303.117 15.7783 308.109 15.7783C313.102 15.7783 316.143 19.4873 316.143 24.9717L316.143 26.0967L302.977 26.0967C303.047 29.8584 305.121 32.0557 308.373 32.0557C310.693 32.0557 312.328 30.8955 312.855 29.3311L312.908 29.1729L315.914 29.1729L315.879 29.3486ZM319.219 34.4111L322.277 34.4111L322.277 23.126C322.277 20.3486 323.824 18.6963 326.197 18.6963C326.936 18.6963 327.586 18.7842 327.832 18.8721L327.832 15.9014C327.586 15.8662 327.129 15.7783 326.602 15.7783C324.545 15.7783 322.963 17.1143 322.348 19.2236L322.277 19.2236L322.277 16.1299L319.219 16.1299L319.219 34.4111ZM49.377 34.7627C52.1543 34.7627 54.0176 33.5146 55.002 31.8096L55.0723 31.8096L55.0723 34.4111L58.1309 34.4111L58.1309 16.1299L55.0723 16.1299L55.0723 26.8877C55.0723 29.999 53.1914 32.0557 50.3086 32.0557C47.4961 32.0557 46.1074 30.4209 46.1074 27.4502L46.1074 16.1299L43.0488 16.1299L43.0488 27.9951C43.0488 32.1611 45.3691 34.7627 49.377 34.7627ZM121.605 34.4111L124.717 34.4111L128.83 20.2607L128.9 20.2607L133.031 34.4111L136.143 34.4111L141.24 16.1299L138.217 16.1299L134.561 31.001L134.49 31.001L130.342 16.1299L127.389 16.1299L123.258 31.001L123.188 31.001L119.531 16.1299L116.49 16.1299L121.605 34.4111ZM174.111 34.7627C176.889 34.7627 178.752 33.5146 179.736 31.8096L179.807 31.8096L179.807 34.4111L182.865 34.4111L182.865 16.1299L179.807 16.1299L179.807 26.8877C179.807 29.999 177.926 32.0557 175.043 32.0557C172.23 32.0557 170.842 30.4209 170.842 27.4502L170.842 16.1299L167.783 16.1299L167.783 27.9951C167.783 32.1611 170.104 34.7627 174.111 34.7627ZM278.648 34.4111L281.76 34.4111L285.873 20.2607L285.943 20.2607L290.074 34.4111L293.186 34.4111L298.283 16.1299L295.26 16.1299L291.604 31.001L291.533 31.001L287.385 16.1299L284.432 16.1299L280.301 31.001L280.23 31.001L276.574 16.1299L273.533 16.1299L278.648 34.4111ZM26.2617 25.2705C26.2617 29.5771 28.3887 32.0557 31.623 32.0557C34.8398 32.0557 36.9316 29.5596 36.9316 25.2705L36.9316 25.2354C36.9316 20.9463 34.8223 18.4854 31.5879 18.4854C28.4062 18.4854 26.2617 20.9639 26.2617 25.2354L26.2617 25.2705ZM111.797 23.7061C111.498 20.1553 109.529 18.4854 106.857 18.4854C104.203 18.4854 102.129 20.2959 101.795 23.7061L111.797 23.7061ZM189.879 25.2881C189.879 29.3662 192.094 32.0557 195.17 32.0557C198.404 32.0557 200.408 29.4541 200.408 25.2881L200.408 25.2705C200.408 21.0693 198.404 18.4854 195.17 18.4854C192.076 18.4854 189.879 21.1748 189.879 25.2705L189.879 25.2881ZM213.926 18.4854C216.598 18.4854 218.566 20.1553 218.865 23.7061L208.863 23.7061C209.197 20.2959 211.271 18.4854 213.926 18.4854ZM244.477 32.0557C241.4 32.0557 239.186 29.3662 239.186 25.2881L239.186 25.2705C239.186 21.1748 241.383 18.4854 244.477 18.4854C247.711 18.4854 249.715 21.0693 249.715 25.2705L249.715 25.2881C249.715 29.4541 247.711 32.0557 244.477 32.0557ZM258.152 25.2705C258.152 29.5771 260.279 32.0557 263.514 32.0557C266.73 32.0557 268.822 29.5596 268.822 25.2705L268.822 25.2354C268.822 20.9463 266.713 18.4854 263.479 18.4854C260.297 18.4854 258.152 20.9639 258.152 25.2354L258.152 25.2705ZM313.031 23.7061C312.732 20.1553 310.764 18.4854 308.092 18.4854C305.438 18.4854 303.363 20.2959 303.029 23.7061L313.031 23.7061ZM334.195 32.6533C334.195 33.7783 333.316 34.6572 332.191 34.6572C331.066 34.6572 330.188 33.7783 330.188 32.6533C330.188 31.5283 331.066 30.6494 332.191 30.6494C333.316 30.6494 334.195 31.5283 334.195 32.6533Z" />
  </g>
</svg>