<?xml version="1.0" encoding="utf-8"?>
<svg width="872px" height="177px" viewBox="0 0 872 177" version="1.1" xmlns:xlink="http://www.w3.org/1999/xlink" xmlns="http://www.w3.org/2000/svg">
  <defs>
    <path d="M0 0L100 0L100 119.394L0 119.394L0 0Z" id="path_1" />
    <clipPath id="mask_1">
      <use xlink:href="#path_1" />
    </clipPath>
  </defs>
  <g id="Group">
    <g id="apple-13">
      <path d="M0 0L100 0L100 119.394L0 119.394L0 0Z" id="Background" fill="none" fill-rule="evenodd" stroke="none" />
      <g clip-path="url(#mask_1)">
        <path d="M83.6079 62.8853C83.5547 53.135 87.9649 45.7758 96.8916 40.356C91.8969 33.2094 84.3518 29.2774 74.389 28.5069C64.9575 27.763 54.6493 34.0064 50.8767 34.0064C46.8916 34.0064 37.7524 28.7726 30.5792 28.7726C15.7545 29.0117 0 40.5951 0 64.1605C0 71.1212 1.27524 78.3122 3.82572 85.7334C7.22636 95.4836 19.5005 119.394 32.3061 118.996C39.0011 118.836 43.7301 114.24 52.4442 114.24C60.8927 114.24 65.2763 118.996 72.7418 118.996C85.6536 118.81 96.7588 97.0777 100 87.3008C82.678 79.1446 83.6079 63.3901 83.6079 62.8853L83.6079 62.8853ZM68.5707 19.2614C75.8236 10.6536 75.1594 2.81615 74.9469 0C68.5441 0.371945 61.1318 4.35707 56.9075 9.27206C52.2582 14.5324 49.5218 21.0415 50.1063 28.3741C57.0404 28.9054 63.3634 25.3454 68.5707 19.2614L68.5707 19.2614Z" id="Shape" fill="#000000" fill-rule="evenodd" stroke="none" />
      </g>
    </g>
    <g id="MacBook-Pro" transform="translate(115 14.0000305)">
      <path d="M23.7427 104.483L7.32422 104.483L7.32422 16.4092L28.6255 16.4092L53.6499 79.7026L54.0161 79.7026L79.0405 16.4092L100.342 16.4092L100.342 104.483L83.9233 104.483L83.9233 44.9126L83.374 44.9126L59.6313 104.483L48.0347 104.483L24.231 44.9126L23.7427 44.9126L23.7427 104.483ZM290.527 104.483L251.526 104.483L251.526 16.4092L289.856 16.4092C306.458 16.4092 316.895 24.9541 316.895 38.5039L316.895 38.626C316.895 48.2695 309.57 56.5093 299.866 57.791L299.866 58.1572C312.134 59.0728 320.984 67.7397 320.984 79.2754L320.984 79.3975C320.984 94.8394 309.326 104.483 290.527 104.483ZM473.755 104.483L491.577 104.483L491.577 82.8154L496.155 77.7495L514.893 104.483L535.461 104.483L509.521 67.1904L534.241 39.0532L514.038 39.0532L491.943 65.2373L491.577 65.2373L491.577 16.4092L473.755 16.4092L473.755 104.483ZM585.083 104.483L566.65 104.483L566.65 16.4092L602.051 16.4092C620.605 16.4092 632.996 28.3721 632.996 46.4995L632.996 46.6216C632.996 64.749 620.605 76.7119 602.051 76.7119L585.083 76.7119L585.083 104.483ZM298.767 41.1284C298.767 34.1094 293.701 30.0811 285.095 30.0811L269.958 30.0811L269.958 53.2134L282.837 53.2134C293.213 53.2134 298.767 48.8799 298.767 41.2505L298.767 41.1284ZM614.319 46.5605C614.319 36.5508 608.093 30.9966 597.534 30.9966L585.083 30.9966L585.083 62.3076L597.534 62.3076C608.093 62.3076 614.319 56.6924 614.319 46.6826L614.319 46.5605ZM152.222 94.7173C148.499 101.431 141.541 105.521 132.935 105.521C119.812 105.521 110.962 97.2808 110.962 85.7451L110.962 85.623C110.962 73.7212 120.178 66.7632 136.414 65.7256L152.588 64.749L152.588 60.7207C152.588 54.9224 148.804 51.3213 141.846 51.3213C135.193 51.3213 131.165 54.4341 130.31 58.6455L130.188 59.1948L113.892 59.1948L113.953 58.4624C114.929 46.3774 125.305 37.7104 142.578 37.7104C159.485 37.7104 170.41 46.4385 170.41 59.6221L170.41 104.483L152.588 104.483L152.588 94.7173L152.222 94.7173ZM211.792 105.826C229.248 105.826 240.54 94.9614 241.394 80.6792L241.394 80.313L224.792 80.313L224.731 80.8623C223.511 87.4541 219.055 91.8486 211.914 91.8486C203.125 91.8486 197.632 84.5854 197.632 71.7681L197.632 71.707C197.632 59.1948 203.125 51.6875 211.853 51.6875C219.238 51.6875 223.572 56.4482 224.67 62.6738L224.792 63.2231L241.333 63.2231L241.333 62.7959C240.662 48.6357 229.37 37.7104 211.609 37.7104C192.017 37.7104 179.504 50.7109 179.504 71.646L179.504 71.707C179.504 92.8252 191.833 105.826 211.792 105.826ZM359.985 105.826C379.761 105.826 392.395 93.1304 392.395 71.7681L392.395 71.646C392.395 50.4668 379.517 37.7104 359.924 37.7104C340.393 37.7104 327.576 50.5889 327.576 71.646L327.576 71.7681C327.576 93.0693 340.088 105.826 359.985 105.826ZM463.989 71.7681C463.989 93.1304 451.355 105.826 431.58 105.826C411.682 105.826 399.17 93.0693 399.17 71.7681L399.17 71.646C399.17 50.5889 411.987 37.7104 431.519 37.7104C451.111 37.7104 463.989 50.4668 463.989 71.646L463.989 71.7681ZM642.334 104.483L660.156 104.483L660.156 67.8618C660.156 58.3403 665.283 53.0913 674.072 53.0913C676.636 53.0913 679.077 53.4575 680.542 54.0679L680.542 38.3818C679.199 38.0156 677.368 37.7104 675.415 37.7104C667.786 37.7104 662.476 42.4102 660.522 50.4668L660.156 50.4668L660.156 39.0532L642.334 39.0532L642.334 104.483ZM750.244 71.7681C750.244 93.1304 737.61 105.826 717.834 105.826C697.937 105.826 685.425 93.0693 685.425 71.7681L685.425 71.646C685.425 50.5889 698.242 37.7104 717.773 37.7104C737.366 37.7104 750.244 50.4668 750.244 71.646L750.244 71.7681ZM360.046 91.8486C351.257 91.8486 345.703 84.5854 345.703 71.7681L345.703 71.646C345.703 59.0117 351.318 51.6875 359.924 51.6875C368.591 51.6875 374.268 59.0117 374.268 71.646L374.268 71.7681C374.268 84.5244 368.713 91.8486 360.046 91.8486ZM417.297 71.7681C417.297 84.5854 422.852 91.8486 431.641 91.8486C440.308 91.8486 445.862 84.5244 445.862 71.7681L445.862 71.646C445.862 59.0117 440.186 51.6875 431.519 51.6875C422.913 51.6875 417.297 59.0117 417.297 71.646L417.297 71.7681ZM703.552 71.7681C703.552 84.5854 709.106 91.8486 717.896 91.8486C726.562 91.8486 732.117 84.5244 732.117 71.7681L732.117 71.646C732.117 59.0117 726.44 51.6875 717.773 51.6875C709.167 51.6875 703.552 59.0117 703.552 71.646L703.552 71.7681ZM302.185 78.1157C302.185 70.0591 296.326 65.7256 285.034 65.7256L269.958 65.7256L269.958 90.75L285.828 90.75C296.387 90.75 302.185 86.4165 302.185 78.2378L302.185 78.1157ZM128.601 84.7075L128.601 84.8296C128.601 89.6514 132.568 92.52 138.733 92.52C146.729 92.52 152.588 87.3931 152.588 80.5571L152.588 75.8574L139.099 76.7119C132.202 77.1392 128.601 80.0688 128.601 84.7075Z" />
    </g>
  </g>
  <g id="Supercharged-for-pros." transform="translate(263.5 133.4)">
    <path d="M20.127 27.4854C20.127 31.9854 16.5586 34.833 10.7578 34.833C5.27344 34.833 1.56445 32.1436 1.24805 27.8018L1.23047 27.5557L4.39453 27.5557L4.42969 27.8018C4.79883 30.3506 7.25977 31.915 10.9336 31.915C14.5898 31.915 16.8926 30.2627 16.8926 27.6436L16.8926 27.626C16.8926 25.3936 15.4336 24.1455 11.9531 23.3721L9.14062 22.7568C4.18359 21.667 1.86328 19.4346 1.86328 15.7256L1.86328 15.708C1.88086 11.542 5.57227 8.62402 10.793 8.62402C15.75 8.62402 19.3711 11.4893 19.6523 15.6377L19.6699 15.9014L16.5059 15.9014L16.4707 15.6553C16.084 13.0713 13.9219 11.542 10.7051 11.542C7.3125 11.5596 5.09766 13.1768 5.09766 15.6201L5.09766 15.6377C5.09766 17.7119 6.62695 19.0127 9.93164 19.7334L12.7441 20.3486C17.9473 21.4912 20.127 23.6006 20.127 27.4678L20.127 27.4854ZM224.719 34.4111L227.777 34.4111L227.777 18.6611L231.504 18.6611L231.504 16.1299L227.742 16.1299L227.742 13.8975C227.742 12.0869 228.586 11.2256 230.273 11.2256C230.748 11.2256 231.223 11.2432 231.592 11.2959L231.592 8.81738C231.135 8.74707 230.414 8.69434 229.729 8.69434C226.354 8.69434 224.719 10.3643 224.719 13.8799L224.719 16.1299L222.17 16.1299L222.17 18.6611L224.719 18.6611L224.719 34.4111ZM109.811 34.4111L112.869 34.4111L112.869 23.7412C112.869 20.6299 114.75 18.4854 117.58 18.4854C120.428 18.4854 122.115 20.4365 122.115 23.7412L122.115 34.4111L125.174 34.4111L125.174 23.2139C125.174 18.7842 122.52 15.7783 118.635 15.7783C115.91 15.7783 113.924 16.9912 112.939 19.0479L112.869 19.0479L112.869 9.0459L109.811 9.0459L109.811 34.4111ZM209.092 31.3174C207.949 33.4443 205.91 34.7627 203.291 34.7627C198.615 34.7627 195.521 31.0361 195.521 25.2705L195.521 25.2529C195.521 19.4873 198.65 15.7783 203.238 15.7783C205.822 15.7783 207.949 17.0791 209.092 19.1885L209.162 19.1885L209.162 9.0459L212.221 9.0459L212.221 34.4111L209.162 34.4111L209.162 31.3174L209.092 31.3174ZM42.3105 40.5635L45.3691 40.5635L45.3691 31.3525L45.4395 31.3525C46.582 33.4619 48.709 34.7627 51.293 34.7627C55.8809 34.7627 59.0098 31.0537 59.0098 25.2881L59.0098 25.2705C59.0098 19.5049 55.916 15.7783 51.2402 15.7783C48.6211 15.7783 46.582 17.0967 45.4395 19.2236L45.3691 19.2236L45.3691 16.1299L42.3105 16.1299L42.3105 40.5635ZM77.1855 29.3486C76.5879 32.3721 73.5996 34.7627 69.6094 34.7627C64.3535 34.7627 61.1895 31.0889 61.1895 25.3408L61.1895 25.3232C61.1895 19.6631 64.4238 15.7783 69.416 15.7783C74.4082 15.7783 77.4492 19.4873 77.4492 24.9717L77.4492 26.0967L64.2832 26.0967C64.3535 29.8584 66.4277 32.0557 69.6797 32.0557C72 32.0557 73.6348 30.8955 74.1621 29.3311L74.2148 29.1729L77.2207 29.1729L77.1855 29.3486ZM80.5254 34.4111L83.584 34.4111L83.584 23.126C83.584 20.3486 85.1309 18.6963 87.5039 18.6963C88.2422 18.6963 88.8926 18.7842 89.1387 18.8721L89.1387 15.9014C88.8926 15.8662 88.4355 15.7783 87.9082 15.7783C85.8516 15.7783 84.2695 17.1143 83.6543 19.2236L83.584 19.2236L83.584 16.1299L80.5254 16.1299L80.5254 34.4111ZM106.822 28.5928C106.33 32.0732 103.324 34.7627 99.1934 34.7627C94.0078 34.7627 90.7207 31.0713 90.7207 25.2529L90.7207 25.2354C90.7207 19.4697 94.0781 15.7783 99.1582 15.7783C103.711 15.7783 106.4 18.8018 106.787 21.9307L106.805 22.0713L103.816 22.0713L103.781 21.9307C103.324 20.1025 101.848 18.4854 99.1582 18.4854C95.9766 18.4854 93.8496 21.1221 93.8496 25.2705L93.8496 25.2881C93.8496 29.542 96.0293 32.0557 99.1934 32.0557C101.689 32.0557 103.289 30.6494 103.799 28.6104L103.834 28.4697L106.84 28.4697L106.822 28.5928ZM140.115 31.4404C139.043 33.4443 136.846 34.7627 134.402 34.7627C130.764 34.7627 128.32 32.5654 128.32 29.2432L128.32 29.208C128.32 26.0967 130.746 24.1455 134.947 23.8994L140.186 23.6006L140.186 22.0713C140.186 19.8389 138.727 18.4854 136.178 18.4854C133.822 18.4854 132.346 19.6104 131.994 21.2451L131.959 21.4033L129.006 21.4033L129.023 21.21C129.287 18.2041 131.906 15.7783 136.213 15.7783C140.537 15.7783 143.244 18.1162 143.244 21.7725L143.244 34.4111L140.186 34.4111L140.186 31.4404L140.115 31.4404ZM147.129 34.4111L150.188 34.4111L150.188 23.126C150.188 20.3486 151.734 18.6963 154.107 18.6963C154.846 18.6963 155.496 18.7842 155.742 18.8721L155.742 15.9014C155.496 15.8662 155.039 15.7783 154.512 15.7783C152.455 15.7783 150.873 17.1143 150.258 19.2236L150.188 19.2236L150.188 16.1299L147.129 16.1299L147.129 34.4111ZM174.023 33.9014C174.023 38.1377 170.912 40.915 165.955 40.915C161.438 40.915 158.59 38.7881 157.992 36.0811L157.957 35.9229L161.033 35.9229L161.104 36.0811C161.684 37.3994 163.424 38.208 165.92 38.208C169.137 38.208 170.965 36.4326 170.965 33.6025L170.965 31.2646L170.895 31.2646C169.805 33.2861 167.695 34.5869 165.076 34.5869C160.471 34.5869 157.324 30.8779 157.324 25.165L157.324 25.1475C157.324 19.4697 160.506 15.7783 165.146 15.7783C167.73 15.7783 169.77 17.1846 170.895 19.2236L170.965 19.2236L170.965 16.1299L174.023 16.1299L174.023 33.9014ZM185.502 34.7627C189.492 34.7627 192.48 32.3721 193.078 29.3486L193.113 29.1729L190.107 29.1729L190.055 29.3311C189.527 30.8955 187.893 32.0557 185.572 32.0557C182.32 32.0557 180.246 29.8584 180.176 26.0967L193.342 26.0967L193.342 24.9717C193.342 19.4873 190.301 15.7783 185.309 15.7783C180.316 15.7783 177.082 19.6631 177.082 25.3232L177.082 25.3408C177.082 31.0889 180.246 34.7627 185.502 34.7627ZM250.699 25.2705C250.699 31.1064 247.289 34.7627 242.244 34.7627C237.164 34.7627 233.771 31.0889 233.771 25.2705L233.771 25.2354C233.771 19.417 237.182 15.7783 242.227 15.7783C247.271 15.7783 250.699 19.3994 250.699 25.2354L250.699 25.2705ZM253.775 34.4111L256.834 34.4111L256.834 23.126C256.834 20.3486 258.381 18.6963 260.754 18.6963C261.492 18.6963 262.143 18.7842 262.389 18.8721L262.389 15.9014C262.143 15.8662 261.686 15.7783 261.158 15.7783C259.102 15.7783 257.52 17.1143 256.904 19.2236L256.834 19.2236L256.834 16.1299L253.775 16.1299L253.775 34.4111ZM275.309 40.5635L272.25 40.5635L272.25 16.1299L275.309 16.1299L275.309 19.2236L275.379 19.2236C276.521 17.0967 278.561 15.7783 281.18 15.7783C285.855 15.7783 288.949 19.5049 288.949 25.2705L288.949 25.2881C288.949 31.0537 285.82 34.7627 281.232 34.7627C278.648 34.7627 276.521 33.4619 275.379 31.3525L275.309 31.3525L275.309 40.5635ZM292.025 34.4111L295.084 34.4111L295.084 23.126C295.084 20.3486 296.631 18.6963 299.004 18.6963C299.742 18.6963 300.393 18.7842 300.639 18.8721L300.639 15.9014C300.393 15.8662 299.936 15.7783 299.408 15.7783C297.352 15.7783 295.77 17.1143 295.154 19.2236L295.084 19.2236L295.084 16.1299L292.025 16.1299L292.025 34.4111ZM319.148 25.2705C319.148 31.1064 315.738 34.7627 310.693 34.7627C305.613 34.7627 302.221 31.0889 302.221 25.2705L302.221 25.2354C302.221 19.417 305.631 15.7783 310.676 15.7783C315.721 15.7783 319.148 19.3994 319.148 25.2354L319.148 25.2705ZM328.711 34.7627C332.789 34.7627 335.812 32.5127 335.812 29.3135L335.812 29.2959C335.812 26.6943 334.477 25.2354 330.785 24.3389L327.885 23.6357C325.863 23.1436 325.037 22.2822 325.037 21.0342L325.037 21.0166C325.037 19.3994 326.408 18.3271 328.623 18.3271C330.891 18.3271 332.244 19.5049 332.49 21.2803L332.508 21.4033L335.426 21.4033L335.408 21.1748C335.18 18.1162 332.631 15.7783 328.623 15.7783C324.668 15.7783 321.908 18.0107 321.908 21.1572L321.908 21.1748C321.908 23.8115 323.578 25.4111 327.023 26.2373L329.924 26.9404C331.998 27.4502 332.684 28.1885 332.684 29.5068L332.684 29.5244C332.684 31.1768 331.207 32.2139 328.729 32.2139C326.232 32.2139 324.879 31.1416 324.51 29.3135L324.475 29.1377L321.416 29.1377L321.434 29.2959C321.803 32.5654 324.404 34.7627 328.711 34.7627ZM35.209 31.8096C34.2246 33.5146 32.3613 34.7627 29.584 34.7627C25.5762 34.7627 23.2559 32.1611 23.2559 27.9951L23.2559 16.1299L26.3145 16.1299L26.3145 27.4502C26.3145 30.4209 27.7031 32.0557 30.5156 32.0557C33.3984 32.0557 35.2793 29.999 35.2793 26.8877L35.2793 16.1299L38.3379 16.1299L38.3379 34.4111L35.2793 34.4111L35.2793 31.8096L35.209 31.8096ZM50.6426 32.0557C47.5664 32.0557 45.3516 29.3662 45.3516 25.2881L45.3516 25.2705C45.3516 21.1748 47.5488 18.4854 50.6426 18.4854C53.877 18.4854 55.8809 21.0693 55.8809 25.2705L55.8809 25.2881C55.8809 29.4541 53.877 32.0557 50.6426 32.0557ZM74.3379 23.7061C74.0391 20.1553 72.0703 18.4854 69.3984 18.4854C66.7441 18.4854 64.6699 20.2959 64.3359 23.7061L74.3379 23.7061ZM160.453 25.165C160.453 29.3135 162.492 31.8799 165.744 31.8799C168.855 31.8799 170.965 29.2256 170.965 25.165L170.965 25.1475C170.965 21.1221 168.838 18.4854 165.744 18.4854C162.492 18.4854 160.453 21.0869 160.453 25.1475L160.453 25.165ZM185.291 18.4854C187.963 18.4854 189.932 20.1553 190.23 23.7061L180.229 23.7061C180.562 20.2959 182.637 18.4854 185.291 18.4854ZM198.65 25.2705C198.65 29.4717 200.654 32.0557 203.889 32.0557C206.982 32.0557 209.18 29.3662 209.18 25.2705L209.18 25.2529C209.18 21.1748 206.965 18.4854 203.889 18.4854C200.654 18.4854 198.65 21.0869 198.65 25.2529L198.65 25.2705ZM236.9 25.2705C236.9 29.5771 239.027 32.0557 242.262 32.0557C245.479 32.0557 247.57 29.5596 247.57 25.2705L247.57 25.2354C247.57 20.9463 245.461 18.4854 242.227 18.4854C239.045 18.4854 236.9 20.9639 236.9 25.2354L236.9 25.2705ZM275.291 25.2881C275.291 29.3662 277.506 32.0557 280.582 32.0557C283.816 32.0557 285.82 29.4541 285.82 25.2881L285.82 25.2705C285.82 21.0693 283.816 18.4854 280.582 18.4854C277.488 18.4854 275.291 21.1748 275.291 25.2705L275.291 25.2881ZM305.35 25.2705C305.35 29.5771 307.477 32.0557 310.711 32.0557C313.928 32.0557 316.02 29.5596 316.02 25.2705L316.02 25.2354C316.02 20.9463 313.91 18.4854 310.676 18.4854C307.494 18.4854 305.35 20.9639 305.35 25.2354L305.35 25.2705ZM131.449 29.208L131.449 29.2432C131.449 31.001 132.891 32.1084 135.088 32.1084C137.971 32.1084 140.186 30.1221 140.186 27.4678L140.186 25.9736L135.299 26.2725C132.855 26.4131 131.449 27.5029 131.449 29.208ZM342.861 32.6533C342.861 33.7783 341.982 34.6572 340.857 34.6572C339.732 34.6572 338.854 33.7783 338.854 32.6533C338.854 31.5283 339.732 30.6494 340.857 30.6494C341.982 30.6494 342.861 31.5283 342.861 32.6533Z" />
  </g>
</svg>