<?xml version="1.0" encoding="utf-8"?>
<svg width="462px" height="177px" viewBox="0 0 462 177" version="1.1" xmlns:xlink="http://www.w3.org/1999/xlink" xmlns="http://www.w3.org/2000/svg">
  <defs>
    <path d="M0 0L100 0L100 119.394L0 119.394L0 0Z" id="path_1" />
    <clipPath id="mask_1">
      <use xlink:href="#path_1" />
    </clipPath>
  </defs>
  <g id="Group">
    <g id="apple-13">
      <path d="M0 0L100 0L100 119.394L0 119.394L0 0Z" id="Background" fill="none" fill-rule="evenodd" stroke="none" />
      <g clip-path="url(#mask_1)">
        <path d="M83.6079 62.8853C83.5547 53.135 87.9649 45.7758 96.8916 40.356C91.8969 33.2094 84.3518 29.2774 74.389 28.5069C64.9575 27.763 54.6493 34.0064 50.8767 34.0064C46.8916 34.0064 37.7524 28.7726 30.5792 28.7726C15.7545 29.0117 0 40.5951 0 64.1605C0 71.1212 1.27524 78.3122 3.82572 85.7334C7.22636 95.4836 19.5005 119.394 32.3061 118.996C39.0011 118.836 43.7301 114.24 52.4442 114.24C60.8927 114.24 65.2763 118.996 72.7418 118.996C85.6536 118.81 96.7588 97.0777 100 87.3008C82.678 79.1446 83.6079 63.3901 83.6079 62.8853L83.6079 62.8853ZM68.5707 19.2614C75.8236 10.6536 75.1594 2.81615 74.9469 0C68.5441 0.371945 61.1318 4.35707 56.9075 9.27206C52.2582 14.5324 49.5218 21.0415 50.1063 28.3741C57.0404 28.9054 63.3634 25.3454 68.5707 19.2614L68.5707 19.2614Z" id="Shape" fill="#000000" fill-rule="evenodd" stroke="none" />
      </g>
    </g>
    <g id="Music" transform="translate(115 14.0000305)">
      <path d="M259.094 30.6304C264.465 30.6304 268.616 26.4189 268.616 21.353C268.616 16.2871 264.465 12.0757 259.094 12.0757C253.723 12.0757 249.573 16.2871 249.573 21.353C249.573 26.4189 253.723 30.6304 259.094 30.6304ZM7.32422 104.483L23.7427 104.483L23.7427 44.9126L24.231 44.9126L48.0347 104.483L59.6313 104.483L83.374 44.9126L83.9233 44.9126L83.9233 104.483L100.342 104.483L100.342 16.4092L79.0405 16.4092L54.0161 79.7026L53.6499 79.7026L28.6255 16.4092L7.32422 16.4092L7.32422 104.483ZM241.028 84.5854C241.028 97.4028 229.248 105.826 212.402 105.826C194.275 105.826 184.204 97.4639 182.8 85.0737L182.739 84.5244L200.134 84.5244L200.256 85.0737C201.416 90.2007 205.261 93.1914 212.402 93.1914C219.116 93.1914 223.206 90.5669 223.206 86.3555L223.206 86.2944C223.206 82.8154 221.008 80.8013 214.6 79.3975L203.491 77.0781C190.796 74.3926 184.387 68.0449 184.387 58.2793L184.387 58.2183C184.387 45.7671 195.129 37.7104 211.792 37.7104C229.187 37.7104 238.892 46.9268 239.319 58.4014L239.319 59.0117L222.9 59.0117L222.839 58.5234C222.229 53.8237 218.384 50.2837 211.792 50.2837C205.627 50.2837 201.782 53.0303 201.782 57.2417L201.782 57.3027C201.782 60.6597 204.041 62.8569 210.632 64.2607L221.741 66.6411C235.413 69.5098 241.028 74.8809 241.028 84.5244L241.028 84.5854ZM339.417 80.6792C338.562 94.9614 327.271 105.826 309.814 105.826C289.856 105.826 277.527 92.8252 277.527 71.707L277.527 71.646C277.527 50.7109 290.039 37.7104 309.631 37.7104C327.393 37.7104 338.684 48.6357 339.355 62.7959L339.355 63.2231L322.815 63.2231L322.693 62.6738C321.594 56.4482 317.261 51.6875 309.875 51.6875C301.147 51.6875 295.654 59.1948 295.654 71.707L295.654 71.7681C295.654 84.5854 301.147 91.8486 309.937 91.8486C317.078 91.8486 321.533 87.4541 322.754 80.8623L322.815 80.313L339.417 80.313L339.417 80.6792ZM135.742 105.826C145.63 105.826 152.344 101.187 155.701 93.6797L156.067 93.6797L156.067 104.483L173.889 104.483L173.889 39.0532L156.067 39.0532L156.067 76.6509C156.067 85.1958 151.001 91.0552 143.005 91.0552C135.01 91.0552 130.981 86.1113 130.981 77.5664L130.981 39.0532L113.159 39.0532L113.159 81.2896C113.159 96.6094 121.338 105.826 135.742 105.826ZM268.005 104.483L268.005 39.0532L250.183 39.0532L250.183 104.483L268.005 104.483Z" />
    </g>
  </g>
  <g id="Hear-sound-all-around." transform="translate(63.5 133.00003)">
    <path d="M2.46094 34.4111L5.625 34.4111L5.625 22.8623L19.5469 22.8623L19.5469 34.4111L22.7109 34.4111L22.7109 9.0459L19.5469 9.0459L19.5469 20.0146L5.625 20.0146L5.625 9.0459L2.46094 9.0459L2.46094 34.4111ZM168.609 31.3174C167.467 33.4443 165.428 34.7627 162.809 34.7627C158.133 34.7627 155.039 31.0361 155.039 25.2705L155.039 25.2529C155.039 19.4873 158.168 15.7783 162.756 15.7783C165.34 15.7783 167.467 17.0791 168.609 19.1885L168.68 19.1885L168.68 9.0459L171.738 9.0459L171.738 34.4111L168.68 34.4111L168.68 31.3174L168.609 31.3174ZM204.539 34.4111L201.48 34.4111L201.48 9.0459L204.539 9.0459L204.539 34.4111ZM208.828 34.4111L211.887 34.4111L211.887 9.0459L208.828 9.0459L208.828 34.4111ZM316.477 34.7627C319.096 34.7627 321.135 33.4443 322.277 31.3174L322.348 31.3174L322.348 34.4111L325.406 34.4111L325.406 9.0459L322.348 9.0459L322.348 19.1885L322.277 19.1885C321.135 17.0791 319.008 15.7783 316.424 15.7783C311.836 15.7783 308.707 19.4873 308.707 25.2529L308.707 25.2705C308.707 31.0361 311.801 34.7627 316.477 34.7627ZM34.6816 34.7627C38.6719 34.7627 41.6602 32.3721 42.2578 29.3486L42.293 29.1729L39.2871 29.1729L39.2344 29.3311C38.707 30.8955 37.0723 32.0557 34.752 32.0557C31.5 32.0557 29.4258 29.8584 29.3555 26.0967L42.5215 26.0967L42.5215 24.9717C42.5215 19.4873 39.4805 15.7783 34.4883 15.7783C29.4961 15.7783 26.2617 19.6631 26.2617 25.3232L26.2617 25.3408C26.2617 31.0889 29.4258 34.7627 34.6816 34.7627ZM56.6543 31.4404C55.582 33.4443 53.3848 34.7627 50.9414 34.7627C47.3027 34.7627 44.8594 32.5654 44.8594 29.2432L44.8594 29.208C44.8594 26.0967 47.2852 24.1455 51.4863 23.8994L56.7246 23.6006L56.7246 22.0713C56.7246 19.8389 55.2656 18.4854 52.7168 18.4854C50.3613 18.4854 48.8848 19.6104 48.5332 21.2451L48.498 21.4033L45.5449 21.4033L45.5625 21.21C45.8262 18.2041 48.4453 15.7783 52.752 15.7783C57.0762 15.7783 59.7832 18.1162 59.7832 21.7725L59.7832 34.4111L56.7246 34.4111L56.7246 31.4404L56.6543 31.4404ZM63.668 34.4111L66.7266 34.4111L66.7266 23.126C66.7266 20.3486 68.2734 18.6963 70.6465 18.6963C71.3848 18.6963 72.0352 18.7842 72.2812 18.8721L72.2812 15.9014C72.0352 15.8662 71.5781 15.7783 71.0508 15.7783C68.9941 15.7783 67.4121 17.1143 66.7969 19.2236L66.7266 19.2236L66.7266 16.1299L63.668 16.1299L63.668 34.4111ZM95.7305 29.3135C95.7305 32.5127 92.707 34.7627 88.6289 34.7627C84.3223 34.7627 81.7207 32.5654 81.3516 29.2959L81.334 29.1377L84.3926 29.1377L84.4277 29.3135C84.7969 31.1416 86.1504 32.2139 88.6465 32.2139C91.125 32.2139 92.6016 31.1768 92.6016 29.5244L92.6016 29.5068C92.6016 28.1885 91.916 27.4502 89.8418 26.9404L86.9414 26.2373C83.4961 25.4111 81.8262 23.8115 81.8262 21.1748L81.8262 21.1572C81.8262 18.0107 84.5859 15.7783 88.541 15.7783C92.5488 15.7783 95.0977 18.1162 95.3262 21.1748L95.3438 21.4033L92.4258 21.4033L92.4082 21.2803C92.1621 19.5049 90.8086 18.3271 88.541 18.3271C86.3262 18.3271 84.9551 19.3994 84.9551 21.0166L84.9551 21.0342C84.9551 22.2822 85.7812 23.1436 87.8027 23.6357L90.7031 24.3389C94.3945 25.2354 95.7305 26.6943 95.7305 29.2959L95.7305 29.3135ZM106.471 34.7627C111.516 34.7627 114.926 31.1064 114.926 25.2705L114.926 25.2354C114.926 19.3994 111.498 15.7783 106.453 15.7783C101.408 15.7783 97.998 19.417 97.998 25.2354L97.998 25.2705C97.998 31.0889 101.391 34.7627 106.471 34.7627ZM136.969 34.4111L140.027 34.4111L140.027 23.6533C140.027 20.542 141.908 18.4854 144.791 18.4854C147.604 18.4854 148.992 20.1201 148.992 23.0908L148.992 34.4111L152.051 34.4111L152.051 22.5459C152.051 18.3799 149.73 15.7783 145.723 15.7783C142.945 15.7783 141.082 17.0264 140.098 18.7314L140.027 18.7314L140.027 16.1299L136.969 16.1299L136.969 34.4111ZM188.596 34.7627C191.039 34.7627 193.236 33.4443 194.309 31.4404L194.379 31.4404L194.379 34.4111L197.438 34.4111L197.438 21.7725C197.438 18.1162 194.73 15.7783 190.406 15.7783C186.1 15.7783 183.48 18.2041 183.217 21.21L183.199 21.4033L186.152 21.4033L186.188 21.2451C186.539 19.6104 188.016 18.4854 190.371 18.4854C192.92 18.4854 194.379 19.8389 194.379 22.0713L194.379 23.6006L189.141 23.8994C184.939 24.1455 182.514 26.0967 182.514 29.208L182.514 29.2432C182.514 32.5654 184.957 34.7627 188.596 34.7627ZM234.457 31.4404C233.385 33.4443 231.188 34.7627 228.744 34.7627C225.105 34.7627 222.662 32.5654 222.662 29.2432L222.662 29.208C222.662 26.0967 225.088 24.1455 229.289 23.8994L234.527 23.6006L234.527 22.0713C234.527 19.8389 233.068 18.4854 230.52 18.4854C228.164 18.4854 226.688 19.6104 226.336 21.2451L226.301 21.4033L223.348 21.4033L223.365 21.21C223.629 18.2041 226.248 15.7783 230.555 15.7783C234.879 15.7783 237.586 18.1162 237.586 21.7725L237.586 34.4111L234.527 34.4111L234.527 31.4404L234.457 31.4404ZM241.471 34.4111L244.529 34.4111L244.529 23.126C244.529 20.3486 246.076 18.6963 248.449 18.6963C249.188 18.6963 249.838 18.7842 250.084 18.8721L250.084 15.9014C249.838 15.8662 249.381 15.7783 248.854 15.7783C246.797 15.7783 245.215 17.1143 244.6 19.2236L244.529 19.2236L244.529 16.1299L241.471 16.1299L241.471 34.4111ZM268.594 25.2705C268.594 31.1064 265.184 34.7627 260.139 34.7627C255.059 34.7627 251.666 31.0889 251.666 25.2705L251.666 25.2354C251.666 19.417 255.076 15.7783 260.121 15.7783C265.166 15.7783 268.594 19.3994 268.594 25.2354L268.594 25.2705ZM293.695 34.4111L290.637 34.4111L290.637 16.1299L293.695 16.1299L293.695 18.7314L293.766 18.7314C294.75 17.0264 296.613 15.7783 299.391 15.7783C303.398 15.7783 305.719 18.3799 305.719 22.5459L305.719 34.4111L302.66 34.4111L302.66 23.0908C302.66 20.1201 301.271 18.4854 298.459 18.4854C295.576 18.4854 293.695 20.542 293.695 23.6533L293.695 34.4111ZM129.867 31.8096C128.883 33.5146 127.02 34.7627 124.242 34.7627C120.234 34.7627 117.914 32.1611 117.914 27.9951L117.914 16.1299L120.973 16.1299L120.973 27.4502C120.973 30.4209 122.361 32.0557 125.174 32.0557C128.057 32.0557 129.938 29.999 129.938 26.8877L129.938 16.1299L132.996 16.1299L132.996 34.4111L129.938 34.4111L129.938 31.8096L129.867 31.8096ZM277.91 34.7627C280.688 34.7627 282.551 33.5146 283.535 31.8096L283.605 31.8096L283.605 34.4111L286.664 34.4111L286.664 16.1299L283.605 16.1299L283.605 26.8877C283.605 29.999 281.725 32.0557 278.842 32.0557C276.029 32.0557 274.641 30.4209 274.641 27.4502L274.641 16.1299L271.582 16.1299L271.582 27.9951C271.582 32.1611 273.902 34.7627 277.91 34.7627ZM34.4707 18.4854C37.1426 18.4854 39.1113 20.1553 39.4102 23.7061L29.4082 23.7061C29.7422 20.2959 31.8164 18.4854 34.4707 18.4854ZM106.488 32.0557C103.254 32.0557 101.127 29.5771 101.127 25.2705L101.127 25.2354C101.127 20.9639 103.271 18.4854 106.453 18.4854C109.688 18.4854 111.797 20.9463 111.797 25.2354L111.797 25.2705C111.797 29.5596 109.705 32.0557 106.488 32.0557ZM158.168 25.2705C158.168 29.4717 160.172 32.0557 163.406 32.0557C166.5 32.0557 168.697 29.3662 168.697 25.2705L168.697 25.2529C168.697 21.1748 166.482 18.4854 163.406 18.4854C160.172 18.4854 158.168 21.0869 158.168 25.2529L158.168 25.2705ZM254.795 25.2705C254.795 29.5771 256.922 32.0557 260.156 32.0557C263.373 32.0557 265.465 29.5596 265.465 25.2705L265.465 25.2354C265.465 20.9463 263.355 18.4854 260.121 18.4854C256.939 18.4854 254.795 20.9639 254.795 25.2354L254.795 25.2705ZM317.074 32.0557C313.84 32.0557 311.836 29.4717 311.836 25.2705L311.836 25.2529C311.836 21.0869 313.84 18.4854 317.074 18.4854C320.15 18.4854 322.365 21.1748 322.365 25.2529L322.365 25.2705C322.365 29.3662 320.168 32.0557 317.074 32.0557ZM47.9883 29.208L47.9883 29.2432C47.9883 31.001 49.4297 32.1084 51.627 32.1084C54.5098 32.1084 56.7246 30.1221 56.7246 27.4678L56.7246 25.9736L51.8379 26.2725C49.3945 26.4131 47.9883 27.5029 47.9883 29.208ZM185.643 29.2432L185.643 29.208C185.643 27.5029 187.049 26.4131 189.492 26.2725L194.379 25.9736L194.379 27.4678C194.379 30.1221 192.164 32.1084 189.281 32.1084C187.084 32.1084 185.643 31.001 185.643 29.2432ZM225.791 29.208L225.791 29.2432C225.791 31.001 227.232 32.1084 229.43 32.1084C232.312 32.1084 234.527 30.1221 234.527 27.4678L234.527 25.9736L229.641 26.2725C227.197 26.4131 225.791 27.5029 225.791 29.208ZM333.422 32.6533C333.422 33.7783 332.543 34.6572 331.418 34.6572C330.293 34.6572 329.414 33.7783 329.414 32.6533C329.414 31.5283 330.293 30.6494 331.418 30.6494C332.543 30.6494 333.422 31.5283 333.422 32.6533Z" />
  </g>
</svg>