<?xml version="1.0" encoding="utf-8"?>
<svg width="589px" height="177px" viewBox="0 0 589 177" version="1.1" xmlns:xlink="http://www.w3.org/1999/xlink" xmlns="http://www.w3.org/2000/svg">
  <defs>
    <path d="M0 0L100 0L100 119.394L0 119.394L0 0Z" id="path_1" />
    <clipPath id="mask_1">
      <use xlink:href="#path_1" />
    </clipPath>
  </defs>
  <g id="Group">
    <g id="apple-13">
      <path d="M0 0L100 0L100 119.394L0 119.394L0 0Z" id="Background" fill="none" fill-rule="evenodd" stroke="none" />
      <g clip-path="url(#mask_1)">
        <path d="M83.6079 62.8853C83.5547 53.135 87.9649 45.7758 96.8916 40.356C91.8969 33.2094 84.3518 29.2774 74.389 28.5069C64.9575 27.763 54.6493 34.0064 50.8767 34.0064C46.8916 34.0064 37.7524 28.7726 30.5792 28.7726C15.7545 29.0117 0 40.5951 0 64.1605C0 71.1212 1.27524 78.3122 3.82572 85.7334C7.22636 95.4836 19.5005 119.394 32.3061 118.996C39.0011 118.836 43.7301 114.24 52.4442 114.24C60.8927 114.24 65.2763 118.996 72.7418 118.996C85.6536 118.81 96.7588 97.0777 100 87.3008C82.678 79.1446 83.6079 63.3901 83.6079 62.8853L83.6079 62.8853ZM68.5707 19.2614C75.8236 10.6536 75.1594 2.81615 74.9469 0C68.5441 0.371945 61.1318 4.35707 56.9075 9.27206C52.2582 14.5324 49.5218 21.0415 50.1063 28.3741C57.0404 28.9054 63.3634 25.3454 68.5707 19.2614L68.5707 19.2614Z" id="Shape" fill="#000000" fill-rule="evenodd" stroke="none" />
      </g>
    </g>
    <g id="Watch-7" transform="translate(115 14.0000305)">
      <path d="M43.9453 104.483L25.9399 104.483L2.62451 16.4092L21.7285 16.4092L35.6445 79.5195L36.0107 79.5195L52.2461 16.4092L68.4204 16.4092L84.6558 79.5195L85.022 79.5195L98.999 16.4092L118.103 16.4092L94.7266 104.483L76.7212 104.483L60.5469 45.4619L60.1807 45.4619L43.9453 104.483ZM307.861 104.483L325.684 104.483L325.684 67.0073C325.684 58.4624 330.75 52.481 338.623 52.481C346.741 52.481 351.257 57.9131 351.257 67.0684L351.257 104.483L369.08 104.483L369.08 63.4062C369.08 47.5981 360.291 37.7104 346.13 37.7104C336.304 37.7104 329.407 42.2271 326.05 50.3447L325.684 50.3447L325.684 16.4092L307.861 16.4092L307.861 104.483ZM429.565 104.483L410.217 104.483L448.12 31.4238L448.12 31.0576L403.32 31.0576L403.32 16.4092L466.309 16.4092L466.309 31.2407L429.565 104.483ZM220.886 105.826C224.609 105.826 227.478 105.459 229.492 105.154L229.492 92.0928C228.394 92.2148 227.234 92.3979 225.647 92.3979C220.276 92.3979 217.529 90.3228 217.529 84.2192L217.529 52.481L229.492 52.481L229.492 39.0532L217.529 39.0532L217.529 23.062L199.524 23.062L199.524 39.0532L190.43 39.0532L190.43 52.481L199.524 52.481L199.524 86.1724C199.524 100.21 206.36 105.826 220.886 105.826ZM165.222 94.7173C161.499 101.431 154.541 105.521 145.935 105.521C132.812 105.521 123.962 97.2808 123.962 85.7451L123.962 85.623C123.962 73.7212 133.179 66.7632 149.414 65.7256L165.588 64.749L165.588 60.7207C165.588 54.9224 161.804 51.3213 154.846 51.3213C148.193 51.3213 144.165 54.4341 143.311 58.6455L143.188 59.1948L126.892 59.1948L126.953 58.4624C127.93 46.3774 138.306 37.7104 155.579 37.7104C172.485 37.7104 183.411 46.4385 183.411 59.6221L183.411 104.483L165.588 104.483L165.588 94.7173L165.222 94.7173ZM298.828 80.6792C297.974 94.9614 286.682 105.826 269.226 105.826C249.268 105.826 236.938 92.8252 236.938 71.707L236.938 71.646C236.938 50.7109 249.451 37.7104 269.043 37.7104C286.804 37.7104 298.096 48.6357 298.767 62.7959L298.767 63.2231L282.227 63.2231L282.104 62.6738C281.006 56.4482 276.672 51.6875 269.287 51.6875C260.559 51.6875 255.066 59.1948 255.066 71.707L255.066 71.7681C255.066 84.5854 260.559 91.8486 269.348 91.8486C276.489 91.8486 280.945 87.4541 282.166 80.8623L282.227 80.313L298.828 80.313L298.828 80.6792ZM141.602 84.7075L141.602 84.8296C141.602 89.6514 145.569 92.52 151.733 92.52C159.729 92.52 165.588 87.3931 165.588 80.5571L165.588 75.8574L152.1 76.7119C145.203 77.1392 141.602 80.0688 141.602 84.7075Z" />
    </g>
  </g>
  <g id="Full-screen-ahead." transform="translate(158.5 133.00003)">
    <path d="M5.625 34.4111L2.46094 34.4111L2.46094 9.0459L17.8594 9.0459L17.8594 11.8936L5.625 11.8936L5.625 20.6123L16.8574 20.6123L16.8574 23.4248L5.625 23.4248L5.625 34.4111ZM40.1133 34.4111L43.1719 34.4111L43.1719 9.0459L40.1133 9.0459L40.1133 34.4111ZM50.5195 34.4111L47.4609 34.4111L47.4609 9.0459L50.5195 9.0459L50.5195 34.4111ZM192.428 34.4111L189.369 34.4111L189.369 9.0459L192.428 9.0459L192.428 19.0479L192.498 19.0479C193.482 16.9912 195.469 15.7783 198.193 15.7783C202.078 15.7783 204.732 18.7842 204.732 23.2139L204.732 34.4111L201.674 34.4111L201.674 23.7412C201.674 20.4365 199.986 18.4854 197.139 18.4854C194.309 18.4854 192.428 20.6299 192.428 23.7412L192.428 34.4111ZM252 34.7627C254.619 34.7627 256.658 33.4443 257.801 31.3174L257.871 31.3174L257.871 34.4111L260.93 34.4111L260.93 9.0459L257.871 9.0459L257.871 19.1885L257.801 19.1885C256.658 17.0791 254.531 15.7783 251.947 15.7783C247.359 15.7783 244.23 19.4873 244.23 25.2529L244.23 25.2705C244.23 31.0361 247.324 34.7627 252 34.7627ZM68.5195 34.7627C72.5977 34.7627 75.6211 32.5127 75.6211 29.3135L75.6211 29.2959C75.6211 26.6943 74.2852 25.2354 70.5938 24.3389L67.6934 23.6357C65.6719 23.1436 64.8457 22.2822 64.8457 21.0342L64.8457 21.0166C64.8457 19.3994 66.2168 18.3271 68.4316 18.3271C70.6992 18.3271 72.0527 19.5049 72.2988 21.2803L72.3164 21.4033L75.2344 21.4033L75.2168 21.1748C74.9883 18.1162 72.4395 15.7783 68.4316 15.7783C64.4766 15.7783 61.7168 18.0107 61.7168 21.1572L61.7168 21.1748C61.7168 23.8115 63.3867 25.4111 66.832 26.2373L69.7324 26.9404C71.8066 27.4502 72.4922 28.1885 72.4922 29.5068L72.4922 29.5244C72.4922 31.1768 71.0156 32.2139 68.5371 32.2139C66.041 32.2139 64.6875 31.1416 64.3184 29.3135L64.2832 29.1377L61.2246 29.1377L61.2422 29.2959C61.6113 32.5654 64.2129 34.7627 68.5195 34.7627ZM93.9902 28.5928C93.498 32.0732 90.4922 34.7627 86.3613 34.7627C81.1758 34.7627 77.8887 31.0713 77.8887 25.2529L77.8887 25.2354C77.8887 19.4697 81.2461 15.7783 86.3262 15.7783C90.8789 15.7783 93.5684 18.8018 93.9551 21.9307L93.9727 22.0713L90.9844 22.0713L90.9492 21.9307C90.4922 20.1025 89.0156 18.4854 86.3262 18.4854C83.1445 18.4854 81.0176 21.1221 81.0176 25.2705L81.0176 25.2881C81.0176 29.542 83.1973 32.0557 86.3613 32.0557C88.8574 32.0557 90.457 30.6494 90.9668 28.6104L91.002 28.4697L94.0078 28.4697L93.9902 28.5928ZM96.8203 34.4111L99.8789 34.4111L99.8789 23.126C99.8789 20.3486 101.426 18.6963 103.799 18.6963C104.537 18.6963 105.188 18.7842 105.434 18.8721L105.434 15.9014C105.188 15.8662 104.73 15.7783 104.203 15.7783C102.146 15.7783 100.564 17.1143 99.9492 19.2236L99.8789 19.2236L99.8789 16.1299L96.8203 16.1299L96.8203 34.4111ZM123.012 29.3486C122.414 32.3721 119.426 34.7627 115.436 34.7627C110.18 34.7627 107.016 31.0889 107.016 25.3408L107.016 25.3232C107.016 19.6631 110.25 15.7783 115.242 15.7783C120.234 15.7783 123.275 19.4873 123.275 24.9717L123.275 26.0967L110.109 26.0967C110.18 29.8584 112.254 32.0557 115.506 32.0557C117.826 32.0557 119.461 30.8955 119.988 29.3311L120.041 29.1729L123.047 29.1729L123.012 29.3486ZM133.875 34.7627C137.865 34.7627 140.854 32.3721 141.451 29.3486L141.486 29.1729L138.48 29.1729L138.428 29.3311C137.9 30.8955 136.266 32.0557 133.945 32.0557C130.693 32.0557 128.619 29.8584 128.549 26.0967L141.715 26.0967L141.715 24.9717C141.715 19.4873 138.674 15.7783 133.682 15.7783C128.689 15.7783 125.455 19.6631 125.455 25.3232L125.455 25.3408C125.455 31.0889 128.619 34.7627 133.875 34.7627ZM147.85 34.4111L144.791 34.4111L144.791 16.1299L147.85 16.1299L147.85 18.7314L147.92 18.7314C148.904 17.0264 150.768 15.7783 153.545 15.7783C157.553 15.7783 159.873 18.3799 159.873 22.5459L159.873 34.4111L156.814 34.4111L156.814 23.0908C156.814 20.1201 155.426 18.4854 152.613 18.4854C149.73 18.4854 147.85 20.542 147.85 23.6533L147.85 34.4111ZM176.484 34.7627C178.928 34.7627 181.125 33.4443 182.197 31.4404L182.268 31.4404L182.268 34.4111L185.326 34.4111L185.326 21.7725C185.326 18.1162 182.619 15.7783 178.295 15.7783C173.988 15.7783 171.369 18.2041 171.105 21.21L171.088 21.4033L174.041 21.4033L174.076 21.2451C174.428 19.6104 175.904 18.4854 178.26 18.4854C180.809 18.4854 182.268 19.8389 182.268 22.0713L182.268 23.6006L177.029 23.8994C172.828 24.1455 170.402 26.0967 170.402 29.208L170.402 29.2432C170.402 32.5654 172.846 34.7627 176.484 34.7627ZM216.141 34.7627C220.131 34.7627 223.119 32.3721 223.717 29.3486L223.752 29.1729L220.746 29.1729L220.693 29.3311C220.166 30.8955 218.531 32.0557 216.211 32.0557C212.959 32.0557 210.885 29.8584 210.814 26.0967L223.98 26.0967L223.98 24.9717C223.98 19.4873 220.939 15.7783 215.947 15.7783C210.955 15.7783 207.721 19.6631 207.721 25.3232L207.721 25.3408C207.721 31.0889 210.885 34.7627 216.141 34.7627ZM238.113 31.4404C237.041 33.4443 234.844 34.7627 232.4 34.7627C228.762 34.7627 226.318 32.5654 226.318 29.2432L226.318 29.208C226.318 26.0967 228.744 24.1455 232.945 23.8994L238.184 23.6006L238.184 22.0713C238.184 19.8389 236.725 18.4854 234.176 18.4854C231.82 18.4854 230.344 19.6104 229.992 21.2451L229.957 21.4033L227.004 21.4033L227.021 21.21C227.285 18.2041 229.904 15.7783 234.211 15.7783C238.535 15.7783 241.242 18.1162 241.242 21.7725L241.242 34.4111L238.184 34.4111L238.184 31.4404L238.113 31.4404ZM32.8535 31.8096C31.8691 33.5146 30.0059 34.7627 27.2285 34.7627C23.2207 34.7627 20.9004 32.1611 20.9004 27.9951L20.9004 16.1299L23.959 16.1299L23.959 27.4502C23.959 30.4209 25.3477 32.0557 28.1602 32.0557C31.043 32.0557 32.9238 29.999 32.9238 26.8877L32.9238 16.1299L35.9824 16.1299L35.9824 34.4111L32.9238 34.4111L32.9238 31.8096L32.8535 31.8096ZM120.164 23.7061C119.865 20.1553 117.896 18.4854 115.225 18.4854C112.57 18.4854 110.496 20.2959 110.162 23.7061L120.164 23.7061ZM133.664 18.4854C136.336 18.4854 138.305 20.1553 138.604 23.7061L128.602 23.7061C128.936 20.2959 131.01 18.4854 133.664 18.4854ZM215.93 18.4854C218.602 18.4854 220.57 20.1553 220.869 23.7061L210.867 23.7061C211.201 20.2959 213.275 18.4854 215.93 18.4854ZM252.598 32.0557C249.363 32.0557 247.359 29.4717 247.359 25.2705L247.359 25.2529C247.359 21.0869 249.363 18.4854 252.598 18.4854C255.674 18.4854 257.889 21.1748 257.889 25.2529L257.889 25.2705C257.889 29.3662 255.691 32.0557 252.598 32.0557ZM173.531 29.2432L173.531 29.208C173.531 27.5029 174.938 26.4131 177.381 26.2725L182.268 25.9736L182.268 27.4678C182.268 30.1221 180.053 32.1084 177.17 32.1084C174.973 32.1084 173.531 31.001 173.531 29.2432ZM229.447 29.208L229.447 29.2432C229.447 31.001 230.889 32.1084 233.086 32.1084C235.969 32.1084 238.184 30.1221 238.184 27.4678L238.184 25.9736L233.297 26.2725C230.854 26.4131 229.447 27.5029 229.447 29.208ZM268.945 32.6533C268.945 33.7783 268.066 34.6572 266.941 34.6572C265.816 34.6572 264.938 33.7783 264.938 32.6533C264.938 31.5283 265.816 30.6494 266.941 30.6494C268.066 30.6494 268.945 31.5283 268.945 32.6533Z" />
  </g>
</svg>