<?xml version="1.0" encoding="utf-8"?>
<svg width="440.54828px" height="136px" viewBox="0 0 440.54828 136" version="1.1" xmlns:xlink="http://www.w3.org/1999/xlink" xmlns="http://www.w3.org/2000/svg">
  <defs>
    <path d="M0 0L76.5483 0L76.5483 91.3943L0 91.3943L0 0Z" id="path_1" />
    <clipPath id="mask_1">
      <use xlink:href="#path_1" />
    </clipPath>
  </defs>
  <g id="Group-4">
    <g id="apple-13" transform="translate(0 22.99997)">
      <path d="M0 0L76.5483 0L76.5483 91.3943L0 91.3943L0 0Z" id="Background" fill="none" fill-rule="evenodd" stroke="none" />
      <g clip-path="url(#mask_1)">
        <path d="M64.0004 48.1376C63.9597 40.6739 67.3357 35.0406 74.1689 30.8918C70.3455 25.4212 64.5698 22.4113 56.9435 21.8215C49.7239 21.2521 41.8331 26.0313 38.9453 26.0313C35.8947 26.0313 28.8988 22.0249 23.4078 22.0249C12.0598 22.2079 0 31.0749 0 49.1138C0 54.442 0.976174 59.9466 2.92852 65.6274C5.53165 73.091 14.9273 91.3943 24.7297 91.0893C29.8547 90.9672 33.4746 87.449 40.1451 87.449C46.6123 87.449 49.9679 91.0893 55.6826 91.0893C65.5663 90.9469 74.0672 74.3113 76.5483 66.8273C63.2886 60.5838 64.0004 48.524 64.0004 48.1376L64.0004 48.1376ZM52.4897 14.7443C58.0417 8.15512 57.5333 2.15572 57.3706 0C52.4694 0.284718 46.7954 3.33526 43.5618 7.0976C40.0028 11.1243 37.9081 16.1069 38.3555 21.7199C43.6635 22.1266 48.5037 19.4015 52.4897 14.7443L52.4897 14.7443Z" id="Shape" fill="#000000" fill-rule="evenodd" stroke="none" />
      </g>
    </g>
    <g id="Pencil" transform="translate(91.54828 0)">
      <path d="M301.819 39.1304C307.19 39.1304 311.34 34.9189 311.34 29.853C311.34 24.7871 307.19 20.5757 301.819 20.5757C296.448 20.5757 292.297 24.7871 292.297 29.853C292.297 34.9189 296.448 39.1304 301.819 39.1304ZM25.7568 112.983L7.32422 112.983L7.32422 24.9092L42.7246 24.9092C61.2793 24.9092 73.6694 36.8721 73.6694 54.9995L73.6694 55.1216C73.6694 73.249 61.2793 85.2119 42.7246 85.2119L25.7568 85.2119L25.7568 112.983ZM340.881 112.983L323.059 112.983L323.059 24.9092L340.881 24.9092L340.881 112.983ZM54.9927 55.0605C54.9927 45.0508 48.7671 39.4966 38.208 39.4966L25.7568 39.4966L25.7568 70.8076L38.208 70.8076C48.7671 70.8076 54.9927 65.1924 54.9927 55.1826L54.9927 55.0605ZM142.517 93.6348C140.503 103.278 131.47 114.326 112.793 114.326C92.7734 114.326 80.6274 101.325 80.6274 80.3901L80.6274 80.3291C80.6274 59.5161 92.8955 46.2104 112.061 46.2104C131.226 46.2104 143.25 59.2109 143.25 78.9863L143.25 84.4795L98.2056 84.4795C98.3887 94.9165 104.065 101.02 113.159 101.02C120.483 101.02 124.939 96.9917 126.221 93.3296L126.343 92.9634L142.7 92.9634L142.517 93.6348ZM152.405 112.983L170.227 112.983L170.227 75.3853C170.227 66.8403 175.293 60.981 183.289 60.981C191.284 60.981 195.312 65.8638 195.312 74.4087L195.312 112.983L213.135 112.983L213.135 70.7466C213.135 55.4268 204.956 46.2104 190.552 46.2104C180.664 46.2104 173.95 50.7881 170.593 58.2954L170.227 58.2954L170.227 47.5532L152.405 47.5532L152.405 112.983ZM283.936 89.1792C283.081 103.461 271.79 114.326 254.333 114.326C234.375 114.326 222.046 101.325 222.046 80.207L222.046 80.146C222.046 59.2109 234.558 46.2104 254.15 46.2104C271.912 46.2104 283.203 57.1357 283.875 71.2959L283.875 71.7231L267.334 71.7231L267.212 71.1738C266.113 64.9482 261.78 60.1875 254.395 60.1875C245.667 60.1875 240.173 67.6948 240.173 80.207L240.173 80.2681C240.173 93.0854 245.667 100.349 254.456 100.349C261.597 100.349 266.052 95.9541 267.273 89.3623L267.334 88.813L283.936 88.813L283.936 89.1792ZM126.16 73.249C125.061 64.2158 119.751 59.5161 112.366 59.5161C105.042 59.5161 99.5483 64.3989 98.3887 73.249L126.16 73.249ZM292.908 112.983L310.73 112.983L310.73 47.5532L292.908 47.5532L292.908 112.983Z" />
    </g>
  </g>
</svg>